<?xml version="1.0" encoding="UTF-8"?>
<!-- Created with Inkscape (http://www.inkscape.org/) -->
<svg width="55.268mm" height="80.282mm" version="1.1" viewBox="0 0 55.268 80.282" xmlns="http://www.w3.org/2000/svg">
 <g transform="translate(-3182.1 988.22)" fill="none" stroke="#000">
  <g transform="matrix(.26458 0 0 .26458 3104.6 -1111.3)" style="paint-order:normal">
   <path d="m399.77 468.36 6.923 0.0108 9.706 9.9712h15.517l10.066-9.9852 12.994 0.0184 2.8445 2.8832 2.2653-2.4057-3.3589-3.4993-16.453-2e-3 -9.9377 10.369-12.435-5e-3 -7.238-7.3415 19.69-5e-3 3.1335 3.1715 2.1644-2.2846-3.7145-3.9097-32.174-2e-3z" style="paint-order:normal"/>
   <path d="m498.9 615.86-0.0108-6.923-9.9712-9.706v-15.517l9.9852-10.066-0.0184-12.994-2.8832-2.8445 2.4057-2.2653 3.4993 3.3589 2e-3 16.453-10.369 9.9377 5e-3 12.435 7.3415 7.238 5e-3 -19.69-2.9975-2.8726 2.2411-2.2949 3.7792 3.584 2e-3 32.174z" style="paint-order:normal"/>
   <path d="m438.72 472.46-2.2084 2.1234 3.7461 3.7347 16.447 6e-3 9.3674-9.9659 15.916 0.0781 3.0236 3.1368 3.2684 0.56341-0.38176-2.1477-4.4937-4.6534-19.079 0.0158-9.3507 10.386-12.958-0.0222z" style="paint-order:normal"/>
   <path d="m463.14 472.72-2.2714 2.2512 8.0561 8.3045 0.48435 0.0636 2.0214-3.0368-0.94549 0.0605z" style="paint-order:normal"/>
   <path d="m501.82 465.37-14.2-6e-3 4.2274 22.126-4.1844 2.294 6e-3 4.4703 8.2219-4.9113-4.4174-20.939 7.4228-0.0236-7e-3 6.3354-5.7559-1.4077 0.61855 2.8889 8.0624 2.1388z" style="paint-order:normal"/>
   <path d="m488.36 472.69 0.67311 3.1702-9.8021-1.4562-11.035 19.382 4.1608 4.3688 10.298-5.8251v3.8488l-10.402 6.3452-8.5297-8.5297 14.043-22.988z" style="paint-order:normal"/>
   <path d="m477.11 480.14 9.287 0.0125 0.10402 16.123 8.1136 7.3854-2.3925 2.1844-8.785-8.3745 0.0778-14.364-8.344 0.11649z" style="paint-order:normal"/>
   <path d="m495.91 477.65-1.9334-0.38557 0.88632 3.6837 3.9639 3.7447 0.0679 15.681-10.36 10.629 0.0171 15.459 4.0801 3.6958 2.2504-2.1464-3.4412-3.1354-0.0466-12.419 10.42-10.523-0.0555-18.344z" style="paint-order:normal"/>
   <path d="m495.53 509.08 2.1365-2.2733 4.1664 4.2038-0.0181 15.407-10.372 10.684 0.061 12.018 3.084 3.0197-2.0462 2.1138-4.0307-3.7326-6e-3 -15.23 10.396-10.457 0.0112-12.391z" style="paint-order:normal"/>
   <path d="m495.64 533.75 2.3009-2.3994 3.8002 3.9291 0.0735 15.224-10.402 10.836 0.0305 12.079 3.2085 3.4108-2.1939 2.2015-3.9465-4.1809 0.0249-15.291 10.396-10.457-0.0804-11.994z" style="paint-order:normal"/>
  </g>
  <g transform="matrix(.26458 0 0 -.26458 3104.6 -784.82)" style="paint-order:normal">
   <path d="m399.77 468.36 6.923 0.0108 9.706 9.9712h15.517l10.066-9.9852 12.994 0.0184 2.8445 2.8832 2.2653-2.4057-3.3589-3.4993-16.453-2e-3 -9.9377 10.369-12.435-5e-3 -7.238-7.3415 19.69-5e-3 3.1335 3.1715 2.1644-2.2846-3.7145-3.9097-32.174-2e-3z" style="paint-order:normal"/>
   <path d="m498.9 615.86-0.0108-6.923-9.9712-9.706v-15.517l9.9852-10.066-0.0184-12.994-2.8832-2.8445 2.4057-2.2653 3.4993 3.3589 2e-3 16.453-10.369 9.9377 5e-3 12.435 7.3415 7.238 5e-3 -19.69-2.9975-2.8726 2.2411-2.2949 3.7792 3.584 2e-3 32.174z" style="paint-order:normal"/>
   <path d="m438.72 472.46-2.2084 2.1234 3.7461 3.7347 16.447 6e-3 9.3674-9.9659 15.916 0.0781 3.0236 3.1368 3.2684 0.56341-0.38176-2.1477-4.4937-4.6534-19.079 0.0158-9.3507 10.386-12.958-0.0222z" style="paint-order:normal"/>
   <path d="m463.14 472.72-2.2714 2.2512 8.0561 8.3045 0.48435 0.0636 2.0214-3.0368-0.94549 0.0605z" style="paint-order:normal"/>
   <path d="m501.82 465.37-14.2-6e-3 4.2274 22.126-4.1844 2.294 6e-3 4.4703 8.2219-4.9113-4.4174-20.939 7.4228-0.0236-7e-3 6.3354-5.7559-1.4077 0.61855 2.8889 8.0624 2.1388z" style="paint-order:normal"/>
   <path d="m488.36 472.69 0.67311 3.1702-9.8021-1.4562-11.035 19.382 4.1608 4.3688 10.298-5.8251v3.8488l-10.402 6.3452-8.5297-8.5297 14.043-22.988z" style="paint-order:normal"/>
   <path d="m477.11 480.14 9.287 0.0125 0.10402 16.123 8.1136 7.3854-2.3925 2.1844-8.785-8.3745 0.0778-14.364-8.344 0.11649z" style="paint-order:normal"/>
   <path d="m495.91 477.65-1.9334-0.38557 0.88632 3.6837 3.9639 3.7447 0.0679 15.681-10.36 10.629 0.0171 15.459 4.0801 3.6958 2.2504-2.1464-3.4412-3.1354-0.0466-12.419 10.42-10.523-0.0555-18.344z" style="paint-order:normal"/>
   <path d="m495.53 509.08 2.1365-2.2733 4.1664 4.2038-0.0181 15.407-10.372 10.684 0.061 12.018 3.084 3.0197-2.0462 2.1138-4.0307-3.7326-6e-3 -15.23 10.396-10.457 0.0112-12.391z" style="paint-order:normal"/>
   <path d="m495.64 533.75 2.3009-2.3994 3.8002 3.9291 0.0735 15.224-10.402 10.836 0.0305 12.079 3.2085 3.4108-2.1939 2.2015-3.9465-4.1809 0.0249-15.291 10.396-10.457-0.0804-11.994z" style="paint-order:normal"/>
  </g>
  <g transform="matrix(-.26458 0 0 -.26458 3314.9 -784.88)" style="paint-order:normal">
   <path d="m399.77 468.36 6.923 0.0108 9.706 9.9712h15.517l10.066-9.9852 12.994 0.0184 2.8445 2.8832 2.2653-2.4057-3.3589-3.4993-16.453-2e-3 -9.9377 10.369-12.435-5e-3 -7.238-7.3415 19.69-5e-3 3.1335 3.1715 2.1644-2.2846-3.7145-3.9097-32.174-2e-3z" style="paint-order:normal"/>
   <path d="m498.9 615.86-0.0108-6.923-9.9712-9.706v-15.517l9.9852-10.066-0.0184-12.994-2.8832-2.8445 2.4057-2.2653 3.4993 3.3589 2e-3 16.453-10.369 9.9377 5e-3 12.435 7.3415 7.238 5e-3 -19.69-2.9975-2.8726 2.2411-2.2949 3.7792 3.584 2e-3 32.174z" style="paint-order:normal"/>
   <path d="m438.72 472.46-2.2084 2.1234 3.7461 3.7347 16.447 6e-3 9.3674-9.9659 15.916 0.0781 3.0236 3.1368 3.2684 0.56341-0.38176-2.1477-4.4937-4.6534-19.079 0.0158-9.3507 10.386-12.958-0.0222z" style="paint-order:normal"/>
   <path d="m463.14 472.72-2.2714 2.2512 8.0561 8.3045 0.48435 0.0636 2.0214-3.0368-0.94549 0.0605z" style="paint-order:normal"/>
   <path d="m501.82 465.37-14.2-6e-3 4.2274 22.126-4.1844 2.294 6e-3 4.4703 8.2219-4.9113-4.4174-20.939 7.4228-0.0236-7e-3 6.3354-5.7559-1.4077 0.61855 2.8889 8.0624 2.1388z" style="paint-order:normal"/>
   <path d="m488.36 472.69 0.67311 3.1702-9.8021-1.4562-11.035 19.382 4.1608 4.3688 10.298-5.8251v3.8488l-10.402 6.3452-8.5297-8.5297 14.043-22.988z" style="paint-order:normal"/>
   <path d="m477.11 480.14 9.287 0.0125 0.10402 16.123 8.1136 7.3854-2.3925 2.1844-8.785-8.3745 0.0778-14.364-8.344 0.11649z" style="paint-order:normal"/>
   <path d="m495.91 477.65-1.9334-0.38557 0.88632 3.6837 3.9639 3.7447 0.0679 15.681-10.36 10.629 0.0171 15.459 4.0801 3.6958 2.2504-2.1464-3.4412-3.1354-0.0466-12.419 10.42-10.523-0.0555-18.344z" style="paint-order:normal"/>
   <path d="m495.53 509.08 2.1365-2.2733 4.1664 4.2038-0.0181 15.407-10.372 10.684 0.061 12.018 3.084 3.0197-2.0462 2.1138-4.0307-3.7326-6e-3 -15.23 10.396-10.457 0.0112-12.391z" style="paint-order:normal"/>
   <path d="m495.64 533.75 2.3009-2.3994 3.8002 3.9291 0.0735 15.224-10.402 10.836 0.0305 12.079 3.2085 3.4108-2.1939 2.2015-3.9465-4.1809 0.0249-15.291 10.396-10.457-0.0804-11.994z" style="paint-order:normal"/>
  </g>
  <g transform="matrix(-.26458 0 0 .26458 3314.9 -1111.3)" style="paint-order:normal">
   <path d="m399.77 468.36 6.923 0.0108 9.706 9.9712h15.517l10.066-9.9852 12.994 0.0184 2.8445 2.8832 2.2653-2.4057-3.3589-3.4993-16.453-2e-3 -9.9377 10.369-12.435-5e-3 -7.238-7.3415 19.69-5e-3 3.1335 3.1715 2.1644-2.2846-3.7145-3.9097-32.174-2e-3z" style="paint-order:normal"/>
   <path d="m498.9 615.86-0.0108-6.923-9.9712-9.706v-15.517l9.9852-10.066-0.0184-12.994-2.8832-2.8445 2.4057-2.2653 3.4993 3.3589 2e-3 16.453-10.369 9.9377 5e-3 12.435 7.3415 7.238 5e-3 -19.69-2.9975-2.8726 2.2411-2.2949 3.7792 3.584 2e-3 32.174z" style="paint-order:normal"/>
   <path d="m438.72 472.46-2.2084 2.1234 3.7461 3.7347 16.447 6e-3 9.3674-9.9659 15.916 0.0781 3.0236 3.1368 3.2684 0.56341-0.38176-2.1477-4.4937-4.6534-19.079 0.0158-9.3507 10.386-12.958-0.0222z" style="paint-order:normal"/>
   <path d="m463.14 472.72-2.2714 2.2512 8.0561 8.3045 0.48435 0.0636 2.0214-3.0368-0.94549 0.0605z" style="paint-order:normal"/>
   <path d="m501.82 465.37-14.2-6e-3 4.2274 22.126-4.1844 2.294 6e-3 4.4703 8.2219-4.9113-4.4174-20.939 7.4228-0.0236-7e-3 6.3354-5.7559-1.4077 0.61855 2.8889 8.0624 2.1388z" style="paint-order:normal"/>
   <path d="m488.36 472.69 0.67311 3.1702-9.8021-1.4562-11.035 19.382 4.1608 4.3688 10.298-5.8251v3.8488l-10.402 6.3452-8.5297-8.5297 14.043-22.988z" style="paint-order:normal"/>
   <path d="m477.11 480.14 9.287 0.0125 0.10402 16.123 8.1136 7.3854-2.3925 2.1844-8.785-8.3745 0.0778-14.364-8.344 0.11649z" style="paint-order:normal"/>
   <path d="m495.91 477.65-1.9334-0.38557 0.88632 3.6837 3.9639 3.7447 0.0679 15.681-10.36 10.629 0.0171 15.459 4.0801 3.6958 2.2504-2.1464-3.4412-3.1354-0.0466-12.419 10.42-10.523-0.0555-18.344z" style="paint-order:normal"/>
   <path d="m495.53 509.08 2.1365-2.2733 4.1664 4.2038-0.0181 15.407-10.372 10.684 0.061 12.018 3.084 3.0197-2.0462 2.1138-4.0307-3.7326-6e-3 -15.23 10.396-10.457 0.0112-12.391z" style="paint-order:normal"/>
   <path d="m495.64 533.75 2.3009-2.3994 3.8002 3.9291 0.0735 15.224-10.402 10.836 0.0305 12.079 3.2085 3.4108-2.1939 2.2015-3.9465-4.1809 0.0249-15.291 10.396-10.457-0.0804-11.994z" style="paint-order:normal"/>
  </g>
 </g>
</svg>
