<?xml version="1.0" encoding="UTF-8"?>
<!-- Created with Inkscape (http://www.inkscape.org/) -->
<svg width="250" height="241.27" version="1.1" viewBox="0 0 250 241.27" xmlns="http://www.w3.org/2000/svg">
 <g transform="translate(-108.7 -116.55)">
  <g transform="matrix(.55646 0 0 .55646 48.212 51.693)" fill="none">
   <path transform="matrix(1.3333 0 0 -1.3333 0 666.67)" d="m248.02 385.58h-120.54v1.226h120.54z"/>
   <path transform="matrix(1.3333 0 0 -1.3333 0 666.67)" d="m372.35 385.58h-120.54v1.226h120.54z"/>
   <path transform="matrix(1.3333 0 0 -1.3333 0 666.67)" d="m248.02 113.29h-120.54v1.226h120.54z"/>
   <path transform="matrix(1.3333 0 0 -1.3333 0 666.67)" d="m372.35 113.29h-120.54v1.226h120.54z"/>
   <path transform="matrix(1.3333 0 0 -1.3333 0 666.67)" d="m391.45 367.13h1.226v-115.19h-1.226z"/>
   <path transform="matrix(1.3333 0 0 -1.3333 0 666.67)" d="m391.45 248.15h1.226v-115.26h-1.226z"/>
   <path transform="matrix(1.3333 0 0 -1.3333 0 666.67)" d="m107.16 367.65h1.226v-115.71h-1.226z"/>
   <path transform="matrix(1.3333 0 0 -1.3333 0 666.67)" d="m107.16 248.15h1.226v-115.37h-1.226z"/>
   <path transform="matrix(1.3333 0 0 -1.3333 0 666.67)" d="m125.32 115.69v15.27h-15.27v-9.867h1.2v8.666h12.869v-12.868h-8.803v-1.201h8.803z"/>
   <path transform="matrix(1.3333 0 0 -1.3333 0 666.67)" d="m110.05 119.89h4.065v-4.203h1.201v5.403h-5.266z"/>
   <path transform="matrix(1.3333 0 0 -1.3333 0 666.67)" d="m100.14 124.12v-2.402h1.201v8.043h6.202v-6.202h-5.566v-1.201h6.767v8.605h-8.604z"/>
   <path transform="matrix(1.3333 0 0 -1.3333 0 666.67)" d="m101.35 116.19v3.085h-1.201v-4.238h1.201v0.969z"/>
   <path transform="matrix(1.3333 0 0 -1.3333 0 666.67)" d="m99.733 101.31v4.218h-6.648v-1.2h5.447v-3.018z"/>
   <path transform="matrix(1.3333 0 0 -1.3333 0 666.67)" d="m110.09 105.8v1.201l-3.091 1e-3v2e-3l-5.653 6e-3v5.575h-1.201v-6.774l6.539-7e-3v-3e-3z"/>
   <path transform="matrix(1.3333 0 0 -1.3333 0 666.67)" d="m107 117.77h-5.017v-1.2h8.705v-1.535h1.2v2.735h-1.911z"/>
   <path transform="matrix(1.3333 0 0 -1.3333 0 666.67)" d="m101.93 113.22h4.702v1.202h-12.941v-8.26h1.2v7.058h6.854z"/>
   <path transform="matrix(1.3333 0 0 -1.3333 0 666.67)" d="m108.59 112.82v3.128h-1.201v-8.361h1.201v4.853z"/>
   <path transform="matrix(1.3333 0 0 -1.3333 0 666.67)" d="m116.11 105.8v1.2l-2.4 1e-3v2e-3l-1.172 1e-3v-1.201l0.941-1e-3v-2e-3z"/>
   <path transform="matrix(1.3333 0 0 -1.3333 0 666.67)" d="m112.48 113.22h1.635v-5.554h1.201v6.756h-6.105v-1.202h3.09z"/>
   <path transform="matrix(1.3333 0 0 -1.3333 0 666.67)" d="m254.78 108.52-4.767 4.768-4.717-4.718-1.013-1.013-4.827-4.828 5.695-5.695 3.456-3.455 0.849 0.848-3.325 3.326-4.977 4.976 3.978 3.979 1.013 1.013 3.868 3.869 8.833-8.833-4.88-4.882-3.701-3.701-2.213-2.211 0.85-0.85 2.481 2.48 3.07 3.071 0.361 0.362 5.731 5.731z"/>
   <path transform="matrix(1.3333 0 0 -1.3333 0 666.67)" d="m375.89 130.96h-1.2v-15.27h10.003v1.201h-8.803v12.868h12.869v-8.666h1.201v9.867h-1.201z"/>
   <path transform="matrix(1.3333 0 0 -1.3333 0 666.67)" d="m385.89 115.69v4.203h4.066v1.2h-5.267v-5.403z"/>
   <path transform="matrix(1.3333 0 0 -1.3333 0 666.67)" d="m398.66 123.93v-2.217h1.2v9.245h-8.604v-8.605h6.767v1.201h-5.566v6.202h6.203v-5.641z"/>
   <path transform="matrix(1.3333 0 0 -1.3333 0 666.67)" d="m398.66 116.19v-1.153h1.2v4.238h-1.2z"/>
   <path transform="matrix(1.3333 0 0 -1.3333 0 666.67)" d="m382.23 102.49h-2.12v1.124h2.12zm-2.124 10.703h1.983v-8.379h-1.979v0.981l1.342 1e-3v1.201l-1.342-2e-3v1.17h-4e-3zm-1.198-6.199-3.022-3e-3v6.202h3.02v-5.534h2e-3zm-118.68-7.634-2.02-1.912-1e-3 1e-3 -2.322-2.432-0.382-0.383-2.612-2.611-0.088-0.088-0.134-0.135-2.663-2.663-0.559 0.558-1.947 1.947-5.695 5.807-1e-3 -1e-3 -4.685 4.685 7.473 7.472-1e-3 1e-3 5.415 5.414 5.415-5.414-1e-3 -1e-3 0.777-0.776 6.7-6.8zm-140.33 8.805h-3e-3v-1.17l-1.343 2e-3v-1.201l1.343-1e-3v-0.981h-1.98v8.379h1.983zm-3e-3 -5.675h-2.121v1.124h2.121zm1.201 5.169h3e-3v5.534h3.019v-6.202l-3.022 3e-3zm294.59 138.66 1.059-1.059-3.629-3.628-3e-3 2e-3 -5.567-5.583v-118.28h-7.073v-1.202h7.073v-10.644h1e-3v-7.658h-4.607v1.221h3.376v4.227h-1.2v-3.027h-2.176v3.112h-1.2v-3.112h-9.116v4.458h-1.2v-5.658h10.316v-1.113h-0.264v0.49h-1.2v-0.49h-10.955v6.518h1e-3v7.697h-1.2v-7.206h-2e-3v-7.009h-4.682v2.913h2.455v3.928h-1.201v-2.726h-1.254v2.957h-0.142v8.946h-1.687v0.104h-2.697v-0.104h-4.22v-8.604l4.222 5e-3v-0.98h-5.495v27.407h27.758v-8.662h-0.706v-1.201h1.907v11.064h-30.16v-29.808h6.696v-1.005h-114.8l-7.847 7.846-6.263 6.263-0.849-0.848-5.415-5.415-7.847-7.846h-114.8v1.005h6.696v29.808h-30.16v-11.064h1.907v1.201h-0.706v8.662h27.758v-27.407h-5.495v0.98l4.223-5e-3v8.604h-4.22v0.104h-2.698v-0.104h-1.686v-8.946h-0.143v-2.957h-1.254v2.726h-1.202v-3.928h2.456v-2.913h-4.681v7.009h-3e-3v7.206h-1.2v-7.697h1e-3v-6.518h-10.955v0.49h-1.201v-0.49h-0.263v1.113h10.317v5.658h-1.201v-4.458h-9.116v3.112h-1.201v-3.112h-2.175v3.027h-1.2v-4.227h3.375v-1.221h-4.605v7.658h1e-3v10.644h7.072v1.202h-7.072v118.28l-5.568 5.583-3e-3 -2e-3 -3.629 3.628 1.059 1.059-0.849 0.849-1.907-1.908 4.835-4.835 3e-3 2e-3 4.857-4.836v-129.66h1e-3v-8.858h1.2l5.425 0.107h0.644v-1.326h-8.479v8.48h0.587v1.2h-1.787v-10.881h10.88v2.527h135.86l4.837-4.858-3e-3 -3e-3 4.836-4.836 1.908 1.908-0.849 0.849-1.059-1.059-3.629 3.629 2e-3 3e-3 -5.582 5.568h-118.28v2.913l22.647 0.119h95.614l7.622-7.622 1e-3 1e-3 2.833-2.834 2.106-2.106 1.436-1.435 0.442 0.501 0.935 0.934 2.105 2.106 2.834 2.834 1e-3 -1e-3 7.445 7.444 0.177 0.178h95.614l22.647-0.119v-2.913h-118.28l-5.582-5.568 2e-3 -3e-3 -3.628-3.629-1.06 1.059-0.848-0.849 1.908-1.908 4.835 4.836-2e-3 3e-3 4.837 4.858h135.86v-2.527h10.881v10.881h-1.788v-1.2h0.587v-8.48h-8.48v1.326h0.645l5.426-0.107h1.2v138.52l4.857 4.836 3e-3 -2e-3 4.836 4.835-1.908 1.908z"/>
   <path transform="matrix(1.3333 0 0 -1.3333 0 666.67)" d="m404.49 105.53h-4.216v-4.218h1.2v3.018h5.448v1.2h-2.195z"/>
   <path transform="matrix(1.3333 0 0 -1.3333 0 666.67)" d="m393.32 105.81 6.539 7e-3v6.774h-1.2v-5.575l-5.654-6e-3v-2e-3l-3.09-1e-3v-1.201l3.405 1e-3z"/>
   <path transform="matrix(1.3333 0 0 -1.3333 0 666.67)" d="m393.32 116.57h4.702v1.2h-9.905v-2.735h1.2v1.535h3.688z"/>
   <path transform="matrix(1.3333 0 0 -1.3333 0 666.67)" d="m398.07 114.42h-4.703v-1.202h11.741v-7.058h1.2v8.26h-8.054z"/>
   <path transform="matrix(1.3333 0 0 -1.3333 0 666.67)" d="m391.42 112.44v-4.853h1.2v8.361h-1.2v-3.128z"/>
   <path transform="matrix(1.3333 0 0 -1.3333 0 666.67)" d="m386.53 105.8 0.941 1e-3v1.201l-1.172-1e-3v-2e-3l-2.399-1e-3v-1.2h2.63z"/>
   <path transform="matrix(1.3333 0 0 -1.3333 0 666.67)" d="m387.71 113.22h3.091v1.202h-6.106v-6.756h1.201v5.554h1.635z"/>
   <path transform="matrix(1.3333 0 0 -1.3333 0 666.67)" d="m409.25 254.45-0.363 0.361-5.729 5.731-5.765-5.764-4.766-4.767 4.716-4.718 1.013-1.013 4.828-4.827 9.151 9.151-0.849 0.849-8.302-8.302-3.978 3.979-1.013 1.012-3.869 3.869 8.833 8.833 4.882-4.881 3.7-3.701 2.213-2.212 0.848 0.849-2.48 2.481z"/>
   <path transform="matrix(1.3333 0 0 -1.3333 0 666.67)" d="m110.05 370.24v-1.2h15.27v15.27h-10.004v-1.201h8.803v-12.869h-12.869v8.666h-1.2z"/>
   <path transform="matrix(1.3333 0 0 -1.3333 0 666.67)" d="m114.11 384.31v-4.203h-4.065v-1.201h5.266v5.404z"/>
   <path transform="matrix(1.3333 0 0 -1.3333 0 666.67)" d="m101.35 376.07v2.217h-1.201v-9.244h8.604v8.603h-6.767v-1.2h5.566v-6.203h-6.202v5.643z"/>
   <path transform="matrix(1.3333 0 0 -1.3333 0 666.67)" d="m100.14 383.81v-3.085h1.201v4.238h-1.201v-0.969z"/>
   <path transform="matrix(1.3333 0 0 -1.3333 0 666.67)" d="m117.77 397.51h2.121v-1.125h-2.121zm2.124-10.703h-1.983v8.378h1.98v-0.979l-1.343-2e-3v-1.2l1.343 1e-3v-1.169h3e-3zm1.198 6.2 3.022 2e-3v-6.202h-3.019v5.534h-3e-3zm120.71 9.545 1e-3 -1e-3 5.695 5.807 1.947 1.947 0.559 0.557 0.558-0.557 2.105-2.106 0.222-0.222 2.612-2.611v-1e-3l0.383-0.383 2.321-2.431 1e-3 1e-3 2.02-1.912 2.669-2.669-6.7-6.799-0.777-0.777 1e-3 -1e-3 -5.415-5.414-5.415 5.414 1e-3 1e-3 -7.473 7.472zm138.31-10.716h4e-3v1.169l1.342-1e-3v1.2l-1.342 2e-3v0.979h1.979v-8.378h-1.983zm4e-3 5.674h2.12v-1.125h-2.12zm-1.202-5.169h-2e-3v-5.534h-3.02v6.202l3.022-2e-3zm-294.59-138.66-1.059 1.058 3.629 3.629 3e-3 -2e-3 5.568 5.582v118.28h7.072v1.201h-7.072v10.645h-1e-3v7.658h4.605v-1.221h-3.375v-4.226h1.2v3.026h2.175v-3.112h1.201v3.112h9.116v-4.459h1.201v5.659h-10.317v1.114h0.263v-0.491h1.201v0.491h6.193v-1e-3h4.762v-6.518h-1e-3v-7.697h1.2v7.205h3e-3v7.01h4.681v-2.913h-2.456v-3.927h1.202v2.725h1.254v-2.957h0.143v-8.946h1.686v-0.104h2.698v0.104h4.22v8.604l-4.223-4e-3v0.978h5.495v-27.406h-27.758v8.662h0.706v1.2h-1.907v-11.063h30.16v29.808h-6.696v1.005h114.8l7.847-7.846 5.415-5.414 0.849-0.849 0.848 0.849 5.415 5.414 7.847 7.846h114.8v-1.005h-6.696v-29.808h30.16v11.063h-1.907v-1.2h0.706v-8.662h-27.758v27.406h5.495v-0.978l-4.222 4e-3v-8.604h4.22v-0.104h2.697v0.104h1.687v8.946h0.142v2.957h1.254v-2.725h1.201v3.927h-2.455v2.913h4.682v-7.01h2e-3v-7.205h1.2v7.697h-1e-3v6.518h4.762v1e-3h6.193v-0.491h1.2v0.491h0.264v-1.114h-10.316v-5.659h1.2v4.459h9.116v-3.112h1.2v3.112h2.176v-3.026h1.2v4.226h-3.376v1.221h4.607v-7.658h-1e-3v-10.645h-7.073v-1.201h7.073v-118.28l5.567-5.582 3e-3 2e-3 3.629-3.629-1.059-1.058 0.849-0.849 1.908 1.907-4.836 4.836-3e-3 -2e-3 -4.857 4.837v138.52h-1.2l-5.426-0.107h-0.645v1.326h8.48v-8.479h-0.587v-1.201h1.788v10.88h-10.881v-2.526h-135.86l-4.837 4.858 2e-3 2e-3 -4.835 4.836-1.908-1.908 0.848-0.848 1.06 1.058 3.628-3.629-2e-3 -2e-3 5.582-5.568h118.28v-2.913l-22.647-0.119h-95.614l-0.177 0.178-7.445 7.444h-1e-3l-2.834 2.833-2.105 2.105-0.934 0.935-0.443 0.502-1.436-1.437-2.106-2.105-2.833-2.833h-1e-3l-7.622-7.622h-95.614l-22.647 0.119v2.913h118.28l5.582 5.568-2e-3 2e-3 3.629 3.629 1.059-1.058 0.849 0.848-1.908 1.908-4.836-4.836 3e-3 -2e-3 -4.837-4.858h-135.86v2.526h-10.88v-10.88h1.787v1.201h-0.587v8.479h8.479v-1.326h-0.644l-5.425 0.107h-1.2v-8.858h-1e-3v-129.66l-4.857-4.837-3e-3 2e-3 -4.835-4.836 1.907-1.907z"/>
   <path transform="matrix(1.3333 0 0 -1.3333 0 666.67)" d="m95.518 394.47h4.215v4.218h-1.201v-3.017h-5.447v-1.201h2.195z"/>
   <path transform="matrix(1.3333 0 0 -1.3333 0 666.67)" d="m106.68 394.19-6.539-7e-3v-6.774h1.201v5.575l5.653 6e-3v2e-3l3.091 1e-3v1.201l-3.406-1e-3z"/>
   <path transform="matrix(1.3333 0 0 -1.3333 0 666.67)" d="m107 382.23h4.888v2.735h-1.2v-1.535h-8.705v-1.2h4.702z"/>
   <path transform="matrix(1.3333 0 0 -1.3333 0 666.67)" d="m101.93 385.58h4.702v1.2h-11.741v7.058h-1.2v-8.258h8.054z"/>
   <path transform="matrix(1.3333 0 0 -1.3333 0 666.67)" d="m107.38 387.18v-3.128h1.201v8.361h-1.201v-4.853z"/>
   <path transform="matrix(1.3333 0 0 -1.3333 0 666.67)" d="m113.48 394.2-0.941-1e-3v-1.2l1.172 2e-3v2e-3l2.4 1e-3v1.2l-2.631-1e-3z"/>
   <path transform="matrix(1.3333 0 0 -1.3333 0 666.67)" d="m112.3 386.78h-3.09v-1.2h6.105v6.756h-1.201v-5.556h-1.635z"/>
   <path transform="matrix(1.3333 0 0 -1.3333 0 666.67)" d="m90.754 245.55 0.362-0.362 5.73-5.729 5.764 5.763 4.767 4.767-4.718 4.718-1.012 1.013-4.828 4.827-9.151-9.151 0.849-0.849 8.302 8.302 3.979-3.978 1.013-1.013 3.868-3.869-8.833-8.833-10.794 10.794-0.849-0.849 2.481-2.48z"/>
   <path transform="matrix(1.3333 0 0 -1.3333 0 666.67)" d="m83.784 250.56 4.939 4.939 7.445 7.444 7.526-7.527v1e-3l5.415-5.415-5.415-5.414-7.526-7.527-7.445 7.444-2.611 2.611-0.088 0.089-0.135 0.134-2.663 2.663zm-0.849-1.965 2.106-2.105 2.833-2.834 7.444-7.444 0.178-0.179v-116.14h6.758v3e-3h5.131v-1.497h1.201v2.697h-6.839v-2e-3h-5.05v114.8l7.847 7.847 5.414 5.415 0.849 0.849-6.263 6.263v1e-3l-7.847 7.847v114.8h5.05v-2e-3h6.839v2.698h-1.201v-1.497h-5.131v3e-3h-6.758v-116.14l-0.178-0.177-7.444-7.445-2.833-2.834-3.457-3.457-0.061-0.055 0.061-0.055z"/>
   <path transform="matrix(1.3333 0 0 -1.3333 0 666.67)" d="m250.01 386.71 4.767 4.767 5.765 5.764-5.731 5.73-0.361 0.362-5.551 5.551-0.85-0.849 2.213-2.212 3.701-3.701 4.88-4.881-4.915-4.915-3.918-3.919-3.868 3.869-4.991 4.991 8.302 8.302-0.849 0.85-3.456-3.456-5.695-5.696 5.84-5.84z"/>
   <path transform="matrix(1.3333 0 0 -1.3333 0 666.67)" d="m374.69 384.31v-15.27h15.27v9.866h-1.201v-8.666h-12.869v12.869h8.803v1.201h-8.803z"/>
   <path transform="matrix(1.3333 0 0 -1.3333 0 666.67)" d="m389.96 380.11h-4.066v4.203h-1.201v-5.404h5.267z"/>
   <path transform="matrix(1.3333 0 0 -1.3333 0 666.67)" d="m399.86 375.88v2.401h-1.2v-8.044h-6.203v6.203h5.566v1.2h-6.767v-8.603h8.604z"/>
   <path transform="matrix(1.3333 0 0 -1.3333 0 666.67)" d="m398.66 383.81v-3.085h1.2v4.238h-1.2v-0.969z"/>
   <path transform="matrix(1.3333 0 0 -1.3333 0 666.67)" d="m400.27 398.69v-4.218h6.648v1.201h-5.448v3.017z"/>
   <path transform="matrix(1.3333 0 0 -1.3333 0 666.67)" d="m389.92 394.2v-1.201l3.09-1e-3v-2e-3l5.654-6e-3v-5.575h1.2v6.774l-6.539 7e-3v3e-3z"/>
   <path transform="matrix(1.3333 0 0 -1.3333 0 666.67)" d="m393.01 382.23h5.017v1.2h-8.705v1.535h-1.2v-2.735h1.911z"/>
   <path transform="matrix(1.3333 0 0 -1.3333 0 666.67)" d="m398.07 386.78h-4.703v-1.2h12.941v8.258h-1.2v-7.058h-6.854z"/>
   <path transform="matrix(1.3333 0 0 -1.3333 0 666.67)" d="m391.42 387.18v-3.128h1.2v8.361h-1.2v-4.853z"/>
   <path transform="matrix(1.3333 0 0 -1.3333 0 666.67)" d="m383.9 394.2v-1.2l2.399-1e-3v-2e-3l1.172-2e-3v1.2l-0.941 1e-3v3e-3z"/>
   <path transform="matrix(1.3333 0 0 -1.3333 0 666.67)" d="m387.53 386.78h-1.635v5.556h-1.201v-6.756h6.106v1.2h-3.091z"/>
   <path transform="matrix(1.3333 0 0 -1.3333 0 666.67)" d="m413.98 247.2-0.088-0.089-10.055-10.055-7.527 7.527-5.415 5.414 5.415 5.415v-1e-3l7.527 7.527 12.941-12.941-2.663-2.663zm3.089 1.39 1.352 1.352 0.054 0.048-0.054 0.062-1.352 1.351-2.106 2.106-2.833 2.834-7.444 7.445-0.178 0.177v116.14h-6.757v-3e-3h-5.132v1.497h-1.2v-2.698h6.838v2e-3h5.05v-114.8l-7.846-7.847v-1e-3l-5.415-5.414-0.848-0.849 0.848-0.849 5.415-5.415 7.846-7.847v-114.8h-5.05v2e-3h-6.838v-2.697h1.2v1.497h5.132v-3e-3h6.757v116.14l0.178 0.179 7.444 7.444 2.833 2.834z"/>
  </g>
 </g>
</svg>
