<?xml version="1.0" encoding="UTF-8"?>
<!-- Created with Inkscape (http://www.inkscape.org/) -->
<svg width="64" height="64" version="1.1" viewBox="0 0 16.933 16.933" xmlns="http://www.w3.org/2000/svg">
 <g transform="translate(736.07 442.91)"></g>
 <g stroke-width=".013937">
  <path d="m10.048 13.555-0.058635-0.11428c-0.61063 0.19377-1.1962 0.24783-1.6889 0.24004-0.41858-0.01833-0.8882-0.0852-1.3762-0.24004l-0.058633 0.11428s1.5434 1.05 1.5434 3.3786h0.10673c0-2.3286 1.5324-3.3786 1.5324-3.3786"/>
  <path d="m3.3785 10.063 0.11428-0.05864c-0.19377-0.61063-0.24783-1.1962-0.24004-1.6889 0.018327-0.41858 0.085197-0.8882 0.24004-1.3762l-0.11428-0.058633s-1.05 1.5434-3.3786 1.5434v0.10673c2.3286 0 3.3786 1.5324 3.3786 1.5324"/>
  <path d="m13.536 6.88-0.11428 0.058633c0.19377 0.61064 0.24783 1.1962 0.24004 1.6889-0.01833 0.41858-0.0852 0.8882-0.24004 1.3762l0.11428 0.05864s1.05-1.5434 3.3786-1.5434v-0.10674c-2.3286 0-3.3786-1.5324-3.3786-1.5324"/>
  <path d="m6.5975 5.4254v1.2248h-1.1341l-3.6743-4.3775z"/>
  <path d="m5.3724 10.301h1.2248v1.1341l-4.3775 3.6743z"/>
  <path d="m12.589 7.1827-0.5273 0.27643h-2.5926v-2.5926l0.27643-0.52731s-0.3785-0.12758-1.2886-0.12758c-0.75699 0-1.2886 0.12758-1.2886 0.12758l0.27643 0.52731v2.5926h-2.5926l-0.52731-0.27643s-0.12758 0.37849-0.12758 1.2886c0 0.75697 0.12758 1.2886 0.12758 1.2886l0.52731-0.27643h2.5926v2.5926l-0.27643 0.52731s0.37849 0.12758 1.2886 0.12758c0.75699 0 1.2886-0.12758 1.2886-0.12758l-0.27643-0.52731v-2.5926h2.5926l0.5273 0.27643s0.12758-0.3785 0.12758-1.2886c0-0.757-0.12758-1.2886-0.12758-1.2886"/>
  <path d="m10.313 5.4254v1.2248h1.1341l3.6743-4.3775z"/>
  <path d="m11.537 10.301h-1.2248v1.1341l4.3775 3.6743z"/>
  <path d="m6.8661 3.3786 0.058633 0.11427c0.61064-0.19375 1.1962-0.24781 1.6889-0.24002 0.41858 0.018327 0.8882 0.085183 1.3762 0.24002l0.058636-0.11427s-1.5434-1.05-1.5434-3.3786h-0.10673c0 2.3286-1.5324 3.3786-1.5324 3.3786"/>
 </g>
</svg>
