<?xml version="1.0" encoding="UTF-8" standalone="no"?>
<!-- Created with Inkscape (http://www.inkscape.org/) -->

<svg
   width="64"
   height="64"
   viewBox="0 0 16.933333 16.933333"
   version="1.1"
   id="svg1"
   inkscape:version="1.4 (e7c3feb1, 2024-10-09)"
   sodipodi:docname="wizard.svg"
   xmlns:inkscape="http://www.inkscape.org/namespaces/inkscape"
   xmlns:sodipodi="http://sodipodi.sourceforge.net/DTD/sodipodi-0.dtd"
   xmlns="http://www.w3.org/2000/svg"
   xmlns:svg="http://www.w3.org/2000/svg">
  <sodipodi:namedview
     id="namedview1"
     pagecolor="#505050"
     bordercolor="#ffffff"
     borderopacity="1"
     inkscape:showpageshadow="0"
     inkscape:pageopacity="0"
     inkscape:pagecheckerboard="1"
     inkscape:deskcolor="#505050"
     inkscape:document-units="mm"
     inkscape:zoom="7.2541139"
     inkscape:cx="23.572831"
     inkscape:cy="39.563757"
     inkscape:window-width="1512"
     inkscape:window-height="917"
     inkscape:window-x="0"
     inkscape:window-y="65"
     inkscape:window-maximized="0"
     inkscape:current-layer="layer1" />
  <defs
     id="defs1">
    <clipPath
       clipPathUnits="userSpaceOnUse"
       id="clipPath59">
      <path
         d="M 0,2020 H 2020 V 0 H 0 Z"
         transform="translate(-1322.9952,-1265.4858)"
         id="path59" />
    </clipPath>
    <clipPath
       clipPathUnits="userSpaceOnUse"
       id="clipPath61">
      <path
         d="M 0,2020 H 2020 V 0 H 0 Z"
         transform="translate(-1010.4238,-1248.8989)"
         id="path61" />
    </clipPath>
    <clipPath
       clipPathUnits="userSpaceOnUse"
       id="clipPath63">
      <path
         d="M 0,2020 H 2020 V 0 H 0 Z"
         transform="translate(-859.7314,-1628.1509)"
         id="path63" />
    </clipPath>
    <clipPath
       clipPathUnits="userSpaceOnUse"
       id="clipPath65">
      <path
         d="M 0,2020 H 2020 V 0 H 0 Z"
         transform="translate(-714.36722,-929.93605)"
         id="path65" />
    </clipPath>
    <clipPath
       clipPathUnits="userSpaceOnUse"
       id="clipPath67">
      <path
         d="M 0,2020 H 2020 V 0 H 0 Z"
         transform="translate(-1339.6095,-597.08304)"
         id="path67" />
    </clipPath>
  </defs>
  <g
     inkscape:label="Ebene 1"
     inkscape:groupmode="layer"
     id="layer1"
     transform="translate(88.900044,69.056256)">
    <g
       id="g1"
       transform="matrix(0.03890811,0,0,0.03890811,-84.434728,-66.369407)">
      <path
         id="path58"
         d="m 0,0 c 0,0 104.766,-86.843 155.221,-213.476 76.824,-192.811 13.311,-382.175 -46.318,-460.197 0,0 233.124,156.638 127.16,441.597 C 178.114,-76.239 0,0 0,0"
         style="fill:#a68d67;fill-opacity:1;fill-rule:nonzero;stroke:none"
         transform="matrix(0.35277777,0,0,-0.35277777,201.56163,58.883933)"
         clip-path="url(#clipPath59)" />
      <path
         id="path60"
         d="m 0,0 38.276,-42.104 -74.242,-111.003 -25.277,-10.819 -193.937,151.167 11.66,93.278 237.642,194.649 267.436,-201.166 7.325,-140.215 -6.049,-29.479 -294.731,-330.457 74.001,-96.617 -33.311,-315.922 -39.601,-15.736 -39.758,316.425 -102.956,118.229 312.594,387.873 -145.296,128.44 -98.4,-91.439 43.381,-47.208 z"
         style="fill:#a68d67;fill-opacity:1;fill-rule:nonzero;stroke:none"
         transform="matrix(0.35277777,0,0,-0.35277777,91.293398,64.735429)"
         clip-path="url(#clipPath61)"
         sodipodi:nodetypes="ccccccccccccccccccccc" />
      <path
         id="path62"
         d="m 0,0 c -28.551,-44.451 -24.084,-116.47 31.531,-153.909 l 60.895,49.825 C 6.77,-76.567 0,0 0,0"
         style="fill:#a68d67;fill-opacity:1;fill-rule:nonzero;stroke:none"
         transform="matrix(0.35277777,0,0,-0.35277777,38.132468,-69.056256)"
         clip-path="url(#clipPath63)" />
      <path
         id="path64"
         d="m 0,0 c 0,56.672 19.87,108.827 53.171,150.416 l -0.019,0.003 c 0,0 -154.466,-72.685 -148.418,-300.441 0,0 -81.735,202.774 82.981,439.64 C -121.161,221.57 -214.728,62.119 -214.728,-59.19 c 0,-168.937 114.325,-316.077 276.183,-384.473 6.106,-4.289 9.831,-6.739 9.831,-6.739 l -193.935,-25.517 352.239,-41.22 -34.939,278.065 C 82.996,-213.108 0,-115.957 0,0"
         style="fill:#a68d67;fill-opacity:1;fill-rule:nonzero;stroke:none"
         transform="matrix(0.35277777,0,0,-0.35277777,-13.14878,177.25843)"
         clip-path="url(#clipPath65)" />
      <path
         id="path66"
         d="m 0,0 -0.05,0.016 c 68.46,73.354 109.718,167.81 109.718,270.935 0,67.328 -18.367,131.1 -54.351,186.529 -15.413,23.744 -46.613,73.651 -72.011,110.313 l -5.969,-29.088 -51.326,-57.547 c 111.335,-214.943 -9.883,-323.964 -9.883,-323.964 22.463,133.572 -25.518,224.491 -48.306,258.722 l -0.649,-0.728 c 11.84,-31.509 16.771,-59.868 16.176,-82.335 -2.502,-94.241 -56.394,-176.091 -136.07,-217.383 l -31.555,-299.267 348.066,40.731 -193.936,25.517 c 0,0 79.942,52.128 130.146,117.549"
         style="fill:#a68d67;fill-opacity:1;fill-rule:nonzero;stroke:none"
         transform="matrix(0.35277777,0,0,-0.35277777,207.42279,294.68156)"
         clip-path="url(#clipPath67)" />
    </g>
  </g>
</svg>
