<?xml version="1.0" encoding="UTF-8"?>
<!-- Created with Inkscape (http://www.inkscape.org/) -->
<svg width="64" height="64.071" version="1.1" viewBox="0 0 16.933 16.952" xmlns="http://www.w3.org/2000/svg">
 <defs>
  <clipPath id="clipPath3">
   <path transform="translate(-1124.2 -642.79)" d="m0 2020h2020v-2020h-2020z"/>
  </clipPath>
  <clipPath id="clipPath5">
   <path transform="translate(-645.6 -893.35)" d="m0 2020h2020v-2020h-2020z"/>
  </clipPath>
  <clipPath id="clipPath7">
   <path transform="translate(-1374.4 -1121.7)" d="m0 2020h2020v-2020h-2020z"/>
  </clipPath>
  <clipPath id="clipPath9">
   <path transform="translate(-876.55 -1226.1)" d="m0 2020h2020v-2020h-2020z"/>
  </clipPath>
  <clipPath id="clipPath11">
   <path transform="translate(-788.67 -876.22)" d="m0 2020h2020v-2020h-2020z"/>
  </clipPath>
  <clipPath id="clipPath13">
   <path transform="translate(-1306.5 -1100)" d="m0 2020h2020v-2020h-2020z"/>
  </clipPath>
  <clipPath id="clipPath15">
   <path transform="translate(-1143.1 -1226.1)" d="m0 2020h2020v-2020h-2020z"/>
  </clipPath>
  <clipPath id="clipPath17">
   <path transform="translate(-1231 -876.22)" d="m0 2020h2020v-2020h-2020z"/>
  </clipPath>
  <clipPath id="clipPath19">
   <path transform="translate(-895.83 -1372.9)" d="m0 2020h2020v-2020h-2020z"/>
  </clipPath>
 </defs>
 <g transform="translate(729.72 443.97)">
  <g transform="matrix(.03955 0 0 .03955 -700.86 -426.41)" fill="none">
   <path transform="matrix(.35278 0 0 -.35278 -475.37 -100.87)" d="m0 0-4.207 8.2c-43.814-13.903-85.827-17.782-121.18-17.223-30.034 1.315-63.73 6.113-98.746 17.223l-4.207-8.2s110.74-75.341 110.74-242.42h7.658c0 167.08 109.95 242.42 109.95 242.42" clip-path="url(#clipPath3)"/>
   <path transform="matrix(.35278 0 0 -.35278 -644.2 -189.26)" d="m0 0 8.2 4.207c-13.903 43.814-17.782 85.827-17.223 121.18 1.315 30.034 6.113 63.73 17.223 98.746l-8.2 4.207s-75.341-110.74-242.42-110.74v-7.658c167.08 0 242.42-109.95 242.42-109.95" clip-path="url(#clipPath5)"/>
   <path transform="matrix(.35278 0 0 -.35278 -387.1 -269.82)" d="m0 0-8.2-4.207c13.903-43.814 17.782-85.827 17.223-121.18-1.315-30.034-6.113-63.73-17.223-98.746l8.2-4.207s75.341 110.74 242.42 110.74v7.658c-167.08 0-242.42 109.95-242.42 109.95" clip-path="url(#clipPath7)"/>
   <path transform="matrix(.35278 0 0 -.35278 -562.72 -306.64)" d="m0 0v-87.88h-81.371l-263.64 314.09z" clip-path="url(#clipPath9)"/>
   <path transform="matrix(.35278 0 0 -.35278 -593.73 -183.22)" d="m0 0h87.88v-81.371l-314.09-263.64z" clip-path="url(#clipPath11)"/>
   <path transform="matrix(.35278 0 0 -.35278 -411.06 -262.16)" d="m0 0-37.835-19.834h-186.02v186.02l19.834 37.835s-27.158 9.154-92.458 9.154c-54.315 0-92.457-9.154-92.457-9.154l19.834-37.835v-186.02h-186.02l-37.835 19.834s-9.154-27.157-9.154-92.458c0-54.314 9.154-92.457 9.154-92.457l37.835 19.834h186.02v-186.02l-19.834-37.835s27.157-9.154 92.457-9.154c54.315 0 92.458 9.154 92.458 9.154l-19.834 37.835v186.02h186.02l37.835-19.834s9.154 27.158 9.154 92.457c0 54.316-9.154 92.458-9.154 92.458" clip-path="url(#clipPath13)"/>
   <path transform="matrix(.35278 0 0 -.35278 -468.68 -306.64)" d="m0 0v-87.88h81.371l263.64 314.09z" clip-path="url(#clipPath15)"/>
   <path transform="matrix(.35278 0 0 -.35278 -437.68 -183.22)" d="m0 0h-87.88v-81.371l314.09-263.64z" clip-path="url(#clipPath17)"/>
   <path transform="matrix(.35278 0 0 -.35278 -555.92 -358.45)" d="m0 0 4.207-8.199c43.814 13.902 85.827 17.781 121.18 17.222 30.034-1.315 63.73-6.112 98.746-17.222l4.207 8.199s-110.74 75.341-110.74 242.42h-7.658c0-167.08-109.95-242.42-109.95-242.42" clip-path="url(#clipPath19)"/>
  </g>
 </g>
</svg>
