<?xml version="1.0" encoding="UTF-8" standalone="no"?>
<!-- Created with Inkscape (http://www.inkscape.org/) -->

<svg
   width="64"
   height="64"
   viewBox="0 0 16.933333 16.933333"
   version="1.1"
   id="svg1"
   inkscape:version="1.4 (e7c3feb1, 2024-10-09)"
   sodipodi:docname="warlock.svg"
   xmlns:inkscape="http://www.inkscape.org/namespaces/inkscape"
   xmlns:sodipodi="http://sodipodi.sourceforge.net/DTD/sodipodi-0.dtd"
   xmlns="http://www.w3.org/2000/svg"
   xmlns:svg="http://www.w3.org/2000/svg">
  <sodipodi:namedview
     id="namedview1"
     pagecolor="#505050"
     bordercolor="#ffffff"
     borderopacity="1"
     inkscape:showpageshadow="0"
     inkscape:pageopacity="0"
     inkscape:pagecheckerboard="1"
     inkscape:deskcolor="#505050"
     inkscape:document-units="mm"
     inkscape:zoom="2.0021478"
     inkscape:cx="151.33748"
     inkscape:cy="172.81441"
     inkscape:window-width="1512"
     inkscape:window-height="917"
     inkscape:window-x="0"
     inkscape:window-y="65"
     inkscape:window-maximized="0"
     inkscape:current-layer="layer1" />
  <defs
     id="defs1">
    <clipPath
       clipPathUnits="userSpaceOnUse"
       id="clipPath184">
      <path
         d="M 0,2020 H 2020 V 0 H 0 Z"
         transform="translate(-672.46477,-1169.4591)"
         id="path184" />
    </clipPath>
    <clipPath
       clipPathUnits="userSpaceOnUse"
       id="clipPath186">
      <path
         d="M 0,2020 H 2020 V 0 H 0 Z"
         transform="translate(-903.17302,-1159.9663)"
         id="path186" />
    </clipPath>
    <clipPath
       clipPathUnits="userSpaceOnUse"
       id="clipPath188">
      <path
         d="M 0,2020 H 2020 V 0 H 0 Z"
         transform="translate(-959.65327,-1092.0273)"
         id="path188" />
    </clipPath>
    <clipPath
       clipPathUnits="userSpaceOnUse"
       id="clipPath190">
      <path
         d="M 0,2020 H 2020 V 0 H 0 Z"
         transform="translate(-842.17177,-766.83692)"
         id="path190" />
    </clipPath>
    <clipPath
       clipPathUnits="userSpaceOnUse"
       id="clipPath192">
      <path
         d="M 0,2020 H 2020 V 0 H 0 Z"
         transform="translate(-1005.4925,-1542.4326)"
         id="path192" />
    </clipPath>
    <clipPath
       clipPathUnits="userSpaceOnUse"
       id="clipPath194">
      <path
         d="M 0,2020 H 2020 V 0 H 0 Z"
         transform="translate(-1133.1853,-974.15672)"
         id="path194" />
    </clipPath>
    <clipPath
       clipPathUnits="userSpaceOnUse"
       id="clipPath196">
      <path
         d="M 0,2020 H 2020 V 0 H 0 Z"
         transform="translate(-1392.5428,-1169.4591)"
         id="path196" />
    </clipPath>
    <clipPath
       clipPathUnits="userSpaceOnUse"
       id="clipPath198">
      <path
         d="M 0,2020 H 2020 V 0 H 0 Z"
         transform="translate(-1375.4533,-946.99172)"
         id="path198" />
    </clipPath>
  </defs>
  <g
     inkscape:label="Ebene 1"
     inkscape:groupmode="layer"
     id="layer1">
    <g
       id="g1"
       transform="matrix(0.03759007,0,0,0.03759007,4.6011191,2.8842553)">
      <path
         id="path183"
         d="m 0,0 -0.078,0.023 c 16.268,112.969 76.919,194.386 100.021,221.913 -2.017,2.509 -1.65,2.054 -3.669,4.563 C 8.751,183.941 -49.43,79.887 -49.43,79.887 c 9.832,102.006 80.459,190.311 115.07,228.008 -2.244,2.647 -1.593,1.878 -3.837,4.524 -124.551,-77.135 -206.429,-205.82 -214.45,-369.876 L -6.854,-39.066 C -5.226,-25.829 -2.958,-12.785 0,0"
         style="fill:#a68d67;fill-opacity:1;fill-rule:nonzero;stroke:none"
         transform="matrix(0.35277776,0,0,-0.35277776,-24.179568,107.04167)"
         clip-path="url(#clipPath184)" />
      <path
         id="path185"
         d="m 0,0 119.508,-55.661 c 0,0 -1.637,-27.83 -31.105,-31.105 l 40.928,-134.241 40.928,134.241 c -29.468,3.275 -31.105,31.105 -31.105,31.105 L 258.662,0 c 76.398,-128.239 27.992,-193.318 -30.126,-225.835 -30.633,-17.14 -64.919,-25.709 -99.205,-25.709 -34.286,0 -68.572,8.569 -99.204,25.709 C -27.991,-193.318 -76.396,-128.239 0,0 m -18.008,-388.739 c 0,0 81.856,-228.445 111.322,-357.776 l 5.928,3.192 c 9.615,5.177 16.072,14.748 17.275,25.602 l 12.814,115.773 12.815,-115.773 c 1.202,-10.854 7.66,-20.425 17.274,-25.602 l 5.928,-3.192 c 29.466,129.331 111.322,357.776 111.322,357.776 76.943,197.341 203.08,217.269 203.08,217.269 l 257.58,68.333 c -7.084,12.145 -19.862,19.747 -33.915,20.201 -102.729,3.311 -211.31,17.478 -211.31,17.478 -103.798,13.123 -115.572,99.837 -115.572,99.837 l -47.476,262.883 c -27.83,159.746 34.379,233.156 34.379,233.156 C 225.92,489.491 243.928,260.298 243.928,260.298 L 257.024,83.492 c -63.701,57.201 -86.107,137.113 -92.634,167.596 -2.84,-0.011 -2.319,-0.009 -5.16,-0.021 L 129.331,119.508 99.432,251.067 c -2.841,0.012 -2.319,0.01 -5.16,0.021 C 87.746,220.605 65.339,140.693 1.638,83.492 l 13.096,176.806 c 0,0 18.008,229.193 -119.507,270.12 0,0 62.209,-73.41 34.378,-233.156 L -117.87,34.379 c 0,0 -11.775,-86.714 -115.573,-99.837 0,0 -108.58,-14.167 -211.31,-17.478 -14.053,-0.454 -26.831,-8.056 -33.915,-20.201 l 257.58,-68.333 c 0,0 126.138,-19.928 203.08,-217.269"
         style="fill:#a68d67;fill-opacity:1;fill-rule:nonzero;stroke:none"
         transform="matrix(0.35277776,0,0,-0.35277776,57.209175,110.3905)"
         clip-path="url(#clipPath186)" />
      <path
         id="path187"
         d="M 0,0 C -54.843,-33.97 -21.691,-117.871 -21.691,-117.871 H -27.83 C -84.72,-42.974 -32.742,16.78 -32.742,16.78 Z"
         style="fill:#a68d67;fill-opacity:1;fill-rule:nonzero;stroke:none"
         transform="matrix(0.35277776,0,0,-0.35277776,77.134152,134.35787)"
         clip-path="url(#clipPath188)" />
      <path
         id="path189"
         d="m 0,0 c 13.901,-43.293 45.977,-139.137 63.534,-191.448 -195.185,50.457 -342.423,212.455 -378.211,414.431 l 162.06,-42.828 C -122.418,104.94 -68.473,41.727 0,0"
         style="fill:#a68d67;fill-opacity:1;fill-rule:nonzero;stroke:none"
         transform="matrix(0.35277776,0,0,-0.35277776,35.68929,249.07781)"
         clip-path="url(#clipPath190)" />
      <path
         id="path191"
         d="m 0,0 c 0,41.132 27.012,86.561 27.012,86.561 0,0 27.011,-45.429 27.011,-86.561 0,-32.33 -27.011,-126.465 -27.011,-126.465 C 27.012,-126.465 0,-32.33 0,0"
         style="fill:#a68d67;fill-opacity:1;fill-rule:nonzero;stroke:none"
         transform="matrix(0.35277776,0,0,-0.35277776,93.30522,-24.535114)"
         clip-path="url(#clipPath192)" />
      <path
         id="path193"
         d="m 0,0 h -6.14 c 0,0 33.152,83.901 -21.69,117.871 l 32.741,16.78 C 4.911,134.651 56.889,74.897 0,0"
         style="fill:#a68d67;fill-opacity:1;fill-rule:nonzero;stroke:none"
         transform="matrix(0.35277776,0,0,-0.35277776,138.35238,175.93999)"
         clip-path="url(#clipPath194)" />
      <path
         id="path195"
         d="m 0,0 0.078,0.023 c -16.268,112.969 -76.919,194.386 -100.021,221.913 2.017,2.509 1.651,2.054 3.669,4.563 C -8.751,183.941 49.43,79.887 49.43,79.887 39.599,181.893 -31.029,270.198 -65.64,307.895 c 2.244,2.647 1.593,1.878 3.837,4.524 124.552,-77.135 206.429,-205.82 214.45,-369.876 L 6.854,-39.066 C 5.227,-25.829 2.958,-12.785 0,0"
         style="fill:#a68d67;fill-opacity:1;fill-rule:nonzero;stroke:none"
         transform="matrix(0.35277776,0,0,-0.35277776,229.84795,107.04167)"
         clip-path="url(#clipPath196)" />
      <path
         id="path197"
         d="m 0,0 162.06,42.829 c -35.789,-201.976 -183.026,-363.975 -378.211,-414.432 17.557,52.311 49.632,148.155 63.534,191.448 C -84.145,-138.428 -30.199,-75.214 0,0"
         style="fill:#a68d67;fill-opacity:1;fill-rule:nonzero;stroke:none"
         transform="matrix(0.35277776,0,0,-0.35277776,223.81915,185.5232)"
         clip-path="url(#clipPath198)" />
    </g>
  </g>
</svg>
