<?xml version="1.0" encoding="UTF-8" standalone="no"?>
<!-- Created with Inkscape (http://www.inkscape.org/) -->

<svg
   width="64"
   height="64"
   viewBox="0 0 16.933333 16.933333"
   version="1.1"
   id="svg1"
   inkscape:version="1.4 (e7c3feb1, 2024-10-09)"
   sodipodi:docname="sorcerer.svg"
   xmlns:inkscape="http://www.inkscape.org/namespaces/inkscape"
   xmlns:sodipodi="http://sodipodi.sourceforge.net/DTD/sodipodi-0.dtd"
   xmlns="http://www.w3.org/2000/svg"
   xmlns:svg="http://www.w3.org/2000/svg">
  <sodipodi:namedview
     id="namedview1"
     pagecolor="#505050"
     bordercolor="#ffffff"
     borderopacity="1"
     inkscape:showpageshadow="0"
     inkscape:pageopacity="0"
     inkscape:pagecheckerboard="1"
     inkscape:deskcolor="#505050"
     inkscape:document-units="mm"
     inkscape:zoom="1.7950422"
     inkscape:cx="146.51466"
     inkscape:cy="139.27249"
     inkscape:window-width="1512"
     inkscape:window-height="917"
     inkscape:window-x="0"
     inkscape:window-y="65"
     inkscape:window-maximized="0"
     inkscape:current-layer="layer1" />
  <defs
     id="defs1">
    <clipPath
       clipPathUnits="userSpaceOnUse"
       id="clipPath34">
      <path
         d="M 0,2020 H 2020 V 0 H 0 Z"
         transform="translate(-1318.1318,-1123.623)"
         id="path34" />
    </clipPath>
    <clipPath
       clipPathUnits="userSpaceOnUse"
       id="clipPath36">
      <path
         d="M 0,2020 H 2020 V 0 H 0 Z"
         transform="translate(-1078.9365,-928.0063)"
         id="path36" />
    </clipPath>
    <clipPath
       clipPathUnits="userSpaceOnUse"
       id="clipPath38">
      <path
         d="M 0,2020 H 2020 V 0 H 0 Z"
         transform="translate(-1234.5767,-1228.6422)"
         id="path38" />
    </clipPath>
    <clipPath
       clipPathUnits="userSpaceOnUse"
       id="clipPath40">
      <path
         d="M 0,2020 H 2020 V 0 H 0 Z"
         transform="translate(-828.26325,-1383.1279)"
         id="path40" />
    </clipPath>
  </defs>
  <g
     inkscape:label="Ebene 1"
     inkscape:groupmode="layer"
     id="layer1"
     transform="translate(74.347924,68.2625)">
    <g
       id="g1"
       transform="matrix(0.26458331,0,0,0.26458331,-53.126107,-50.201382)">
      <path
         id="path33"
         d="m 0,0 c 132.714,-225.36 32.23,-382.504 32.23,-382.504 5.411,220.117 -132.757,290.364 -132.757,290.364 l -0.016,-0.003 c 29.787,-40.194 47.561,-90.6 47.561,-145.371 0,-131.276 -101.838,-237.696 -227.461,-237.696 -125.623,0 -224.236,106.457 -227.46,237.696 -1.353,55.037 28.404,146.343 112.716,232.354 55.298,56.413 95.131,116.173 114.68,155.976 77.958,158.737 21.029,340.162 -34.346,372.534 0,0 77.017,-176.497 -42.462,-326.736 -58.874,-74.031 -140.314,-134.062 -208.14,-196.371 -17.191,-14.941 -74.889,-81.723 -96.271,-117.309 -32.186,-53.571 -48.615,-115.204 -48.615,-180.274 0,-225.527 188.738,-408.353 421.557,-408.353 232.82,0 427.869,185.447 427.869,410.973 C 139.085,-177.478 76.866,-53.318 0,0"
         style="fill:#a68d67;fill-opacity:1;fill-rule:nonzero;stroke:none"
         transform="matrix(0.05207304,0,0,-0.05207304,-29.311546,-41.010075)"
         clip-path="url(#clipPath34)" />
      <path
         id="path35"
         d="M 0,0 -43.728,201.259 -87.455,0 c -2.118,-9.748 -9.886,-17.417 -19.907,-19.654 l -213.646,-47.683 213.645,-47.682 c 10.022,-2.236 17.79,-9.906 19.908,-19.654 L -43.728,-335.933 0,-134.673 c 2.118,9.748 9.887,17.418 19.908,19.654 L 233.553,-67.337 19.908,-19.654 C 9.887,-17.417 2.118,-9.748 0,0"
         style="fill:#a68d67;fill-opacity:1;fill-rule:nonzero;stroke:none"
         transform="matrix(0.05207304,0,0,-0.05207304,-41.767174,-30.823717)"
         clip-path="url(#clipPath36)" />
      <path
         id="path37"
         d="M 0,0 -17.219,79.25 -34.438,0 c -2.229,-10.264 -10.409,-18.339 -20.96,-20.694 l -84.456,-18.849 84.456,-18.849 c 10.551,-2.355 18.731,-10.431 20.96,-20.694 L -17.219,-158.337 0,-79.086 c 2.23,10.263 10.409,18.339 20.96,20.694 l 84.456,18.849 -84.456,18.849 C 10.409,-18.339 2.23,-10.264 0,0"
         style="fill:#a68d67;fill-opacity:1;fill-rule:nonzero;stroke:none"
         transform="matrix(0.05207304,0,0,-0.05207304,-33.662515,-46.47874)"
         clip-path="url(#clipPath38)" />
      <path
         id="path39"
         d="m 0,0 c 6.086,-23.912 -2.128,-50.52 -22.656,-80.251 -58.689,-85.001 -170.901,-191.701 -231.631,-311.837 -91.976,-181.95 -27.503,-367.842 36.228,-443.834 0,0 -244.977,159.847 -122.794,433.583 26.021,58.295 79.879,127.375 183.276,216.943 35.544,30.789 79.494,68.898 116.098,109.784 C -19.516,-51.081 -4.734,-26.423 0,0"
         style="fill:#a68d67;fill-opacity:1;fill-rule:nonzero;stroke:none"
         transform="matrix(0.05207304,0,0,-0.05207304,-54.820492,-54.523284)"
         clip-path="url(#clipPath40)" />
    </g>
  </g>
</svg>
