<?xml version="1.0" encoding="UTF-8"?>
<!-- Created with Inkscape (http://www.inkscape.org/) -->
<svg width="64" height="64" version="1.1" viewBox="0 0 16.933 16.933" xmlns="http://www.w3.org/2000/svg">
 <defs>
  <clipPath id="clipPath124">
   <path transform="translate(-1087.6 -1321.1)" d="m0 2020h2020v-2020h-2020z"/>
  </clipPath>
  <clipPath id="clipPath126">
   <path transform="translate(-1127.9 -1241.7)" d="m0 2020h2020v-2020h-2020z"/>
  </clipPath>
  <clipPath id="clipPath128">
   <path transform="translate(-969.86 -513.06)" d="m0 2020h2020v-2020h-2020z"/>
  </clipPath>
 </defs>
 <g transform="matrix(.040931 0 0 .040931 4.2576 2.3933)" fill="#a68d67">
  <path transform="matrix(.35278 0 0 -.35278 122.29 37.865)" d="m0 0c0.407 5.972 6.869 9.288 11.708 6.008l49.586-33.612c2.838 2.397 2.704 2.283 5.541 4.68l-120.28 292.08v3.926l-0.753-1.963-0.754 1.963v-3.926l-120.28-292.08c2.838-2.397 2.703-2.283 5.541-4.68l49.587 33.612c4.839 3.28 11.301-0.036 11.708-6.008l41.224-788.25-70.662-99.434c4.615-6.231 4.238-5.721 8.853-11.952l74.787 30.153 74.787-30.153c4.616 6.231 4.238 5.721 8.853 11.952l-70.661 99.434z" clip-path="url(#clipPath124)"/>
  <path transform="matrix(.35278 0 0 -.35278 136.5 65.872)" d="m0 0c-2.557-0.44-2.259-0.389-4.817-0.829l-19.148-210.26c52.986-9.826 95.852-28.686 130.6-52.565l-138.77-396.48 13.758-6.048 171.79 362.8c81.463-84.437 97.735-196.37 102.02-226.46l-287.46-198.31 16.808-22.174 472.29 310.36-1.762 19.083-129.99 80.249c-19.142 52.6-56.55 110.72-114.02 159.48l50.874 107.43c2.034 4.125 7.604 4.463 10.091 0.613l25.486-39.452c2.721 0.818 2.592 0.779 5.313 1.597l-0.308 245.61 1.147 2.795-1.109-1.161 0.037 1.633-1.147-2.796-170.98-170.32c1.321-2.595 1.258-2.472 2.578-5.066l45.127 8.412c4.404 0.821 8.036-3.563 6.58-7.943l-34.419-98.342c-32.478 19.063-69.318 35.152-110.8 46.747l5e-3 9e-3z" clip-path="url(#clipPath126)"/>
  <path transform="matrix(.35278 0 0 -.35278 80.736 322.94)" d="m0 0-288.23 198.84c4.287 30.086 20.557 142.02 102.02 226.46l171.79-362.8 13.759 6.047-138.77 396.48c34.749 23.88 77.615 42.739 130.6 52.565v1e-3l1e-3 -1e-3 -19.149 210.26c-2.556 0.44-2.259 0.388-4.816 0.828l-39.77-91.393 5e-3 -9e-3c-41.482-11.595-78.322-27.684-110.8-46.746l-34.419 98.342c-1.455 4.379 2.177 8.763 6.581 7.942l45.127-8.412c1.32 2.595 1.257 2.472 2.578 5.066l-170.98 170.32-1.147 2.795 0.037-1.633-1.109 1.162 1.147-2.795-0.308-245.61c2.721-0.818 2.592-0.779 5.313-1.598l25.486 39.453c2.487 3.849 8.057 3.511 10.091-0.613l50.874-107.44c-57.472-48.762-94.88-106.88-114.02-159.48l-129.99-80.25-1.762-19.083 473.06-310.87z" clip-path="url(#clipPath128)"/>
 </g>
</svg>
