<?xml version="1.0" encoding="UTF-8"?>
<!-- Created with Inkscape (http://www.inkscape.org/) -->
<svg width="64" height="64" version="1.1" viewBox="0 0 16.933 16.933" xmlns="http://www.w3.org/2000/svg">
 <defs>
  <clipPath id="clipPath297">
   <path transform="translate(-1010 -647.64)" d="m0 2020h2020v-2020h-2020z"/>
  </clipPath>
  <clipPath id="clipPath299">
   <path transform="translate(-1108 -964.53)" d="m0 2020h2020v-2020h-2020z"/>
  </clipPath>
  <clipPath id="clipPath301">
   <path transform="translate(-1157.2 -1086)" d="m0 2020h2020v-2020h-2020z"/>
  </clipPath>
  <clipPath id="clipPath303">
   <path transform="translate(-1081.9 -860.68)" d="m0 2020h2020v-2020h-2020z"/>
  </clipPath>
  <clipPath id="clipPath305">
   <path transform="translate(-949.25 -807.9)" d="m0 2020h2020v-2020h-2020z"/>
  </clipPath>
  <clipPath id="clipPath307">
   <path transform="translate(-862.84 -1086)" d="m0 2020h2020v-2020h-2020z"/>
  </clipPath>
  <clipPath id="clipPath309">
   <path transform="translate(-1046.8 -1326.3)" d="m0 2020h2020v-2020h-2020z"/>
  </clipPath>
  <clipPath id="clipPath311">
   <path transform="translate(-963.35 -1279.1)" d="m0 2020h2020v-2020h-2020z"/>
  </clipPath>
  <clipPath id="clipPath313">
   <path transform="translate(-1056.7 -740.92)" d="m0 2020h2020v-2020h-2020z"/>
  </clipPath>
  <clipPath id="clipPath315">
   <path transform="translate(-741.17 -961.99)" d="m0 2020h2020v-2020h-2020z"/>
  </clipPath>
 </defs>
 <g transform="matrix(.042404 0 0 .042404 -38.998 -2.1878)" fill="#a68d67">
  <path transform="matrix(.35278 0 0 -.35278 1119.4 379.1)" d="m0 0c-200.13 0-362.36 162.24-362.36 362.36s162.24 362.36 362.36 362.36 362.36-162.24 362.36-362.36-162.24-362.36-362.36-362.36m558.16 285.65s7.823 27.368 7.823 76.711c0 42.538-7.823 76.711-7.823 76.711l-127.38 25.652c-11.02 46.553-29.391 90.257-53.819 129.83l71.956 108.25s-13.82 24.882-48.711 59.773c-30.08 30.079-59.774 48.711-59.774 48.711l-108.25-71.956c-39.575 24.429-83.279 42.799-129.83 53.819l-25.651 127.38s-27.367 7.823-76.711 7.823c-42.538 0-76.71-7.823-76.71-7.823l-25.653-127.38c-46.553-11.02-90.257-29.39-129.83-53.819l-108.25 71.956s-24.882-13.819-59.773-48.711c-30.079-30.079-48.712-59.773-48.712-59.773l71.955-108.25c-24.427-39.575-42.798-83.279-53.819-129.83l-127.38-25.652s-7.822-27.366-7.822-76.711c0-42.538 7.822-76.711 7.822-76.711l127.38-25.65c11.021-46.554 29.392-90.258 53.819-129.83l-71.955-108.24s13.82-24.882 48.712-59.775c30.079-30.078 59.773-48.71 59.773-48.71l108.25 71.955c39.574-24.428 83.278-42.798 129.83-53.818l25.653-127.38s27.366-7.823 76.71-7.823c42.538 0 76.711 7.823 76.711 7.823l25.651 127.38c46.553 11.02 90.257 29.39 129.83 53.818l108.25-71.955s24.882 13.82 59.774 48.71c30.078 30.08 48.711 59.775 48.711 59.775l-71.956 108.24c24.428 39.575 42.799 83.279 53.819 129.83z" clip-path="url(#clipPath297)"/>
  <path transform="matrix(.35278 0 0 -.35278 1153.9 267.3)" d="m0 0 174.69 40.247v10.446l-174.69 40.249c-29.065 6.697-51.597 29.662-57.74 58.849l-34.947 166.05h-10.49l-34.948-166.05c-6.143-29.187-28.674-52.152-57.739-58.849l-174.69-40.249v-10.446l174.69-40.247c29.066-6.696 51.597-29.661 57.74-58.849l34.948-166.05h10.49l34.947 166.05c6.143 29.188 28.675 52.153 57.74 58.849" clip-path="url(#clipPath299)"/>
  <path transform="matrix(.35278 0 0 -.35278 1171.3 224.44)" d="m0 0 54.068-12.458c-20.98 66.256-73.835 118.44-140.48 138.52l11.109-52.783c32.327-15.625 58.803-41.467 75.305-73.28" clip-path="url(#clipPath301)"/>
  <path transform="matrix(.35278 0 0 -.35278 1144.7 303.94)" d="m0 0-11.109-52.783c66.647 20.08 119.5 72.265 140.48 138.52l-54.068-12.457c-16.503-31.813-42.979-57.655-75.305-73.281" clip-path="url(#clipPath303)"/>
  <path transform="matrix(.35278 0 0 -.35278 1097.9 322.56)" d="m0 0-11.109 52.784c-32.326 15.626-58.802 41.467-75.304 73.28l-54.068 12.457c20.98-66.255 73.834-118.44 140.48-138.52" clip-path="url(#clipPath305)"/>
  <path transform="matrix(.35278 0 0 -.35278 1067.4 224.44)" d="m0 0c16.502 31.812 42.978 57.654 75.304 73.279l11.109 52.784c-66.647-20.081-119.5-72.265-140.48-138.52z" clip-path="url(#clipPath307)"/>
  <path transform="matrix(.35278 0 0 -.35278 1132.3 139.68)" d="m0 0 9.934-47.2c112.8-19.511 202.13-108.45 222.18-221.07l47.382-10.917c-17.028 146.1-133.35 262.32-279.5 279.19" clip-path="url(#clipPath309)"/>
  <path transform="matrix(.35278 0 0 -.35278 1102.9 156.34)" d="m0 0 9.934 47.2c-146.15-16.872-262.47-133.09-279.5-279.19l47.381 10.917c20.054 112.62 109.38 201.56 222.18 221.07" clip-path="url(#clipPath311)"/>
  <path transform="matrix(.35278 0 0 -.35278 1135.8 346.19)" d="m0 0-9.934-47.2c146.15 16.872 262.47 133.09 279.5 279.19l-47.381-10.917c-20.054-112.62-109.38-201.56-222.18-221.07" clip-path="url(#clipPath313)"/>
  <path transform="matrix(.35278 0 0 -.35278 1024.5 268.2)" d="m0 0-47.381 10.917c17.028-146.1 133.34-262.32 279.5-279.19l-9.933 47.2c-112.8 19.512-202.13 108.45-222.18 221.07" clip-path="url(#clipPath315)"/>
 </g>
</svg>
