<?xml version="1.0" encoding="UTF-8"?>
<!-- Created with Inkscape (http://www.inkscape.org/) -->
<svg width="64" height="64" version="1.1" viewBox="0 0 16.933 16.933" xmlns="http://www.w3.org/2000/svg">
 <defs>
  <clipPath id="clipPath266">
   <path transform="translate(-1026.9 -1594.3)" d="m0 2020h2020v-2020h-2020z"/>
  </clipPath>
  <clipPath id="clipPath268">
   <path transform="translate(-869.19 -1538.9)" d="m0 2020h2020v-2020h-2020z"/>
  </clipPath>
  <clipPath id="clipPath270">
   <path transform="translate(-1180 -1288.7)" d="m0 2020h2020v-2020h-2020z"/>
  </clipPath>
  <clipPath id="clipPath272">
   <path transform="translate(-1333.1 -1295.2)" d="m0 2020h2020v-2020h-2020z"/>
  </clipPath>
  <clipPath id="clipPath274">
   <path transform="translate(-1045.6 -956.7)" d="m0 2020h2020v-2020h-2020z"/>
  </clipPath>
  <clipPath id="clipPath276">
   <path transform="translate(-1391.8 -593.8)" d="m0 2020h2020v-2020h-2020z"/>
  </clipPath>
  <clipPath id="clipPath278">
   <path transform="translate(-1448.5 -783.27)" d="m0 2020h2020v-2020h-2020z"/>
  </clipPath>
  <clipPath id="clipPath280">
   <path transform="translate(-1376.4 -1091.6)" d="m0 2020h2020v-2020h-2020z"/>
  </clipPath>
  <clipPath id="clipPath282">
   <path transform="translate(-640.41 -1070.9)" d="m0 2020h2020v-2020h-2020z"/>
  </clipPath>
  <clipPath id="clipPath284">
   <path transform="translate(-697.48 -652.07)" d="m0 2020h2020v-2020h-2020z"/>
  </clipPath>
  <clipPath id="clipPath286">
   <path transform="translate(-617.92 -867.5)" d="m0 2020h2020v-2020h-2020z"/>
  </clipPath>
 </defs>
 <g transform="matrix(.040288 0 0 .040288 4.3196 2.4837)" fill="#a68d67">
  <path transform="matrix(.35278 0 0 -.35278 103.52 -57.63)" d="m0 0s-34.56 11.389-66.081 11.389c-27.894 0-65.464-11.389-65.464-11.389v-225.03h131.54z" clip-path="url(#clipPath266)"/>
  <path transform="matrix(.35278 0 0 -.35278 47.868 -38.067)" d="m0 0-121.9-46.182c-5.701-2.16-9.428-7.319-9.428-13.049v-110.34h131.32z" clip-path="url(#clipPath268)"/>
  <path transform="matrix(.35278 0 0 -.35278 157.53 50.184)" d="m0 0v238.65c0 6.197-4.349 11.666-10.716 13.475l-116.17 33.012v-319.14l111.54 17.161c8.857 1.364 15.352 8.493 15.352 16.849" clip-path="url(#clipPath270)"/>
  <path transform="matrix(.35278 0 0 -.35278 211.54 47.903)" d="m0 0v116.27c0 5.73-3.728 10.889-9.429 13.049l-117.46 44.501v-214.29l112.61 23.825c8.351 1.766 14.277 8.678 14.277 16.651" clip-path="url(#clipPath272)"/>
  <path transform="matrix(.35278 0 0 -.35278 110.1 167.31)" d="m0 0-18.646-157.4-18.647 157.4-123.29-23.604 141.94 68.947 141.94-68.947zm194.64-37.691c41.955 34.706 68.361 82.829 73.98 134.82l14.498 175.19h-292.2l53.735-140.27-87.4 100.02h-140.43l-43.678 27.065h134.45c40.727 0 73.742 30.734 73.753 68.651v57.952h-285.79c-28.263-33.427-33.702-47.726-61.963-81.154l51.889-225.56c10.717-41.29 34.74-78.541 68.849-106.76l7.438-6.153 122.2-374.24 36.36 233.18 61.016-367.48 61.304 368.98 37.591-234.69z" clip-path="url(#clipPath274)"/>
  <path transform="matrix(.35278 0 0 -.35278 232.23 295.33)" d="m0 0c-5.469-10.521-13.444-19.682-23.335-25.575 5.856 9.864 10.533 19.546 13.566 29.617 3.076 10.023 4.607 20.278 4.607 30.54-3e-3 1.848-0.072 3.695-0.174 5.542-0.358-0.27-0.727-0.526-1.119-0.753-8.999-5.195-23.611 3.268-32.637 18.901-9.027 15.635-9.05 32.521-0.051 37.716 4.397 2.538 10.135 1.809 15.907-1.419-0.034 0.057-0.065 0.113-0.099 0.17 9.901-5.882 17.886-15.044 23.353-25.568 5.455-10.556 8.326-22.573 8.31-34.589-2e-3 -12.015-2.873-24.028-8.328-34.582m-148.69 109.24c-41.233-41.231-41.233-108.08 0-149.31 41.23-41.233 108.08-41.233 149.31 0 41.232 41.231 41.232 108.08 0 149.31-41.231 41.233-108.08 41.233-149.31 0" clip-path="url(#clipPath276)"/>
  <path transform="matrix(.35278 0 0 -.35278 252.25 228.49)" d="m0 0c5.855 9.863 10.533 19.545 13.566 29.617 3.075 10.024 4.607 20.278 4.607 30.539-4e-3 2.103-0.087 4.204-0.219 6.304-0.501-0.423-1.037-0.804-1.61-1.135-8.999-5.195-23.612 3.268-32.637 18.902-9.027 15.634-9.05 32.519-0.051 37.714 4.516 2.608 10.446 1.774 16.373-1.679l-0.029 0.052c9.901-5.882 17.886-15.043 23.352-25.568 5.455-10.557 8.327-22.574 8.31-34.589-2e-3 -12.014-2.872-24.028-8.327-34.583-5.47-10.519-13.445-19.681-23.335-25.574m-43.072 154c-51.83 0-93.848-42.017-93.848-93.847 0-51.831 42.018-93.846 93.848-93.846s93.847 42.015 93.847 93.846c0 51.83-42.017 93.847-93.847 93.847" clip-path="url(#clipPath278)"/>
  <path transform="matrix(.35278 0 0 -.35278 226.8 119.73)" d="m0 0c3.686 2.799 9.518 1.797 15.174-1.993 7.473-4.486 13.85-11.007 18.576-18.706 5.611-9.17 8.741-20.109 8.721-31.097 2e-3 -10.987-3.126-21.921-8.738-31.089-5.626-9.155-13.568-16.659-22.924-21.049 2.784 4.368 5.418 8.537 7.668 12.809 2.263 4.254 4.208 8.535 5.757 12.88 3.135 8.668 4.743 17.554 4.747 26.449-0.014 5.704-0.688 11.401-1.991 17.041-0.121-0.103-0.225-0.223-0.353-0.319-5.575-4.235-16.057 0.185-23.412 9.871-7.356 9.685-8.8 20.969-3.225 25.203m36.924-106.54c30.234 30.235 30.234 79.256 0 109.49-17.671 17.67-41.757 24.995-64.762 22.01l-9.369-93.137c-1.882-18.696-6.178-36.855-12.669-54.103 28.537-12.973 63.327-7.735 86.8 15.738" clip-path="url(#clipPath280)"/>
  <path transform="matrix(.35278 0 0 -.35278 -32.84 127.03)" d="m0 0c4.684 7.63 10.988 14.104 18.376 18.586 5.712 3.891 11.629 4.942 15.355 2.113 5.575-4.234 4.13-15.517-3.226-25.203-7.356-9.685-17.838-14.105-23.412-9.871-0.121 0.092-0.221 0.206-0.336 0.305-1.301-5.635-1.974-11.327-1.988-17.027 3e-3 -8.895 1.612-17.781 4.748-26.449 1.548-4.345 3.494-8.626 5.757-12.88 2.249-4.272 4.883-8.441 7.667-12.808-9.356 4.389-17.299 11.893-22.924 21.048-5.612 9.168-8.74 20.102-8.738 31.089-0.02 10.989 3.11 21.927 8.721 31.097m76.802-104.3c-5.288 11.864-9.524 24.262-12.623 37.087l-27.104 112.17c-14.746-2.797-28.836-9.896-40.249-21.308-30.235-30.236-30.235-79.257 0-109.49 21.631-21.631 52.873-27.777 79.976-18.459" clip-path="url(#clipPath282)"/>
  <path transform="matrix(.35278 0 0 -.35278 -12.707 274.77)" d="m0 0c-9.026-15.634-23.638-24.097-32.636-18.901-0.254 0.146-0.498 0.304-0.737 0.469-0.092-1.752-0.155-3.505-0.159-5.258 0-10.262 1.532-20.517 4.607-30.54 3.033-10.072 7.711-19.753 13.567-29.618-9.891 5.894-17.868 15.055-23.336 25.576-5.455 10.553-8.325 22.567-8.327 34.582-0.017 12.015 2.856 24.033 8.311 34.588 3.879 7.47 9.032 14.246 15.234 19.658 8.012 7.676 17.17 10.83 23.528 7.16 8.998-5.195 8.974-22.081-0.052-37.716m-39.314 50.966c-41.232-41.232-41.232-108.08 0-149.31 41.231-41.232 108.08-41.232 149.31 0 41.231 41.232 41.231 108.08 0 149.31-41.232 41.232-108.08 41.232-149.31 0" clip-path="url(#clipPath284)"/>
  <path transform="matrix(.35278 0 0 -.35278 -40.774 198.78)" d="m0 0c-9.026-15.634-23.638-24.097-32.636-18.901-0.433 0.25-0.839 0.535-1.23 0.837-0.119-2-0.197-4.002-0.201-6.006 0-10.262 1.532-20.516 4.607-30.539 3.033-10.073 7.711-19.754 13.566-29.618-9.89 5.893-17.867 15.055-23.335 25.575-5.456 10.554-8.326 22.568-8.328 34.583-0.016 12.014 2.856 24.032 8.311 34.589 4.163 8.016 9.792 15.238 16.612 20.826 7.805 7.1 16.55 9.912 22.686 6.369 8.998-5.195 8.974-22.08-0.052-37.715m121.02-24.069c0 51.83-42.015 93.846-93.846 93.846s-93.847-42.016-93.847-93.846c0-51.831 42.016-93.847 93.847-93.847s93.846 42.016 93.846 93.847" clip-path="url(#clipPath286)"/>
 </g>
</svg>
