<?xml version="1.0" encoding="UTF-8"?>
<!-- Created with Inkscape (http://www.inkscape.org/) -->
<svg width="64" height="64" version="1.1" viewBox="0 0 64 64" xmlns="http://www.w3.org/2000/svg">
 <g transform="matrix(3.7796 0 0 3.7796 1980 1780.1)">
  <g transform="translate(1.5605)">
   <path transform="matrix(.014349 0 0 -.014349 -515.45 -464.58)" d="m0 0v89.781l67.432 37.637c2.878 1.605 6.119-1.433 4.701-4.408l-38.242-80.201 38.87-67.481c-1.694-1.936-1.668-1.906-3.362-3.841zm-211.8 0-69.399-28.513c-1.694 1.935-1.668 1.905-3.361 3.841l38.87 67.481-38.242 80.201c-1.419 2.975 1.823 6.013 4.701 4.408l67.431-37.637zm355.72-300.31s229.73 124.91 231.47 403.55l-94.336 20.963 85.6 74.246s-48.041 172.95-214 246.32l-33.192-162.47-121.2-76.499v-24.491c0-24.3-6.07-33.351-24.895-38.057v66.534l-79.268 69.893-79.269-69.893v-66.534c-18.825 4.706-24.894 13.757-24.894 38.057v24.491l-121.2 76.499-33.192 162.47c-165.96-73.373-214-246.32-214-246.32l85.601-74.246-94.336-20.963c1.747-278.64 231.47-403.55 231.47-403.55l71.625 180.81 74.246 28.825 0.273 21.205c0.819 27.163 24.403 23.397 24.403 23.397v-60.069l39.089-22.093v-267.29l-27.109-16.682c-0.312-4.022-0.431-5.561-0.743-9.582l23.484-20.03v-193.04l-35.813-41.053 6.989-13.102h27.077l46.295-46.295 46.295 46.295h27.078l6.987 13.102-35.813 41.053v193.04l23.484 20.03c-0.312 4.021-0.431 5.56-0.742 9.582l-27.11 16.682v267.29l39.089 22.093v60.069s23.584 3.766 24.404-23.397l0.272-21.205 74.246-28.825z"/>
   <path transform="matrix(.014349 0 0 -.014349 -511.5 -460.23)" d="m0 0c-39.924-48.831-175.59-220.94-213.78-269.44 2.922-4.711 2.959-4.77 5.881-9.481l93.225 19.391 1.747-85.601 148.49 179.06-102.2-26.204 71.698 189.32c-2.912 1.696-2.153 1.254-5.065 2.95"/>
   <path transform="matrix(.014349 0 0 -.014349 -522.51 -460.19)" d="m0 0 71.699-189.32-102.2 26.204 148.49-179.06 1.747 85.601 93.226-19.39c2.922 4.71 2.959 4.77 5.881 9.481-38.193 48.49-173.86 220.6-213.78 269.44-2.912-1.697-2.153-1.255-5.065-2.951"/>
  </g>
 </g>
</svg>
