<?xml version="1.0" encoding="UTF-8"?>
<!-- Created with Inkscape (http://www.inkscape.org/) -->
<svg width="64" height="64" version="1.1" viewBox="0 0 16.933 16.933" xmlns="http://www.w3.org/2000/svg">
 <defs>
  <clipPath id="clipPath245">
   <path transform="translate(-987.88 -1107.8)" d="m0 2020h2020v-2020h-2020z"/>
  </clipPath>
  <clipPath id="clipPath247">
   <path transform="translate(-664.12 -1327.9)" d="m0 2020h2020v-2020h-2020z"/>
  </clipPath>
  <clipPath id="clipPath249">
   <path transform="translate(-900.72 -517.88)" d="m0 2020h2020v-2020h-2020z"/>
  </clipPath>
  <clipPath id="clipPath251">
   <path transform="translate(-1196.6 -1559.5)" d="m0 2020h2020v-2020h-2020z"/>
  </clipPath>
  <clipPath id="clipPath253">
   <path transform="translate(-1456.1 -781.81)" d="m0 2020h2020v-2020h-2020z"/>
  </clipPath>
 </defs>
 <g transform="matrix(.04029 0 0 .04029 3.8634 57.256)" fill="#a68d67">
  <path transform="matrix(.35278 0 0 -.35278 101.8 -1245.4)" d="m0 0s23.198 102.64 32.172 193.58h6.261c8.973-90.932 32.172-193.58 32.172-193.58 66.889-270.78-35.303-492.64-35.303-492.64s-102.19 221.86-35.302 492.64m-104.98-24.604c-24.565-64.875-100.32-316.56 104.98-529.18l29.1-139.68h12.404l29.101 139.68c205.3 212.63 129.54 464.31 104.98 529.18 3.164 1.614 2.366 1.207 5.529 2.821 238.51-268.11-54.763-532-54.763-532 323.3 167.71 375.32 384.45 375.32 384.45h-111.48c65.032 117.17 41.544 326.28 41.544 326.28l-150.97-5.808-26.334-38.398c-66.89 164.22-219.12 385.15-219.12 385.15s-152.23-220.93-219.12-385.15l-26.335 38.398-150.97 5.808s-23.487-209.11 41.544-326.28h-111.48s52.025-216.75 375.32-384.45c0 0-293.27 263.9-54.765 532 3.164-1.614 2.365-1.207 5.529-2.821" clip-path="url(#clipPath245)"/>
  <path transform="matrix(.35278 0 0 -.35278 -12.417 -1323.1)" d="m0 0s25.067 130.92 185.68 231.63c6.685-7.114 5.327-5.669 12.013-12.782-30.83-42.152-78.634-119.53-107.11-224.96z" clip-path="url(#clipPath247)"/>
  <path transform="matrix(.35278 0 0 -.35278 71.052 -1037.3)" d="m0 0s-142.3-13.379-245.78 77.841c0 0-63.386 51.083-64.68 186.09 0 0 54.331-175.74 310.46-263.93" clip-path="url(#clipPath249)"/>
  <path transform="matrix(.35278 0 0 -.35278 175.42 -1404.8)" d="m0 0c160.61-100.7 185.68-231.63 185.68-231.63l-90.579-6.115c-28.48 105.43-76.285 182.81-107.12 224.96 6.687 7.113 5.328 5.668 12.014 12.782" clip-path="url(#clipPath251)"/>
  <path transform="matrix(.35278 0 0 -.35278 266.98 -1130.4)" d="m0 0c-1.294-135-64.68-186.09-64.68-186.09-103.49-91.22-245.78-77.841-245.78-77.841 256.13 88.187 310.46 263.93 310.46 263.93" clip-path="url(#clipPath253)"/>
 </g>
</svg>
