<?xml version="1.0" encoding="UTF-8"?>
<svg version="1.1" viewBox="0 0 120 120" xmlns="http://www.w3.org/2000/svg">
   <path
      d="m58.057 7.7019c2.4996 0.90525 5.0431 0.91293 7.6526 1.1652 0.04309 0.00454 0.05382-0.068447 0.01058-0.075364-5.4122-0.90371-9.5739-3.6356-13.353-7.4934-1.3104-1.3375-3.1989 0.89601-1.6168 2.0958 2.2629 1.7159 4.6186 3.3341 7.3067 4.3078" />
   <path
      d="m65.699 6.9997c0.0477 0.00831 0.0692-0.060775 0.02079-0.074608-1.7621-0.48915-3.3749-1.8089-4.644-3.0726-0.59375-0.59144-1.149-1.2206-1.609-1.922-0.42916-0.65452-0.58222-1.0921-1.4298-1.216-0.51453-0.075364-1.1814 0.12076-1.2859 0.73066-0.01474 0.08383-0.0291 0.16766-0.04384 0.25225-0.07691 0.44685-0.03999 0.98677 0.34454 1.3036 2.6127 2.1527 5.3207 3.4049 8.6471 3.9986" />
   <path
      d="m64.176 5.0369c0.75065 0.64452 1.5282 1.1652 2.4073 1.5967 0.03402 0.017008 0.07306-0.017008 0.05307-0.052309-0.39533-0.67913-0.76834-1.4252-1.0852-2.1458-0.3284-0.74681-0.42916-1.4067-0.5276-2.1935-0.24382-1.9574-3.0303-1.6144-2.6911 0.36378 0.1646 0.96138 1.1391 1.8282 1.8436 2.4312" />
   <path
      d="m80.911 9.3539c-5.5983 3.651-11.993 5.5783-18.671 5.7476-0.0469 0.0017-0.04539 0.06769 0 0.0723 6.8843 0.64913 13.668-0.72527 19.836-3.8271 1.3244-0.66605 0.08769-2.8096-1.1652-1.9928" />
   <path
      d="m61.063 16.447c4.5947 1.3552 8.9655 2.2727 13.791 1.9981 0.51761-0.0291 1.0675-0.35841 1.1852-0.90216 0.09075-0.42147 0.0723-0.5676-0.12382-0.94754-0.26767-0.51761-0.86601-0.65374-1.3882-0.56529-4.357 0.74219-9.0609 1.1083-13.443 0.34303-0.0477-0.0087-0.06845 0.05998-0.02079 0.07385" />
   <path
      d="m60.19 17.586c2.2312 1.782 5.0131 3.5933 7.9595 3.7294 1.229 0.05692 1.3506-1.6882 0.2784-2.0543-2.598-0.88678-5.5114-1.0298-8.1679-1.7959-0.06459-0.01852-0.12843 0.07385-0.07 0.12076" />
   <path
      d="m25.838 9.207c-5.4072-0.14846-10.92-1.1644-15.26-4.6508-0.03783-0.030614-0.09097 0.019276-0.05439 0.053821 4.3142 4.1086 9.2543 7.3619 15.314 7.9864 2.1351 0.21997 2.2126-3.3287 0-3.3895" />
   <path
      d="m24.871 5.0069c-4.8352-0.072302-9.6307-0.18535-14.095-2.3458-0.04445-0.021543-0.08145 0.03995-0.03908 0.066898 4.2742 2.678 8.9502 5.0861 14.134 5.1638 1.8566 0.027591 1.8576-2.8572 0-2.8849" />
   <path
      d="m23.805 4.0055c2.5384-0.85371 0.46385-4.5708-1.6136-2.7726-1.2303 1.0644-3.5977 0.94754-5.1374 0.95369-1.8074 0.0068-3.6367-0.13383-5.3919-0.57452-0.04891-0.012095-0.06576 0.05692-0.02041 0.074608 2.164 0.83603 4.2815 1.6397 6.5764 2.0512 1.7852 0.31994 3.8179 0.86141 5.5869 0.26763" />
   <path
      d="m27.903 29.561c-3.5217-1.7236-5.147-5.0684-6.7609-8.4194 3.3511 1.6136 6.6961 3.2395 8.4194 6.7612 0.36833 0.75296 0.58191 1.5782 0.7595 2.4181-0.8391-0.17843-1.665-0.39148-2.4179-0.75988zm5.5755 2.8234c-0.12259-0.56376-0.2545-1.1129-0.43385-1.6628-0.53353-1.6328-1.2474-3.2172-2.2553-4.6139-2.6279-3.6433-6.529-4.6523-10.535-5.8545 1.2014 4.0063 2.2103 7.908 5.8537 10.536 1.397 1.0075 2.9808 1.7213 4.6143 2.255 0.54945 0.17922 1.0987 0.31071 1.6629 0.43378 0.23281 0.05076 1.1365 0.31072 0.90547 0.18765 0.18151 0.09615 0.35902 0.14306 0.52876 0.15307-0.0099-0.16996-0.05676-0.34764-0.1529-0.52838 0.1226 0.23074-0.13759-0.67297-0.18805-0.90601" />
   <path
      d="m33.053 35.524c-2.0054-0.20534-3.5231 0.19922-5.2194-1.1306-0.2815-0.22072-0.58522-0.2092-0.80603-0.07461-0.14482 0.02457-0.28903 0.10076-0.41793 0.24306-1.2153 1.3382-3.107 1.8128-4.587 0.6199 0.82172-0.64528 1.4731-1.5105 1.82-2.5688 0.0069-0.02154-0.024-0.03288-0.03545-0.0155-1.3351 2.1627-3.5947 2.9418-5.7839 2.1027 0.53599-1.5098 0.61498-3.3787 0.66336-4.8862 0.06314-1.9843-0.11714-4.014-0.45516-5.9691-0.5233-3.0249-1.5838-5.7952-2.8817-8.4956 2.7003 1.2983 5.4708 2.3581 8.4957 2.8819 1.9549 0.33842 3.9846 0.51838 5.9684 0.45531 1.5079-0.04845 3.3765-0.12767 4.8868-0.66374 0.8391 2.1897 0.05953 4.4485-2.1027 5.7845-0.01799 0.01058-0.0067 0.04226 0.01478 0.03553 1.0584-0.34685 1.9239-0.9983 2.5696-1.8205 1.1927 1.4805 0.71804 3.3725-0.62037 4.587-0.14213 0.12922-0.21812 0.27379-0.2425 0.41839-0.13552 0.22072-0.1469 0.52454 0.07422 0.80603 1.3294 1.6959 0.92562 3.2133 1.1305 5.2192 0.12352 1.2052 0.43147 2.3719 0.96077 3.4318-1.0605-0.52907-2.2271-0.83748-3.4318-0.96054zm3.5932-1.5644c-0.04776-0.98216 0.12798-1.9482 0.16613-2.9265 0.04961-1.2836-0.11352-2.5596-0.88778-3.5471 1.5878-1.7036 1.1363-4.1863-0.68797-5.5314 0.08653 0.05922 0.8914-1.6605 0.95301-1.8612 0.42024-1.3775 0.29918-2.858-0.1659-4.207-0.21358-0.6199-1.041-1.149-1.6689-0.67913-2.8826 2.1589-7.2768 2.355-10.709 1.9474-2.9881-0.35531-5.9883-1.206-8.8255-2.3342 1.1287 2.8372 1.9789 5.8375 2.334 8.8255 0.4077 3.4318 0.2115 7.8265-1.9471 10.709-0.47015 0.6276 0.05922 1.4552 0.67866 1.669 1.3496 0.46454 2.8298 0.58606 4.207 0.16535 0.20128-0.06153 1.9209-0.86601 1.8612-0.95292 1.3462 1.8243 3.8281 2.2758 5.5319 0.68835 0.98808 0.77373 2.2637 0.93754 3.5472 0.88755 0.97815-0.03848 1.9441-0.21381 2.9268-0.16611 1.2534 0.06153 2.3879 0.44608 3.5418 0.85602-0.40948-1.1544-0.79434-2.2889-0.85563-3.5425" />
   <path
      d="m7.6018 7.6026c-0.38456 0.08999-0.76488 0.19997-1.1485 0.29303-0.042973-0.41301 0.012472-0.83064 0.19166-1.2506 0.4194-0.17923 0.83733-0.2346 1.2507-0.19151-0.093128 0.38379-0.20375 0.76373-0.29386 1.149zm-0.81441-3.5087c0.25897-0.51146-0.061606-1.2736-0.48793-1.5044 1.5992-0.50299 1.8651 2.4881 1.7365 3.1641-0.60721 0.05537-1.1507 0.29764-1.6227 0.6599-0.362 0.47146-0.60413 1.0152-0.66005 1.6221-0.67597 0.12922-3.667-0.13689-3.1639-1.7359 0.23021 0.42609 0.99269 0.7468 1.5043 0.48761 1.5833-0.80141 0.13221-2.7426-1.2071-2.7096-2.128 0.051515-2.5237 2.5665-1.1477 3.8386 1.2504 1.1567 2.6438 1.1891 4.0679 1.0291 0.34065 1.6905 1.9278 2.7242 3.056 3.9009 3.2257 3.3664 5.7113 7.5965 5.7836 12.37 0.07597 5.0054-2.4134 12.053-8.6843 10.366-2.3332-0.62759-4.3948-3.1518-2.3554-5.3653 0.91455-0.99369 2.7168-1.2844 3.5713-0.03553 0.49716 0.72681 0.55338 1.8851-0.43293 2.2189-0.49546 0.16766-1.6443 0.10919-1.1804-0.6922 0.54799-0.94677-0.91209-1.7959-1.4634-0.85525-1.1576 1.9751 0.69097 3.5702 2.7105 3.3026 2.3371-0.30996 3.104-3.0157 1.7245-4.7677-2.7456-3.4871-7.8055 0.2115-6.8307 4.0078 1.1071 4.3109 7.5084 4.4847 10.46 2.2289 2.2301-1.7043 3.1239-5.0177 3.4998-7.6642 0.39955-2.8119 0.018898-5.6553-1.0401-8.2856-0.91424-2.2696-2.2824-4.3216-3.8876-6.1598-1.1231-1.286-3.2799-2.9234-4.0327-4.6862 0.64928-0.090746 1.2997-0.17919 1.942-0.18153 0.0026193-0.6422 0.091389-1.2929 0.18142-1.942 1.763 0.75296 3.4006 2.9095 4.6862 4.0324 1.8386 1.6051 3.89 2.9734 6.1601 3.8878 2.6303 1.0591 5.4739 1.439 8.2859 1.0398 2.646-0.3761 5.9597-1.2698 7.6638-3.4994 2.256-2.9526 2.0823-9.3531-2.2283-10.461-3.7966-0.97523-7.4949 4.0847-4.0084 6.8305 1.7518 1.3798 4.4581 0.61298 4.7679-1.7243 0.26773-2.0197-1.3276-3.8679-3.3026-2.7103-0.9407 0.55068-0.09168 2.0112 0.85533 1.4628 0.80095-0.463 0.85955 0.68528 0.69189 1.1806-0.33379 0.98676-1.4919 0.93062-2.2187 0.43301-1.2489-0.85448-0.95777-2.6565 0.03515-3.5717 2.2136-2.0389 4.7379 0.022299 5.3655 2.3558 1.6875 6.2713-5.3606 8.7609-10.366 8.6848-4.7733-0.072303-9.0037-2.5588-12.37-5.7837-1.1771-1.1283-2.2106-2.7157-3.9008-3.0564 0.16014-1.4236 0.12767-2.8172-1.0293-4.0678-1.2723-1.3759-3.7866-0.97984-3.8386 1.1475-0.032504 1.3398 1.9084 2.7903 2.71 1.2075" />
   <path
      d="m47.679 13.707c1.1324 0.28611 2.1721 0.49531 3.1894 1.1144 0.95593 0.58221 1.7996 1.3252 2.8156 1.8089 1.3429 0.63913 2.4927 0.68759 3.7971-0.01209 0.01625-0.0087 0.0091-0.03848-0.0102-0.03628-2.6942 0.30535-4.1178-1.5082-6.0298-3.0057-1.0947-0.85755-2.3719-1.5667-3.7623-1.1214-0.58883 0.1892-0.64559 1.0898 0 1.2521" />
   <path
      d="m41.88 26.61c0.95631-0.8814 1.6115-1.9705 1.9844-3.1672 0.81472 1.5721 3.7473 2.3173 5.2008 1.9489 1.1032-1.1067 1.7239-2.2473 1.6211-3.8432-0.03213-0.49916-0.11958-0.99907-0.26411-1.4805 2.8194 0.71681 6.2889-0.24302 7.0472-3.3718 0.0042-0.01852-0.01852-0.03213-0.03213-0.01852-2.2627 2.2381-4.8969 3.4841-7.8888 1.5521-0.76042-0.49146-1.3616 0.58145-0.70989 1.2144 1.0331 1.0029 1.224 4.0747 0.19344 5.9152-1.481-0.27065-3.9683-1.1144-4.8546-4.2254-0.23912-0.8391-1.3255-0.61452-1.3093 0.58298-0.13313 1.3444-0.5733 2.6757-1.3826 3.7648-1.0554 1.4205-2.2629 1.6074-3.8438 1.5505 3.3766-1.3067 0.71328-6.6082 2.9836-8.7586 0.74658-0.70758-0.44854-1.8866-1.1217-1.1221-2.6171 2.9711 0.65012 7.1796-2.2587 9.8884-0.06514 0.07306-0.13244 0.20304-5.76e-4 0.31533 1.3465 1.1498 3.4544 0.34378 4.636-0.74527" />
   <path
      d="m39.875 8.3464c0.40708 2.9634 2.8024 4.7754 5.7058 4.8369-1.4087 1.3259-3.0938 2.125-5.0013 2.5742 0.05798-0.73142-0.12828-1.4882-0.26918-2.1958-0.33865-1.7013-0.75258-3.481-0.43532-5.2153zm-0.17552 7.8195c-0.09645 0.30841 0.20674 0.54376 0.48885 0.48838 2.6582-0.52069 4.9718-1.5828 6.7742-3.6487 0.22144-0.2538 0.10038-0.79449-0.31034-0.74834-3.3144 0.3707-5.6055-1.349-6.6613-4.447 0.19381-0.71758 0.46331-1.3067 0.79557-1.7789-0.51761 1.4313 0.0793 3.2749 1.3943 4.327 1.9065 1.5244 5.1467 1.479 5.6485-1.4075 0.42301-2.4327-1.577-5.2661-4.2022-3.8748-1.8362 0.97293-1.7329 4.0001 0.58098 4.1747 0.91308 0.068447 1.8633-0.45454 1.9375-1.4367 0.06822-0.89909-0.6985-1.5051-1.4397-0.8491-0.36472 0.32379 0.17397 0.86294 0.53538 0.53607 0.20428 0.15844 0.22174 0.3284 0.05231 0.51069-0.06036 0.25534-0.22957 0.40993-0.50745 0.46147-0.27488 0.11153-0.62282 0.066898-0.88924-0.029858-1.0509-0.38071-1.0398-1.7259-0.31695-2.4235 0.69935-0.67451 2.0035-0.66373 2.7113-0.020031 0.62614 0.56914 0.80788 1.6344 0.76342 2.4373-0.11807 2.145-2.1535 2.5934-3.7879 1.7705-1.5103-0.76142-2.8379-2.9357-2.2322-4.4977 2.0901-2.4288 6.106-1.186 8.9165 0.32459 3.2743 1.7597 6.2208 3.3464 9.8864 4.2378 3.2649 0.79372 6.9927 1.6767 10.287 0.55222 2.3596-0.80526 4.2432-2.788 4.3608-5.3615 0.0977-2.1343-1.2398-4.2762-3.4341-4.6685-1.9643-0.3507-4.4108 0.63913-4.8877 2.7503-0.53299 2.3596 1.5528 4.0993 3.7448 3.8332 2.0474-0.24843 3.8809-2.1027 2.4665-4.1047-1.4482-2.0504-4.4393-0.46147-3.6725 1.8512 0.22458 0.67913 1.2967 0.39302 1.0775-0.29688-0.43839-1.3844 2.878-0.88755 1.5505 0.67605-0.34534 0.40685-1.0675 0.62528-1.579 0.71142-2.5019 0.42053-3.5756-2.7359-1.3721-4.0626 2.9265-1.7628 5.8614 1.216 5.0623 4.2401-0.95293 3.6079-5.0784 4.2724-8.2549 3.994-3.581-0.31303-7.5234-1.2567-10.755-2.8311-3.5041-1.7066-8.3099-5.829-12.435-3.6009-1.9844 1.0721-2.9719 3.251-3.0407 5.4314-0.03742 1.1806 0.17212 2.3596 0.40132 3.5125 0.2022 1.0168 0.66305 2.2419 0.34246 3.2672" />
   <path
      d="m89.519 3.3333c-6.5913 1.7605-11.714 6.6905-18.154 8.7955-7.0943 2.3181-15.589 1.1998-21.826-2.9411-0.02116-0.013606-0.03968 0.019276-0.01965 0.032882 3.7903 2.648 7.7589 4.2924 12.4 4.6754 4.6347 0.38225 9.1785-0.55145 13.359-2.5565 5.0454-2.4188 9.5731-6.086 15.128-7.3304 2.6096-0.58452 7.2958-1.0521 8.5979 2.0104 0.80295 1.8905-0.18074 4.4762-2.2097 5.0146-2.5265 0.66989-3.321-1.7182-3.1103-2.3758 0.34609-2.0266 3.1987-1.459 2.0097 0.34534-0.48761 0.42917 0.22919 1.146 0.71373 0.71373 1.096-0.97831 0.95062-2.8565-0.55837-3.3295-1.6228-0.50838-3.0434 0.9637-3.1756 2.5042-0.15383 1.7813 1.3459 3.1041 3.0387 3.2456 2.0312 0.16845 3.7348-1.4129 4.2778-3.2856 1.8543-6.3944-6.4974-6.5805-10.471-5.5191" />
   <path
      d="m74.439 1.0906c1.6136 0.3984 3.0172 1.6943 3.2872 3.3433 0.10307 0.62836 0.63144 0.49762 0.67605 0.38302 1.4221-3.5771 8.511-3.1726 9.943-2.5996-2.4496-0.11845-9.9869 3.2057-11.934 5.1523 0.36688-2.3227-0.17152-4.4293-1.972-6.279zm0.55299 7.6996c-0.22072 0.58145 0.66913 0.88216 0.95678 0.39379 0.70219-1.189 9.3324-6.622 12.952-6.6636 0.13999-0.00173 0.15458-0.17076 0.03402-0.24767-1.273-0.81601-3.9872-1.3005-5.8008-1.1067-1.2652 0.13536-3.8209 0.81679-4.7754 2.1504-0.79987-1.4344-2.2458-2.3589-3.9671-2.3489-0.03704 0-0.05382 0.036283-0.04845 0.066898-0.01474 0.010205-0.0223 0.028346-0.01058 0.046148 1.5851 2.4181 1.672 5.0423 0.65989 7.7095" />
   <path
      d="m8.7915 65.72c0.00718 0.04316 0.079597 0.03213 0.075666-0.01096-0.25296-2.6104-0.26011-5.1538-1.1654-7.6534-0.974-2.688-2.5924-5.0438-4.3085-7.3065-1.1997-1.5821-3.4331 0.3061-2.0953 1.6167 3.8573 3.7794 6.5894 7.9403 7.4934 13.353" />
   <path
      d="m1.9302 59.468c0.70151 0.46069 1.3309 1.016 1.9216 1.6097 1.2636 1.2683 2.584 2.8811 3.0731 4.6431 0.013606 0.04841 0.082923 0.02759 0.07389-0.02192-0.59306-3.3264-1.8456-6.0344-3.9982-8.6471-0.31665-0.38379-0.85709-0.42149-1.3039-0.34458-0.084132 0.01512-0.16819 0.0291-0.25202 0.0438-0.6096 0.1053-0.8058 0.77142-0.73065 1.286 0.12374 0.84756 0.56176 1.0006 1.2161 1.4298" />
   <path
      d="m4.4347 65.551c0.72104 0.31688 1.467 0.68989 2.1466 1.0852 0.034772 0.01965 0.06875-0.01965 0.052535-0.05299-0.43232-0.87908-0.95293-1.6566-1.5971-2.4073-0.6036-0.70373-1.4698-1.679-2.4312-1.8435-1.978-0.33917-2.3211 2.4473-0.36408 2.6911 0.78688 0.09853 1.4469 0.19926 2.1932 0.5276" />
   <path
      d="m11.346 82.076c3.1017-6.1675 4.4761-12.953 3.8272-19.835-0.0042-0.04622-0.0709-0.04774-0.07215 0-0.16913 6.6766-2.0964 13.072-5.7479 18.671-0.81656 1.2521 1.3267 2.4888 1.9928 1.1644" />
   <path
      d="m16.595 75.916c0.38009 0.19616 0.52638 0.21543 0.94731 0.12397 0.54407-0.11754 0.87332-0.66762 0.90247-1.1852 0.27426-4.8254-0.64267-9.1962-1.9982-13.79-0.01398-0.04842-0.08228-0.02759-0.07385 0.01965 0.76549 4.3824 0.39925 9.0863-0.34258 13.443-0.08889 0.52226 0.04725 1.1206 0.56484 1.3883" />
   <path
      d="m17.585 60.19c-0.04622-0.05779-0.13905 0.0045-0.12045 0.07 0.76642 2.6565 0.90908 5.5699 1.7963 8.1679 0.36625 1.0722 2.1111 0.95064 2.0541-0.27764-0.13636-2.9472-1.9474-5.7291-3.7299-7.9603" />
   <path
      d="m12.596 25.839c-0.62459-6.0606-3.878-11.001-7.9864-15.314-0.034772-0.03704-0.084775 0.01701-0.054387 0.05461 3.4868 4.3393 4.5029 9.8523 4.651 15.26 0.060661 2.212 3.6097 2.1343 3.3898 0" />
   <path
      d="m2.6609 10.776c2.1601 4.4647 2.2737 9.2601 2.3458 14.095 0.027213 1.8574 2.9124 1.8566 2.8848 0-0.077216-5.1838-2.4858-9.86-5.1642-14.134-0.026835-0.04309-0.087685-6e-3 -0.066369 0.03848" />
   <path
      d="m4.0047 23.805c0.59452-1.769 0.052838-3.8017-0.2671-5.5868-0.41124-2.295-1.215-4.4124-2.0517-6.5766-0.017386-0.04539-0.086211-0.02835-0.074154 0.02079 0.44008 1.7551 0.58099 3.5848 0.57406 5.3922-0.00567 1.5398 0.11089 3.9071-0.95354 5.1369-1.7981 2.0781 1.9195 4.1524 2.7724 1.6136" />
   <path
      d="m3.765 3.7656c0.35509-0.51223 0.18652-1.339-0.16135-1.8113-0.56183-0.76295-1.5932-1.2406-2.5324-1.2067-0.095849 0.0041575-0.18357 0.026079-0.26196 0.061531-0.036283 0.079219-0.058583 0.1669-0.061909 0.26306-0.034016 0.93831 0.44347 1.9705 1.2063 2.5319 0.47285 0.34764 1.299 0.51608 1.8113 0.1615" />
   <path
      d="m14.822 50.869c-0.61944-1.0168-0.82918-2.0566-1.1146-3.1895-0.16282-0.6453-1.0629-0.58838-1.2519 0-0.44585 1.3905 0.26381 2.668 1.1209 3.7625 1.4971 1.912 3.3111 3.3356 3.0058 6.0298-0.0021 0.01965 0.02721 0.02608 0.0359 0.01096 0.70058-1.3044 0.65197-2.4535 0.01247-3.7963-0.48369-1.0168-1.2266-1.8605-1.8086-2.8165" />
   <path
      d="m27.355 37.244c-0.11206-0.13153-0.24212-0.06384-0.3151 5.78e-4 -2.7087 2.9088-6.9175-0.35841-9.8885 2.2589-0.76396 0.67298 0.41462 1.8682 1.1218 1.1214 2.1508-2.2704 7.4526 0.39302 8.7595-2.9834 0.05614 1.5813-0.13036 2.7888-1.5508 3.8432-1.0897 0.80986-2.4206 1.2506-3.7647 1.3828-1.1982-0.01512-1.4223 1.0706-0.58345 1.3098 3.1116 0.88602 3.9546 3.3733 4.2256 4.8538-1.8402 1.0306-4.9124 0.84064-5.9155-0.19294-0.63274-0.65143-1.7053-0.0508-1.2143 0.7099 1.9318 2.9918 0.68589 5.626-1.5518 7.8887-0.01399 0.01323 0 0.03666 0.01814 0.03213 3.129-0.75834 4.0884-4.2278 3.3715-7.0474 0.48192 0.14453 0.98154 0.23229 1.4815 0.26457 1.5953 0.10224 2.7357-0.51837 3.8429-1.6213 0.36771-1.4536-0.37732-4.3862-1.9489-5.2007 1.1967-0.37304 2.2857-1.0283 3.1669-1.9843 1.0888-1.1821 1.8957-3.2895 0.74534-4.6362" />
   <path
      d="m13.561 40.311c0.70781 0.14075 1.4649 0.32685 2.1964 0.26918-0.44939 1.9074-1.2483 3.5925-2.5747 5.0015-0.06161-2.9034-1.8729-5.2992-4.8367-5.706 1.7347-0.31763 3.5139 0.09615 5.2149 0.43532zm-12.767 30.741c0.39171 2.195 2.5338 3.5317 4.6681 3.4341 2.5735-0.11754 4.556-2.0012 5.3618-4.3609 1.1242-3.2941 0.24128-7.022-0.55253-10.287-0.8914-3.6648-2.4777-6.6113-4.2376-9.8861-1.5109-2.8103-2.7535-6.8266-0.32417-8.9163 1.5619-0.60606 3.7365 0.72141 4.4968 2.232 0.82379 1.6344 0.37527 3.6694-1.7698 3.7879-0.80364 0.044485-1.8678-0.1378-2.4375-0.76373-0.64351-0.70759-0.6549-2.012 0.020032-2.7111 0.69758-0.72296 2.0433-0.73373 2.4236 0.31688 0.096453 0.26691 0.1412 0.61452 0.029858 0.88911-0.051931 0.27764-0.20606 0.4476-0.4617 0.5076-0.18244 0.17004-0.3524 0.15239-0.51076-0.05231 0.32685-0.36147-0.21245-0.89986-0.53569-0.5353-0.65613 0.74143-0.050154 1.5074 0.84933 1.4398 0.98154-0.07389 1.5048-1.0245 1.4361-1.9374-0.17458-2.3142-3.202-2.4173-4.1745-0.58144-1.391 2.6257 1.4421 4.6254 3.8747 4.2024 2.8862-0.50146 2.9322-3.7417 1.4072-5.6483-1.0518-1.3152-2.8949-1.9128-4.3268-1.3944 0.47254-0.33226 1.0617-0.60221 1.7791-0.79602 3.0981 1.056 4.8175 3.3472 4.4468 6.662-0.046 0.40993 0.49477 0.53145 0.74865 0.30996 2.0661-1.802 3.1278-4.1163 3.6488-6.7743 0.05522-0.28226-0.18028-0.58529-0.48854-0.48839-1.0251 0.31994-2.2506-0.14075-3.2672-0.34303-1.1534-0.22919-2.3317-0.4384-3.5127-0.40148-2.18 0.06924-4.3596 1.0568-5.4313 3.0411-2.228 4.1255 1.8942 8.9309 3.6014 12.435 1.574 3.2318 2.5176 7.175 2.8309 10.755 0.27795 3.1764-0.38663 7.3019-3.9942 8.2548-3.0242 0.7991-6.003-2.1358-4.2403-5.0623 1.327-2.2035 4.4837-1.1298 4.0624 1.3721-0.085909 0.51146-0.30497 1.2337-0.71173 1.579-1.5628 1.3274-2.0601-1.989-0.67566-1.5498 0.68981 0.21846 0.97584-0.8537 0.29711-1.0783-2.313-0.76678-3.9023 2.2243-1.8516 3.6725 2.0021 1.4144 3.8567-0.41919 4.1051-2.4658 0.26589-2.1927-1.4739-4.2786-3.8332-3.7455-2.1117 0.47761-3.101 2.9234-2.7504 4.8877" />
   <path
      d="m3.3327 89.52c-1.0614 3.974-0.87516 12.325 5.5198 10.471 1.8723-0.54297 3.4538-2.2458 3.2846-4.277-0.1403-1.6936-1.4634-3.1934-3.2449-3.0395-1.5407 0.13228-3.0128 1.5529-2.5041 3.1757 0.47347 1.509 2.3512 1.6543 3.3291 0.55835 0.43201-0.48374-0.28418-1.2013-0.71381-0.71373-1.8044 1.189-2.3719-1.6636-0.34549-2.0089 0.6582-0.21165 3.0458 0.58375 2.3761 3.1095-0.53776 2.0289-3.1239 3.0126-5.0142 2.2097-3.0626-1.3013-2.5954-5.9883-2.0108-8.5979 1.2447-5.5545 4.9118-10.082 7.3308-15.128 2.0045-4.1809 2.9379-8.7248 2.5561-13.359-0.38301-4.6408-2.027-8.6094-4.6756-12.4-0.013606-0.019653-0.046828-0.001723-0.032882 0.019654 4.1408 6.2375 5.2593 14.733 2.9412 21.827-2.1048 6.4405-7.035 11.564-8.7958 18.154" />
   <path
      d="m2.2172 88.346c-0.57352-1.4329-0.97762-8.521 2.5999-9.9431 0.11391-0.045354 0.24488-0.57373-0.38332-0.6768-1.649-0.26986-2.9448-1.6736-3.3435-3.2872 1.8492 1.8012 3.9565 2.3388 6.2794 1.972-1.9472 1.9474-5.2714 9.4847-5.1524 11.935zm6.5726-13.354c-2.667 1.0129-5.2916 0.92523-7.7098-0.6599-0.017764-0.01134-0.035905-0.0038-0.045921 0.01134-0.030614-0.0038-0.066368 0.01134-0.066368 0.04913-0.010583 1.7205 0.91385 3.1664 2.3485 3.9663-1.3339 0.95448-2.0148 3.5102-2.1502 4.7754-0.19412 1.8136 0.29019 4.5278 1.1061 5.8006 0.077518 0.12057 0.24643 0.10696 0.2479-0.03401 0.041764-3.6194 5.4748-12.25 6.6633-12.953 0.48877-0.28762 0.18803-1.1775-0.39355-0.95675" />
   <path d="m0 0v116.58h1.0223v-115.55h118.98v-1.0229h-120" />
   <path
      d="m31.091 45.049c0 0.98752-0.8001 1.7874-1.787 1.7874s-1.7869-0.79988-1.7869-1.7874c0-0.98678 0.80003-1.7867 1.7869-1.7867s1.787 0.79988 1.787 1.7867" />
   <path
      d="m43.819 40.598c0 0.98676-0.80003 1.7874-1.7869 1.7874-0.987 0-1.7873-0.80064-1.7873-1.7874 0-0.98677 0.80033-1.7866 1.7873-1.7866 0.98692 0 1.7869 0.79988 1.7869 1.7866" />
   <path
      d="m46.836 28.896c0 0.98677-0.80003 1.7866-1.787 1.7866-0.98692 0-1.7869-0.79987-1.7869-1.7866 0-0.98677 0.80003-1.7866 1.7869-1.7866 0.98692 0 1.787 0.79987 1.787 1.7866" />
   <path
      d="m46.616 35.069c0 0.98677-0.80034 1.7866-1.7873 1.7866-0.98692 0-1.787-0.79988-1.787-1.7866 0-0.98754 0.8001-1.7874 1.787-1.7874 0.98692 0 1.7873 0.79987 1.7873 1.7874" />
   <path
      d="m38.271 44.175c0 0.98676-0.80003 1.7866-1.7873 1.7866-0.98661 0-1.7869-0.79988-1.7869-1.7866 0-0.98678 0.80034-1.7874 1.7869-1.7874 0.98723 0 1.7873 0.80064 1.7873 1.7874" />
</svg>