<?xml version="1.0" encoding="UTF-8"?>
<svg version="1.1" viewBox="0 0 120 120" xmlns="http://www.w3.org/2000/svg">

    <path
        d="m72.761 10.728h42.054v-1.5734h-35.619v-1.9376h35.619v-1.5741h-36.406c-0.43403 0-0.78631 0.35224-0.78631 0.78707v2.7246h-4.8615c-2.2758 0-6.1529-0.57448-6.5517-4.425-0.07865-0.76179 0.14362-1.5095 0.62731-2.1048 0.48309-0.59455 1.1691-0.96542 1.9316-1.045 0.66223-0.070709 1.2635 0.41694 1.3326 1.0829 0.01512 0.16932-0.10544 0.32087-0.27439 0.33825-0.43256 0.044588-0.74618 0.4318-0.70233 0.86361 0.04535 0.4318 0.43256 0.74398 0.86361 0.70162 1.0324-0.1062 1.7853-1.0331 1.6782-2.0654-0.076354-0.74024-0.43702-1.4069-1.0145-1.8766-0.57822-0.46899-1.3051-0.68525-2.0453-0.60947-1.1802 0.12245-2.2423 0.69716-2.9907 1.618-0.74841 0.92158-1.094 2.0788-0.9714 3.259 0.24454 2.3672 1.6091 4.1117 3.815 5.0501-2.2059 0.93871-3.5704 2.6823-3.815 5.0493-0.12245 1.1802 0.22299 2.3374 0.9714 3.259 0.74844 0.92086 1.8105 1.4954 2.9907 1.618 0.09826 0.01139 0.1954 0.01512 0.29216 0.01512 0.6377 0 1.2516-0.21694 1.7532-0.62432 0.5775-0.46967 0.93794-1.1364 1.0145-1.8766 0.05215-0.50022-0.09444-0.98999-0.41101-1.3802-0.31747-0.39019-0.767-0.63397-1.2672-0.68526-0.43033-0.04612-0.81829 0.2691-0.86361 0.70162-0.04382 0.4318 0.26985 0.81901 0.70233 0.86361 0.16856 0.01512 0.29216 0.16932 0.27439 0.33826-0.06918 0.6659-0.6704 1.149-1.3326 1.0829-1.5741-0.16365-2.7217-1.5764-2.5589-3.1498 0.41324-3.9941 4.7194-4.425 6.5517-4.425" />
    <path
        d="m98.159 15.339h16.659v-1.5734h-30.808c-0.01139 0-0.02268 5.64e-4 -0.03406 5.64e-4h-0.0077c-0.0019 5.74e-4 -0.0038 0.0019-0.0077 5.74e-4 -0.0019 5.27e-4 -0.0038 0-0.0077 5.27e-4 -0.0038 0-0.0077 5.64e-4 -0.01139 5.64e-4 -0.0019 5.65e-4 -0.0019 0.0019-0.0038 5.65e-4 -0.39911 0.03779-0.71125 0.37379-0.71125 0.78337 0 0.43475 0.35149 0.78631 0.78635 0.78631h0.0077c0.25624 0.0019 8.1292 0.05741 13.064 2.3865 0.10696 0.04947 0.22148 0.07482 0.336 0.07482 0.14777 0 0.29441-0.04162 0.42291-0.12358 0.22828-0.14551 0.36548-0.39764 0.36396-0.66818l-0.0077-1.4366c-5.64e-4 -0.08123-0.01129-0.15986-0.03779-0.23357" />
    <path
        d="m2.501 71.653c1.0318 0.10696 1.9585-0.64583 2.0654-1.6774 0.042291-0.4318-0.26985-0.81905-0.70168-0.86436-0.43234-0.044587-0.81901 0.26985-0.86376 0.70233-0.015118 0.16856-0.16895 0.29216-0.33826 0.27439-0.66601-0.069178-1.1538-0.67036-1.0826-1.3326 0.079033-0.76255 0.44998-1.4485 1.0452-1.9316 0.59458-0.48381 1.3421-0.70604 2.1048-0.62727 3.8501 0.39839 4.425 4.2757 4.425 6.5517v4.8615h-2.7247c-0.43464 0-0.78676 0.35224-0.78676 0.78635v41.604h1.5735v-40.814h1.9379v40.814h1.5735v-47.251c0-1.8328 0.43112-6.1382 4.4246-6.5517 1.5741-0.16289 2.9872 0.98478 3.15 2.5589 0.0665 0.66223-0.41661 1.2635-1.0826 1.3326-0.16932 0.01512-0.32087-0.10544-0.33826-0.27439-0.04459-0.43256-0.43147-0.74693-0.86368-0.70233-0.43233 0.04535-0.74822 0.43328-0.70177 0.86436 0.05176 0.49945 0.2948 0.9491 0.68518 1.2665 0.39019 0.31672 0.88027 0.46302 1.3802 0.41098 0.74082-0.07635 1.4071-0.43699 1.8769-1.0145 0.40762-0.50168 0.62448-1.1156 0.62448-1.7532 0-0.09675-0.0077-0.19389-0.01512-0.29216-0.12245-1.1802-0.69704-2.2431-1.618-2.9915-0.92117-0.74773-2.0787-1.0933-3.2591-0.97067-2.367 0.24452-4.1109 1.6091-5.0497 3.815-0.93893-2.2059-2.6829-3.5704-5.0497-3.815-1.1805-0.12245-2.3377 0.22299-3.2592 0.97067-0.92086 0.7484-1.4955 1.8112-1.6179 2.9915-0.075971 0.7402 0.14022 1.4671 0.60936 2.0453 0.46971 0.57751 1.136 0.93795 1.8769 1.0145" />
    <path
        d="m7.2253 7.44 0.24604 0.00383-0.00383-0.24604h5.2172l0.10582 5.1767h-0.38698v0.3872l-5.1771-0.10545zm-0.80302 6.7743 6.7508 0.13833c0.21165 0.0038 0.41548-0.07635 0.56673-0.2245 0.07253-0.07071 0.12887-0.15534 0.16856-0.24605 0.09109-0.04009 0.17498-0.09675 0.24604-0.16894 0.14815-0.1508 0.22903-0.35528 0.22488-0.56711l-0.13833-6.7509c-0.007654-0.42806-0.35867-0.7707-0.78677-0.7707h-6.7909c-0.21128 0-0.41396 0.085444-0.56174 0.23621-0.037794 0.037794-0.067264 0.076354-0.094917 0.11867-0.042291 0.026408-0.081999 0.058557-0.11867 0.095204-0.15118 0.1474-0.23621 0.34998-0.23621 0.56185v6.7909c0 0.42809 0.34242 0.77742 0.77048 0.78635" />
    <path
        d="m28.806 28.794h4.8959v4.8955h-4.8959zm-0.78676 6.4697h7.2562v-7.2569c0-0.43407-0.35224-0.78635-0.78676-0.78635h-7.2562v7.2562c0 0.43479 0.35224 0.78707 0.78676 0.78707" />
    <path
        d="m9.871 55.779 3.5858 3.7362-3.6891 3.6886-3.5857-3.7355zm-2.6402-7.5899v-30.481h10.511v-10.51h30.481v1.861h-17.09c-6.5022 0-10.083 3.126-10.083 8.8012 0 1.8833 0.80514 3.653 2.2677 4.9832 1.4528 1.3215 3.4307 2.0691 5.4073 2.0691 0.2434 0 0.48656-0.01139 0.72902-0.03406 1.2161-0.11528 2.3144-0.69716 3.0931-1.6396 0.3511-0.42511 0.61374-0.90227 0.79058-1.4077h8.1383c-0.3341 1.7585-0.3768 3.6031-0.07827 5.47 0.08123 0.50615 0.21089 0.99592 0.37114 1.4723v12.963h-12.962c-0.4764-0.16063-0.96588-0.29064-1.4719-0.37152-1.8677-0.29896-3.7117-0.25549-5.4708 0.07788v-8.1383c0.50569-0.17688 0.983-0.43849 1.4083-0.79077 0.9418-0.77815 1.5239-1.8766 1.6392-3.0926 0.02268-0.24227 0.03406-0.48607 0.03406-0.7291 0-1.9762-0.74788-3.9548-2.0694-5.4069-1.33-1.4626-3.0998-2.2683-4.9832-2.2683-5.6752 0-8.8008 3.5808-8.8008 10.082v17.09zm42.61-37.556c-3.8713 1.9933-6.7505 5.4991-7.9822 9.624h-8.2664c-0.0019-0.12094-0.0038-0.24227-0.01512-0.36434-0.14891-1.5697-1.5477-2.7262-3.1163-2.576-1.0544 0.10015-1.8308 1.039-1.7306 2.0937 0.04086 0.43332 0.43203 0.74992 0.8573 0.70906 0.43263-0.04086 0.75052-0.42515 0.70898-0.85771-0.01139-0.1251 0.04382-0.2124 0.07827-0.25435 0.03406-0.04162 0.10999-0.11225 0.23434-0.12397 0.70633-0.06688 1.3343 0.45262 1.4014 1.1579 0.07559 0.79823-0.16403 1.5771-0.67437 2.1947-0.51076 0.61839-1.2313 0.99962-2.0288 1.0755-1.7777 0.16932-3.6195-0.44148-4.9288-1.6329-1.1302-1.0279-1.753-2.3842-1.753-3.8188 0-4.7954 2.8629-7.2271 8.5091-7.2271zm-6.4973 32.676v-11.697c0.48921 0.59458 1.0495 1.1372 1.6896 1.6009 0.24076 0.17386 0.48948 0.33071 0.7421 0.47863v12.049h-12.049c-0.14891-0.25285-0.305-0.50169-0.47931-0.74176-0.46363-0.64066-1.0059-1.201-1.6009-1.6901zm4.0055 4.0051v-12.891c0.73363 0.25851 1.4952 0.42659 2.2726 0.48755v14.676h-14.677c-0.06124-0.77742-0.22866-1.5385-0.48778-2.2728zm-27.058-5.49c-4.1253 1.2322-7.6307 4.1117-9.6244 7.9822v-18.708c0-5.6461 2.4317-8.5083 7.2271-8.5083 1.4345 0 2.7909 0.62282 3.8188 1.7525 1.1915 1.3096 1.802 3.1513 1.6327 4.9292-0.07597 0.79747-0.45724 1.5184-1.075 2.029-0.61787 0.5106-1.3973 0.74992-2.1952 0.6741-0.70547-0.06688-1.2245-0.69493-1.1581-1.401 0.01139-0.1251 0.08315-0.20069 0.12435-0.23508 0.04162-0.03406 0.12926-0.08994 0.25398-0.07789 0.43264 0.04086 0.81644-0.27628 0.85729-0.70902 0.04162-0.42515-0.2759-0.81682-0.70894-0.85767-1.0541-0.10016-1.9936 0.6763-2.0935 1.731-0.14966 1.5689 1.0065 2.9669 2.5763 3.1163 0.1217 0.01139 0.24302 0.01512 0.36396 0.01512zm39.212-35.675 3.7355 3.5853-3.6886 3.6894-3.7362-3.5861zm-50.312 58.725c0.14626 0.15231 0.34771 0.23923 0.55939 0.2415 0.21127 0.0019 0.41461-0.08123 0.56442-0.23055l4.8018-4.8022c0.15344-0.15307 0.23054-0.35451 0.23054-0.55592 0-0.19616-0.07291-0.39242-0.21921-0.54478l-4.3932-4.5769c0.68427-3.6113 2.6846-6.7735 5.6737-8.9388 3.1035-2.2475 6.8964-3.152 10.68-2.547 1.9765 0.31596 3.7118 1.3832 4.8861 3.0041 1.1743 1.621 1.647 3.6031 1.3308 5.5785-0.32617 2.0394-2.2502 3.433-4.2893 3.1067-0.92154-0.14778-1.5506-1.0152-1.4043-1.9391 0.02268-0.15004 0.10545-0.28232 0.22866-0.37151 0.12321-0.08994 0.27401-0.12548 0.4244-0.10167 0.42915 0.06918 0.83272-0.22374 0.90094-0.65252 0.07071-0.4281-0.22336-0.83242-0.65268-0.90079-0.56494-0.09071-1.1319 0.04459-1.5956 0.38051-0.46401 0.336-0.76908 0.83242-0.85938 1.398-0.28346 1.7778 0.93099 3.4567 2.7096 3.7406 2.8957 0.46302 5.628-1.5154 6.091-4.411 0.03024-0.19616 0.05215-0.39242 0.07071-0.58862h16.268v-16.267c0.19615-0.01895 0.39242-0.03932 0.58864-0.07071 2.8956-0.46302 4.874-3.1958 4.411-6.0913-0.28383-1.7785-1.9628-2.9929-3.7406-2.709-0.5656 0.08994-1.0621 0.39541-1.398 0.85915-0.33599 0.46382-0.47121 1.0301-0.38051 1.5957 0.06841 0.42885 0.47266 0.72315 0.90075 0.65252 0.42886-0.06841 0.72169-0.47194 0.65256-0.90076-0.02268-0.1508 0.01139-0.3016 0.10167-0.4244 0.08918-0.12358 0.22148-0.20522 0.37151-0.22903 0.92382-0.14626 1.7912 0.48309 1.9391 1.4039 0.32616 2.0394-1.0672 3.9628-3.1067 4.2893-1.9754 0.31672-3.9578-0.15609-5.5788-1.3304-1.6209-1.1743-2.6881-2.9097-3.0042-4.8861-0.60476-3.7836 0.30009-7.5763 2.5476-10.679 2.1649-2.9893 5.3271-4.99 8.9384-5.6745l4.5769 4.3932c0.15232 0.14626 0.34846 0.21921 0.5448 0.21921 0.20145 0 0.40282-0.07635 0.55592-0.23055l4.8018-4.8018c0.14929-0.14929 0.23244-0.35301 0.23055-0.56412-0.001914-0.21165-0.089176-0.41321-0.2415-0.55966l-4.871-4.6756c-0.30916-0.29669-0.79897-0.29216-1.1014 0.01129l-4.5678 4.5678h-4.5693v-2.6481c0-0.43479-0.35225-0.78707-0.78677-0.78707h-32.055c-0.43464 0-0.78677 0.35224-0.78677 0.78707v9.7238h-9.7234c-0.43464 0-0.7868 0.35224-0.7868 0.78707v32.054c0 0.43479 0.35224 0.78707 0.7868 0.78707h2.6483v4.5693l-4.5678 4.5678c-0.30311 0.30236-0.3084 0.79228-0.011386 1.1014l4.6756 4.871" />
    <path
        d="m15.351 119.99v-21.856c0.07367 0.02268 0.15193 0.03406 0.23319 0.03779l1.4369 0.0077c0.27022 0.0019 0.52255-0.13606 0.66768-0.36434 0.082-0.1285 0.12358-0.2759 0.12358-0.42288 0-0.11452-0.02641-0.22903-0.07559-0.336-2.3287-4.9348-2.3847-12.808-2.3858-13.064v-0.0077c0-0.43483-0.35224-0.78635-0.78677-0.78635-0.40909 0-0.7453 0.31218-0.78298 0.71129 2.97e-4 0.0019-3.06e-4 0.0019-6.03e-4 0.0038-3.06e-4 0.0038-9.09e-4 0.0077-9.57e-4 0.01139-6.02e-4 0.0019-2.96e-4 0.0038-6.02e-4 0.0077 8.7e-4 0.0038-2.3e-4 0.0077-2.3e-4 0.0077-2.97e-4 0.0019-2.97e-4 0.0038-2.97e-4 0.0077-6.41e-4 0.01139-9.09e-4 0.02268-9.09e-4 0.03406v36.005h1.5736" />

</svg>