<?xml version="1.0" encoding="UTF-8"?>
<!-- Created with Inkscape (http://www.inkscape.org/) -->
<svg width="31.75mm" height="31.75mm" version="1.1" viewBox="0 0 31.75 31.75" xmlns="http://www.w3.org/2000/svg">
 <defs>
  <clipPath id="clipPath1933">
   <path d="m6967.9 425.1h3207.1v3207.1c0 11-8.9 20-20 20-11 0-19.9-9-19.9-20v-3167.1h-3167.2c-11.04 0-19.99-9-19.99-20 0-11.102 8.95-20 19.99-20z"/>
  </clipPath>
  <clipPath id="clipPath1942">
   <path d="m7269.5 594.5h2335.6c11.04 0 19.99 9 19.99 20 0 11.102-8.95 20-19.99 20h-2335.6c-11.04 0-19.99-8.898-19.99-20 0-11 8.95-20 19.99-20z"/>
  </clipPath>
  <clipPath id="clipPath1951">
   <path d="m9990.1 958.4c9.23 0 16.71 7.399 16.71 16.7v2335.6c0 9.3-7.48 16.8-16.71 16.8s-16.71-7.5-16.71-16.8v-2335.6c0-9.301 7.48-16.7 16.71-16.7z"/>
  </clipPath>
  <clipPath id="clipPath1960">
   <path d="m9906.9 1058.7-0.02-0.1h-0.01z"/>
  </clipPath>
  <clipPath id="clipPath1969">
   <path d="m9753.4 1016.1c2.52-2.7 5.18-5.4 7.92-7.9 25.98-24.2 62.03-36.001 98.86-32.501 7.36 0.703 14.47 1.801 21.32 3.403 41.85 9.699 73.89 36.298 86.55 73.698 6.56 19.3 7.3 39.7 2.85 58.8-4.78 20.5-15.58 39.6-31.66 54.5-17.7 16.4-42.09 24.5-66.92 22.4-5.4-0.5-10.64-1.3-15.68-2.5-28.68-6.6-50.94-24.9-59.88-51-4.68-13.6-5.25-28-2.11-41.5 3.35-14.3 10.91-27.7 22.19-38.1 16.17-15 38.06-20 58-15.4 11.89 2.8 23.13 9.1 32.03 18.6 4.23 4.5 5.63 10.7 4.32 16.3-0.78 3.3-2.54 6.5-5.22 9-4.53 4.2-10.67 5.6-16.25 4.3-3.33-0.7-6.52-2.5-9.02-5.2-3.91-4.2-8.78-6.9-14.01-8.1-8.8-2.1-18.43 0.1-25.55 6.7-5.92 5.5-9.9 12.5-11.66 20.1-1.65 7-1.36 14.5 1.09 21.7 4.85 13.9 16.4 23.6 33.99 27.8 3.39 0.8 6.98 1.3 10.77 1.7 14.99 1.3 29.42-3.6 39.6-13 10.75-10 17.95-22.8 21.15-36.4 2.98-12.8 2.47-26.4-1.9-39.2-8.62-25.4-29.65-43-60.34-50.3-5.38-1.2-11.06-2.2-17.01-2.7-27.36-2.6-52.42 5.7-71.15 23.1-2.13 1.9-4.15 4-6.12 6.1-12.86 13.8-21.46 30-25.54 47.5-3.79 16.3-3.7 33.7 0.61 51.2 9.5 38.6 37.34 69.4 74.47 82.4l4.51 1.6 0.15 0.1c7.04 2.7 15.14 5.1 23.97 7.1 26.2 6.2 58.88 9.1 90.36 7.9h-0.04c28.06-1.2 52.58 1.3 73.78 6.3 79 18.4 112.3 69.6 117 77.5 1.1 1.6 2.3 3.2 3.3 4.9 10.8 17.4 15.1 38.1 11.9 58.6-0.3 2.3-0.8 4.5-1.3 6.7-4.6 20.1-16.3 37.8-33.1 50.2-17.9 13.1-39.9 16.9-60.1 12.2-16-3.7-30.9-12.9-41.6-27-10.3-13.8-14-32-10.3-49.2v-0.1l0.3-1.3c5.4-23.5 21.5-41.1 43.3-45.8 7.8-1.6 15.7-1.5 23.2 0.2 12.1 2.9 23.1 9.9 30.7 20.2v0.1c3.2 4.3 4.2 9.7 3.1 14.6-1 4-3.3 7.7-6.9 10.3-4.3 3.2-9.7 4.2-14.6 3-4-0.9-7.8-3.2-10.4-6.8-2.4-3.3-6-5.6-10-6.5-2.4-0.6-5-0.6-7.6-0.1-3.8 0.8-7 2.7-9.7 5.8-2.8 3.2-5 7.5-6.3 13.1l-0.2 0.8c-1.6 7.3 0.1 14.9 4 20.2 5.4 7.2 13 11.8 21.2 13.7 10.3 2.4 21.6 0.5 30.7-6.2 10-7.4 16.7-17.7 19.5-29.5 0.3-1.3 0.6-2.6 0.8-4 2-13.5-1.3-26.8-9.3-37.8l-0.1-0.1-0.9-1.4-0.1-0.1v-0.1c-1.1-1.7-26.6-45.4-94.6-61.3-18.17-4.2-39.42-6.5-64.15-5.3h-0.05c-35 1.3-70.23-1.9-99.65-8.7-10.26-2.4-19.81-5.3-28.43-8.6l-4.19-1.4c-48.57-17.1-85.01-57.4-97.35-107.7-5.67-23-5.83-46.1-0.76-67.9 5.48-23.5 17.07-45.3 34.25-63.7z"/>
  </clipPath>
  <clipPath id="clipPath1978">
   <path d="m9520.3 686.8h0.02z"/>
  </clipPath>
  <clipPath id="clipPath1987">
   <path d="m9566 839.3c2.67-2.5 5.26-5.301 7.76-8 23.66-26.5 34.68-62.801 30.44-99.598-0.83-7.305-2.14-14.402-3.88-21.203-10.56-41.598-37.8-73.098-75.46-85-19.44-6.199-39.79-6.5-58.8-1.598-20.4 5.2-39.29 16.297-53.86 32.7-16.04 18.097-23.64 42.601-21.03 67.398 0.58 5.398 1.51 10.602 2.79 15.602 7.21 28.597 26.04 50.398 52.27 58.8 13.72 4.399 28.08 4.7 41.48 1.297 14.28-3.699 27.5-11.5 37.71-22.996 14.63-16.402 19.2-38.402 14.13-58.301-3.01-11.8-9.48-22.902-19.25-31.601-4.6-4.199-10.79-5.399-16.35-4-3.32 0.801-6.46 2.699-8.9 5.398-4.11 4.602-5.4 10.801-3.98 16.301 0.84 3.301 2.67 6.5 5.42 8.902 4.3 3.899 7.1 8.7 8.42 13.899 2.23 8.699 0.22 18.398-6.23 25.699-5.37 6-12.31 10.102-19.81 12-7.03 1.801-14.54 1.703-21.71-0.602-13.99-4.597-23.97-15.898-28.52-33.398-0.86-3.398-1.5-7-1.9-10.699-1.59-15 2.95-29.5 12.18-39.899 9.74-11.004 22.34-18.402 35.97-21.902 12.69-3.199 26.25-3 39.19 1.102 25.55 8.097 43.64 28.699 51.52 59.3 1.36 5.301 2.4 11 3.08 16.899 3.12 27.301-4.59 52.601-21.61 71.601-1.93 2.2-3.91 4.301-5.99 6.297-13.52 13.102-29.58 22.102-47 26.5-16.18 4.102-33.56 4.403-51.19 0.403-38.8-8.704-70.13-35.903-83.94-72.7l-1.68-4.5-0.06-0.101c-2.83-7-5.42-15.102-7.66-23.903-6.66-25.996-10.32-58.597-9.76-90.097 0.69-28.102-2.39-52.5-7.78-73.699-20.06-78.602-71.89-110.8-79.92-115.3-1.62-1.098-3.26-2.199-4.92-3.199-17.68-10.5-38.4-14.301-58.88-10.7-2.25 0.399-4.48 0.899-6.66 1.399-20 5.101-37.43 17.101-49.46 34.199-12.79 18.102-16.13 40.199-11.02 60.301 4.07 16 13.56 30.699 27.91 41 14.01 10 32.25 13.402 49.39 9.398h0.11l1.26-0.398c23.4-5.801 40.67-22.301 44.85-44.199 1.53-7.801 1.23-15.801-0.68-23.2-3.06-12.101-10.29-22.902-20.78-30.3h-0.05c-4.45-3.102-9.86-4-14.72-2.704-3.98 1.004-7.64 3.403-10.16 7.004-3.12 4.399-3.96 9.797-2.71 14.7 1 4 3.4 7.699 7.01 10.199 3.4 2.398 5.76 5.898 6.76 9.898 0.63 2.403 0.72 5 0.22 7.602-0.75 3.801-2.59 7-5.63 9.898-3.05 2.801-7.38 5.102-12.93 6.5l-0.82 0.203h0.06c-7.26 1.7-14.98 0.2-20.32-3.601-7.27-5.301-12.06-12.699-14.15-20.899-2.62-10.3-0.91-21.601 5.63-30.8 7.14-10.102 17.31-17.102 29.08-20.102 1.28-0.398 2.61-0.602 3.96-0.898 13.45-2.301 26.86 0.699 37.95 8.5l0.16 0.097 1.35 0.903 0.13 0.097h0.08c1.75 1 45.96 25.699 63.23 93.301 4.61 18.102 7.3 39.301 6.7 64v0.102c-0.6 35 3.29 70.097 10.75 99.398 2.61 10.199 5.65 19.699 9.11 28.301l1.56 4.101c18.05 48.2 59.07 83.801 109.62 95.098 23.17 5.199 46.28 4.902 67.9-0.598 23.37-6 44.99-18.004 63.02-35.601z"/>
  </clipPath>
  <clipPath id="clipPath1996">
   <path d="m9650.5 598.9h-0.01z"/>
  </clipPath>
  <clipPath id="clipPath2005">
   <path d="m9695.6 437.5c-3.83 0.699-7.66 1.703-11.45 2.801-35.94 10.199-66.15 36.301-83.04 71.402-3.38 6.996-6.21 13.996-8.49 21.098-14.02 43-7.5 86.301 19.33 118 13.82 16.398 31.75 28.199 51.39 34.601 21.07 6.797 44.16 7.5 66.33 1.098 24.42-7 44.98-24.602 56.6-48.098 2.52-5.101 4.62-10.3 6.3-15.5 9.63-29.402 5.19-59.5-13.42-81.703-9.74-11.597-22.36-20-36.2-24.496-14.76-4.703-30.92-5.203-46.46-0.703-22.28 6.402-38.72 23.398-45.36 43.902-3.97 12.2-4.46 25.7-0.67 39 1.77 6.2 6.56 10.797 12.3 12.7 3.44 1.097 7.26 1.3 10.97 0.199 6.24-1.801 10.87-6.5 12.72-12.301 1.11-3.398 1.26-7.199 0.19-11-1.67-5.801-1.45-11.602 0.29-17 2.94-9 10.17-16.5 19.99-19.398 8.16-2.301 16.66-2.102 24.4 0.398 7.28 2.402 13.88 6.703 18.96 12.801 9.88 12 12.38 27.699 6.59 45.801-1.14 3.5-2.58 7-4.35 10.601-7 14.199-19.21 24.598-33.25 28.598-14.83 4.301-30.23 3.801-44.31-0.699-13.12-4.301-25.05-12.102-34.26-23-18.17-21.602-22.64-50.2-12.48-81.801 1.8-5.5 4.06-11.102 6.78-16.801 12.58-26 33.63-44.098 59.51-51.5 2.93-0.898 5.85-1.598 8.84-2.199 19.41-4.102 38.71-3 56.71 2.801 16.72 5.5 32.33 15 45.79 28.398 29.62 29.602 42.2 71.398 33.76 111.9l-1.02 5-0.03 0.098c-1.41 7.801-3.63 16.402-6.58 25.5-8.73 27-23.81 58-42.02 85.699h0.03c-16.41 24.602-27.43 48.102-34.52 69.903-26.35 81.199 1.65 139 6.24 147.6 0.82 1.903 1.67 3.703 2.6 5.504 9.82 19.297 26.11 34.399 46.34 42.695 2.21 0.902 4.46 1.802 6.72 2.502 20.66 6.7 42.9 5.9 63.19-2.599 21.59-8.899 37.01-26.699 43.72-47.403 5.37-16.496 5.22-35-1.74-52.199-6.84-16.797-21.16-30.097-38.67-36.097l-0.11-0.102-1.3-0.398c-24.13-7.903-48.76-3-64.77 14.097-5.78 6.102-9.97 13.403-12.48 21.102-4.02 12.398-3.69 26.097 1.49 38.597h0.02c2.22 5.301 6.54 9.102 11.56 10.704 4.12 1.398 8.75 1.3 13-0.5 5.27-2.2 9.06-6.5 10.69-11.602 1.34-4.098 1.28-8.699-0.5-13-1.68-4-1.8-8.5-0.48-12.598 0.83-2.5 2.2-4.902 4.1-6.902 2.81-2.898 6.26-4.801 10.56-5.598 4.28-0.699 9.44-0.402 15.18 1.5l0.83 0.301-0.06-0.101c7.43 2.601 13.46 8.199 16.05 14.699 3.52 8.699 3.61 18 0.87 26.5-3.46 10.601-11.33 19.699-22.38 24.301-12.02 4.898-24.99 5.398-37.16 1.5-1.33-0.403-2.66-0.903-3.99-1.5-13.29-5.5-23.51-15.7-28.98-28.903l-0.08-0.199-0.73-1.5-0.07-0.098-0.05-0.101c-0.98-1.903-26.45-48.699-3.79-118.6 6.06-18.597 15.6-39 30.05-60.699h0.03c20.21-30.801 36.53-64.301 46.35-94.5 3.43-10.602 6.06-20.797 7.77-30.301h0.01l0.95-4.597c11.06-53-5.42-107.7-44.03-146.2-17.7-17.703-38.43-30.402-60.76-37.601-24.15-7.899-50.15-9.301-76.06-3.801z"/>
  </clipPath>
  <clipPath id="clipPath2014">
   <path d="m10010 935.1h0.1z"/>
  </clipPath>
  <clipPath id="clipPath2023">
   <path d="m10168 879.2c-0.6 3.899-1.3 7.797-2.1 11.598-7.8 36.601-31.8 68.402-65.6 87.699-6.8 3.801-13.6 7.102-20.5 9.801-41.9 16.899-85.62 13.299-119.1-11.301-17.3-12.699-30.21-29.801-37.9-49-8.23-20.5-10.45-43.5-5.57-66.102 5.36-24.796 21.51-46.496 44.19-59.699 4.94-2.801 9.95-5.301 15-7.297 28.78-11.601 58.98-9.203 82.48 7.899 12.2 8.902 21.4 21 26.8 34.5 5.7 14.402 7.3 30.5 3.9 46.301-4.9 22.597-20.8 40.199-40.8 48.199-11.9 4.801-25.4 6.199-38.8 3.301-6.4-1.403-11.34-5.801-13.58-11.403-1.34-3.398-1.74-7.199-0.93-11 1.37-6.297 5.81-11.199 11.41-13.496 3.3-1.301 7.1-1.703 10.9-0.902 6 1.301 11.8 0.699 17-1.403 8.8-3.597 15.8-11.296 18-21.296 1.8-8.301 1-16.801-2.1-24.301-2.8-7.098-7.6-13.399-14-18.102-12.5-8.996-28.4-10.5-46.08-3.5-3.4 1.403-6.85 3.102-10.31 5.102-13.69 7.898-23.22 20.801-26.3 35.101-3.27 15.098-1.78 30.399 3.72 44.098 5.13 12.801 13.74 24.199 25.25 32.703 22.72 16.699 51.52 19.199 82.42 6.899 5.4-2.102 10.8-4.801 16.3-7.903 25.1-14.297 41.8-36.496 47.4-62.797 0.7-3 1.2-5.902 1.6-9 2.8-19.601 0.4-38.8-6.6-56.402-6.6-16.301-17.1-31.199-31.4-43.699-31.5-27.602-74.1-37.301-113.98-26.199l-4.85 1.398h-0.16c-7.7 1.902-16.14 4.699-25 8.301-26.29 10.5-56.27 27.601-82.69 47.699l0.03-0.098c-23.43 18.098-46.12 30.598-67.44 39.2-79.24 31.699-138.78 7.699-147.63 3.699-1.95-0.699-3.88-1.5-5.75-2.301-19.89-8.5-36.01-23.699-45.68-43.301-1.07-2.199-2.04-4.398-2.92-6.597-8.09-20.102-8.73-42.403-1.7-63.2 7.48-22.101 24.23-38.703 44.42-46.8 16.11-6.5 34.52-7.602 52.2-1.801 17.2 5.699 31.4 19.101 38.63 36.199l0.04 0.102 0.52 1.3c9.53 23.5 6.22 48.399-9.74 65.496-5.73 6.204-12.67 10.903-20.19 13.903-12.1 4.898-25.79 5.398-38.61 1.097h-0.06c-5.39-1.898-9.49-5.898-11.44-10.796-1.62-4-1.8-8.7-0.33-13 1.83-5.403 5.91-9.5 10.84-11.5 3.98-1.602 8.6-1.801 13-0.403 4.15 1.5 8.6 1.301 12.58-0.297 2.47-1 4.74-2.5 6.62-4.601 2.77-3 4.37-6.5 4.88-10.899 0.48-4.3-0.23-9.402-2.47-15l-0.34-0.8h0.03c-3.05-7.2-9.1-12.899-15.68-15-8.98-2.899-18.26-2.403-26.5 0.898-10.37 4.199-18.91 12.602-22.74 24-4.15 12.301-3.78 25.301 0.97 37.102 0.53 1.3 1.11 2.601 1.75 3.898 6.36 12.902 17.26 22.402 30.79 27l0.2 0.102 1.54 0.597 0.15 0.102h0.09c1.96 0.801 50.35 23.101 118.52-4.199 18.24-7.301 37.92-18.2 58.57-34.102h0.04c29.4-22.199 61.7-40.797 91.2-52.598 10.3-4.101 20.25-7.402 29.66-9.8l4.5-1.2c52.13-14.601 107.93-1.902 148.93 34.098 18.8 16.398 32.8 36.301 41.6 58.102 9.4 23.5 12.6 49.398 8.9 75.601z"/>
  </clipPath>
  <clipPath id="clipPath2041">
   <path d="m9678.6 930c1.65 1.602 3.95 2.801 6.37 2.801 1.62 0 3.45-0.399 5.72-2h0.02c7.54-5 14.26-13.699 19.63-23.199 3.27-5.801 6-11.903 8.31-17.602-6.09 2.402-12.39 5.301-18.3 8.699-9.49 5.504-17.86 12.102-22.59 19.203-1.51 2.297-1.96 4.098-1.97 5.7-0.01 2.5 1.16 4.699 2.81 6.398zm-32.82-6.301c0-7.699 2.38-15.597 7.07-22.5 12.22-18.097 33.04-29.898 51.02-37.597 17.89-7.7 33.05-11.102 34.69-11.5h0.07c0.99-0.204 1.99-0.301 2.96-0.301 4.23 0 7.96 1.898 10.66 4.5 2.7 2.801 4.55 6.5 4.57 10.699 0 1-0.11 2-0.33 3-0.32 1.402-3.78 16.703-11.47 34.699-7.73 18-19.53 38.801-37.59 51-6.97 4.703-14.81 7.102-22.56 7.102-10.03 0-19.88-4-27.47-11.602l3.7-3.699-3.71 3.699c-7.61-7.597-11.62-17.5-11.61-27.5z"/>
  </clipPath>
  <clipPath id="clipPath2050">
   <path d="m9571.2 1046.9c-5.91 3.4-12.21 6.3-18.3 8.8 2.31-5.8 5.04-11.8 8.31-17.6 5.37-9.6 12.08-18.3 19.63-23.3h0.02c2.27-1.5 4.1-2 5.72-2 2.42 0 4.72 1.2 6.37 2.8 1.65 1.7 2.82 4 2.8 6.4-0.01 1.6-0.45 3.5-1.96 5.7-4.73 7.1-13.1 13.7-22.59 19.2z"/>
  </clipPath>
  <clipPath id="clipPath2059">
   <path d="m9592.9 1015.6c-1.65-1.6-3.95-2.8-6.37-2.8-1.62 0-3.45 0.5-5.72 2h-0.02c-7.55 5-14.26 13.7-19.63 23.3-3.27 5.8-6 11.8-8.31 17.6 6.09-2.5 12.39-5.4 18.3-8.8 9.49-5.5 17.86-12.1 22.59-19.2 1.51-2.2 1.95-4.1 1.96-5.7 0.02-2.4-1.15-4.7-2.8-6.4zm32.81 6.3c0.01 7.7-2.37 15.6-7.07 22.6-12.21 18-33.03 29.8-51.01 37.6-17.89 7.6-33.06 11-34.69 11.4h-0.07c-0.99 0.2-1.99 0.4-2.96 0.4-4.23-0.1-7.96-1.9-10.67-4.6-2.69-2.7-4.54-6.5-4.56-10.7 0-1 0.11-2 0.33-3 0.32-1.4 3.78-16.7 11.47-34.7 7.73-18 19.52-38.8 37.58-50.998 6.98-4.703 14.82-7.101 22.57-7.101 10.03 0 19.88 4 27.47 11.597l-3.7 3.704 3.71-3.704c7.61 7.602 11.62 17.502 11.6 27.502z"/>
  </clipPath>
  <clipPath id="clipPath2068">
   <path d="m9922.7 640.4c0 20.7 16.75 37.399 37.4 37.399s37.4-16.699 37.4-37.399c0-20.601-16.75-37.402-37.4-37.402s-37.4 16.801-37.4 37.402z"/>
  </clipPath>
  <clipPath id="clipPath2077">
   <path d="m9753.8 445c0.05-9.199 7.53-16.598 16.7-16.5 102.72 0.602 201.16 41.199 273.96 112.8 72.7 71.699 114.1 168.9 114.9 270.4 0.1 9.199-7.3 16.699-16.5 16.699-9.1 0.098-16.6-7.3-16.7-16.402-0.8-92.699-38.5-181.5-105-247-66.57-65.602-156.76-102.7-250.87-103.3-9.17-0.101-16.55-7.5-16.49-16.703z"/>
  </clipPath>
  <clipPath id="clipPath2086">
   <path d="m9421 846.8c8.02-0.098 14.57 6.301 14.64 14.398 0.67 81 33.67 158.7 91.89 216.1 58.21 57.3 137.12 89.8 219.46 90.3 8.02 0.1 14.48 6.6 14.43 14.7-0.05 8-6.59 14.4-14.62 14.4-89.86-0.6-175.99-36-239.65-98.7s-99.83-147.8-100.56-236.6c-0.06-8 6.39-14.601 14.41-14.601z"/>
  </clipPath>
  <clipPath id="clipPath2095">
   <path d="m7239.1 592.7c12.95 2.602 17.58 12.5 17.58 20.903 0 8.398-4.63 18.296-17.58 20.898-27.76 5.5-65-8.5-89.99-20.898 23.12-11.602 60.59-26.704 89.99-20.903zm-13.43 71.301c6.42 0 12.76-0.598 18.92-1.801 24.14-4.797 40.36-24.297 40.36-48.597 0-24.301-16.22-43.801-40.36-48.602-56.69-11.301-129.1 34.699-132.15 36.703-4.04 2.598-6.49 7.098-6.49 11.899 0 4.8 2.45 9.3 6.49 11.898 2.72 1.699 60.5 38.5 113.23 38.5z"/>
  </clipPath>
  <clipPath id="clipPath2104">
   <path d="m7336.3 553.6c2.86 0 5.92 1.3 8.21 3.5 3.85 3.699 5.31 7.699 4.1 11-0.96 2.699-3.36 4.5-6.12 4.8-7.79 0.598-13.6 7.399-12.98 15.2 0.28 3.398 1.77 6.5 4.02 8.796-2.06-0.996-4.01-2.296-5.8-3.796-5.56-4.801-8.95-11.5-9.53-18.801-0.82-10.5 6.93-19.699 17.3-20.602zm9.04 74.3c1.25 0 2.49 0 3.75-0.101 8.13-0.199 66.81-2.301 106.39-72.801 12.35-21.699 28.91-41.898 43.21-52.801l2.38-1.898c17.66-14.102 41.16-18.403 62.83-11.301 20.3 6.602 35.03 21.902 40.41 41.902 0.46 1.598 0.83 3.301 1.15 4.899 2.79 14.199-0.84 28.801-10.22 41.097-13.47 17.704-31.12 25.504-48.36 21.504-15.27-3.5-27.06-15.8-30.06-31.3-1.42-7.403 0.53-15.301 5.36-21.801 7.36-9.899 16.75-14.301 25.93-12.301 7.86 1.801 13.93 8.102 15.46 16.102 1.42 7.398-3.35 14.5-10.64 15.898-7.66 1.5-12.66 8.902-11.17 16.602 1.5 7.699 8.97 12.699 16.58 11.199 22.56-4.399 37.37-26.399 33-49-3.65-19-18.14-34-36.92-38.301-20.23-4.598-40.74 3.898-54.91 22.902-9.57 12.797-13.38 28.899-10.44 44.098 5.11 26.402 25.28 47.402 51.38 53.5 28.22 6.602 57.1-5.398 77.3-32 14.12-18.5 19.75-41.801 15.46-63.699-0.45-2.301-0.99-4.602-1.6-6.801-7.91-29.398-29.39-51.797-58.94-61.398-30.82-10.102-64.2-4-89.29 16.199l-2.07 1.601c-17.1 13-36.07 35.899-50.45 61.2-27.94 49.8-65.48 57.199-77.7 58.199 10.12-3.399 18.36-11.301 22.06-21.602 5.03-14.097 0.89-29.398-11.08-40.898-8.33-8.102-20.22-12.301-31.12-11.301-25.75 2.301-45.04 25.199-43.01 51 1.17 14.902 8.04 28.402 19.31 38 10.15 8.699 22.8 13.402 36.02 13.402z"/>
  </clipPath>
  <clipPath id="clipPath2113">
   <path d="m7333.5 630.5c-2.25 2.301-3.74 5.402-4.02 8.801-0.62 7.801 5.19 14.601 12.98 15.199 2.76 0.301 5.16 2.102 6.12 4.801 1.21 3.301-0.25 7.301-4.1 11-2.5 2.398-5.69 3.699-9.01 3.398-10.37-0.898-18.12-10.097-17.3-20.597 0.58-7.301 3.97-14 9.53-18.801 1.78-1.5 3.73-2.801 5.8-3.801zm209.29 139.6c9.97 0 20.05-1.602 29.85-4.801 29.55-9.602 51.03-32 58.95-61.399 0.6-2.199 1.14-4.504 1.59-6.8 4.29-21.903-1.34-45.204-15.46-63.7-20.2-26.601-49.11-38.5-77.3-32-26.1 6.098-46.27 27.098-51.38 53.5-2.94 15.2 0.87 31.297 10.44 44.098 14.17 19 34.69 27.602 54.91 22.898 18.78-4.296 33.27-19.296 36.93-38.296 4.36-22.602-10.45-44.602-33.01-49-7.61-1.5-15.08 3.5-16.58 11.199-1.49 7.699 3.51 15.101 11.17 16.601 7.29 1.399 12.06 8.5 10.66 15.899-1.55 8-7.61 14.301-15.48 16.097-9.09 2.004-18.56-2.398-25.93-12.296-4.83-6.5-6.78-14.403-5.36-21.801 3-15.5 14.79-27.801 30.06-31.301 17.24-4 34.89 3.801 48.36 21.5 9.38 12.301 13.01 26.902 10.22 41.102-0.32 1.699-0.69 3.3-1.13 4.898-5.4 20-20.13 35.301-40.43 41.902-21.7 7.098-45.19 2.797-62.82-11.3l-2.07-1.7c-14.62-11.101-31.18-31.3-43.57-53.101-39.51-70.403-97.79-73-106.35-72.699-14.44-0.903-28.64 3.699-39.77 13.3-11.27 9.598-18.14 23.098-19.31 38-2.03 25.801 17.26 48.7 43.01 50.996 11.22 1.004 22.81-3.199 31.12-11.296 11.97-11.5 16.11-26.801 11.08-40.903-3.7-10.301-11.95-18.199-22.07-21.597 12.05 1 49.7 8.3 77.67 58.199 14.42 25.199 33.39 48.199 50.78 61.398l1.77 1.403c17.12 13.8 38.08 21 59.45 21z"/>
  </clipPath>
  <clipPath id="clipPath2122">
   <path d="m9969.1 3412.4c2.56-12.9 12.47-17.5 20.88-17.5s18.31 4.6 20.91 17.5c5.5 27.8-8.5 65-20.89 90-11.58-23.1-26.7-60.6-20.9-90zm71.29 13.5c0-6.4-0.6-12.8-1.8-19-4.8-24.1-24.3-40.3-48.61-40.3-24.3 0-43.84 16.2-48.62 40.3-11.26 56.7 34.76 129.1 36.73 132.2 2.6 4 7.07 6.5 11.89 6.5 4.81 0 9.28-2.5 11.91-6.5 1.7-2.7 38.5-60.5 38.5-113.2z"/>
  </clipPath>
  <clipPath id="clipPath2131">
   <path d="m9930 3315.3c0-2.9 1.29-6 3.48-8.2 3.73-3.9 7.64-5.4 11.02-4.2 2.65 1 4.51 3.4 4.73 6.2 0.62 7.8 7.43 13.6 15.21 13 3.45-0.3 6.52-1.8 8.8-4.1-1.01 2.1-2.29 4-3.82 5.8-4.77 5.6-11.44 9-18.77 9.6-10.45 0.8-19.71-7-20.61-17.3zm74.26-9.1c0-1.2 0-2.5-0.1-3.7-0.2-8.2-2.3-66.8-72.83-106.4-21.65-12.4-41.89-28.9-52.74-43.2l-1.9-2.4c-14.17-17.7-18.4-41.2-11.34-62.8 6.62-20.3 21.9-35.1 41.91-40.5 1.64-0.4 3.24-0.8 4.88-1.1 14.19-2.8 28.8 0.8 41.14 10.2 17.7 13.5 25.52 31.1 21.51 48.4-3.57 15.3-15.86 27-31.32 30-7.38 1.5-15.33-0.5-21.81-5.3-9.88-7.4-14.34-16.8-12.27-26 1.8-7.8 8.12-13.9 16.08-15.4 7.36-1.4 14.5 3.3 15.92 10.6 1.49 7.7 8.91 12.7 16.58 11.2 7.66-1.5 12.64-9 11.17-16.6-4.4-22.5-26.38-37.4-49.02-33-18.96 3.7-33.99 18.2-38.29 36.9-4.61 20.3 3.94 40.8 22.93 55 12.84 9.5 28.91 13.3 44.08 10.4 26.4-5.1 47.38-25.3 53.52-51.4 6.6-28.2-5.4-57.1-31.98-77.3-18.57-14.1-41.78-19.7-63.68-15.5-2.32 0.5-4.61 1-6.86 1.7-29.35 7.9-51.73 29.3-61.37 58.9-10.08 30.8-4 64.2 16.18 89.3l1.65 2c12.98 17.2 35.91 36.1 61.11 50.5 49.84 27.9 57.22 65.5 58.28 77.7-3.41-10.1-11.31-18.4-21.66-22.1-14.06-5-29.34-0.9-40.89 11.1-8.06 8.3-12.26 20.2-11.27 31.1 2.26 25.8 25.14 45.1 51 43 14.84-1.1 28.34-8 38.01-19.3 8.71-10.1 13.38-22.8 13.38-36z"/>
  </clipPath>
  <clipPath id="clipPath2140">
   <path d="m10007 3318c2.3 2.3 5.4 3.8 8.8 4.1 7.8 0.6 14.6-5.2 15.2-13 0.2-2.8 2.1-5.2 4.8-6.2 3.3-1.2 7.2 0.3 11 4.2 2.4 2.5 3.7 5.6 3.4 9-0.9 10.3-10.1 18.1-20.6 17.3-7.3-0.6-14-4-18.8-9.6-1.5-1.7-2.8-3.7-3.8-5.8zm139.6-209.3c0-9.9-1.6-20-4.8-29.8-9.7-29.6-32-51-61.4-59-2.2-0.6-4.5-1.1-6.8-1.6-21.9-4.2-45.2 1.4-63.7 15.5-26.6 20.2-38.53 49.1-31.97 77.3 6.1 26.1 27.07 46.3 53.47 51.4 15.2 2.9 31.3-0.9 44.1-10.4 19-14.2 27.6-34.7 22.9-55-4.3-18.7-19.3-33.2-38.3-36.9-22.6-4.4-44.6 10.5-49 33-1.5 7.6 3.5 15.1 11.2 16.6s15.1-3.5 16.6-11.2c1.4-7.3 8.5-12 15.9-10.6 8 1.5 14.3 7.6 16.1 15.4 2 9.1-2.4 18.6-12.3 26-6.5 4.8-14.4 6.8-21.8 5.3-15.5-3-27.8-14.7-31.3-30-4-17.3 3.8-34.9 21.5-48.4 12.3-9.4 26.9-13 41.1-10.2 1.7 0.3 3.3 0.7 4.9 1.1 20 5.4 35.3 20.2 41.9 40.5 7.1 21.7 2.8 45.1-11.3 62.8l-1.7 2c-11.1 14.7-31.3 31.2-53.1 43.6-70.41 39.5-72.97 97.8-72.66 106.4-0.96 14.4 3.69 28.6 13.23 39.7 9.67 11.3 23.13 18.2 38.03 19.3 25.8 2.1 48.7-17.2 51-43 1-11.2-3.2-22.8-11.3-31.1-11.5-12-26.8-16.1-40.9-11.1-10.3 3.7-18.2 12-21.6 22.1 1-12 8.3-49.7 58.2-77.7 25.2-14.4 48.2-33.3 61.4-50.7l1.4-1.8c13.8-17.1 21-38.1 21-59.5z"/>
  </clipPath>
 </defs>
 <g transform="translate(9.2604 -108.21)" fill="none">
  <path d="m-3.5358 109.98h-2e-4 2e-4"/>
  <path d="m-4.8168 109.11h9e-5 -1.9e-4 1e-4"/>
  <path d="m-5.487 111.97c0.0599 0.0246 0.1218 0.0531 0.18005 0.0866 0.0934 0.0531 0.17572 0.11806 0.22225 0.18788 0.0149 0.0226 0.0192 0.0413 0.0193 0.0571 2e-4 0.0236-0.0113 0.0462-0.0275 0.062-2e-3 2e-3 -3e-3 4e-3 -5e-3 5e-3 -1e-3 1e-3 -3e-3 3e-3 -5e-3 4e-3 -0.0142 0.0109-0.0315 0.0187-0.0497 0.0197h-0.00331c-0.0159-8.3e-4 -0.0339-5e-3 -0.0563-0.0197h-1.9e-4c-0.0743-0.0501-0.1403-0.13478-0.19313-0.22921-0.0322-0.0571-0.059-0.11609-0.0818-0.17317"/>
  <path transform="matrix(-.0098386 0 0 .0098386 90.847 104.03)" d="m6967.9 425.1h3207.1v3207.1c0 11-8.9 20-20 20-11 0-19.9-9-19.9-20v-3167.1h-3167.2c-11.04 0-19.99-9-19.99-20 0-11.102 8.95-20 19.99-20" clip-path="url(#clipPath1933)"/>
  <path transform="matrix(-.0098386 0 0 .0098386 90.847 104.03)" d="m7269.5 594.5h2335.6c11.04 0 19.99 9 19.99 20 0 11.102-8.95 20-19.99 20h-2335.6c-11.04 0-19.99-8.898-19.99-20 0-11 8.95-20 19.99-20" clip-path="url(#clipPath1942)"/>
  <path transform="matrix(-.0098386 0 0 .0098386 90.847 104.03)" d="m9990.1 958.4c9.23 0 16.71 7.399 16.71 16.7v2335.6c0 9.3-7.48 16.8-16.71 16.8s-16.71-7.5-16.71-16.8v-2335.6c0-9.301 7.48-16.7 16.71-16.7" clip-path="url(#clipPath1951)"/>
  <path transform="matrix(-.0098386 0 0 .0098386 90.847 104.03)" d="m9906.9 1058.7-0.02-0.1h-0.01z" clip-path="url(#clipPath1960)"/>
  <path transform="matrix(-.0098386 0 0 .0098386 90.847 104.03)" d="m9753.4 1016.1c2.52-2.7 5.18-5.4 7.92-7.9 25.98-24.2 62.03-36.001 98.86-32.501 7.36 0.703 14.47 1.801 21.32 3.403 41.85 9.699 73.89 36.298 86.55 73.698 6.56 19.3 7.3 39.7 2.85 58.8-4.78 20.5-15.58 39.6-31.66 54.5-17.7 16.4-42.09 24.5-66.92 22.4-5.4-0.5-10.64-1.3-15.68-2.5-28.68-6.6-50.94-24.9-59.88-51-4.68-13.6-5.25-28-2.11-41.5 3.35-14.3 10.91-27.7 22.19-38.1 16.17-15 38.06-20 58-15.4 11.89 2.8 23.13 9.1 32.03 18.6 4.23 4.5 5.63 10.7 4.32 16.3-0.78 3.3-2.54 6.5-5.22 9-4.53 4.2-10.67 5.6-16.25 4.3-3.33-0.7-6.52-2.5-9.02-5.2-3.91-4.2-8.78-6.9-14.01-8.1-8.8-2.1-18.43 0.1-25.55 6.7-5.92 5.5-9.9 12.5-11.66 20.1-1.65 7-1.36 14.5 1.09 21.7 4.85 13.9 16.4 23.6 33.99 27.8 3.39 0.8 6.98 1.3 10.77 1.7 14.99 1.3 29.42-3.6 39.6-13 10.75-10 17.95-22.8 21.15-36.4 2.98-12.8 2.47-26.4-1.9-39.2-8.62-25.4-29.65-43-60.34-50.3-5.38-1.2-11.06-2.2-17.01-2.7-27.36-2.6-52.42 5.7-71.15 23.1-2.13 1.9-4.15 4-6.12 6.1-12.86 13.8-21.46 30-25.54 47.5-3.79 16.3-3.7 33.7 0.61 51.2 9.5 38.6 37.34 69.4 74.47 82.4l4.51 1.6 0.15 0.1c7.04 2.7 15.14 5.1 23.97 7.1 26.2 6.2 58.88 9.1 90.36 7.9h-0.04c28.06-1.2 52.58 1.3 73.78 6.3 79 18.4 112.3 69.6 117 77.5 1.1 1.6 2.3 3.2 3.3 4.9 10.8 17.4 15.1 38.1 11.9 58.6-0.3 2.3-0.8 4.5-1.3 6.7-4.6 20.1-16.3 37.8-33.1 50.2-17.9 13.1-39.9 16.9-60.1 12.2-16-3.7-30.9-12.9-41.6-27-10.3-13.8-14-32-10.3-49.2v-0.1l0.3-1.3c5.4-23.5 21.5-41.1 43.3-45.8 7.8-1.6 15.7-1.5 23.2 0.2 12.1 2.9 23.1 9.9 30.7 20.2v0.1c3.2 4.3 4.2 9.7 3.1 14.6-1 4-3.3 7.7-6.9 10.3-4.3 3.2-9.7 4.2-14.6 3-4-0.9-7.8-3.2-10.4-6.8-2.4-3.3-6-5.6-10-6.5-2.4-0.6-5-0.6-7.6-0.1-3.8 0.8-7 2.7-9.7 5.8-2.8 3.2-5 7.5-6.3 13.1l-0.2 0.8c-1.6 7.3 0.1 14.9 4 20.2 5.4 7.2 13 11.8 21.2 13.7 10.3 2.4 21.6 0.5 30.7-6.2 10-7.4 16.7-17.7 19.5-29.5 0.3-1.3 0.6-2.6 0.8-4 2-13.5-1.3-26.8-9.3-37.8l-0.1-0.1-0.9-1.4-0.1-0.1v-0.1c-1.1-1.7-26.6-45.4-94.6-61.3-18.17-4.2-39.42-6.5-64.15-5.3h-0.05c-35 1.3-70.23-1.9-99.65-8.7-10.26-2.4-19.81-5.3-28.43-8.6l-4.19-1.4c-48.57-17.1-85.01-57.4-97.35-107.7-5.67-23-5.83-46.1-0.76-67.9 5.48-23.5 17.07-45.3 34.25-63.7" clip-path="url(#clipPath1969)"/>
  <path transform="matrix(-.0098386 0 0 .0098386 90.847 104.03)" d="m9520.3 686.8h0.02-0.02" clip-path="url(#clipPath1978)"/>
  <path transform="matrix(-.0098386 0 0 .0098386 90.847 104.03)" d="m9566 839.3c2.67-2.5 5.26-5.301 7.76-8 23.66-26.5 34.68-62.801 30.44-99.598-0.83-7.305-2.14-14.402-3.88-21.203-10.56-41.598-37.8-73.098-75.46-85-19.44-6.199-39.79-6.5-58.8-1.598-20.4 5.2-39.29 16.297-53.86 32.7-16.04 18.097-23.64 42.601-21.03 67.398 0.58 5.398 1.51 10.602 2.79 15.602 7.21 28.597 26.04 50.398 52.27 58.8 13.72 4.399 28.08 4.7 41.48 1.297 14.28-3.699 27.5-11.5 37.71-22.996 14.63-16.402 19.2-38.402 14.13-58.301-3.01-11.8-9.48-22.902-19.25-31.601-4.6-4.199-10.79-5.399-16.35-4-3.32 0.801-6.46 2.699-8.9 5.398-4.11 4.602-5.4 10.801-3.98 16.301 0.84 3.301 2.67 6.5 5.42 8.902 4.3 3.899 7.1 8.7 8.42 13.899 2.23 8.699 0.22 18.398-6.23 25.699-5.37 6-12.31 10.102-19.81 12-7.03 1.801-14.54 1.703-21.71-0.602-13.99-4.597-23.97-15.898-28.52-33.398-0.86-3.398-1.5-7-1.9-10.699-1.59-15 2.95-29.5 12.18-39.899 9.74-11.004 22.34-18.402 35.97-21.902 12.69-3.199 26.25-3 39.19 1.102 25.55 8.097 43.64 28.699 51.52 59.3 1.36 5.301 2.4 11 3.08 16.899 3.12 27.301-4.59 52.601-21.61 71.601-1.93 2.2-3.91 4.301-5.99 6.297-13.52 13.102-29.58 22.102-47 26.5-16.18 4.102-33.56 4.403-51.19 0.403-38.8-8.704-70.13-35.903-83.94-72.7l-1.68-4.5-0.06-0.101c-2.83-7-5.42-15.102-7.66-23.903-6.66-25.996-10.32-58.597-9.76-90.097 0.69-28.102-2.39-52.5-7.78-73.699-20.06-78.602-71.89-110.8-79.92-115.3-1.62-1.098-3.26-2.199-4.92-3.199-17.68-10.5-38.4-14.301-58.88-10.7-2.25 0.399-4.48 0.899-6.66 1.399-20 5.101-37.43 17.101-49.46 34.199-12.79 18.102-16.13 40.199-11.02 60.301 4.07 16 13.56 30.699 27.91 41 14.01 10 32.25 13.402 49.39 9.398h0.11l1.26-0.398c23.4-5.801 40.67-22.301 44.85-44.199 1.53-7.801 1.23-15.801-0.68-23.2-3.06-12.101-10.29-22.902-20.78-30.3h-0.05c-4.45-3.102-9.86-4-14.72-2.704-3.98 1.004-7.64 3.403-10.16 7.004-3.12 4.399-3.96 9.797-2.71 14.7 1 4 3.4 7.699 7.01 10.199 3.4 2.398 5.76 5.898 6.76 9.898 0.63 2.403 0.72 5 0.22 7.602-0.75 3.801-2.59 7-5.63 9.898-3.05 2.801-7.38 5.102-12.93 6.5l-0.82 0.203h0.06c-7.26 1.7-14.98 0.2-20.32-3.601-7.27-5.301-12.06-12.699-14.15-20.899-2.62-10.3-0.91-21.601 5.63-30.8 7.14-10.102 17.31-17.102 29.08-20.102 1.28-0.398 2.61-0.602 3.96-0.898 13.45-2.301 26.86 0.699 37.95 8.5l0.16 0.097 1.35 0.903 0.13 0.097h0.08c1.75 1 45.96 25.699 63.23 93.301 4.61 18.102 7.3 39.301 6.7 64v0.102c-0.6 35 3.29 70.097 10.75 99.398 2.61 10.199 5.65 19.699 9.11 28.301l1.56 4.101c18.05 48.2 59.07 83.801 109.62 95.098 23.17 5.199 46.28 4.902 67.9-0.598 23.37-6 44.99-18.004 63.02-35.601" clip-path="url(#clipPath1987)"/>
  <path transform="matrix(-.0098386 0 0 .0098386 90.847 104.03)" d="m9650.5 598.9h-0.01z" clip-path="url(#clipPath1996)"/>
  <path transform="matrix(-.0098386 0 0 .0098386 90.847 104.03)" d="m9695.6 437.5c-3.83 0.699-7.66 1.703-11.45 2.801-35.94 10.199-66.15 36.301-83.04 71.402-3.38 6.996-6.21 13.996-8.49 21.098-14.02 43-7.5 86.301 19.33 118 13.82 16.398 31.75 28.199 51.39 34.601 21.07 6.797 44.16 7.5 66.33 1.098 24.42-7 44.98-24.602 56.6-48.098 2.52-5.101 4.62-10.3 6.3-15.5 9.63-29.402 5.19-59.5-13.42-81.703-9.74-11.597-22.36-20-36.2-24.496-14.76-4.703-30.92-5.203-46.46-0.703-22.28 6.402-38.72 23.398-45.36 43.902-3.97 12.2-4.46 25.7-0.67 39 1.77 6.2 6.56 10.797 12.3 12.7 3.44 1.097 7.26 1.3 10.97 0.199 6.24-1.801 10.87-6.5 12.72-12.301 1.11-3.398 1.26-7.199 0.19-11-1.67-5.801-1.45-11.602 0.29-17 2.94-9 10.17-16.5 19.99-19.398 8.16-2.301 16.66-2.102 24.4 0.398 7.28 2.402 13.88 6.703 18.96 12.801 9.88 12 12.38 27.699 6.59 45.801-1.14 3.5-2.58 7-4.35 10.601-7 14.199-19.21 24.598-33.25 28.598-14.83 4.301-30.23 3.801-44.31-0.699-13.12-4.301-25.05-12.102-34.26-23-18.17-21.602-22.64-50.2-12.48-81.801 1.8-5.5 4.06-11.102 6.78-16.801 12.58-26 33.63-44.098 59.51-51.5 2.93-0.898 5.85-1.598 8.84-2.199 19.41-4.102 38.71-3 56.71 2.801 16.72 5.5 32.33 15 45.79 28.398 29.62 29.602 42.2 71.398 33.76 111.9l-1.02 5-0.03 0.098c-1.41 7.801-3.63 16.402-6.58 25.5-8.73 27-23.81 58-42.02 85.699h0.03c-16.41 24.602-27.43 48.102-34.52 69.903-26.35 81.199 1.65 139 6.24 147.6 0.82 1.903 1.67 3.703 2.6 5.504 9.82 19.297 26.11 34.399 46.34 42.695 2.21 0.902 4.46 1.802 6.72 2.502 20.66 6.7 42.9 5.9 63.19-2.599 21.59-8.899 37.01-26.699 43.72-47.403 5.37-16.496 5.22-35-1.74-52.199-6.84-16.797-21.16-30.097-38.67-36.097l-0.11-0.102-1.3-0.398c-24.13-7.903-48.76-3-64.77 14.097-5.78 6.102-9.97 13.403-12.48 21.102-4.02 12.398-3.69 26.097 1.49 38.597h0.02c2.22 5.301 6.54 9.102 11.56 10.704 4.12 1.398 8.75 1.3 13-0.5 5.27-2.2 9.06-6.5 10.69-11.602 1.34-4.098 1.28-8.699-0.5-13-1.68-4-1.8-8.5-0.48-12.598 0.83-2.5 2.2-4.902 4.1-6.902 2.81-2.898 6.26-4.801 10.56-5.598 4.28-0.699 9.44-0.402 15.18 1.5l0.83 0.301-0.06-0.101c7.43 2.601 13.46 8.199 16.05 14.699 3.52 8.699 3.61 18 0.87 26.5-3.46 10.601-11.33 19.699-22.38 24.301-12.02 4.898-24.99 5.398-37.16 1.5-1.33-0.403-2.66-0.903-3.99-1.5-13.29-5.5-23.51-15.7-28.98-28.903l-0.08-0.199-0.73-1.5-0.07-0.098-0.05-0.101c-0.98-1.903-26.45-48.699-3.79-118.6 6.06-18.597 15.6-39 30.05-60.699h0.03c20.21-30.801 36.53-64.301 46.35-94.5 3.43-10.602 6.06-20.797 7.77-30.301h0.01l0.95-4.597c11.06-53-5.42-107.7-44.03-146.2-17.7-17.703-38.43-30.402-60.76-37.601-24.15-7.899-50.15-9.301-76.06-3.801" clip-path="url(#clipPath2005)"/>
  <path transform="matrix(-.0098386 0 0 .0098386 90.847 104.03)" d="m10010 935.1h0.1z" clip-path="url(#clipPath2014)"/>
  <path transform="matrix(-.0098386 0 0 .0098386 90.847 104.03)" d="m10168 879.2c-0.6 3.899-1.3 7.797-2.1 11.598-7.8 36.601-31.8 68.402-65.6 87.699-6.8 3.801-13.6 7.102-20.5 9.801-41.9 16.899-85.62 13.299-119.1-11.301-17.3-12.699-30.21-29.801-37.9-49-8.23-20.5-10.45-43.5-5.57-66.102 5.36-24.796 21.51-46.496 44.19-59.699 4.94-2.801 9.95-5.301 15-7.297 28.78-11.601 58.98-9.203 82.48 7.899 12.2 8.902 21.4 21 26.8 34.5 5.7 14.402 7.3 30.5 3.9 46.301-4.9 22.597-20.8 40.199-40.8 48.199-11.9 4.801-25.4 6.199-38.8 3.301-6.4-1.403-11.34-5.801-13.58-11.403-1.34-3.398-1.74-7.199-0.93-11 1.37-6.297 5.81-11.199 11.41-13.496 3.3-1.301 7.1-1.703 10.9-0.902 6 1.301 11.8 0.699 17-1.403 8.8-3.597 15.8-11.296 18-21.296 1.8-8.301 1-16.801-2.1-24.301-2.8-7.098-7.6-13.399-14-18.102-12.5-8.996-28.4-10.5-46.08-3.5-3.4 1.403-6.85 3.102-10.31 5.102-13.69 7.898-23.22 20.801-26.3 35.101-3.27 15.098-1.78 30.399 3.72 44.098 5.13 12.801 13.74 24.199 25.25 32.703 22.72 16.699 51.52 19.199 82.42 6.899 5.4-2.102 10.8-4.801 16.3-7.903 25.1-14.297 41.8-36.496 47.4-62.797 0.7-3 1.2-5.902 1.6-9 2.8-19.601 0.4-38.8-6.6-56.402-6.6-16.301-17.1-31.199-31.4-43.699-31.5-27.602-74.1-37.301-113.98-26.199l-4.85 1.398h-0.16c-7.7 1.902-16.14 4.699-25 8.301-26.29 10.5-56.27 27.601-82.69 47.699l0.03-0.098c-23.43 18.098-46.12 30.598-67.44 39.2-79.24 31.699-138.78 7.699-147.63 3.699-1.95-0.699-3.88-1.5-5.75-2.301-19.89-8.5-36.01-23.699-45.68-43.301-1.07-2.199-2.04-4.398-2.92-6.597-8.09-20.102-8.73-42.403-1.7-63.2 7.48-22.101 24.23-38.703 44.42-46.8 16.11-6.5 34.52-7.602 52.2-1.801 17.2 5.699 31.4 19.101 38.63 36.199l0.04 0.102 0.52 1.3c9.53 23.5 6.22 48.399-9.74 65.496-5.73 6.204-12.67 10.903-20.19 13.903-12.1 4.898-25.79 5.398-38.61 1.097h-0.06c-5.39-1.898-9.49-5.898-11.44-10.796-1.62-4-1.8-8.7-0.33-13 1.83-5.403 5.91-9.5 10.84-11.5 3.98-1.602 8.6-1.801 13-0.403 4.15 1.5 8.6 1.301 12.58-0.297 2.47-1 4.74-2.5 6.62-4.601 2.77-3 4.37-6.5 4.88-10.899 0.48-4.3-0.23-9.402-2.47-15l-0.34-0.8h0.03c-3.05-7.2-9.1-12.899-15.68-15-8.98-2.899-18.26-2.403-26.5 0.898-10.37 4.199-18.91 12.602-22.74 24-4.15 12.301-3.78 25.301 0.97 37.102 0.53 1.3 1.11 2.601 1.75 3.898 6.36 12.902 17.26 22.402 30.79 27l0.2 0.102 1.54 0.597 0.15 0.102h0.09c1.96 0.801 50.35 23.101 118.52-4.199 18.24-7.301 37.92-18.2 58.57-34.102h0.04c29.4-22.199 61.7-40.797 91.2-52.598 10.3-4.101 20.25-7.402 29.66-9.8l4.5-1.2c52.13-14.601 107.93-1.902 148.93 34.098 18.8 16.398 32.8 36.301 41.6 58.102 9.4 23.5 12.6 49.398 8.9 75.601" clip-path="url(#clipPath2023)"/>
  <path transform="matrix(-.0098386 0 0 .0098386 90.847 104.03)" d="m9678.6 930c1.65 1.602 3.95 2.801 6.37 2.801 1.62 0 3.45-0.399 5.72-2h0.02c7.54-5 14.26-13.699 19.63-23.199 3.27-5.801 6-11.903 8.31-17.602-6.09 2.402-12.39 5.301-18.3 8.699-9.49 5.504-17.86 12.102-22.59 19.203-1.51 2.297-1.96 4.098-1.97 5.7-0.01 2.5 1.16 4.699 2.81 6.398zm-32.82-6.301c0-7.699 2.38-15.597 7.07-22.5 12.22-18.097 33.04-29.898 51.02-37.597 17.89-7.7 33.05-11.102 34.69-11.5h0.07c0.99-0.204 1.99-0.301 2.96-0.301 4.23 0 7.96 1.898 10.66 4.5 2.7 2.801 4.55 6.5 4.57 10.699 0 1-0.11 2-0.33 3-0.32 1.402-3.78 16.703-11.47 34.699-7.73 18-19.53 38.801-37.59 51-6.97 4.703-14.81 7.102-22.56 7.102-10.03 0-19.88-4-27.47-11.602l3.7-3.699-3.71 3.699c-7.61-7.597-11.62-17.5-11.61-27.5" clip-path="url(#clipPath2041)"/>
  <path transform="matrix(-.0098386 0 0 .0098386 90.847 104.03)" d="m9571.2 1046.9c-5.91 3.4-12.21 6.3-18.3 8.8 2.31-5.8 5.04-11.8 8.31-17.6 5.37-9.6 12.08-18.3 19.63-23.3h0.02c2.27-1.5 4.1-2 5.72-2 2.42 0 4.72 1.2 6.37 2.8 1.65 1.7 2.82 4 2.8 6.4-0.01 1.6-0.45 3.5-1.96 5.7-4.73 7.1-13.1 13.7-22.59 19.2" clip-path="url(#clipPath2050)"/>
  <path transform="matrix(-.0098386 0 0 .0098386 90.847 104.03)" d="m9592.9 1015.6c-1.65-1.6-3.95-2.8-6.37-2.8-1.62 0-3.45 0.5-5.72 2h-0.02c-7.55 5-14.26 13.7-19.63 23.3-3.27 5.8-6 11.8-8.31 17.6 6.09-2.5 12.39-5.4 18.3-8.8 9.49-5.5 17.86-12.1 22.59-19.2 1.51-2.2 1.95-4.1 1.96-5.7 0.02-2.4-1.15-4.7-2.8-6.4zm32.81 6.3c0.01 7.7-2.37 15.6-7.07 22.6-12.21 18-33.03 29.8-51.01 37.6-17.89 7.6-33.06 11-34.69 11.4h-0.07c-0.99 0.2-1.99 0.4-2.96 0.4-4.23-0.1-7.96-1.9-10.67-4.6-2.69-2.7-4.54-6.5-4.56-10.7 0-1 0.11-2 0.33-3 0.32-1.4 3.78-16.7 11.47-34.7 7.73-18 19.52-38.8 37.58-50.998 6.98-4.703 14.82-7.101 22.57-7.101 10.03 0 19.88 4 27.47 11.597l-3.7 3.704 3.71-3.704c7.61 7.602 11.62 17.502 11.6 27.502" clip-path="url(#clipPath2059)"/>
  <path transform="matrix(-.0098386 0 0 .0098386 90.847 104.03)" d="m9922.7 640.4c0 20.7 16.75 37.399 37.4 37.399s37.4-16.699 37.4-37.399c0-20.601-16.75-37.402-37.4-37.402s-37.4 16.801-37.4 37.402" clip-path="url(#clipPath2068)"/>
  <path transform="matrix(-.0098386 0 0 .0098386 90.847 104.03)" d="m9753.8 445c0.05-9.199 7.53-16.598 16.7-16.5 102.72 0.602 201.16 41.199 273.96 112.8 72.7 71.699 114.1 168.9 114.9 270.4 0.1 9.199-7.3 16.699-16.5 16.699-9.1 0.098-16.6-7.3-16.7-16.402-0.8-92.699-38.5-181.5-105-247-66.57-65.602-156.76-102.7-250.87-103.3-9.17-0.101-16.55-7.5-16.49-16.703" clip-path="url(#clipPath2077)"/>
  <path transform="matrix(-.0098386 0 0 .0098386 90.847 104.03)" d="m9421 846.8c8.02-0.098 14.57 6.301 14.64 14.398 0.67 81 33.67 158.7 91.89 216.1 58.21 57.3 137.12 89.8 219.46 90.3 8.02 0.1 14.48 6.6 14.43 14.7-0.05 8-6.59 14.4-14.62 14.4-89.86-0.6-175.99-36-239.65-98.7s-99.83-147.8-100.56-236.6c-0.06-8 6.39-14.601 14.41-14.601" clip-path="url(#clipPath2086)"/>
  <path transform="matrix(-.0098386 0 0 .0098386 90.847 104.03)" d="m7239.1 592.7c12.95 2.602 17.58 12.5 17.58 20.903 0 8.398-4.63 18.296-17.58 20.898-27.76 5.5-65-8.5-89.99-20.898 23.12-11.602 60.59-26.704 89.99-20.903zm-13.43 71.301c6.42 0 12.76-0.598 18.92-1.801 24.14-4.797 40.36-24.297 40.36-48.597 0-24.301-16.22-43.801-40.36-48.602-56.69-11.301-129.1 34.699-132.15 36.703-4.04 2.598-6.49 7.098-6.49 11.899 0 4.8 2.45 9.3 6.49 11.898 2.72 1.699 60.5 38.5 113.23 38.5" clip-path="url(#clipPath2095)"/>
  <path transform="matrix(-.0098386 0 0 .0098386 90.847 104.03)" d="m7336.3 553.6c2.86 0 5.92 1.3 8.21 3.5 3.85 3.699 5.31 7.699 4.1 11-0.96 2.699-3.36 4.5-6.12 4.8-7.79 0.598-13.6 7.399-12.98 15.2 0.28 3.398 1.77 6.5 4.02 8.796-2.06-0.996-4.01-2.296-5.8-3.796-5.56-4.801-8.95-11.5-9.53-18.801-0.82-10.5 6.93-19.699 17.3-20.602zm9.04 74.3c1.25 0 2.49 0 3.75-0.101 8.13-0.199 66.81-2.301 106.39-72.801 12.35-21.699 28.91-41.898 43.21-52.801l2.38-1.898c17.66-14.102 41.16-18.403 62.83-11.301 20.3 6.602 35.03 21.902 40.41 41.902 0.46 1.598 0.83 3.301 1.15 4.899 2.79 14.199-0.84 28.801-10.22 41.097-13.47 17.704-31.12 25.504-48.36 21.504-15.27-3.5-27.06-15.8-30.06-31.3-1.42-7.403 0.53-15.301 5.36-21.801 7.36-9.899 16.75-14.301 25.93-12.301 7.86 1.801 13.93 8.102 15.46 16.102 1.42 7.398-3.35 14.5-10.64 15.898-7.66 1.5-12.66 8.902-11.17 16.602 1.5 7.699 8.97 12.699 16.58 11.199 22.56-4.399 37.37-26.399 33-49-3.65-19-18.14-34-36.92-38.301-20.23-4.598-40.74 3.898-54.91 22.902-9.57 12.797-13.38 28.899-10.44 44.098 5.11 26.402 25.28 47.402 51.38 53.5 28.22 6.602 57.1-5.398 77.3-32 14.12-18.5 19.75-41.801 15.46-63.699-0.45-2.301-0.99-4.602-1.6-6.801-7.91-29.398-29.39-51.797-58.94-61.398-30.82-10.102-64.2-4-89.29 16.199l-2.07 1.601c-17.1 13-36.07 35.899-50.45 61.2-27.94 49.8-65.48 57.199-77.7 58.199 10.12-3.399 18.36-11.301 22.06-21.602 5.03-14.097 0.89-29.398-11.08-40.898-8.33-8.102-20.22-12.301-31.12-11.301-25.75 2.301-45.04 25.199-43.01 51 1.17 14.902 8.04 28.402 19.31 38 10.15 8.699 22.8 13.402 36.02 13.402" clip-path="url(#clipPath2104)"/>
  <path transform="matrix(-.0098386 0 0 .0098386 90.847 104.03)" d="m7333.5 630.5c-2.25 2.301-3.74 5.402-4.02 8.801-0.62 7.801 5.19 14.601 12.98 15.199 2.76 0.301 5.16 2.102 6.12 4.801 1.21 3.301-0.25 7.301-4.1 11-2.5 2.398-5.69 3.699-9.01 3.398-10.37-0.898-18.12-10.097-17.3-20.597 0.58-7.301 3.97-14 9.53-18.801 1.78-1.5 3.73-2.801 5.8-3.801zm209.29 139.6c9.97 0 20.05-1.602 29.85-4.801 29.55-9.602 51.03-32 58.95-61.399 0.6-2.199 1.14-4.504 1.59-6.8 4.29-21.903-1.34-45.204-15.46-63.7-20.2-26.601-49.11-38.5-77.3-32-26.1 6.098-46.27 27.098-51.38 53.5-2.94 15.2 0.87 31.297 10.44 44.098 14.17 19 34.69 27.602 54.91 22.898 18.78-4.296 33.27-19.296 36.93-38.296 4.36-22.602-10.45-44.602-33.01-49-7.61-1.5-15.08 3.5-16.58 11.199-1.49 7.699 3.51 15.101 11.17 16.601 7.29 1.399 12.06 8.5 10.66 15.899-1.55 8-7.61 14.301-15.48 16.097-9.09 2.004-18.56-2.398-25.93-12.296-4.83-6.5-6.78-14.403-5.36-21.801 3-15.5 14.79-27.801 30.06-31.301 17.24-4 34.89 3.801 48.36 21.5 9.38 12.301 13.01 26.902 10.22 41.102-0.32 1.699-0.69 3.3-1.13 4.898-5.4 20-20.13 35.301-40.43 41.902-21.7 7.098-45.19 2.797-62.82-11.3l-2.07-1.7c-14.62-11.101-31.18-31.3-43.57-53.101-39.51-70.403-97.79-73-106.35-72.699-14.44-0.903-28.64 3.699-39.77 13.3-11.27 9.598-18.14 23.098-19.31 38-2.03 25.801 17.26 48.7 43.01 50.996 11.22 1.004 22.81-3.199 31.12-11.296 11.97-11.5 16.11-26.801 11.08-40.903-3.7-10.301-11.95-18.199-22.07-21.597 12.05 1 49.7 8.3 77.67 58.199 14.42 25.199 33.39 48.199 50.78 61.398l1.77 1.403c17.12 13.8 38.08 21 59.45 21" clip-path="url(#clipPath2113)"/>
  <path transform="matrix(-.0098386 0 0 .0098386 90.847 104.03)" d="m9969.1 3412.4c2.56-12.9 12.47-17.5 20.88-17.5s18.31 4.6 20.91 17.5c5.5 27.8-8.5 65-20.89 90-11.58-23.1-26.7-60.6-20.9-90zm71.29 13.5c0-6.4-0.6-12.8-1.8-19-4.8-24.1-24.3-40.3-48.61-40.3-24.3 0-43.84 16.2-48.62 40.3-11.26 56.7 34.76 129.1 36.73 132.2 2.6 4 7.07 6.5 11.89 6.5 4.81 0 9.28-2.5 11.91-6.5 1.7-2.7 38.5-60.5 38.5-113.2" clip-path="url(#clipPath2122)"/>
  <path transform="matrix(-.0098386 0 0 .0098386 90.847 104.03)" d="m9930 3315.3c0-2.9 1.29-6 3.48-8.2 3.73-3.9 7.64-5.4 11.02-4.2 2.65 1 4.51 3.4 4.73 6.2 0.62 7.8 7.43 13.6 15.21 13 3.45-0.3 6.52-1.8 8.8-4.1-1.01 2.1-2.29 4-3.82 5.8-4.77 5.6-11.44 9-18.77 9.6-10.45 0.8-19.71-7-20.61-17.3zm74.26-9.1c0-1.2 0-2.5-0.1-3.7-0.2-8.2-2.3-66.8-72.83-106.4-21.65-12.4-41.89-28.9-52.74-43.2l-1.9-2.4c-14.17-17.7-18.4-41.2-11.34-62.8 6.62-20.3 21.9-35.1 41.91-40.5 1.64-0.4 3.24-0.8 4.88-1.1 14.19-2.8 28.8 0.8 41.14 10.2 17.7 13.5 25.52 31.1 21.51 48.4-3.57 15.3-15.86 27-31.32 30-7.38 1.5-15.33-0.5-21.81-5.3-9.88-7.4-14.34-16.8-12.27-26 1.8-7.8 8.12-13.9 16.08-15.4 7.36-1.4 14.5 3.3 15.92 10.6 1.49 7.7 8.91 12.7 16.58 11.2 7.66-1.5 12.64-9 11.17-16.6-4.4-22.5-26.38-37.4-49.02-33-18.96 3.7-33.99 18.2-38.29 36.9-4.61 20.3 3.94 40.8 22.93 55 12.84 9.5 28.91 13.3 44.08 10.4 26.4-5.1 47.38-25.3 53.52-51.4 6.6-28.2-5.4-57.1-31.98-77.3-18.57-14.1-41.78-19.7-63.68-15.5-2.32 0.5-4.61 1-6.86 1.7-29.35 7.9-51.73 29.3-61.37 58.9-10.08 30.8-4 64.2 16.18 89.3l1.65 2c12.98 17.2 35.91 36.1 61.11 50.5 49.84 27.9 57.22 65.5 58.28 77.7-3.41-10.1-11.31-18.4-21.66-22.1-14.06-5-29.34-0.9-40.89 11.1-8.06 8.3-12.26 20.2-11.27 31.1 2.26 25.8 25.14 45.1 51 43 14.84-1.1 28.34-8 38.01-19.3 8.71-10.1 13.38-22.8 13.38-36" clip-path="url(#clipPath2131)"/>
  <path transform="matrix(-.0098386 0 0 .0098386 90.847 104.03)" d="m10007 3318c2.3 2.3 5.4 3.8 8.8 4.1 7.8 0.6 14.6-5.2 15.2-13 0.2-2.8 2.1-5.2 4.8-6.2 3.3-1.2 7.2 0.3 11 4.2 2.4 2.5 3.7 5.6 3.4 9-0.9 10.3-10.1 18.1-20.6 17.3-7.3-0.6-14-4-18.8-9.6-1.5-1.7-2.8-3.7-3.8-5.8zm139.6-209.3c0-9.9-1.6-20-4.8-29.8-9.7-29.6-32-51-61.4-59-2.2-0.6-4.5-1.1-6.8-1.6-21.9-4.2-45.2 1.4-63.7 15.5-26.6 20.2-38.53 49.1-31.97 77.3 6.1 26.1 27.07 46.3 53.47 51.4 15.2 2.9 31.3-0.9 44.1-10.4 19-14.2 27.6-34.7 22.9-55-4.3-18.7-19.3-33.2-38.3-36.9-22.6-4.4-44.6 10.5-49 33-1.5 7.6 3.5 15.1 11.2 16.6s15.1-3.5 16.6-11.2c1.4-7.3 8.5-12 15.9-10.6 8 1.5 14.3 7.6 16.1 15.4 2 9.1-2.4 18.6-12.3 26-6.5 4.8-14.4 6.8-21.8 5.3-15.5-3-27.8-14.7-31.3-30-4-17.3 3.8-34.9 21.5-48.4 12.3-9.4 26.9-13 41.1-10.2 1.7 0.3 3.3 0.7 4.9 1.1 20 5.4 35.3 20.2 41.9 40.5 7.1 21.7 2.8 45.1-11.3 62.8l-1.7 2c-11.1 14.7-31.3 31.2-53.1 43.6-70.41 39.5-72.97 97.8-72.66 106.4-0.96 14.4 3.69 28.6 13.23 39.7 9.67 11.3 23.13 18.2 38.03 19.3 25.8 2.1 48.7-17.2 51-43 1-11.2-3.2-22.8-11.3-31.1-11.5-12-26.8-16.1-40.9-11.1-10.3 3.7-18.2 12-21.6 22.1 1-12 8.3-49.7 58.2-77.7 25.2-14.4 48.2-33.3 61.4-50.7l1.4-1.8c13.8-17.1 21-38.1 21-59.5" clip-path="url(#clipPath2140)"/>
 </g>
</svg>
