<?xml version="1.0" encoding="UTF-8"?>
<svg version="1.1" viewBox="0 0 120 120" xmlns="http://www.w3.org/2000/svg">
    <path
        d="m113.11 14.169c-2.1096 0.80237-4.4413 1.6894-6.9675-0.65325 2.526-2.3419 4.8585-1.4556 6.9675-0.65325 0.6983 0.26566 1.3772 0.52432 2.032 0.65325-0.6548 0.12973-1.3337 0.3876-2.032 0.65325zm-9.4056 1.1465-2.1073-1.7718 2.1104-1.8222c0.4575 0.70529 0.91267 1.2987 1.3632 1.7943-0.45207 0.49711-0.90799 1.0929-1.3663 1.7997zm-17.374-1.0649c-0.60277-0.36663-1.2164-0.60197-1.823-0.7348 0.60666-0.13203 1.2203-0.36738 1.823-0.73401 5.8947-3.5893 9.2511-3.4379 14.104 0.73401-4.854 4.1726-8.2096 4.3234-14.104 0.7348zm-6.7158 0.49481c-1.2591 1.1286-1.6871 2.6604-1.2055 4.1896-0.58803-0.95851-1.4968-1.7283-2.6386-2.1252-2.1026-0.7317-4.6907-0.32933-6.5938 1.023-0.76197 0.54216-1.3624 1.2024-1.7857 1.9473v-1.7376c0.02645-0.01625 0.05593-0.02948 0.07936-0.05283l2.31-2.31c0.14851-0.14836 0.14851-0.38839 0-0.53596-0.14851-0.14836-0.3876-0.14836-0.53596 0l-1.8533 1.8533v-3.1023h13.544c-0.5041 0.22836-0.95228 0.52043-1.3205 0.85055zm-12.575-2.9392c-0.27737-0.84976-0.5779-1.8859-0.5779-2.3341 0-0.41946 0.32083-0.83887 0.57711-1.096 0.23845 0.2369 0.57945 0.65401 0.57945 1.096 0 0.44817-0.30042 1.4843-0.57866 2.3341zm-0.40702 5.1529-1.816-1.8153c-0.14851-0.14836-0.38839-0.14836-0.53675 0-0.14738 0.1476-0.14738 0.3876 0 0.53596l2.31 2.31c0.01512 0.01247 0.03023 0.01701 0.0427 0.02796v1.6669c-0.42021-0.70529-0.99966-1.3329-1.729-1.8518-1.903-1.3523-4.4912-1.7547-6.5938-1.023-1.1434 0.39769-2.084 1.176-2.6899 2.2098v-5.1249h11.013zm-11.337-4.4296c-0.76976-0.0016-1.3958-0.62839-1.3958-1.3981 0-0.7721 0.6276-1.3997 1.3989-1.3997s1.3989 0.6276 1.3989 1.3997c0 0.76976-0.6268 1.3974-1.3966 1.3981h-0.0038zm-0.43344 6.3965c-0.58799-0.95386-1.4937-1.7197-2.6321-2.1159-2.1024-0.7317-4.6907-0.32933-6.5934 1.023-0.74553 0.53052-1.3359 1.1729-1.7574 1.8976v-1.8914l2.1594-2.1594c0.14813-0.14836 0.14813-0.38836 0-0.53596-0.14813-0.14836-0.38805-0.14836-0.53618 0l-1.6232 1.6234v-2.8724h10.983zm-11.334-7.1198c-0.27699-0.84976-0.57828-1.8859-0.57828-2.3341 0-0.41946 0.32083-0.83887 0.57741-1.096 0.23845 0.2369 0.57953 0.65401 0.57953 1.096 0 0.44817-0.30118 1.4843-0.57866 2.3341zm-0.40782 5.1117-1.7743-1.7741c-0.14813-0.14836-0.38817-0.14836-0.53618 0-0.14813 0.1476-0.14813 0.3876 0 0.53596l2.3102 2.31h3.03e-4v1.7407c-0.42138-0.72471-1.0119-1.3671-1.7574-1.8976-1.903-1.3523-4.4908-1.7547-6.593-1.023-1.1072 0.38526-2.0254 1.1255-2.6325 2.1096v-5.0248h10.983zm0 12.521h-4.1284c-0.38775-1.9861-1.0141-3.5645-2.2499-4.2153 1.0295-0.62374 1.5223-1.9038 1.1114-3.0852-0.16778-0.48313-0.51457-0.87307-0.97582-1.096-0.46114-0.22292-0.98179-0.25322-1.4652-0.08465-0.75064 0.26101-1.1487 1.0843-0.88781 1.8347 0.09787 0.28119 0.29891 0.50644 0.56615 0.63693 0.2683 0.12894 0.57016 0.14681 0.85059 0.04894 0.19764-0.06915 0.30193-0.28508 0.23353-0.48313-0.06877-0.1973-0.28493-0.30292-0.48268-0.23304-0.08994 0.03023-0.18592 0.02494-0.27095-0.01549-0.08502-0.04119-0.14926-0.1134-0.18063-0.20349-0.12357-0.35574 0.06537-0.74569 0.42116-0.86997 0.29248-0.10097 0.60681-0.08313 0.88566 0.05204 0.2785 0.13438 0.48785 0.36972 0.58984 0.66255 0.16211 0.46605 0.1334 0.96785-0.082 1.4113-0.21502 0.44508-0.59011 0.77909-1.0565 0.94143-0.71818 0.24933-1.4904 0.20429-2.1743-0.12659-0.68424-0.33088-1.1985-0.90878-1.4483-1.6265-0.37638-1.082-0.30873-2.2464 0.19008-3.2779 0.49915-1.0315 1.37-1.8067 2.4523-2.1827 1.849-0.64316 4.2218-0.27185 5.9049 0.92511 1.4163 1.0074 2.1964 2.474 2.1964 4.1299zm-3.4158 10.246c-1.7495-0.48003-3.8284-0.69441-5.8697-0.90413-4.1957-0.43034-8.159-0.83657-8.159-3.4511 0-0.01549-0.0076-0.02948-0.0076-0.04501 0.0038-0.08079 0.01134-0.16158 0.01134-0.24234 0-0.53671-0.1213-1.0696-0.36202-1.5667-0.40997-0.84745-1.1206-1.4875-2.0023-1.8106 0.43053-0.19574 0.8168-0.46526 1.149-0.79152 0.63478 2.3939 3.808 3.072 6.8949 3.7253 1.6108 0.34021 3.2587 0.68976 4.5343 1.2731-0.5841-1.2754-0.9327-2.9237-1.2735-4.5339-0.65291-3.0868-1.331-6.2597-3.7253-6.8953 0.32687-0.33167 0.59559-0.71848 0.79156-1.1488 0.32309 0.88161 0.96271 1.5923 1.8105 2.0025 0.49696 0.24079 1.0303 0.36118 1.5668 0.36118 0.08087 0 0.16174-0.0038 0.2426-0.0091 0.01512 0.0016 0.03023 0.0087 0.04497 0.0087 2.6145 0 3.0208 3.9629 3.451 8.159 0.20935 2.0413 0.42357 4.1197 0.90455 5.869zm-10.247 3.4161h-6.8575c-1.6558 0-3.1225-0.77985-4.1296-2.1966-1.1968-1.6832-1.5684-4.0555-0.92545-5.9049 0.37638-1.082 1.1518-1.9527 2.1834-2.4522 1.0313-0.49866 2.1952-0.56626 3.2775-0.1903 0.71753 0.25012 1.2956 0.76432 1.6267 1.4486 0.33065 0.68352 0.376 1.4564 0.12622 2.1741-0.16211 0.4668-0.49613 0.84122-0.94064 1.0564-0.44443 0.21517-0.94574 0.24389-1.4121 0.08234-0.29248-0.10173-0.52795-0.31146-0.66274-0.59034-0.1349-0.27884-0.15267-0.59264-0.05139-0.8855 0.12432-0.35574 0.51427-0.5445 0.8702-0.421 0.08956 0.03099 0.16136 0.09553 0.20293 0.18022 0.04081 0.08544 0.04648 0.18176 0.01511 0.2711-0.06991 0.19809 0.03779 0.41401 0.23354 0.48237 0.19764 0.06915 0.41386-0.03514 0.48245-0.23301 0.09749-0.28039 0.08011-0.58255-0.04913-0.85055-0.12962-0.2672-0.35559-0.46839-0.63632-0.56626-0.75064-0.26101-1.5741 0.13748-1.8354 0.88781-0.16816 0.48313-0.13793 1.0043 0.08502 1.465 0.22333 0.4614 0.61263 0.80781 1.0963 0.97639 1.1814 0.41092 2.4613-0.08234 3.0847-1.1115 0.65084 1.235 2.2295 1.8619 4.2157 2.2495zm-11.448 0h-3.02e-4l-2.3102-2.31c-0.14775-0.14836-0.38805-0.14836-0.53611 0-0.14813 0.14836-0.14813 0.3876 0 0.53596l1.7746 1.7741h-3.0229v-10.983h5.0244c-0.98428 0.60742-1.7246 1.5255-2.1096 2.6332-0.73186 2.1019-0.32952 4.69 1.0237 6.593 0.52984 0.74568 1.1724 1.336 1.897 1.757zm-0.15644 2.5159c-1.3529 1.9038-1.7549 4.492-1.0237 6.5938 0.39588 1.1387 1.1621 2.0444 2.116 2.6324h-5.0308v-10.983h2.8719l-1.6236 1.6234c-0.14813 0.14836-0.14813 0.38839 0 0.53596 0.14813 0.14836 0.38809 0.14836 0.53615 0l2.1597-2.1594h1.8911c-0.72452 0.42176-1.3671 1.0121-1.897 1.757zm-1.0237 12.674c-0.73186 2.1026-0.32952 4.6907 1.0237 6.5938 0.51824 0.72936 1.1457 1.3088 1.8515 1.7283h-1.6672c-0.01134-0.01323-0.01512-0.02947-0.02645-0.04194l-2.3117-2.31c-0.14813-0.1476-0.38805-0.1476-0.53611 0-0.14813 0.14836-0.14813 0.38839 0 0.53596l1.8159 1.8161h-3.0643v-11.012h5.1245c-1.0334 0.60587-1.812 1.5465-2.2098 2.6899zm1.0237 10.867c-1.3529 1.903-1.7549 4.4912-1.0237 6.5938 0.39746 1.1418 1.1669 2.0506 2.1251 2.6386-1.5292-0.48158-3.0605-0.05358-4.1889 1.2055-0.33027 0.36818-0.62223 0.81635-0.85078 1.3205v-13.544h3.1019l-1.8535 1.8533c-0.14813 0.1476-0.14813 0.3876 0 0.53596s0.38809 0.14836 0.53615 0l2.3099-2.31c0.02267-0.02343 0.03779-0.05204 0.0529-0.07921h1.7377c-0.74523 0.42331-1.4052 1.0238-1.9468 1.7857zm-3.5829 17.154c3.5891 5.8947 3.4376 9.2503-0.73461 14.104-4.1723-4.8532-4.3234-8.2096-0.73461-14.104 0.36716-0.60277 0.60228-1.2164 0.73488-1.823 0.13234 0.60662 0.3675 1.2203 0.73435 1.823zm1.0649 17.374c-0.70691 0.45826-1.3022 0.91422-1.7995 1.3663-0.49609-0.45052-1.0893-0.90568-1.7947-1.3632l1.8226-2.1104zm-1.1462 9.4056c-0.26547 0.6983-0.52375 1.3772-0.65325 2.0312-0.12924-0.65401-0.38752-1.3329-0.65333-2.0312-0.80192-2.1089-1.6888-4.4413 0.65333-6.9682 2.3427 2.5268 1.4555 4.8585 0.65325 6.9682zm4.0676-82.837c-1.1326-0.8179-1.7822-1.9621-1.7822-3.1388l-3.02e-4 -10.662h10.662c1.1764 0 2.3205 0.65012 3.1389 1.7826 0.96274 1.3321 1.2974 3.0619 0.85289 4.4065-0.27586 0.83343-0.85901 1.5092-1.6427 1.9038-0.78404 0.39459-1.6749 0.45906-2.5075 0.18411-0.54552-0.18022-0.98848-0.56237-1.2467-1.0758-0.2581-0.51344-0.30118-1.0968-0.12092-1.6428 0.23731-0.71617 1.0125-1.1061 1.7294-0.86997 0.43359 0.14367 0.66939 0.61286 0.52647 1.047-0.07898 0.23845-0.33783 0.36738-0.57469 0.28818-0.04988-0.01625-0.09032-0.05128-0.11412-0.09787-0.02267-0.04739-0.02645-0.10022-0.01134-0.14991 0.06575-0.19884-0.04232-0.41322-0.24071-0.47924-0.19915-0.06602-0.41352 0.04194-0.47909 0.24079-0.08049 0.24234-0.06122 0.501 0.05366 0.72936 0.1145 0.2276 0.31138 0.39693 0.55342 0.47693 0.30722 0.10252 0.63625 0.07769 0.92575-0.06757 0.28946-0.14602 0.5049-0.39535 0.60647-0.70295 0.27472-0.83033-0.17761-1.7298-1.0082-2.004-1.1138-0.36897-2.319 0.23769-2.687 1.3516-0.24374 0.7379-0.18592 1.5271 0.16325 2.2207 0.34917 0.6952 0.94786 1.2117 1.6861 1.4548 0.41723 0.13827 0.8459 0.20663 1.2731 0.20663 0.62234 0 1.2407-0.14526 1.8129-0.43264 0.08427-0.0427 0.16438-0.09088 0.24449-0.13827 2.4622 0.07535 3.117 3.1497 3.8061 6.4082 0.22258 1.0525 0.44904 2.1197 0.74398 3.1062-0.9864-0.29517-2.0536-0.52198-3.106-0.74414-3.2584-0.68896-6.333-1.3438-6.4086-3.8061 0.04761-0.08079 0.09636-0.16079 0.13831-0.24468 0.28795-0.57246 0.43359-1.1908 0.43359-1.8129 0-0.4272-0.06878-0.85599-0.2067-1.2731-0.24412-0.7379-0.76065-1.3368-1.4552-1.6863-0.69422-0.34954-1.4831-0.40702-2.221-0.1631-1.1136 0.36818-1.7207 1.5737-1.3518 2.6875 0.27472 0.83033 1.1737 1.2824 2.0044 1.0082 0.3076-0.10173 0.55708-0.31769 0.70272-0.60742 0.14549-0.28893 0.17005-0.61751 0.06764-0.92511-0.07973-0.24234-0.24941-0.43888-0.47731-0.55383-0.22787-0.1142-0.48664-0.13362-0.72906-0.05359-0.19877 0.06602-0.30684 0.27964-0.24072 0.47924 0.06575 0.19884 0.28002 0.30681 0.47878 0.24079 0.05026-0.01625 0.10316-0.01247 0.15002 0.01096 0.04686 0.02418 0.08162 0.06447 0.09825 0.1142 0.07936 0.2369-0.05026 0.49556-0.28871 0.5748-0.43359 0.14292-0.90296-0.09319-1.0465-0.52662-0.23656-0.71693 0.15304-1.4921 0.8699-1.729 0.54582-0.18097 1.129-0.13748 1.6424 0.1204 0.51366 0.25866 0.89567 0.7014 1.0762 1.2467 0.27472 0.83268 0.2101 1.7236-0.18441 2.5073-0.3941 0.78374-1.0701 1.3671-1.9033 1.6428-1.3444 0.44508-3.0745 0.11031-4.4069-0.85285zm12.103-19.123c0-0.7721 0.62778-1.3997 1.3991-1.3997s1.3991 0.6276 1.3991 1.3997c0 0.76976-0.62661 1.3974-1.397 1.3981h-0.0038c-0.76974-0.001576-1.3957-0.62839-1.3957-1.3981zm10.466-0.33711c0.39319-0.01096 1.0707 0.0427 1.4667 0.43888 0.39591 0.39614 0.44689 1.0758 0.43933 1.4665-0.39293 0.01096-1.071-0.0427-1.467-0.43888-0.39599-0.39614-0.44696-1.075-0.43903-1.4665zm3.941 0.43888c0.39599-0.39614 1.0738-0.44663 1.4667-0.43888 0.0076 0.39149-0.04308 1.0704-0.43911 1.4665-0.39622 0.39614-1.0765 0.44508-1.4667 0.43963-0.0076-0.39225 0.04308-1.0711 0.43903-1.4673zm19.57-0.43888c0.39304-0.01096 1.0711 0.0427 1.4673 0.43888 0.3961 0.39614 0.44659 1.0758 0.43884 1.4665-0.39304 0.01096-1.0712-0.0427-1.4665-0.43888-0.3961-0.39614-0.44738-1.075-0.43964-1.4665zm3.9414 0.43888c0.39614-0.39614 1.0774-0.44583 1.4665-0.43888 0.0076 0.39149-0.0427 1.0704-0.43888 1.4665-0.39614 0.39614-1.0773 0.44508-1.4665 0.43963-0.0076-0.39225 0.0427-1.0711 0.43888-1.4673zm-55.557 54.99c-0.39111 0.0076-1.0707-0.04349-1.4667-0.43884-0.39565-0.39614-0.44965-1.0743-0.43903-1.4673 0.39142-0.0076 1.0707 0.04349 1.4667 0.43888 0.39565 0.39614 0.44942 1.0743 0.4391 1.4673zm-0.4391 3.0627c-0.39591 0.39614-1.0749 0.44662-1.467 0.43888-0.0064-0.38915 0.04293-1.0704 0.43933-1.4665 0.39599-0.39614 1.075-0.44662 1.4671-0.43888 0.0045 0.38915-0.04315 1.0704-0.43941 1.4665zm-2.7884-1.6863c-0.44236 0-0.85932-0.34101-1.0963-0.57945 0.25727-0.25632 0.67634-0.57711 1.0963-0.57711 0.4481 0 1.4843 0.30061 2.3342 0.5779-0.85021 0.27809-1.8863 0.57866-2.3342 0.57866zm1.6584-10.921c-0.77123 0-1.399-0.6276-1.399-1.3989 0-0.77131 0.62775-1.3989 1.399-1.3989 0.77014 0 1.397 0.62605 1.3988 1.3958v0.0045c-0.0012 0.77051-0.62809 1.3974-1.3988 1.3974zm1.5691-13.967c-0.39111 0.0072-1.0707-0.0435-1.4667-0.43964-0.39565-0.39614-0.44965-1.0735-0.43903-1.4673 0.39142-0.0076 1.0707 0.0435 1.4667 0.43964 0.39565 0.39614 0.44942 1.0743 0.4391 1.4673zm-0.4391 3.0627c-0.39591 0.39535-1.0749 0.44662-1.467 0.43888-0.0064-0.39304 0.04293-1.0711 0.43933-1.4673 0.39599-0.39614 1.075-0.44662 1.4671-0.43888 0.0045 0.3907-0.04315 1.0704-0.43941 1.4673zm-2.7884-1.6871c-0.44236 0-0.85901-0.34097-1.0963-0.57945 0.25727-0.25632 0.67634-0.57711 1.0963-0.57711 0.4481 0 1.4843 0.30136 2.3342 0.5779-0.85021 0.27809-1.8863 0.57866-2.3342 0.57866zm1.6584-10.949c-0.77123 0-1.399-0.62839-1.399-1.3997 0-0.77131 0.62775-1.3989 1.399-1.3989 0.77014 0 1.397 0.62605 1.3988 1.3958v0.0057c-0.0012 0.77051-0.62809 1.3974-1.3988 1.3974zm108.59-25.581c-0.60043-1.7259-2.4926-2.6417-4.2202-2.0413-1.2536 0.43574-1.9186 1.8098-1.4828 3.0635 0.32309 0.92666 1.3391 1.4191 2.2658 1.096 0.7014-0.24389 1.0735-1.0129 0.82954-1.7135-0.0914-0.26411-0.28115-0.47693-0.53282-0.59888-0.25243-0.12194-0.53596-0.13748-0.80082-0.045838-0.19726 0.06836-0.30231 0.28428-0.23315 0.48237 0.0684 0.1973 0.28417 0.30216 0.48237 0.23304 0.0737-0.024941 0.15153-0.020784 0.22144 0.013226 0.0692 0.033254 0.12093 0.092431 0.147 0.16468 0.0514 0.14836 0.0419 0.30836-0.0264 0.44972-0.0684 0.14137-0.18819 0.24778-0.33632 0.29906-0.53207 0.18562-1.1146-0.097117-1.3003-0.62839-0.29815-0.85909 0.15758-1.8005 1.016-2.0995 1.3306-0.46295 2.7916 0.24389 3.2546 1.5753 0.7014 2.0164-0.36806 4.2271-2.3846 4.9284-0.90489 0.31535-1.997-0.10022-3.2608-0.58025-2.2401-0.8521-4.9201-1.8719-7.7743 0.81714-0.48937-0.53985-0.98644-1.2063-1.4898-2.0234-0.0582-0.09477-0.15455-0.15924-0.2649-0.17632-0.10883-0.01625-0.22144 0.01549-0.30533 0.08774l-2.5136 2.171c-5.1661-4.4787-8.8744-4.6847-15.096-0.89634-2.1904 1.3337-4.5501 0.72082-5.8146-0.41246-1.155-1.0354-1.4548-2.4856-0.80237-3.879 0.65091-1.3919 1.9954-2.0545 3.2693-1.6118 0.85833 0.29906 1.3143 1.2405 1.016 2.0995-0.18479 0.53131-0.76817 0.8148-1.3003 0.62839-0.14927-0.051242-0.26792-0.15765-0.33632-0.29906-0.0684-0.14137-0.07784-0.30061-0.02645-0.44972 0.02645-0.073008 0.07784-0.13128 0.147-0.16468 0.06991-0.03401 0.14851-0.038053 0.22144-0.013226 0.19801 0.069154 0.41322-0.035899 0.48237-0.23301 0.06915-0.19809-0.03401-0.41401-0.23391-0.48237-0.26339-0.091676-0.54764-0.076107-0.80006 0.045838-0.25167 0.12194-0.44118 0.33477-0.53286 0.59888-0.1179 0.33942-0.09712 0.7045 0.06008 1.0284 0.15682 0.32389 0.42954 0.56702 0.76976 0.68511 0.92666 0.32313 1.9426-0.16933 2.265-1.096 0.43654-1.2537-0.229-2.6277-1.482-3.0635-1.6288-0.56781-3.3959 0.27654-4.2051 2.0056-0.80161 1.7135-0.43499 3.4946 0.98258 4.7652 0.36806 0.33012 0.81635 0.62215 1.3197 0.85055h-11.559c0.16703-0.08778 0.3246-0.1996 0.46529-0.34021 0.84745-0.84666 0.64313-2.3481 0.63383-2.4118-0.02267-0.16703-0.15456-0.29751-0.32158-0.32158-0.05139-0.0076-1.0704-0.14526-1.903 0.27265 0.07633-0.33942 0.12735-0.64392 0.12735-0.86374 0-1.0626-1.0649-1.8719-1.11-1.9061-0.13528-0.10097-0.32007-0.10097-0.45437 0-0.04572 0.03401-1.11 0.84356-1.11 1.9061 0 0.21902 0.05026 0.52432 0.12735 0.86374-0.83188-0.41791-1.8517-0.28039-1.9038-0.27265-0.16627 0.02419-0.2974 0.15456-0.32158 0.32158-0.0076 0.06371-0.21275 1.5651 0.63383 2.4118 0.14057 0.14057 0.29891 0.25243 0.46609 0.34021h-7.7044c2.1539-0.40623 3.2857-1.5442 3.8076-2.279 0.81325-1.1434 1.0696-2.5679 0.66958-3.7175-0.5748-1.6521-2.3854-2.5283-4.0374-1.9535-1.2016 0.41787-1.8393 1.736-1.4214 2.9377 0.30987 0.89091 1.2878 1.3632 2.1787 1.054 0.67657-0.23614 1.0354-0.97714 0.80006-1.6537-0.08956-0.25632-0.27284-0.46216-0.51654-0.58021-0.24487-0.11805-0.51967-0.13438-0.77444-0.045044-0.20633 0.071458-0.37298 0.21982-0.46835 0.41632-0.09485 0.1965-0.1077 0.41866-0.03401 0.6245 0.0684 0.19809 0.28417 0.30295 0.48234 0.2338 0.19726-0.06836 0.30231-0.28428 0.23316-0.48237-0.01134-0.030987 0.0076-0.065261 0.03779-0.076106 0.06537-0.022673 0.13415-0.018894 0.19574 0.011715 0.06122 0.029475 0.10808 0.081548 0.13075 0.14602 0.09787 0.28194-0.05139 0.59034-0.3333 0.68896-0.49552 0.17243-1.0401-0.090882-1.2132-0.58724-0.28039-0.80705 0.14738-1.6918 0.95462-1.9722 0.60897-0.21207 1.263-0.17398 1.844 0.10717 0.58025 0.28039 1.016 0.77051 1.228 1.3795 0.32083 0.92121 0.10165 2.0825-0.57087 3.0285-0.43268 0.60897-1.3578 1.5341-3.1093 1.9248 0.23618-0.34565 0.37449-0.76277 0.37449-1.2117 0-1.19-0.96785-2.1578-2.157-2.1578-1.1892 0-2.1571 0.96785-2.1571 2.1578 0 0.45906 0.14549 0.88471 0.39149 1.235-1.7161-0.33866-2.6546-1.148-3.1573-1.8557-0.66448-0.9352-0.86355-2.1306-0.51914-3.121 0.21162-0.60897 0.64808-1.0991 1.2282-1.3795 0.58017-0.28119 1.235-0.31924 1.8432-0.10717 0.80706 0.28039 1.235 1.1651 0.95462 1.9722-0.17232 0.49636-0.71693 0.76042-1.2125 0.58724-0.2819-0.098629-0.43143-0.40702-0.3333-0.68896 0.04572-0.13362 0.19159-0.20429 0.32612-0.15765 0.03023 0.010959 0.04724 0.045044 0.03779 0.076106-0.06915 0.19809 0.03401 0.41401 0.23391 0.48237 0.19726 0.069116 0.41401-0.035899 0.48237-0.2338 0.14851-0.42565-0.07784-0.89249-0.50414-1.0409-0.52817-0.18486-1.1075 0.096323-1.2913 0.62529-0.23505 0.67653 0.12432 1.4183 0.80044 1.6537 0.89091 0.30991 1.8681-0.1631 2.178-1.054 0.41787-1.2016-0.21955-2.5198-1.4215-2.9377-0.80003-0.27809-1.6604-0.22836-2.4229 0.14057-0.76254 0.36897-1.3357 1.0129-1.6139 1.8129-0.42388 1.2179-0.18705 2.6782 0.6172 3.8091 0.60224 0.84741 1.7255 1.8215 3.7707 2.1873h-7.6647c0.16703-0.08774 0.32536-0.1996 0.46575-0.34021 0.84681-0.84666 0.6426-2.3481 0.63383-2.4118-0.02267-0.16703-0.15493-0.29751-0.32158-0.32158-0.05215-0.0076-1.0714-0.14526-1.9036 0.27265 0.07671-0.33942 0.12697-0.64471 0.12697-0.86374 0-1.0626-1.0641-1.8719-1.1093-1.9061-0.13491-0.10097-0.31969-0.10097-0.45479 0-0.04535 0.03401-1.1093 0.84356-1.1093 1.9061 0 0.21902 0.05026 0.52432 0.12697 0.86374-0.83234-0.41787-1.8515-0.28039-1.9037-0.27265-0.16627 0.02419-0.29778 0.15456-0.3212 0.32158-0.0076 0.06371-0.21351 1.5651 0.63364 2.4118 0.14057 0.14057 0.29891 0.25243 0.46571 0.34021h-7.7331c2.154-0.40623 3.2851-1.5442 3.8076-2.279 0.81253-1.1434 1.0689-2.5679 0.66898-3.7175-0.57462-1.6521-2.3855-2.5283-4.037-1.9535-1.2015 0.41791-1.8393 1.736-1.4212 2.9377 0.30987 0.89091 1.2875 1.3632 2.1779 1.054 0.67661-0.23614 1.0356-0.97714 0.80014-1.6537-0.088804-0.25632-0.27208-0.46216-0.51608-0.58021-0.24449-0.11805-0.51978-0.13438-0.77497-0.045044-0.20633 0.071459-0.3726 0.21982-0.46782 0.41636-0.09523 0.1965-0.10808 0.41866-0.03779 0.6245 0.0684 0.19809 0.28493 0.30291 0.48211 0.2338 0.19801-0.06836 0.30231-0.28428 0.23354-0.48237-0.01134-0.030987 0.0076-0.065223 0.03779-0.076106 0.065-0.022673 0.13453-0.018894 0.19574 0.011715 0.0616 0.029475 0.1077 0.081548 0.13037 0.14602 0.09787 0.28198-0.05139 0.59034-0.3333 0.68896-0.49488 0.17243-1.0401-0.090882-1.2131-0.58724-0.28039-0.80705 0.14775-1.6918 0.95454-1.9722 0.60866-0.21207 1.2635-0.17398 1.8436 0.10717 0.58006 0.28039 1.0164 0.77051 1.2282 1.3795 0.32083 0.92121 0.10203 2.0825-0.57069 3.0285-0.43302 0.60897-1.3578 1.5341-3.1091 1.9248 0.23618-0.34565 0.37449-0.76277 0.37449-1.2117 0-1.19-0.96788-2.1578-2.1573-2.1578-1.1894 0-2.1572 0.96785-2.1572 2.1578 0 0.45906 0.14549 0.88471 0.39172 1.235-1.7165-0.33866-2.6546-1.148-3.1577-1.8557-0.66444-0.9352-0.86321-2.1306-0.5188-3.121 0.21162-0.60897 0.64804-1.0991 1.2282-1.3795 0.58047-0.28119 1.2352-0.31924 1.8435-0.10717 0.80679 0.28039 1.2352 1.1651 0.95462 1.9722-0.17232 0.49636-0.71545 0.75967-1.2131 0.58724-0.28153-0.098629-0.43087-0.40702-0.3333-0.68896 0.04648-0.13362 0.19272-0.20429 0.32612-0.15765 0.03023 0.010959 0.04761 0.045044 0.03779 0.076106-0.0684 0.19809 0.03779 0.41401 0.23391 0.48237 0.19764 0.069153 0.41352-0.035899 0.48211-0.2338 0.14813-0.42565-0.07784-0.89249-0.50361-1.0409-0.52795-0.18486-1.1078 0.096323-1.2917 0.62529-0.23505 0.67653 0.12395 1.4183 0.80037 1.6537 0.88992 0.30991 1.8685-0.1631 2.1779-1.054 0.41809-1.2016-0.21955-2.5198-1.4212-2.9377-0.79972-0.27809-1.6603-0.22836-2.4231 0.14057-0.20255 0.097873-0.39047 0.21672-0.5643 0.3511 0.086913-0.53596 0.040433-1.0874-0.14284-1.6149-0.21124-0.60742-0.64634-1.096-1.2249-1.3756-0.57858-0.28119-1.2318-0.31924-1.839-0.10717-0.92658 0.32234-1.4184 1.3391-1.0962 2.265 0.24412 0.7014 1.0138 1.0735 1.7141 0.82958 0.26414-0.091676 0.47659-0.28119 0.59831-0.53286 0.12206-0.25167 0.13868-0.53596 0.04648-0.80006-0.0684-0.19809-0.28417-0.30295-0.48245-0.23301-0.19764 0.06836-0.30231 0.28428-0.23353 0.48237 0.02645 0.073008 0.01889 0.15146-0.01134 0.22061-0.03401 0.069153-0.0922 0.12194-0.16514 0.1476-0.30533 0.10566-0.64199-0.055927-0.74882-0.36273-0.18516-0.53207 0.09712-1.1154 0.62926-1.3003 0.41605-0.1445 0.86328-0.11885 1.2595 0.073008 0.39663 0.19185 0.69456 0.52662 0.83925 0.94219 0.22409 0.64547 0.18403 1.3391-0.11337 1.9543-0.2974 0.61441-0.81654 1.0766-1.4615 1.3011-2.0165 0.70064-4.2274-0.36897-4.9288-2.3854-0.018894-0.048936-0.044213-0.093187-0.077089-0.12973-0.25885-1.0556-1.028-1.9644-2.1285-2.3473-1.1685-0.40702-2.4243-0.33322-3.5378 0.20504-1.1129 0.53826-1.95 1.4781-2.3561 2.6464-0.43359 1.2467-0.43903 2.6961-0.01549 4.0827 0.04999 0.1631 0.20036 0.26875 0.36258 0.26875 0.03628 0 0.07399-0.00605 0.11098-0.017005 0.19994-0.061369 0.31289-0.2734 0.2516-0.4738-0.37139-1.2156-0.36927-2.5322 0.0064-3.6111 0.33983-0.97639 1.0395-1.7624 1.9704-2.2137 0.93085-0.44972 1.9816-0.51109 2.9583-0.17088 0.64509 0.22371 1.1639 0.68587 1.4615 1.3011 0.2974 0.6152 0.33783 1.308 0.11374 1.9535-0.29853 0.8583-1.2398 1.3143-2.0987 1.0152-0.25808-0.089332-0.46542-0.2742-0.58408-0.51963-0.11903-0.24544-0.13491-0.52273-0.045724-0.77985 0.051393-0.14911 0.15796-0.26796 0.29966-0.33711 0.14171-0.06836 0.30118-0.077694 0.44935-0.025696 0.1504 0.052035 0.23051 0.21747 0.17798 0.36818-0.0684 0.1973 0.03779 0.41322 0.23391 0.48237 0.19764 0.06836 0.41386-0.035899 0.48245-0.2338 0.18932-0.54529-0.10014-1.1434-0.64543-1.3329-0.33934-0.11805-0.7045-0.097079-1.0286 0.059782-0.32385 0.15614-0.5671 0.42954-0.68537 0.76896-0.15607 0.44972-0.1281 0.9321 0.07898 1.3601 0.20708 0.428 0.56857 0.74958 1.0174 0.90568 1.2536 0.43574 2.6282-0.22915 3.0639-1.482 0.03401-0.094774 0.05933-0.1903 0.08351-0.28583 0.87205 1.1923 2.2702 1.9015 3.7414 1.9015 0.50338 0 1.0153-0.083097 1.5168-0.25787 0.3658-0.12659 0.69724-0.31614 0.99006-0.55149-0.18403 1.0789 0.08427 2.265 0.76212 3.2181 0.60232 0.84741 1.7255 1.8215 3.7712 2.1873h-13.514c-0.55644 0-1.0904-0.09553-1.5875-0.28353-0.19537-0.07456-0.41447 0.02494-0.4885 0.22061-0.07444 0.19575 0.02267 0.41477 0.22031 0.48857 0.58255 0.22061 1.207 0.33247 1.8557 0.33247h14.906v4.7157c-0.14435-0.28194-0.30269-0.55848-0.48997-0.8179-0.96278-1.3321-2.3308-2.0964-3.7536-2.0964l-11.42-7.59e-4 3.02e-4 11.421c0 1.423 0.76432 2.7909 2.0963 3.754 0.25961 0.1872 0.53588 0.34486 0.81798 0.48936h-4.7153v-14.905c0-0.64936-0.11186-1.2731-0.33284-1.8564-0.07399-0.19575-0.29275-0.29437-0.4885-0.21982-0.19597 0.07376-0.29524 0.29282-0.22027 0.48857 0.18781 0.49711 0.28342 1.0307 0.28342 1.5877v13.514c-0.36621-2.0452-1.3402-3.1684-2.1874-3.7711-0.95364-0.67733-2.1394-0.94608-3.218-0.76197 0.23573-0.29283 0.42482-0.6245 0.55156-0.98958 0.17481-0.50255 0.25764-1.0136 0.25764-1.517 0-1.4712-0.70911-2.8701-1.9016-3.7416 0.095606-0.02418 0.19083-0.05049 0.28553-0.08314 1.2535-0.43574 1.9182-1.8106 1.4825-3.0643-0.15588-0.44897-0.47754-0.81015-0.90568-1.0175-0.42784-0.20738-0.9109-0.23459-1.3596-0.07845-0.33983 0.11805-0.61293 0.36118-0.76976 0.68507-0.1566 0.32389-0.1781 0.68976-0.059782 1.0284 0.1897 0.54529 0.78771 0.83498 1.3329 0.64547 0.19813-0.06836 0.30193-0.28428 0.23395-0.48237-0.068587-0.19809-0.28459-0.30291-0.48245-0.2338-0.15074 0.05204-0.31584-0.02796-0.36833-0.17787-0.051582-0.14836-0.042172-0.30836 0.026074-0.44972 0.068587-0.14137 0.18781-0.24778 0.33647-0.29906 0.25757-0.09009 0.53464-0.0738 0.78041 0.04504 0.24544 0.11884 0.43022 0.32623 0.51971 0.5841 0.29891 0.85909-0.15682 1.7997-1.0155 2.0988-0.64509 0.22372-1.3386 0.18412-1.9534-0.11339-0.61501-0.29751-1.0772-0.81714-1.3014-1.4618-0.34014-0.97639-0.27884-2.0273 0.17175-2.9578 0.45022-0.9313 1.2364-1.6304 2.2131-1.9706 1.0795-0.37596 2.3958-0.37751 3.6112-6e-3 0.20013 0.06137 0.41239-0.05204 0.47364-0.25167 0.010959-0.03741 0.017761-0.07456 0.017761-0.1111 0-0.16234-0.10524-0.31225-0.26853-0.36273-1.3862-0.42331-2.836-0.41791-4.0819 0.01549-1.1678 0.40623-2.1082 1.2428-2.6467 2.3559-0.5383 1.1139-0.61169 2.3698-0.20516 3.5381 0.38295 1.1006 1.292 1.8696 2.3476 2.1283 0.036277 0.03325 0.080377 0.05978 0.1298 0.07769 2.0165 0.70064 3.0855 2.912 2.3852 4.9277-0.22447 0.64543-0.68655 1.1651-1.3013 1.4618-0.61471 0.29751-1.3087 0.33787-1.9538 0.1142-0.41594-0.14526-0.75064-0.44353-0.94241-0.83967-0.1917-0.39614-0.21781-0.84356-0.073121-1.2591 0.18513-0.53286 0.76859-0.8148 1.3001-0.62994 0.30681 0.10717 0.46854 0.44428 0.36258 0.74958-0.025319 0.07225-0.077694 0.13128-0.14711 0.16468-0.069494 0.03325-0.14813 0.03805-0.22061 0.01323-0.19782-0.06915-0.41386 0.0359-0.48275 0.23301-0.069456 0.19809 0.035899 0.41401 0.23365 0.48237 0.26395 0.09243 0.54824 0.07611 0.79984-0.0458 0.25182-0.12194 0.44111-0.33477 0.53309-0.59888 0.24366-0.70061-0.12799-1.4696-0.82924-1.7143-0.92688-0.32234-1.943 0.17012-2.2656 1.0968-0.21143 0.60742-0.17353 1.2607 0.10683 1.8386 0.27979 0.57866 0.76859 1.0136 1.3757 1.2249 0.52734 0.18331 1.0796 0.22991 1.6154 0.14292-0.13468 0.17398-0.25337 0.36198-0.35132 0.56472-0.36863 0.76277-0.41904 1.6234-0.14054 2.4234 0.41813 1.2009 1.7356 1.8386 2.9373 1.4207 0.89117-0.30991 1.3639-1.2878 1.0541-2.178-0.23542-0.67578-0.97729-1.0354-1.6536-0.80006-0.52859 0.18411-0.80985 0.76356-0.62503 1.2917 0.14806 0.42565 0.61535 0.6517 1.041 0.50335 0.19816-0.06832 0.30284-0.28428 0.23365-0.48237-0.068549-0.19809-0.28459-0.30216-0.48241-0.2338-0.031365 0.01096-0.065223-0.0057-0.076107-0.03665-0.046782-0.13362 0.024185-0.27964 0.15777-0.32623 0.28156-0.09787 0.59041 0.05124 0.68874 0.33322 0.17262 0.49711-0.09092 1.0409-0.58716 1.2125-0.80671 0.28118-1.6915-0.14757-1.9722-0.95383-0.2115-0.60821-0.17383-1.263 0.10713-1.844 0.28062-0.58025 0.77036-1.016 1.3794-1.228 0.99037-0.3441 2.1864-0.14526 3.1209 0.51888 0.70763 0.50335 1.5174 1.4416 1.856 3.1575-0.35019-0.24544-0.77588-0.39149-1.2356-0.39149-1.1897 0-2.1572 0.96784-2.1572 2.157 0 1.19 0.96762 2.1578 2.1572 2.1578 0.44942 0 0.86665-0.13827 1.2125-0.37437-0.39108 1.7508-1.316 2.6759-1.9248 3.1085-0.94608 0.67268-2.1069 0.8917-3.029 0.57091-0.60897-0.21128-1.0987-0.64781-1.3794-1.228-0.28096-0.58021-0.31924-1.235-0.10713-1.844 0.28062-0.80705 1.1654-1.235 1.9722-0.95386 0.49643 0.17243 0.75982 0.71772 0.58716 1.2125-0.098402 0.28198-0.40717 0.43109-0.68874 0.33322-0.064619-0.02267-0.1165-0.06836-0.14628-0.13048-0.030231-0.06137-0.03401-0.13048-0.011337-0.19575 0.010959-0.03099 0.044893-0.04735 0.076107-0.03666 0.19782 0.06836 0.41386-0.0359 0.48241-0.2338 0.069153-0.1973-0.035899-0.41401-0.23365-0.48237-0.20633-0.07146-0.42815-0.05903-0.62472 0.03666-0.19661 0.09477-0.34463 0.26101-0.41628 0.4676-0.089559 0.25477-0.073159 0.53052 0.045195 0.7744 0.11767 0.24389 0.32374 0.4272 0.57953 0.51653 0.67665 0.23535 1.4185-0.12349 1.6539-0.80006 0.30915-0.89095-0.16295-1.8681-1.0541-2.178-1.2018-0.41787-2.5192 0.21982-2.9374 1.4207-0.57462 1.6521 0.30193 3.4627 1.9534 4.0374 1.15 0.40003 2.5745 0.14367 3.7178-0.66879 0.73488-0.52277 1.8724-1.6545 2.279-3.8084v7.7335c-0.08827-0.16703-0.19971-0.32547-0.34014-0.46526-0.84719-0.84745-2.3488-0.64316-2.4125-0.63383-0.16646 0.02343-0.29732 0.15456-0.32132 0.32079-0.0064 0.05203-0.14511 1.0719 0.2728 1.9038-0.33919-0.07611-0.64415-0.12659-0.86351-0.12659-1.0626 0-1.8721 1.0641-1.9061 1.1092-0.10105 0.13438-0.10105 0.32003 0 0.45441 0.03401 0.04584 0.84348 1.11 1.9061 1.11 0.21929 0 0.52428-0.05052 0.86351-0.12739-0.41779 0.83188-0.28032 1.8518-0.2728 1.9038 0.02418 0.1662 0.15478 0.29751 0.32132 0.32079 0.06364 0.0091 1.5653 0.21358 2.4125-0.63304 0.14046-0.14057 0.25182-0.29906 0.34014-0.46605v7.6651c-0.36591-2.0452-1.3402-3.1684-2.1871-3.7711-1.1317-0.80392-2.5915-1.0409-3.8099-0.61675-0.80006 0.27809-1.4439 0.8513-1.8128 1.6141-0.36863 0.76197-0.41904 1.6226-0.14054 2.4227 0.41813 1.2016 1.7356 1.8393 2.9374 1.4215 0.89117-0.30991 1.3639-1.2871 1.0541-2.178-0.23542-0.67653-0.97699-1.0354-1.6536-0.80082-0.52859 0.18411-0.80985 0.76356-0.62503 1.2917 0.14806 0.42565 0.61535 0.6517 1.041 0.5041 0.19813-0.06915 0.30284-0.28508 0.23365-0.48237-0.068587-0.19809-0.28459-0.30291-0.48245-0.2338-0.031365 0.01096-0.065223-0.0053-0.076106-0.03666-0.046782-0.13438 0.024185-0.28039 0.15777-0.32702 0.28156-0.09712 0.59041 0.05204 0.68874 0.33402 0.17307 0.49556-0.090504 1.0401-0.58716 1.2125-0.80671 0.2804-1.6915-0.1476-1.9722-0.95462-0.2115-0.60817-0.17383-1.263 0.10713-1.8432 0.28062-0.58021 0.77036-1.0167 1.3794-1.228 0.99033-0.34486 2.1864-0.14526 3.1209 0.51888 0.70763 0.50255 1.5174 1.4409 1.856 3.1575-0.35015-0.24623-0.77588-0.39149-1.2356-0.39149-1.1897 0-2.1572 0.96785-2.1572 2.157 0 1.1892 0.96762 2.157 2.1572 2.157 0.44942 0 0.86665-0.13827 1.2125-0.37437-0.39108 1.7515-1.316 2.6767-1.9248 3.1093-0.94608 0.67268-2.1069 0.8917-3.029 0.57091-0.60897-0.21207-1.0987-0.64857-1.3794-1.228-0.28096-0.58021-0.31924-1.235-0.10713-1.844 0.28062-0.80702 1.1654-1.235 1.9722-0.95462 0.49639 0.17322 0.75982 0.71772 0.58716 1.2133-0.098402 0.28198-0.40717 0.43109-0.68874 0.33322-0.064619-0.02267-0.1165-0.06915-0.14628-0.13048-0.030231-0.06137-0.03401-0.13048-0.011337-0.19575 0.010959-0.03099 0.044893-0.04735 0.076107-0.03741 0.19782 0.06915 0.41386-0.0359 0.48245-0.233 0.069153-0.19809-0.035899-0.41401-0.23365-0.48313-0.20633-0.07146-0.42815-0.05827-0.62472 0.03666-0.19661 0.09553-0.34463 0.26176-0.41624 0.4676-0.089559 0.25557-0.073159 0.53052 0.045195 0.7752 0.11767 0.24389 0.32374 0.4272 0.57953 0.51653 0.67665 0.23535 1.4185-0.12349 1.6539-0.80006 0.30915-0.89091-0.16294-1.8688-1.0541-2.178-1.2018-0.41866-2.5192 0.21902-2.9374 1.4207-0.57465 1.6521 0.30193 3.4627 1.9534 4.0374 1.15 0.40003 2.5745 0.14367 3.7178-0.66954 0.73492-0.52277 1.8724-1.6537 2.279-3.8076v7.7044c-0.08828-0.16703-0.19971-0.32547-0.34014-0.46605-0.84719-0.84666-2.3488-0.64237-2.4125-0.63383-0.16646 0.02419-0.29732 0.15535-0.32132 0.32158-0.0064 0.05204-0.14511 1.0719 0.2728 1.9038-0.33919-0.0769-0.64415-0.12739-0.86351-0.12739-1.0626 0-1.8721 1.0641-1.9061 1.11-0.10105 0.13438-0.10105 0.31924 0 0.45441 0.03401 0.04504 0.84348 1.1092 1.9061 1.1092 0.21929 0 0.52428-0.05052 0.86381-0.12659-0.41813 0.83268-0.28062 1.8518-0.2731 1.9038 0.02418 0.1662 0.15478 0.29672 0.32132 0.32079 0.06364 0.0091 1.5653 0.21358 2.4125-0.63383 0.14046-0.13982 0.25182-0.29827 0.34014-0.46526v11.559c-0.22851-0.50335-0.52073-0.95152-0.85085-1.3197-1.2704-1.4176-3.052-1.785-4.7655-0.98258-1.7286 0.8086-2.5727 2.5765-2.0056 4.2051 0.43567 1.2529 1.8101 1.9186 3.0639 1.4828 0.92666-0.32313 1.4185-1.3391 1.0959-2.2658-0.11801-0.34021-0.36134-0.61286-0.68507-0.76976-0.32374-0.1569-0.68904-0.17787-1.0289-0.059819-0.26403 0.09167-0.47671 0.28119-0.59865 0.53286-0.12142 0.25243-0.13778 0.53671-0.04614 0.80006 0.068587 0.19809 0.28493 0.30292 0.48245 0.2338 0.19752-0.06915 0.30254-0.28428 0.23365-0.48237-0.025318-0.07301-0.020784-0.15146 0.012848-0.22137 0.033632-0.06915 0.092205-0.12115 0.16506-0.14681 0.14862-0.05124 0.30828-0.04194 0.44965 0.02645 0.14137 0.06836 0.24755 0.18721 0.29921 0.33556 0.18603 0.53286-0.097117 1.1162-0.62903 1.3011-0.85901 0.29827-1.8002-0.15769-2.0988-1.016-0.4436-1.2747 0.21944-2.6184 1.6109-3.2693 1.3942-0.65246 2.8445-0.35264 3.8794 0.80237 1.1336 1.2646 1.7464 3.6235 0.41239 5.8146-3.7883 6.2215-3.5822 9.9298 0.89658 15.096l-2.1707 2.5136c-0.07244 0.0839-0.1046 0.19654-0.08808 0.30526 0.01776 0.11031 0.08125 0.20663 0.17591 0.26486 0.81714 0.50335 1.4837 1.0005 2.0232 1.4898-2.6886 2.8545-1.6691 5.5334-0.81684 7.7743 0.48033 1.2638 0.89574 2.3559 0.58047 3.2608-0.70151 2.0164-2.9122 3.086-4.9288 2.3846-1.3318-0.46295-2.0383-1.924-1.5748-3.2546 0.29857-0.85909 1.2398-1.3142 2.0988-1.016 0.53191 0.18561 0.81465 0.7682 0.62903 1.3003-0.051733 0.14836-0.15788 0.26796-0.29921 0.33632-0.14137 0.0683-0.30129 0.0777-0.44935 0.0264-0.073084-0.0257-0.13166-0.0777-0.16536-0.1476-0.033632-0.0691-0.038204-0.14761-0.012848-0.22061 0.068889-0.19809-0.036277-0.41402-0.23365-0.48238-0.19752-0.0691-0.41386 0.0359-0.48245 0.23305-0.091676 0.26486-0.075275 0.54839 0.04614 0.80082 0.12194 0.25167 0.33462 0.44042 0.59865 0.53286 0.70117 0.24388 1.4704-0.12818 1.714-0.82958 0.32313-0.92666-0.16933-1.9434-1.0959-2.2658-1.2538-0.43574-2.6282 0.22915-3.0639 1.4828-0.6005 1.7275 0.3152 3.6196 2.0417 4.2202 2.4113 0.83887 5.0554-0.44043 5.8939-2.8514 0.02494-0.0723 0.04667-0.14526 0.06519-0.21827 0.01776 0.073 0.04006 0.14601 0.06519 0.21827 0.83868 2.411 3.4826 3.6903 5.8939 2.8514 1.3672-0.47538 2.2262-1.7617 2.2262-3.1342 0-0.36043-0.05933-0.72626-0.18441-1.0859-0.43567-1.2537-1.8101-1.9186-3.0639-1.4828-0.92718 0.32234-1.4191 1.3391-1.0962 2.2658 0.24374 0.70139 1.0128 1.0735 1.714 0.82957 0.26414-0.0924 0.47697-0.28118 0.59861-0.53285 0.1213-0.25243 0.13793-0.53672 0.04648-0.80082-0.06878-0.1973-0.28493-0.30216-0.48279-0.23305-0.19764 0.0684-0.30269 0.28429-0.23316 0.48238 0.02645 0.073 0.01889 0.15145-0.01511 0.22061-0.03401 0.0699-0.09258 0.12194-0.16552 0.1476-0.14851 0.0512-0.30798 0.0419-0.44935-0.0264-0.14133-0.0684-0.24789-0.18796-0.29966-0.33632-0.18441-0.53131 0.0975-1.1146 0.6293-1.3003 0.85871-0.29826 1.8002 0.1569 2.0988 1.016 0.46242 1.3298-0.24336 2.7916-1.5751 3.2546-2.0162 0.7014-4.227-0.36818-4.9288-2.3846-0.31478-0.90569 0.10014-1.997 0.58078-3.2608 0.85168-2.2409 1.8711-4.9209-0.81714-7.7743 0.53944-0.48937 1.206-0.98648 2.0235-1.4898 0.09372-0.0575 0.15796-0.15301 0.17534-0.26255 0.01889-0.10952-0.01134-0.21982-0.08427-0.30371l-2.1452-2.5516c4.4511-5.1483 4.648-8.8535 0.86774-15.062-1.3338-2.1904-0.72124-4.5501 0.41235-5.8146 1.0353-1.155 2.4853-1.4548 3.8794-0.80237 1.3918 0.6517 2.0542 1.9978 1.6112 3.2693-0.29853 0.8583-1.2401 1.3143-2.0988 1.016-0.53222-0.18486-0.81404-0.76821-0.62933-1.3011 0.05177-0.14836 0.15796-0.2672 0.29966-0.33556 0.14133-0.06836 0.30118-0.07769 0.44935-0.02645 0.07293 0.0257 0.1315 0.07769 0.16552 0.14681 0.03401 0.06991 0.03779 0.14836 0.01134 0.22137-0.06991 0.19809 0.03779 0.41322 0.23353 0.48237 0.19801 0.06915 0.41382-0.0359 0.48275-0.2338 0.09183-0.26331 0.0752-0.5476-0.04648-0.80006-0.12168-0.25167-0.33443-0.44118-0.59895-0.53286-0.33934-0.11805-0.70484-0.09708-1.0286 0.05982-0.32347 0.1569-0.5671 0.42954-0.68507 0.76976-0.32309 0.92666 0.16929 1.9426 1.0962 2.2658 1.2537 0.43574 2.6282-0.22991 3.0638-1.4828 0.11866-0.34021 0.17496-0.68666 0.17496-1.0292 0-1.1348-0.62412-2.2269-1.6979-2.9112 1.0192 0.33866 2.1512 0.36198 3.2417-0.017 1.8766-0.65325 2.8722-2.7124 2.2198-4.5883-0.22862-0.65715-0.69958-1.1861-1.3265-1.4898-0.62654-0.30295-1.3338-0.3441-1.9913-0.11495-0.99887 0.3472-1.5289 1.4416-1.1813 2.4405 0.26112 0.75033 1.0847 1.1488 1.8354 0.88781 0.57923-0.20119 0.88785-0.83657 0.68549-1.4168-0.06878-0.19809-0.28455-0.30216-0.48245-0.2338-0.19764 0.06915-0.30307 0.28508-0.23354 0.48313 0.06424 0.18486-0.03401 0.3876-0.21842 0.45127-0.17232 0.05982-0.35786 0.04894-0.52213-0.03023-0.16438-0.07921-0.28795-0.21827-0.34804-0.3907-0.10165-0.29282-0.08351-0.60742 0.05139-0.8855 0.13491-0.27884 0.37033-0.48857 0.6627-0.59034 0.46631-0.16155 0.96762-0.13283 1.4121 0.08234 0.44455 0.21517 0.77864 0.59034 0.94064 1.0564 0.51578 1.482-0.27132 3.107-1.7529 3.6227-1.0822 0.37596-2.2462 0.30836-3.2775-0.1903-1.0316-0.49945-1.8069-1.3702-2.1833-2.4522-0.64332-1.8494-0.2717-4.2225 0.92541-5.9049 1.007-1.4168 2.4737-2.1974 4.1296-2.1974 0.20935 0 0.37921-0.16933 0.37921-0.37906 0-0.20897-0.17005-0.37906-0.37921-0.37906-1.6558 0-3.1225-0.77985-4.1296-2.1966-1.1968-1.6832-1.5684-4.0555-0.92541-5.9049 0.37638-1.082 1.1518-1.9535 2.1833-2.4522 1.0313-0.49945 2.1953-0.56702 3.2775-0.1903 0.71753 0.25012 1.2956 0.76432 1.6267 1.4478 0.33065 0.68432 0.37638 1.4564 0.12622 2.1749-0.16211 0.46605-0.49613 0.84122-0.94064 1.0564-0.44447 0.21517-0.94578 0.24389-1.4121 0.08155-0.29248-0.10176-0.52795-0.3107-0.66274-0.58954-0.13491-0.27884-0.15267-0.59344-0.05139-0.8855 0.12432-0.35654 0.51427-0.54529 0.8702-0.421 0.18516 0.06447 0.28266 0.26796 0.21842 0.45127-0.06991 0.19809 0.03779 0.41401 0.23354 0.48237 0.19764 0.06915 0.41382-0.0359 0.48241-0.23301 0.20179-0.581-0.10619-1.2156-0.68549-1.4168-0.75064-0.26097-1.5741 0.13672-1.8354 0.88781-0.16816 0.48313-0.13793 1.0036 0.08502 1.465 0.22333 0.4614 0.61259 0.80781 1.0963 0.97559 1.3571 0.47225 2.8457-0.24778 3.3178-1.6055 0.13491-0.3876 0.20217-0.78763 0.20217-1.1861 0-0.53675-0.1213-1.0704-0.36202-1.5675-0.39232-0.81091-1.0605-1.4292-1.8894-1.7648 1.764-0.71617 2.6819-2.7 2.0492-4.5184-0.4721-1.3578-1.9606-2.0778-3.3178-1.6055-0.99887 0.348-1.5289 1.4424-1.1813 2.4405 0.2615 0.75113 1.0847 1.1496 1.8354 0.88781 0.57923-0.20119 0.88785-0.83657 0.68549-1.416-0.06878-0.19809-0.28455-0.30291-0.48241-0.2338-0.19764 0.06915-0.30306 0.28428-0.23353 0.48237 0.06386 0.18562-0.03401 0.3876-0.21842 0.45207-0.17232 0.05978-0.35786 0.04894-0.52216-0.03023-0.16438-0.08-0.28795-0.21902-0.34804-0.39149-0.10165-0.29207-0.08351-0.60662 0.05139-0.8855 0.13491-0.27809 0.37033-0.48778 0.66274-0.58954 0.46628-0.16234 0.96758-0.13362 1.4121 0.08155 0.44451 0.21517 0.7786 0.59034 0.94064 1.0564 0.51427 1.4812-0.27094 3.107-1.7529 3.6227-1.0822 0.37672-2.2462 0.30915-3.2775-0.1903-1.0316-0.49866-1.8069-1.3702-2.1834-2.4522-0.64332-1.8494-0.2717-4.2218 0.92541-5.9049 1.007-1.4168 2.4737-2.1967 4.1296-2.1967h7.2365c0.20935 0 0.37932-0.17012 0.37932-0.37906v-4.3737c1.1096 0.17866 2.3159 0.30292 3.5417 0.428 2.6288 0.26955 5.3233 0.54839 7.1802 1.3842-0.83592-1.8572-1.1142-4.5517-1.3839-7.1802-0.12546-1.2257-0.25016-2.432-0.42837-3.5419h4.3737c0.20935 0 0.37928-0.17012 0.37928-0.37906v-7.2362c0-1.656 0.78007-3.1225 2.1967-4.1299 1.6831-1.197 4.0555-1.5682 5.9049-0.92511 1.0819 0.37596 1.9534 1.1511 2.452 2.1826 0.49945 1.0315 0.56702 2.1959 0.19008 3.2779-0.51574 1.482-2.1415 2.2673-3.6224 1.7531-0.46635-0.16234-0.84137-0.49636-1.0565-0.94143-0.21502-0.44353-0.24412-0.94529-0.082-1.4113 0.10203-0.29283 0.31138-0.52817 0.58984-0.66255 0.27888-0.13513 0.59321-0.15301 0.88566-0.05204 0.17232 0.06058 0.31138 0.18411 0.39085 0.348 0.07936 0.16468 0.09031 0.3503 0.03023 0.52198-0.06424 0.18562-0.26641 0.28274-0.45142 0.21902-0.19801-0.06991-0.41386 0.0359-0.48275 0.23301-0.06878 0.19809 0.03401 0.41401 0.23353 0.48313 0.57983 0.20194 1.2148-0.10641 1.4162-0.68587 0.26188-0.75033-0.1368-1.5737-0.88747-1.8347-0.99815-0.348-2.0932 0.18176-2.4409 1.1807-0.47221 1.357 0.24827 2.846 1.6054 3.3183 1.8185 0.63228 3.8023-0.28508 4.5184-2.0498 0.33556 0.82958 0.95383 1.4976 1.7648 1.8898 0.49711 0.24079 1.0307 0.36118 1.5674 0.36118 0.39848 0 0.79851-0.06681 1.1869-0.20119 1.357-0.47225 2.077-1.9613 1.6047-3.3183-0.16778-0.48313-0.51419-0.87307-0.97559-1.096-0.46136-0.22292-0.98179-0.25322-1.465-0.08465-0.75109 0.26097-1.1488 1.0843-0.88781 1.8347 0.20104 0.57945 0.83577 0.88781 1.4168 0.68587 0.19726-0.06915 0.30231-0.28508 0.23316-0.48313-0.0684-0.1973-0.28417-0.30292-0.48237-0.23301-0.18328 0.06447-0.38681-0.03325-0.45131-0.21902-0.12432-0.35574 0.06462-0.74569 0.42025-0.86997 0.29286-0.10097 0.60742-0.0831 0.88626 0.05204 0.27888 0.13438 0.48782 0.36972 0.58958 0.66255 0.16211 0.46605 0.13377 0.96785-0.08162 1.4113-0.21502 0.44508-0.59034 0.77909-1.0563 0.94143-0.71852 0.24933-1.4906 0.20429-2.1749-0.12659-0.68356-0.33088-1.1978-0.90878-1.4479-1.6265-0.376-1.082-0.30911-2.2464 0.19008-3.2779 0.49945-1.0315 1.3702-1.8067 2.4522-2.1826 1.8495-0.64316 4.2218-0.27185 5.9049 0.92511 1.4168 1.0074 2.1966 2.474 2.1966 4.1299 0 0.20893 0.17005 0.37906 0.37906 0.37906 0.20973 0 0.37906-0.17012 0.37906-0.37906 0-1.656 0.78064-3.1225 2.1974-4.1299 1.6824-1.197 4.0555-1.5682 5.9049-0.92511 1.082 0.37596 1.9527 1.1511 2.4522 2.1826 0.49866 1.0315 0.56623 2.1959 0.19008 3.2779-0.51574 1.482-2.1407 2.2681-3.6227 1.7531-0.46605-0.16234-0.84125-0.49636-1.0564-0.94143-0.21502-0.44353-0.24374-0.94529-0.08238-1.4113 0.10165-0.29282 0.31138-0.52817 0.59034-0.66255 0.27812-0.13513 0.59264-0.15301 0.8855-0.05204 0.17232 0.06058 0.31138 0.18411 0.3907 0.348 0.07936 0.16468 0.08994 0.3503 0.03023 0.52198-0.06349 0.18562-0.26641 0.28274-0.45131 0.21902-0.19801-0.06991-0.41401 0.0359-0.48234 0.23301-0.06915 0.19809 0.03401 0.41401 0.23316 0.48313 0.58021 0.20194 1.2156-0.10641 1.4168-0.68587 0.26112-0.75033-0.1368-1.5737-0.88785-1.8347-0.99891-0.348-2.0933 0.18176-2.4405 1.1807-0.229 0.6579-0.18819 1.3647 0.11488 1.9916 0.30382 0.62684 0.83268 1.0975 1.4898 1.3267 1.8759 0.65246 3.9349-0.34331 4.5876-2.2199 0.37982-1.0905 0.35635-2.2223 0.0189-3.2421 0.68432 1.0743 1.7764 1.698 2.9112 1.698 0.34237 0 0.689-0.05668 1.0292-0.17474 1.2529-0.43574 1.9186-1.8106 1.482-3.0643-0.32234-0.92666-1.3383-1.4191-2.265-1.096-0.3401 0.11805-0.61286 0.36198-0.76976 0.68511-0.15682 0.32392-0.17798 0.68896-0.06008 1.0284 0.09145 0.26486 0.28115 0.47693 0.53286 0.59888 0.25243 0.12194 0.53671 0.13902 0.80003 0.04663 0.19801-0.06836 0.30307-0.28508 0.23391-0.48237-0.06915-0.19809-0.28417-0.30292-0.48234-0.2338-0.07293 0.0257-0.15153 0.02078-0.22144-0.01247-0.06915-0.03401-0.12092-0.09243-0.147-0.16544-0.05139-0.14836-0.04194-0.30836 0.02645-0.44897 0.0684-0.14216 0.18706-0.24854 0.33632-0.29982 0.53207-0.18486 1.1154 0.09708 1.3003 0.62918 0.29815 0.85909-0.15758 1.8005-1.016 2.0988-1.2716 0.44273-2.6176-0.21902-3.2693-1.611-0.65246-1.3943-0.35257-2.8444 0.80237-3.8798 1.2646-1.1333 3.6243-1.7461 5.8146-0.41167 6.2087 3.7796 9.9135 3.5831 15.063-0.86839l2.5509 2.1454c0.0839 0.07067 0.19423 0.10097 0.30457 0.08465 0.10883-0.01776 0.20444-0.08155 0.26188-0.17632 0.50335-0.81635 1.0005-1.4836 1.4898-2.0226 2.8538 2.6883 5.5334 1.6684 7.7747 0.81635 1.2638-0.48003 2.3551-0.8948 3.2608-0.58025 2.0164 0.7014 3.086 2.912 2.3846 4.9284-0.46295 1.3321-1.924 2.0374-3.2546 1.5753-0.8583-0.29827-1.3142-1.2397-1.016-2.0988 0.18554-0.53207 0.769-0.81325 1.3003-0.62918 0.1485 0.05124 0.26792 0.15766 0.33632 0.29982 0.0684 0.14057 0.0778 0.30061 0.0264 0.44897-0.0264 0.07301-0.0778 0.13128-0.147 0.16544-0.0699 0.03325-0.14738 0.03805-0.22144 0.01247-0.19802-0.06915-0.41402 0.0359-0.48238 0.2338-0.0692 0.1973 0.034 0.41401 0.23316 0.48237 0.26414 0.09168 0.54835 0.07535 0.80082-0.04663 0.25167-0.12194 0.44118-0.33402 0.53282-0.59808 0.24374-0.7014-0.1281-1.4704-0.82954-1.7143-0.92669-0.32234-1.9434 0.16933-2.2658 1.096-0.43575 1.2537 0.229 2.6285 1.4828 3.0643 0.35975 0.12504 0.72547 0.18411 1.0859 0.18411 1.3725 0 2.6588-0.85909 3.1342-2.2261 0.83887-2.411-0.44043-5.055-2.8514-5.8939-0.0722-0.02494-0.14548-0.04663-0.21804-0.06522 0.0729-0.01889 0.14587-0.0396 0.21804-0.06526 2.411-0.83812 3.6903-3.4822 2.8514-5.8939" />
    <path
        d="m10.157 1.0107c0.25817 0.39848 0.59948 1.0672 0.59948 1.8137 0 0.74334-0.34286 1.4145-0.60107 1.8145-0.25817-0.39924-0.59956-1.0672-0.59956-1.8145 0-0.74259 0.34256-1.4137 0.60114-1.8137zm-9.26e-4 4.645c0.10834 0 0.21116-0.0458 0.28281-0.12659 0.04425-0.048936 1.0755-1.2226 1.0755-2.7046 0-1.4812-1.0316-2.6549-1.0755-2.7039-0.14356-0.16158-0.42176-0.16158-0.56562 0-0.044024 0.048936-1.0755 1.2226-1.0755 2.7039 0 1.482 1.0316 2.6557 1.0755 2.7046 0.071988 0.080792 0.17481 0.12659 0.28281 0.12659" />
    <path
        d="m18.863 9.5282c0-0.41946 0.32083-0.83887 0.57737-1.096 0.23845 0.2369 0.57953 0.65401 0.57953 1.096 0 0.41946-0.3212 0.83887-0.57768 1.0968-0.23807-0.23769-0.57923-0.65401-0.57923-1.0968zm0.57828 1.9815c0.08011 0 0.15985-0.02494 0.22749-0.07535 0.04497-0.03401 1.1093-0.84356 1.1093-1.9061 0-1.0626-1.0641-1.8719-1.1093-1.9061-0.13528-0.10097-0.32007-0.10097-0.45486 0-0.04497 0.03401-1.1093 0.84356-1.1093 1.9061 0 1.0626 1.0641 1.8719 1.1093 1.9061 0.06726 0.05049 0.14738 0.07535 0.22711 0.07535" />
    <path
        d="m96.104 13.364c-0.43344 0.49246-1.5613 1.6118-2.8413 1.6118-1.2747 0-2.4048-1.1201-2.8398-1.6125 0.43499-0.49246 1.5651-1.6125 2.8398-1.6125 1.2754 0 2.4064 1.1209 2.8413 1.6133zm-6.4781-0.22836c-0.10127 0.13513-0.10127 0.32003 0 0.45517 0.06613 0.08699 1.6296 2.1438 3.6367 2.1438 2.0079 0 3.5722-2.0568 3.6375-2.1438 0.1009-0.13513 0.1009-0.32003 0-0.45517-0.065-0.08699-1.6296-2.1438-3.6375-2.1438-2.0071 0-3.5707 2.0568-3.6367 2.1438" />
    <path
        d="m20.261 21.477v-1.2319h1.2319v1.2319zm1.6112-1.99h-2.3694v2.3698c0 0.20897 0.16967 0.37906 0.37898 0.37906h2.3693v-2.3698c0-0.20893-0.16967-0.37906-0.37891-0.37906" />
    <path
        d="m17.881 22.992v-3.4596h1.2319c0.11714 0 0.21766-0.05593 0.28719-0.13902 0.08314-0.06991 0.13944-0.17012 0.13944-0.28738v-1.2319h3.4592v5.1181zm5.8762-5.4971c0-0.20973-0.16967-0.37906-0.37898-0.37906h-4.2176c-0.20935 0-0.37932 0.16933-0.37932 0.37906v1.2319h-0.04724v0.04739h-1.2321c-0.20935 0-0.37898 0.16933-0.37898 0.37906v4.2176c0 0.20897 0.16967 0.37906 0.37898 0.37906h6.2552v-6.2552" />
    <path
        d="m28.008 1.672c0.29702-0.29751 0.82134-0.36663 1.1851-0.36738-2.27e-4 0.36428-0.06991 0.88781-0.36693 1.1853-0.29702 0.29672-0.82134 0.36663-1.1849 0.36663 0-0.36353 0.06953-0.88781 0.36655-1.1845zm-0.77799 1.917c0.01889 0.00308 0.17874 0.024941 0.41144 0.024941 0.4645 0 1.22-0.08699 1.7207-0.58799 0.75158-0.75113 0.57167-2.0762 0.56343-2.1322-0.022673-0.1662-0.15493-0.29747-0.3212-0.32158-0.055928-0.0075578-1.3808-0.18721-2.1324 0.56313-0.75124 0.75188-0.57129 2.0762-0.56313 2.1329 0.02267 0.16619 0.15493 0.29672 0.3212 0.32079" />
    <path
        d="m10.501 13.092 1.2959-1.2956 1.2956-1.2956 0.85017 0.84976-1.2959 1.2956-1.2956 1.2964zm2.6819 0.09009 1.5638-1.5636c0.14813-0.1476 0.14813-0.3876 0-0.53596l-1.386-1.3857c-0.14794-0.14836-0.38805-0.14836-0.53611 0l-3.1277 3.1272c-0.14794 0.14836-0.14794 0.38839 0 0.53596l1.386 1.3865c0.14798 0.1476 0.38805 0.1476 0.53611 0l1.5638-1.5644" />
    <path
        d="m2.8258 9.5547c0.74671 0 1.4151 0.34101 1.8138 0.59888-0.40018 0.25866-1.0707 0.60122-1.8138 0.60122-0.74739 0-1.4155-0.34101-1.8142-0.59888 0.40018-0.25866 1.0707-0.60122 1.8142-0.60122zm0 1.9582c1.4815 0 2.6548-1.0307 2.704-1.075 0.080679-0.07146 0.12686-0.17477 0.12686-0.28274 0-0.10796-0.04614-0.21128-0.12686-0.28274-0.049163-0.044288-1.2224-1.0758-2.704-1.0758-1.482 0-2.6552 1.0315-2.7044 1.0758-0.16143 0.14292-0.16143 0.42176 0 0.56547 0.049163 0.0435 1.2224 1.075 2.7044 1.075" />
    <path
        d="m9.7487 9.7474c-3.0627-0.16158-5.9427-1.1504-6.8719-6.8719 5.7216 0.929 6.7101 3.8091 6.8719 6.8719zm0.78427 0.7845c-0.064959-3.9504-1.1806-7.6968-8.5406-8.541 0.84439 7.3597 4.5902 8.476 8.5406 8.541" />
    <path
        d="m9.5295 20.022c-0.44243 0-0.85932-0.341-1.0966-0.57945 0.25764-0.25712 0.67695-0.5779 1.0966-0.5779 0.44236 0 0.85894 0.34101 1.0963 0.57945-0.25734 0.25632-0.67665 0.5779-1.0963 0.5779zm0-1.9154c-1.0623 0-1.8721 1.0641-1.9061 1.1092-0.10105 0.13513-0.10105 0.32003 0 0.45441 0.03401 0.04584 0.84379 1.11 1.9061 1.11 1.0625 0 1.8721-1.0641 1.9061-1.11 0.05041-0.06681 0.07554-0.14681 0.07554-0.22681 0-0.08-0.02494-0.16-0.07554-0.2276-0.03401-0.04505-0.84352-1.1092-1.9061-1.1092" />
    <path
        d="m14.971 93.272c0 1.2793-1.1196 2.4071-1.6124 2.8406-0.49246-0.43499-1.6133-1.5659-1.6133-2.8406 0-1.2754 1.1202-2.4056 1.613-2.8406 0.49246 0.43499 1.6127 1.5651 1.6127 2.8406zm-1.8403-3.6375c-0.08741 0.06522-2.1436 1.6296-2.1436 3.6375 0 2.0071 2.0562 3.5715 2.1436 3.6367 0.13498 0.10097 0.32011 0.10097 0.45486 0 0.0874-0.06522 2.1436-1.6296 2.1436-3.6367 0-2.0079-2.0562-3.5722-2.1436-3.6375-0.13476-0.10097-0.31977-0.10097-0.45486 0" />
    <path
        d="m2.4894 28.816c-0.29702 0.29672-0.821 0.36583-1.1852 0.36663 3.098e-4 -0.36353 0.069834-0.88781 0.36685-1.1853 0.29702-0.29672 0.82104-0.36663 1.1852-0.36663-3.136e-4 0.36353-0.069834 0.88781-0.36685 1.1853zm1.0992-1.5962c-0.023807-0.16703-0.15471-0.29827-0.32128-0.32158-0.056154-0.0087-1.3809-0.18796-2.1324 0.56313-0.75094 0.75188-0.57137 2.0762-0.56313 2.1322 0.023807 0.16703 0.15471 0.29751 0.32124 0.32158 0.056154 0.0087 1.3809 0.18796 2.1324-0.56313 0.5007-0.501 0.58777-1.2568 0.58777-1.7213 0-0.23225-0.021918-0.39304-0.024563-0.41092" />
    <path
        d="m28.575 27.3c0.8377 0.65325 1.44 1.6824 1.805 3.0635-1.3808-0.36508-2.4103-0.96705-3.0633-1.8052-0.54155-0.6952-0.71542-1.4246-0.75003-2.0079 0.5838 0.03401 1.3129 0.20814 2.0084 0.74958zm2.7777 4.0358c-0.33783-2.136-1.1108-3.6981-2.3117-4.634-0.90784-0.70684-2.0444-1.0175-3.2108-0.88781-0.12924 1.1659 0.18139 2.3023 0.88838 3.2103 0.93576 1.2009 2.4975 1.9737 4.634 2.3116" />

</svg>