<?xml version="1.0" encoding="UTF-8"?>
<svg version="1.1" viewBox="0 0 120 120" xmlns="http://www.w3.org/2000/svg">
    <path
        d="m78.912 4.2212c0-0.15609-0.12586-0.28195-0.28195-0.28195h-34.846c-0.15534 0-0.28119 0.12586-0.28119 0.28195 0 0.15534 0.12586 0.28119 0.28119 0.28119h34.846c0.15609 0 0.28195-0.12586 0.28195-0.28119" />
    <path
        d="m47.315 6.9046h27.477c0.15534 0 0.28119-0.12586 0.28119-0.28195 0-0.15534-0.12586-0.28119-0.28119-0.28119h-27.477c-0.15534 0-0.28195 0.12586-0.28195 0.28119 0 0.15609 0.12661 0.28195 0.28195 0.28195" />
    <path
        d="m49.696 9.3235h21.977c0.15534 0 0.28195-0.12661 0.28195-0.28195 0-0.15534-0.12661-0.28119-0.28195-0.28119h-21.977c-0.15534 0-0.28119 0.12586-0.28119 0.28119 0 0.15534 0.12586 0.28195 0.28119 0.28195" />
    <path
        d="m51.964 11.705h12.201c0.15534 0 0.28119-0.12586 0.28119-0.28195 0-0.15534-0.12586-0.28119-0.28119-0.28119h-12.201c-0.15534 0-0.28195 0.12586-0.28195 0.28119 0 0.15609 0.12661 0.28195 0.28195 0.28195" />
    <path
        d="m54.194 14.123h7.743c0.15534 0 0.28195-0.12586 0.28195-0.28119s-0.12661-0.28195-0.28195-0.28195h-7.743c-0.15534 0-0.28195 0.12661-0.28195 0.28195s0.12661 0.28119 0.28195 0.28119" />
    <path
        d="m55.895 16.542h6.0767c0.15534 0 0.28195-0.12586 0.28195-0.2812 0-0.15609-0.12661-0.28195-0.28195-0.28195h-6.0767c-0.15534 0-0.2812 0.12586-0.2812 0.28195 0 0.15534 0.12586 0.2812 0.2812 0.2812" />
    <path
        d="m58.351 18.923h9.0031c0.15609 0 0.28195-0.12586 0.28195-0.2812 0-0.15609-0.12586-0.28195-0.28195-0.28195h-9.0031c-0.15534 0-0.28119 0.12586-0.28119 0.28195 0 0.15534 0.12586 0.2812 0.28119 0.2812" />
    <path
        d="m89.57 20.624c0.85923-2.1379 3.6497-4.4847 6.0672-5.0985-0.84294 2.5691-3.3141 4.6495-6.0672 5.0985zm-18.384-8.9007c-0.96645 1.5359-3.6801 3.9295-6.3004 3.5449 0.42652-1.2888 1.1754-2.2972 2.1939-2.9428 1.1498-0.72872 2.5978-0.98195 4.2224-0.74811-0.04271 0.04346-0.08164 0.0926-0.11603 0.14589zm-49.594 21.605c1.3945 1.4815 3.44 4.2043 3.137 7.1606-1.2251-0.91517-3.2147-3.0376-3.137-7.1606zm11.736-11.735c4.1219-0.07786 6.2452 1.9111 7.1606 3.1362-2.956 0.30387-5.6791-1.7425-7.1606-3.1362zm-11.032-17.713c3.1712 2.3135 3.8694 6.7759 1.5561 9.9472-0.68439 0.9369-1.692 1.5522-2.8379 1.7309-1.1451 0.17953-2.2933-0.09789-3.231-0.78232-1.1288-0.82348-1.3774-2.4121-0.55392-3.5417 0.44129-0.60442 1.2919-0.73806 1.8964-0.29669 0.12737 0.09298 0.21052 0.22979 0.23546 0.38528 0.02268 0.15609-0.01134 0.31143-0.1062 0.43895-0.03024 0.04044-0.08617 0.04838-0.12586 0.0189-0.37757-0.27515-0.90579-0.19162-1.18 0.1852-0.27515 0.37682-0.19162 0.90504 0.18482 1.1801 0.79241 0.5772 1.908 0.4032 2.486-0.38921 0.3583-0.49179 0.50418-1.0938 0.41019-1.6951-0.09411-0.60132-0.41718-1.1303-0.90897-1.4893-1.3564-0.98894-3.2652-0.69063-4.2565 0.6658-1.3727 1.8824-0.95867 4.5301 0.92291 5.9028 1.0441 0.76134 2.2755 1.1606 3.5433 1.1606 0.31294 0 0.62928-0.02646 0.94468-0.0737 1.5918-0.24945 2.9917-1.1032 3.942-2.4052 0.03779-0.05027 0.06501-0.10431 0.10091-0.15458 0.6215 3.8245 2.5598 6.2071 5.4799 6.6803 0.0189 0.02646 0.03024 0.05518 0.04838 0.08013 0.18671 0.23395 4.0871 5.0279 9.0126 5.0279 0.72169 0 1.4644-0.1028 2.2211-0.33713 0.22904-0.07143 0.41718-0.23697 0.51741-0.45528 0.10016-0.21808 0.1028-0.46843 0.0076-0.68908-0.02268-0.04838-1.7479-3.8555-6.6493-4.84 0.34809-0.26948 0.64244-0.55158 0.87786-0.82193 1.0309-1.1847 1.6229-2.7874 1.6229-4.3986 0-2.8573-1.7775-4.8532-4.3218-4.8532-1.828 0-3.0555 2.0681-3.0555 3.9995 0 0.46688 0.37833 0.84445 0.84449 0.84445 0.46688 0 0.84445-0.37757 0.84445-0.84445 0-1.0402 0.6308-2.3096 1.3665-2.3096 1.943 0 2.6328 1.7045 2.6328 3.1634 0 1.2088-0.4405 2.4075-1.208 3.2893-0.8841 1.0154-2.1481 1.553-3.6552 1.553-4.6193 0-5.1182-5.5506-5.1182-7.9366 0-2.754 1.7378-5.1972 4.5354-6.379 3.3056-1.396 8.6308-1.1405 13.666 3.7585 0.77298 0.75276 1.5087 1.5522 2.2242 2.3593 0.27174 0.3993 0.6681 1.5406 1.003 3.1953 0.11263 5.4451-1.6392 9.55-5.2236 12.209-4.7569 3.5278-11.355 3.3755-13.059 2.7222-0.09864-0.03817-0.20031-0.05367-0.29971-0.05367 0 0.0994 0.01512 0.20107 0.05367 0.29971 0.65332 1.7044 0.8056 8.3032-2.7222 13.059-2.6585 3.5845-6.7634 5.3363-12.209 5.2236-1.6547-0.33486-2.796-0.73103-3.1953-1.0029-0.80723-0.71554-1.6066-1.4512-2.3594-2.2242-4.8997-5.0343-5.1545-10.36-3.7585-13.666 1.1808-2.7975 3.6249-4.5354 6.379-4.5354 2.3858 0 7.9358 0.49878 7.9358 5.1182 0 1.5071-0.53684 2.7711-1.5522 3.6552-0.88176 0.76754-2.0804 1.208-3.2893 1.208-1.4598 0-3.1642-0.68987-3.1642-2.6328 0-0.73568 1.2702-1.3658 2.3104-1.3658 0.46612 0 0.84445-0.37833 0.84445-0.84521 0-0.46612-0.37833-0.84449-0.84445-0.84449-1.9313 0-3.9995 1.2275-3.9995 3.0555 0 2.5443 1.9958 4.3218 4.8532 4.3218 1.6112 0 3.2139-0.59119 4.3986-1.6229 0.26948-0.23471 0.55237-0.52985 0.82193-0.87786 0.98354 4.902 4.7916 6.6273 4.84 6.6493 0.22072 0.09562 0.47081 0.09335 0.68908-0.0076 0.21808-0.10016 0.38377-0.28913 0.45448-0.51741 0.23546-0.75745 0.33789-1.5001 0.33789-2.2211 0-4.9262-4.7939-8.8259-5.0279-9.0133-0.02646-0.0189-0.05367-0.03024-0.08012-0.04838-0.47312-2.9203-2.8558-4.8578-6.6803-5.4803 0.05064-0.03402 0.10431-0.06463 0.15458-0.10091 1.302-0.95013 2.1558-2.35 2.4052-3.942 0.04876-0.31521 0.07294-0.63159 0.07294-0.94468 0-1.2678-0.39855-2.4992-1.1598-3.5425-1.3727-1.8816-4.021-2.2965-5.9028-0.92371-1.3572 0.99128-1.6547 2.9001-0.6658 4.2572 0.35905 0.49175 0.88724 0.81414 1.4893 0.90817 0.60132 0.09411 1.2034-0.0514 1.6951-0.41019 0.79241-0.578 0.96642-1.6928 0.38921-2.486-0.27515-0.37682-0.80326-0.45989-1.1801-0.1852-0.37682 0.27439-0.46068 0.80254-0.18482 1.1801 0.03024 0.03968 0.0189 0.09638-0.0189 0.12586-0.12737 0.0926-0.28346 0.13077-0.43891 0.10658-0.15609-0.02646-0.29291-0.10809-0.38532-0.23546-0.44126-0.60438-0.30765-1.4551 0.29669-1.8963 1.1288-0.82348 2.7182-0.57486 3.5418 0.55468 0.68443 0.9369 0.96177 2.0859 0.78232 3.2302-0.17953 1.1467-0.79396 2.1543-1.7317 2.8379-3.1711 2.3135-7.6327 1.6159-9.9461-1.5553-2.81-3.8517-2.834-8.8905-0.46382-12.713 0.19124 3.0368 2.7152 5.4512 5.8 5.4512 1.6034 0 3.0586-0.65257 4.1121-1.706 1.0534-1.0534 1.706-2.5077 1.706-4.1121 0-3.0849-2.4145-5.6091-5.4515-5.8 3.8222-2.3702 8.8618-2.3454 12.713 0.46378zm26.4 20.561-0.73179-0.73182c0.3239-0.60283 0.61681-1.2585 0.87476-1.9678-0.01134 0.87087-0.0582 1.7752-0.14286 2.6996zm-0.43581 3.1277-1.7122-1.7122c0.39696-0.49409 0.77688-1.0371 1.1311-1.6369l0.94623 0.94699c-0.08957 0.78855-0.21052 1.5911-0.3651 2.4021zm-0.69841 2.8651-2.7625-2.7625c0.46767-0.4032 0.93535-0.85844 1.389-1.3782l1.936 1.9352c-0.15685 0.73178-0.34431 1.4675-0.56246 2.2055zm-0.92681 2.6367-3.9069-3.9069c0.43116-0.25814 0.8553-0.5376 1.2686-0.8437 0.12208-0.08995 0.24491-0.19011 0.36737-0.28762l3.0135 3.0135c-0.21656 0.67585-0.46612 1.3517-0.74271 2.0245zm-1.1428 2.4207-5.1477-5.1477c0.63159-0.25398 1.2593-0.55078 1.8769-0.89109l4.1763 4.1763c-0.27439 0.62539-0.5749 1.2469-0.90583 1.8622zm-1.5576 2.5303-6.3352-6.8125c0.7155-0.16705 1.4442-0.37912 2.1714-0.64327l5.4372 5.4364c-0.38846 0.68288-0.80719 1.3572-1.2733 2.0191zm-1.5825 2.0074-8.3134-8.3126c0.91517-0.05027 1.8995-0.16554 2.9195-0.36888l6.6345 7.1334c-0.38842 0.52437-0.79785 1.0418-1.2407 1.5483zm-1.1195 1.2034c-0.25776 0.25776-0.52206 0.4995-0.78542 0.74112l-8.7049-8.7042c0.0017-0.09789 0.0038-0.19729 0.0038-0.29216 0-0.45448-0.0189-0.87941-0.04724-1.278 0.39851 0.03024 0.82348 0.04724 1.2772 0.04724 0.09562 0 0.19502-0.0022 0.29216-0.0038l8.7049 8.7042c-0.24151 0.26419-0.48317 0.52754-0.74112 0.78545zm-2.7517 2.3601-7.1334-6.6338c0.20334-1.02 0.31861-2.0051 0.36812-2.9203l8.3134 8.3134c-0.50653 0.4428-1.0239 0.85224-1.5483 1.2407zm-2.4782 1.6151-5.4364-5.4372c0.26343-0.72714 0.47546-1.4551 0.64323-2.1714l6.8125 6.3356c-0.6619 0.46612-1.337 0.88565-2.0191 1.2733zm-2.3733 1.1902-4.1763-4.1763c0.34015-0.61681 0.63703-1.2453 0.89105-1.8769l5.1477 5.1484c-0.61526 0.33108-1.2368 0.63084-1.8622 0.90508zm-2.5831 0.9804-3.0135-3.0143c0.09713-0.12283 0.19653-0.24567 0.28686-0.36661 0.3069-0.41404 0.58575-0.83822 0.84449-1.2686l3.9069 3.9061c-0.67275 0.27666-1.3486 0.52592-2.0245 0.74346zm-2.8177 0.74577-1.9352-1.9359c0.51972-0.45373 0.97496-0.9214 1.3782-1.3891l2.7626 2.7626c-0.73802 0.21921-1.4737 0.4063-2.2056 0.56243zm-3.0617 0.50188-0.94699-0.94699c0.59973-0.35414 1.1428-0.73417 1.6369-1.1304l1.7114 1.7115c-0.81025 0.15458-1.6128 0.27666-2.4013 0.36586zm-3.4252 0.21354c0.70926-0.25814 1.365-0.55158 1.9678-0.87476l0.73182 0.73178c-0.9245 0.08391-1.8295 0.13115-2.6996 0.14286zm-15.857-42.051c0.16063-0.13039 0.31294-0.26721 0.48245-0.39076 0.00378-0.00378 0.011338-0.00756 0.015118-0.015118 0.00378-0.00378 0.011338-0.00756 0.015118-0.015118 0.12359-0.16857 0.26041-0.32163 0.39076-0.48166 0.68212-0.4995 1.5203-0.79781 2.4293-0.79781 2.2762 0 4.1283 1.852 4.1283 4.1291 0 1.1381-0.46302 2.1706-1.2104 2.9179-0.74736 0.74815-1.7798 1.2112-2.918 1.2112-2.277 0-4.1291-1.8529-4.1291-4.1291 0-0.90897 0.2982-1.7464 0.79706-2.4293zm6.441 60.29c0.64558-1.0185 1.6539-1.7674 2.9428-2.1939 0.38456 2.6204-2.009 5.334-3.5449 6.3004-0.05367 0.03402-0.10242 0.07294-0.14589 0.11641-0.23395-1.6252 0.0189-3.0733 0.74811-4.2232zm8.2986 22.491c-0.449 2.7525-2.5303 5.2236-5.0993 6.0665 0.61451-2.4176 2.9614-5.2081 5.0993-6.0665zm99.378-89.566h-25.615c-0.23849 0-0.45214 0.099401-0.60593 0.25701-0.95557-0.16781-1.9748-0.25701-3.0547-0.25701h-74.838c-0.03402 0-0.06916 0.007559-0.10318 0.011338-3.826-0.052157-7.621 1.5677-10.219 4.6775-0.16063 0.12964-0.31634 0.26645-0.46303 0.41253-0.14589 0.14702-0.28271 0.30236-0.41253 0.46382-3.1098 2.597-4.7297 6.3919-4.6775 10.218-0.0037795 0.034015-0.011338 0.068408-0.011338 0.10431v74.838c0 1.0798 0.089574 2.0991 0.25701 3.0546-0.1576 0.15382-0.25701 0.36737-0.25701 0.60597v24.044h1.6897v-20.579c1.2244 2.1131 3.0717 3.5534 5.4274 4.1034 3.339 0.78073 6.6825-1.1855 7.6724-4.4167 4.1401-0.64172 7.6104-4.7504 7.6104-9.0647 0-0.23698-0.10016-0.46303-0.27439-0.62305-0.17499-0.16025-0.4086-0.23924-0.64478-0.21808-2.3951 0.21052-4.8328 2.3384-6.3314 4.7637-0.53215-2.6608-2.1372-4.8359-3.6078-6.828-1.8256-2.4728-3.5503-4.8098-3.1106-7.7158 0.36585-2.4192 2.3415-4.0932 4.5959-3.8936 0.65491 0.0582 1.2484 0.36812 1.6711 0.87242 0.42183 0.50422 0.62071 1.142 0.56477 1.7985-0.0635 0.71939-0.70147 1.2531-1.4209 1.1894-0.14853-0.01512-0.28346-0.08391-0.37908-0.19805-0.09562-0.11414-0.13833-0.25549-0.12812-0.40864 0.0022-0.03817 0.03779-0.06614 0.07635-0.06312 0.46454 0.0412 0.87397-0.30236 0.91592-0.76675 0.0412-0.46533-0.30236-0.87476-0.76754-0.91592-0.96566-0.08542-1.8218 0.6308-1.9072 1.5965-0.1096 1.2337 0.80643 2.3283 2.0408 2.4386 1.6477 0.14589 3.1067-1.0759 3.2528-2.7229 0.01134-0.1251 0.01512-0.2502 0.01512-0.37455 0-0.9711-0.33713-1.9034-0.96876-2.6577-0.7116-0.84989-1.7122-1.3727-2.8169-1.4706-0.02268-0.0018-0.04195-6.05e-4 -0.06312-0.0022 1.8753-1.3937 3.8759-4.0754 3.8766-6.8481 0-0.62226-0.10167-1.25-0.32693-1.8676-0.14551-0.39545-0.55933-0.62384-0.97106-0.53529-2.1186 0.45524-3.7772 1.5452-4.7966 3.1526-1.0938 1.7254-1.3751 3.9061-0.81573 6.3057 0.02646 0.11905 0.08088 0.22526 0.15005 0.3171-1.7922 0.8398-3.1339 2.5901-3.4687 4.8026-0.54379 3.5992 1.4714 6.3299 3.4214 8.9706 1.4543 1.9694 2.8511 3.8642 3.3071 6.1107-0.55082-0.48396-1.2166-0.82812-1.9515-0.99979-0.84215-0.19729-1.7115-0.05443-2.4464 0.4024-0.73492 0.45679-1.2484 1.1723-1.445 2.0152-0.14702 0.62539-0.040441 1.2702 0.2982 1.8163 0.3394 0.54538 0.87011 0.92681 1.4963 1.0728 0.484 0.11263 0.98274 0.03024 1.4054-0.23168 0.42262-0.26267 0.71704-0.6735 0.83047-1.1575 0.10469-0.45524-0.17726-0.90897-0.6308-1.0146-0.45448-0.1062-0.90817 0.1765-1.0146 0.63004-0.01512 0.05745-0.048755 0.08957-0.076723 0.1062-0.026457 0.0189-0.072188 0.03401-0.12964 0.02268-0.18557-0.04346-0.34431-0.15685-0.44511-0.31861-0.10016-0.16328-0.13115-0.3549-0.08844-0.5407 0.094109-0.40395 0.34015-0.74656 0.69142-0.96487 0.35187-0.21808 0.76758-0.28686 1.1708-0.19275 0.73643 0.17234 1.3626 0.62071 1.7612 1.2632 0.3993 0.64248 0.52516 1.4023 0.35263 2.1387-0.60211 2.5769-3.1883 4.1835-5.7652 3.5814-5.2456-1.2259-5.8117-7.1108-5.8117-9.5844v-68.715c0.24718 0.43816 0.51896 0.86698 0.82193 1.2826 1.1933 1.6353 2.8511 2.7307 4.6597 3.2543-1.4038 0.96407-2.5536 2.3718-3.29 4.1174-1.6066 3.8052-1.3712 9.8747 4.1042 15.502 1.3471 1.3836 2.8045 2.6344 4.2138 3.8449 4.3755 3.7554 8.5107 7.305 8.5107 14.179 0 0.04573-5.67e-4 0.09146-5.67e-4 0.13757-0.02646 3.4089-2.754 5.6881-5.0373 6.9996-0.40475 0.2332-0.54304 0.75046-0.31143 1.1537 0.23244 0.40395 0.74815 0.54379 1.1529 0.31143 3.7694-2.1652 5.8593-5.1669 5.8847-8.4509 5.67e-4 -0.0514 5.67e-4 -0.1028 5.67e-4 -0.15307 0-6.8156-3.6731-10.709-7.6391-14.194 6.636 1.2997 19.018 1.0791 27.663-7.5658 8.646-8.6452 8.8663-21.028 7.5665-27.664 3.485 3.9658 7.3787 7.6391 14.194 7.6391h0.15307c3.2838-0.02646 6.2849-2.1162 8.4509-5.8854 0.23244-0.40399 0.0926-0.92061-0.31219-1.1529-0.4032-0.2313-0.92057-0.0926-1.1529 0.31143-1.3114 2.2832-3.5907 5.0101-6.9996 5.0373-0.04573 7.55e-4 -0.09146 7.55e-4 -0.13757 7.55e-4 -6.8738 0-10.423-4.1351-14.18-8.5107-1.2096-1.4092-2.4603-2.8666-3.8449-4.213-5.6262-5.4761-11.696-5.7108-15.501-4.1049-1.7456 0.73727-3.1533 1.8862-4.1174 3.29-0.52361-1.8086-1.619-3.4664-3.2543-4.6597-0.41563-0.30312-0.84521-0.57486-1.2826-0.82189h68.715c2.4736 0 8.3583 0.56632 9.5844 5.8117 0.60208 2.5769-1.0045 5.1632-3.5814 5.7652-0.73647 0.17234-1.4963 0.04724-2.1387-0.35187-0.64248-0.39934-1.0915-1.0247-1.2632-1.762-0.09411-0.40244-0.02646-0.81803 0.19275-1.1708 0.21808-0.35111 0.56091-0.59739 0.96411-0.69138 0.18671-0.042708 0.37833-0.011338 0.5407 0.089574 0.16214 0.10016 0.2759 0.25852 0.31937 0.44439 0.01512 0.057448-0.0038 0.10242-0.02268 0.12964-0.0189 0.026456-0.04989 0.063495-0.1062 0.076724-0.45369 0.1062-0.73647 0.56012-0.63084 1.0146 0.10658 0.45445 0.56016 0.73568 1.0146 0.6308 0.48476-0.11263 0.89574-0.40784 1.1583-0.83047 0.26192-0.42262 0.34431-0.92136 0.23093-1.4054-0.14588-0.62539-0.52674-1.1568-1.0721-1.4962-0.54614-0.33864-1.1917-0.44515-1.8163-0.2982-0.8429 0.19653-1.5584 0.71009-2.0152 1.445-0.45683 0.73492-0.59977 1.6042-0.4024 2.4464 0.17159 0.73492 0.51503 1.4007 0.99979 1.9515-2.2467-0.45603-4.1416-1.8528-6.1107-3.3071-2.6406-1.9492-5.3714-3.9651-8.9714-3.4206-2.2118 0.33411-3.962 1.6765-4.8018 3.468-0.09146-0.06916-0.19804-0.12208-0.3171-0.15005-2.3998-0.55936-4.5804-0.27741-6.3057 0.81573-1.6073 1.0192-2.6981 2.6778-3.1525 4.7966-0.08844 0.41174 0.13984 0.82582 0.53525 0.97106 0.61764 0.22526 1.2453 0.32693 1.8676 0.32693 2.7719 0 5.4546-2.0012 6.8481-3.8766 0.0018 0.02268 6.04e-4 0.04195 0.0022 0.06312 0.09789 1.1047 0.61991 2.1053 1.4706 2.817 0.75435 0.63159 1.6858 0.96876 2.6577 0.96876 0.12434 0 0.24869-0.0038 0.37379-0.01512 1.6477-0.14589 2.869-1.605 2.7229-3.252-0.10961-1.2352-1.2049-2.1504-2.4378-2.0416-0.96642 0.08542-1.6827 0.94158-1.5965 1.908 0.0412 0.46458 0.45059 0.80794 0.91517 0.76675 0.46533-0.0412 0.8087-0.45135 0.76754-0.91592-0.0038-0.03893 0.02646-0.07332 0.06312-0.07635 0.15307-0.01134 0.29442 0.03402 0.40784 0.12812 0.1149 0.09638 0.18482 0.23055 0.19804 0.37908 0.0635 0.72018-0.46922 1.3572-1.1886 1.4209-0.65642 0.05594-1.2942-0.14211-1.7984-0.56477-0.50418-0.42187-0.81418-1.0154-0.87242-1.6711-0.19994-2.2537 1.4745-4.23 3.8936-4.5951 2.9063-0.43971 5.2429 1.2842 7.7158 3.1098 1.9919 1.4706 4.1673 3.0756 6.828 3.6078-2.4254 1.4986-4.5539 3.9363-4.7637 6.3314-0.02268 0.23622 0.0582 0.47002 0.21808 0.64482 0.16025 0.17499 0.38608 0.27439 0.62301 0.27439 4.3139 0 8.423-3.4695 9.064-7.6104 3.2318-0.98977 5.1972-4.3328 4.4175-7.6716-0.55076-2.3562-1.9903-4.2035-4.1034-5.4281h22.15v-1.6897" />
    <path
        d="m40.399 18.168c0.72173-1.6625 0.85768-3.5386 0.77302-4.9912 0.92601 0.53605 1.5973 1.2538 2.0004 2.1441 0.70692 1.5576 0.4995 3.3693 0.22072 4.5671-0.96876-0.80639-2.1745-1.3836-2.9941-1.72zm3.3709 4.216c0.02268 0 0.04724-0.0016 0.07143-0.0022 0.31294-0.02646 0.58574-0.2245 0.70771-0.51428 0.06765-0.16063 1.6377-3.9745 0.16705-7.2336-0.77223-1.7115-2.218-2.9335-4.2961-3.6327-0.28611-0.09713-0.60362-0.03402-0.82971 0.16856-0.22677 0.20031-0.32882 0.50732-0.26645 0.80329 0.25927 1.2515 0.42028 4.1616-0.83281 6.2173-0.13531 0.22223-0.16063 0.49409-0.06916 0.73726 0.09146 0.24302 0.29064 0.43116 0.53839 0.50887 0.85764 0.26797 3.266 1.25 4.0973 2.5567 0.15609 0.24453 0.42497 0.39152 0.71236 0.39152" />
    <path
        d="m20.103 20.095c1.7247-0.13115 4.1128 0.0022 5.362 1.2523 0.94544 0.94465 1.3642 3.4213 1.7549 5.8646-2.4433-0.39076-4.9198-0.80949-5.8646-1.7542-1.2492-1.25-1.3836-3.6373-1.2523-5.3627zm7.0688 8.8198c0.70461 0.11263 1.4155 0.22601 2.1038 0.35338-0.12661-0.68912-0.24-1.3999-0.35263-2.1038-0.46382-2.9063-0.90273-5.6519-2.263-7.0121-2.3259-2.3267-6.7207-1.7992-8.07-1.57-0.22828 1.3494-0.7559 5.7433 1.5708 8.0692 1.3603 1.3603 4.1057 1.7992 7.0113 2.263" />
    <path
        d="m3.9644 43.755v34.846c0 0.15534 0.12586 0.28119 0.28119 0.28119 0.15609 0 0.28195-0.12586 0.28195-0.28119v-34.846c0-0.15609-0.12586-0.28195-0.28195-0.28195-0.15534 0-0.28119 0.12586-0.28119 0.28195" />
    <path
        d="m6.3833 47.307v27.477c0 0.15534 0.12586 0.28195 0.28119 0.28195 0.15609 0 0.28195-0.12661 0.28195-0.28195v-27.477c0-0.15534-0.12586-0.28119-0.28195-0.28119-0.15534 0-0.28119 0.12586-0.28119 0.28119" />
    <path
        d="m8.7643 49.688v21.977c0 0.15609 0.12586 0.28195 0.28195 0.28195 0.15534 0 0.28119-0.12586 0.28119-0.28195v-21.977c0-0.15534-0.12586-0.28119-0.28119-0.28119-0.15609 0-0.28195 0.12586-0.28195 0.28119" />
    <path
        d="m11.183 51.956v12.201c0 0.15534 0.12586 0.28195 0.28119 0.28195s0.28195-0.12661 0.28195-0.28195v-12.201c0-0.15534-0.12661-0.28119-0.28195-0.28119s-0.28119 0.12586-0.28119 0.28119" />
    <path
        d="m13.564 54.186v7.743c0 0.15609 0.12586 0.28195 0.28195 0.28195 0.15534 0 0.28119-0.12586 0.28119-0.28195v-7.743c0-0.15534-0.12586-0.28119-0.28119-0.28119-0.15609 0-0.28195 0.12586-0.28195 0.28119" />
    <path
        d="m15.983 55.849v6.0759c0 0.15609 0.12586 0.28195 0.28119 0.28195 0.15609 0 0.28195-0.12586 0.28195-0.28195v-6.0759c0-0.15609-0.12586-0.28195-0.28195-0.28195-0.15534 0-0.28119 0.12586-0.28119 0.28195" />
    <path
        d="m18.931 67.339v-9.0031c0-0.15534-0.12586-0.2812-0.28119-0.2812-0.15609 0-0.28195 0.12586-0.28195 0.2812v9.0031c0 0.15609 0.12586 0.28195 0.28195 0.28195 0.15534 0 0.28119-0.12586 0.28119-0.28195" />
    <path
        d="m15.341 43.15c-0.8903-0.40399-1.6089-1.0744-2.1442-2.0012 1.4528 0.08466 3.3289-0.0514 4.9916-0.77298 0.33637 0.81958 0.91358 2.0253 1.72 2.9941-1.1987 0.27893-3.0096 0.48631-4.5671-0.21959zm6.6716-0.11603c-1.3074-0.83126-2.2894-3.2396-2.5574-4.0973-0.07672-0.24794-0.26494-0.4467-0.50808-0.53839-0.24378-0.09146-0.51586-0.06614-0.73806 0.06916-2.0548 1.2531-4.9651 1.0931-6.2165 0.83281-0.29594-0.06161-0.60287 0.03969-0.80329 0.26645-0.20145 0.22601-0.26645 0.54379-0.16856 0.82971 0.69917 2.0781 1.9212 3.5239 3.6327 4.2961 3.2589 1.4714 7.0726-0.0994 7.2336-0.16705 0.28913-0.12208 0.4879-0.39466 0.51431-0.70771 0.0017-0.02268 0.0022-0.04724 0.0022-0.07143 0-0.28648-0.14702-0.55623-0.39156-0.71236" />
    <path
        d="m23.164 52.825c-0.42497-0.06009-0.83047 0.11905-1.0597 0.46688-0.23244 0.35414-0.23395 0.80639-0.0038 1.1801 7.3065 11.93 2.8069 17.681-1.5452 23.243-2.4922 3.1859-5.0698 6.4799-5.1499 10.756v0.01512c0 0.45913 0.36737 0.83591 0.82892 0.84445 0.46612 0.0076 0.85144-0.36208 0.85999-0.82892 0.06992-3.7111 2.3633-6.6428 4.7916-9.7466 4.363-5.577 9.2915-11.877 2.2864-24.103 9.073 0.98894 16.586-1.518 22.854-7.6164 6.0986-6.2687 8.6055-13.781 7.6157-22.854 12.226 7.0049 18.526 2.0766 24.103-2.2864 3.1036-2.4285 6.0355-4.7217 9.7466-4.7916 0.46612-0.0076 0.83746-0.3939 0.82892-0.86002-0.0076-0.46068-0.38532-0.82892-0.84445-0.82892h-0.01512c-4.2757 0.08088-7.5699 2.6577-10.756 5.1499-5.563 4.3521-11.314 8.8523-23.243 1.5452-0.37379-0.22828-0.82578-0.22677-1.1801 0.0038-0.34809 0.22904-0.52671 0.63473-0.46688 1.0597 1.302 9.1959-0.92915 16.474-6.9803 22.669-6.195 6.0502-13.472 8.2824-22.668 6.9796" />
</svg>