<?xml version="1.0" encoding="UTF-8" standalone="no"?>
<!-- Created with Inkscape (http://www.inkscape.org/) -->

<svg
    version="1.1"
    viewBox="0 0 120 120"
    xmlns="http://www.w3.org/2000/svg"
    xmlns:svg="http://www.w3.org/2000/svg">
    <path
        d="M 3.3681501e-4,77.167543 C 0,76.70267 0.0668241,76.23059 0.20481721,75.764034 0.26675749,75.455007 0.62297305,73.92068 1.9203171,72.175237 3.1010895,70.585874 5.0690997,68.826689 8.2876029,67.66616 L 8.2232375,62.304368 C 6.0374764,61.279406 4.621001,59.087886 4.6021393,56.674279 l -3.368e-4,-0.04672 C 4.6011288,53.981679 6.2844629,51.641791 9.0772657,50.369371 10.037054,49.931108 11.035609,49.699413 12.027564,49.666035 11.415839,49.386309 10.8316,49.04003 10.288722,48.619113 10.073632,48.450772 9.8661537,48.27583 9.6658836,48.09742 7.4552656,46.121427 6.2558674,43.404542 6.2562041,40.4725 c 0,-0.545304 0.042135,-1.100577 0.1266424,-1.659386 0.3595164,-2.376567 1.4582407,-4.517532 3.0935449,-6.153511 0.9051906,-0.905527 1.9751506,-1.656288 3.1745496,-2.204993 l 0.301583,-0.138027 c 0.11893,-0.05843 0.253151,-0.111654 0.377873,-0.168172 0.307613,-1.232237 1.074205,-2.349083 2.232949,-3.05983 0.216201,-0.133479 0.449547,-0.235703 0.688787,-0.323375 -4.435719,-0.670094 -7.8359678,-4.495977 -7.8363047,-9.115833 3.369e-4,-5.093148 4.1273647,-9.2205133 9.2198387,-9.2205133 4.502713,0 8.249005,3.2275303 9.056922,7.4956503 0.715059,-1.092965 1.791823,-1.822473 2.981454,-2.118802 0.05951,-0.131729 0.115392,-0.272652 0.176996,-0.398116 l 0.12927,-0.282891 c 0.548334,-1.198388 1.298185,-2.268517 2.203376,-3.1740442 1.635001,-1.6360111 3.777953,-2.7333544 6.154519,-3.0935444 0.558136,-0.08417 1.112231,-0.1245541 1.658916,-0.1245541 2.930997,0 5.649566,1.1980173 7.624919,3.4096797 0.179085,0.198619 0.352072,0.407411 0.519032,0.622872 0.218559,0.281645 0.411487,0.577435 0.592255,0.87875 0.07471,-0.865817 0.301315,-1.7316 0.683095,-2.568787 1.272083,-2.7906437 3.609275,-4.4771439 6.255497,-4.4737758 h 0.04931 c 2.42298,0.016538 4.62053,1.4445322 5.641534,3.6480435 l 5.338889,0.064834 C 67.862267,5.0785945 69.627232,3.1025345 71.221188,1.9189665 72.966597,0.62297305 74.500399,0.26614786 74.809285,0.2055582 75.275851,0.06416326 75.748103,0 76.213319,0 c 2.131853,0 4.115256,1.3834676 4.78312,3.5312023 0.126572,0.4073104 0.186862,0.8212897 0.186862,1.2286338 0,1.5495512 -0.874655,3.001628 -2.279699,3.7018665 l 2.726605,0.032701 c 0.200586,-0.7948161 0.919896,-1.3817129 1.777248,-1.3817129 0.872603,0 1.601869,0.6078501 1.787117,1.4242897 L 118.92787,8.9444258 85.194572,9.3534539 c -0.185925,0.8162041 -0.914649,1.4253011 -1.786578,1.4253011 -0.856578,0 -1.575409,-0.587713 -1.776713,-1.3822258 L 67.912089,9.5626497 c -0.01799,0.058302 -0.03743,0.1136751 -0.05501,0.1728165 v 0.00303 C 67.024941,12.468516 65.716913,15.060546 64.339337,16.69319 l -0.157269,0.19825 c -0.671569,0.841565 -1.477554,1.541803 -2.373654,2.080405 -1.38049,0.831461 -2.975915,1.279425 -4.628262,1.279425 -0.285484,0 -0.572788,-0.01351 -0.860597,-0.04046 -2.663835,-0.248737 -4.935282,-1.62045 -6.331583,-3.790751 -0.01021,0.534155 -0.05884,1.074978 -0.159886,1.61944 -0.690066,3.716349 -2.989705,6.41272 -6.156877,7.173519 -0.592795,0.144729 -1.192258,0.21226 -1.786063,0.21226 -2.346287,0 -4.612816,-1.08057 -6.090592,-2.995968 -9.91e-4,-0.0014 -0.0017,-0.0031 -0.0027,-0.0042 -0.04847,0.09282 -0.09727,0.185619 -0.151027,0.276694 -0.163288,0.346717 -1.039985,2.063394 -3.09981,3.753363 -1.056859,0.869118 -2.428571,1.727895 -4.170107,2.389737 -0.661673,1.743388 -1.520282,3.116616 -2.389197,4.174855 -1.690205,2.056764 -3.408029,2.931707 -3.75542,3.096646 -0.09053,0.05328 -0.182386,0.10192 -0.274572,0.150051 6.74e-4,6.73e-4 0.0017,9.92e-4 0.0027,0.0017 1.914389,1.481144 2.997014,3.746966 2.997014,6.093253 0,0.592458 -0.06975,1.191551 -0.2128,1.784008 -0.761808,3.167644 -3.458181,5.470179 -7.175541,6.16028 -0.60593,0.111081 -1.207819,0.168171 -1.801624,0.168171 -0.06045,0 -0.119838,-0.0061 -0.180094,-0.0072 0.0645,0.03227 0.131627,0.06083 0.195151,0.09498 2.542549,1.339783 4.162056,3.793783 4.435719,6.712318 0.02728,0.286158 0.04049,0.575516 0.04049,0.861641 3.37e-4,1.649474 -0.448302,3.245168 -1.278449,4.627255 -0.538939,0.896097 -1.238503,1.701893 -2.081416,2.373131 l -0.197239,0.157798 c -1.633991,1.377473 -4.225682,2.684955 -6.9570488,3.517056 h -0.00101 c -0.0677,0.02011 -0.1311896,0.04217 -0.1977442,0.06281 L 9.3726524,82.702862 c 0.7941416,0.201179 1.3814466,0.920212 1.3817156,1.777268 -3.37e-4,0.872118 -0.608995,1.600852 -1.4247942,1.786572 L 8.9210845,120 8.5125953,86.266702 C 7.6969641,86.080982 7.0885751,85.352248 7.0882719,84.48013 c 3.369e-4,-0.857056 0.5873044,-1.576089 1.381211,-1.777268 l -0.033715,-2.790954 c -0.7111512,1.373501 -2.1464211,2.22571 -3.6759654,2.22571 -0.4066368,0 -0.8199087,-0.06049 -1.2275897,-0.187403 C 1.3845454,81.282715 0,79.299174 0,77.167776 Z M 1.5439937,77.169227 c 0,1.471748 0.9596196,2.845582 2.4468264,3.307423 0.2571919,0.07979 0.517752,0.117818 0.7738998,0.117818 1.100442,0 2.1232482,-0.700643 2.4676079,-1.793338 0.050825,-0.16056 0.075783,-0.330651 0.075783,-0.50502 0,-0.344057 -0.09872,-0.700272 -0.2885831,-1.010614 -0.3948819,-0.645 -0.9257697,-0.978952 -1.4808409,-0.978952 -0.057932,0 -0.116538,0.004 -0.1754469,0.01142 -0.5359064,0.06733 -0.9855544,0.444895 -1.1413987,0.955577 -0.1026949,0.332235 -0.4080177,0.54554 -0.7375912,0.54554 -0.075413,0 -0.1519373,-0.01122 -0.2273502,-0.0348 -0.3318975,-0.101988 -0.5455392,-0.407348 -0.5455392,-0.737558 0,-0.07541 0.011047,-0.151264 0.034254,-0.226306 0.3356361,-1.093032 1.2872395,-1.891317 2.4250344,-2.034733 0.1235437,-0.0158 0.2463128,-0.02335 0.368543,-0.02335 1.1088286,-3.37e-4 2.136586,0.632305 2.7987306,1.718601 0.022028,0.03617 0.037487,0.07528 0.058134,0.112127 L 8.3078111,69.309809 C 5.6725367,70.364478 4.07408,71.846532 3.1126752,73.156439 1.9883531,74.689116 1.7329126,75.988005 1.7164086,76.079252 h -3.368e-4 c -0.00539,0.03297 -0.013203,0.06339 -0.021287,0.0903 l -3.368e-4,0.0017 c -0.1016508,0.331594 -0.1499837,0.667567 -0.1499837,0.998117 z m 4.6009941,-20.545301 3.368e-4,0.03738 c 0.011283,1.557794 0.7966685,2.990302 2.0559862,3.857062 l -0.049815,-4.112906 c -3.368e-4,-0.03206 0.013641,-0.05968 0.01711,-0.0908 -0.00202,-0.02172 -0.00933,-0.04244 -0.00933,-0.06437 0,-0.104379 0.020579,-0.208624 0.064366,-0.306233 0.3793548,-0.871879 1.0764945,-1.541636 1.9604652,-1.888353 0.422467,-0.164938 0.864806,-0.249142 1.306438,-0.249142 0.49047,0 0.981176,0.104278 1.444027,0.306232 1.561609,0.683364 2.573604,2.222036 2.578656,3.922043 v 0.0031 0.0037 0.0031 c 6.73e-4,1.827852 -1.166526,3.433584 -3.087314,4.286265 -0.673259,0.29926 -1.389833,0.44948 -2.100109,0.44948 -0.238734,0 -0.4757509,-0.02314 -0.7111171,-0.0571 l -0.055002,4.52191 c 2.4102151,-0.766153 4.7531681,-1.959388 6.1568781,-3.144977 l 0.0027,-0.0027 0.211251,-0.168678 c 1.769659,-1.412501 2.778184,-3.537972 2.778521,-5.796711 -3.37e-4,-0.235635 -0.01101,-0.474707 -0.03321,-0.713711 -0.226879,-2.400144 -1.544229,-4.396345 -3.619751,-5.493756 -0.162918,-0.08414 -0.329506,-0.165242 -0.499833,-0.239307 -0.727453,-0.323141 -1.498288,-0.48114 -2.281249,-0.48114 -0.853017,0 -1.720384,0.188246 -2.5568977,0.572013 -2.2883886,1.04352 -3.5719233,2.807487 -3.5732705,4.847408 z m 1.8717147,27.856141 c 6.737e-4,0.347358 0.1969694,0.648335 0.4842726,0.799868 L 8.4817767,83.6901 c -0.2768283,0.154665 -0.4643668,0.450423 -0.4650742,0.789966 z m 0.071641,-44.0172 c 6.736e-4,2.416985 0.981782,4.645421 2.7982255,6.271327 0.168643,0.148132 0.344359,0.296162 0.525801,0.437557 1.245879,0.96612 2.75289,1.467907 4.354952,1.467907 0.480028,0 0.968308,-0.04355 1.461103,-0.134423 3.063635,-0.57565 5.133566,-2.319814 5.730402,-4.787152 0.108387,-0.451096 0.161436,-0.905224 0.161436,-1.35632 0,-1.787477 -0.82577,-3.514698 -2.284348,-4.642388 -0.49175,-0.377739 -1.070129,-0.635234 -1.685893,-0.764604 -0.347392,-6.74e-4 -0.69293,-0.0324 -1.033955,-0.09135 -0.221119,0.0064 -0.443282,0.02536 -0.665445,0.0649 -0.931429,0.164938 -1.709606,0.505324 -2.298392,0.986699 -0.588416,0.481376 -0.988957,1.097108 -1.168378,1.827592 -0.06599,0.269284 -0.09757,0.53887 -0.09757,0.808154 0,1.040186 0.481511,2.049957 1.335539,2.706376 0.452411,0.350086 0.992291,0.532034 1.550427,0.532034 0.109398,0 0.220412,-0.0068 0.331157,-0.02025 0.664502,-0.08754 1.254198,-0.421121 1.656793,-0.952985 l 0.0017,-0.0031 c 0.184474,-0.232267 0.454701,-0.357125 0.726679,-0.357125 0.194241,0 0.39047,0.06413 0.556451,0.192018 0.234626,0.178411 0.357967,0.451198 0.357631,0.727217 3.36e-4,0.191885 -0.06204,0.39047 -0.188953,0.555408 -0.703203,0.919001 -1.725942,1.504553 -2.874515,1.652651 -0.190873,0.02695 -0.380938,0.03738 -0.570429,0.03738 -0.960058,0 -1.890779,-0.313306 -2.665352,-0.9125 -1.30947,-1.009872 -2.048711,-2.554776 -2.048711,-4.157005 -3.37e-4,-0.414046 0.04937,-0.831663 0.151061,-1.24571 0.401416,-1.633518 1.551471,-2.921769 3.177142,-3.650367 -0.571811,-0.445842 -1.074878,-0.998522 -1.472588,-1.654739 -0.34436,-0.568141 -0.555745,-1.179224 -0.657632,-1.799065 -2.71382,1.307584 -4.6013303,3.865122 -5.0598029,6.889048 -0.070024,0.461166 -0.1040084,0.9223 -0.1043453,1.373397 z m 1.253524,44.818381 C 9.6291707,85.129681 9.8254328,84.828737 9.8261401,84.481379 9.8254665,84.141836 9.6378942,83.84608 9.361066,83.691414 L 9.341834,85.281248 Z M 9.6335829,61.166371 c 0.2265419,0.04689 0.4584381,0.07059 0.6923901,0.07059 0.495186,0 0.998624,-0.104077 1.47259,-0.316135 1.397647,-0.62614 2.169863,-1.666258 2.171177,-2.871372 v -0.01041 c -0.0031,-1.083938 -0.65194,-2.073602 -1.654739,-2.511192 -0.265275,-0.117818 -0.544664,-0.174908 -0.823715,-0.174908 -0.251466,0 -0.502797,0.04692 -0.743822,0.141159 -0.465849,0.184238 -0.8365142,0.523243 -1.0567908,0.963392 l -0.05709,4.708731 z M 9.8173156,17.65072 c 3.368e-4,2.16114 0.8739004,4.110221 2.2900724,5.527404 1.417183,1.417184 3.367275,2.28903 5.528414,2.28903 2.161141,0 4.111535,-0.871846 5.528415,-2.28903 1.416172,-1.417183 2.289702,-3.366264 2.290039,-5.527404 -3.37e-4,-2.16114 -0.873867,-4.113892 -2.290039,-5.531108 -1.41688,-1.413816 -3.367274,-2.289063 -5.528415,-2.289063 -2.161139,0 -4.111231,0.875247 -5.528414,2.289063 -1.416172,1.417216 -2.2897356,3.369968 -2.2900724,5.531108 z m 4.6797754,-2.605668 c 9.91e-4,-0.239005 0.105658,-0.45113 0.258505,-0.602629 0.152814,-0.151466 0.363794,-0.25561 0.603135,-0.258978 0.05453,0 0.110913,0.0067 0.167127,0.02021 0.08178,0.01684 0.946316,0.211992 1.964608,0.646247 1.016273,0.43759 2.19361,1.104248 2.884384,2.127593 0.265612,0.393871 0.400001,0.834864 0.399664,1.275855 6.74e-4,0.565547 -0.225531,1.12055 -0.656082,1.551438 -0.42954,0.430887 -0.986632,0.65662 -1.553526,0.65662 -0.438296,0 -0.881141,-0.134792 -1.27636,-0.400708 -1.020987,-0.690101 -1.687746,-1.868313 -2.124999,-2.884922 -0.434593,-1.016609 -0.630148,-1.881752 -0.648302,-1.96252 -0.01247,-0.05722 -0.01819,-0.114315 -0.01819,-0.168205 z m 0.513878,16.397402 c 0.01149,0.550053 0.159011,1.104215 0.464535,1.608561 0.647258,1.066692 1.688589,1.746018 2.821062,1.978113 0.334424,0.0027 0.666052,0.03169 0.991887,0.0867 0.699935,-0.02186 1.401824,-0.210681 2.041435,-0.593808 l 9.91e-4,-0.0031 c 0.02998,-0.01684 0.06295,-0.03355 0.09862,-0.05036 0.106703,-0.04713 1.582761,-0.740589 3.079062,-2.53817 0.53631,-0.645539 1.073228,-1.439614 1.554064,-2.39078 -1.122133,0.256687 -2.358344,0.433886 -3.727463,0.495186 -0.142102,0.0071 -0.284777,0.02169 -0.427183,0.03112 0.0083,0.100203 0.01765,0.200978 0.01765,0.298991 0,1.235438 -0.643956,2.396877 -1.714422,3.043191 -0.147458,0.08754 -0.310746,0.12772 -0.471305,0.12772 -0.310375,0 -0.613677,-0.157898 -0.785352,-0.440654 -0.08889,-0.148132 -0.131324,-0.313373 -0.131324,-0.474944 -3.37e-4,-0.309701 0.157663,-0.612633 0.443788,-0.784307 0.51472,-0.309701 0.826881,-0.871812 0.826881,-1.471006 0,-0.04049 -0.0044,-0.08097 -0.0072,-0.121455 -1.853695,0.24473 -3.625814,0.665849 -5.075971,1.198994 z m 0.798791,-2.191958 c 0.930014,-0.267061 1.930556,-0.488853 2.970573,-0.662818 -0.114921,-0.05106 -0.235871,-0.09764 -0.364366,-0.138094 -0.241361,-0.07743 -0.491009,-0.114686 -0.737086,-0.114686 -0.417751,0 -0.823714,0.107646 -1.158004,0.313002 -0.273325,0.1677 -0.508657,0.373494 -0.711083,0.602596 z m 0.845035,-12.909279 c 0.130617,0.326508 0.284945,0.670059 0.469722,0.996568 0.303639,0.541969 0.683229,1.029677 1.109738,1.315802 h 0.002 c 0.127923,0.08417 0.231628,0.111082 0.322838,0.111082 0.137353,0 0.266454,-0.06349 0.359718,-0.157765 0.09361,-0.09424 0.160357,-0.222197 0.159348,-0.360224 -6.74e-4,-0.09087 -0.02523,-0.195487 -0.111082,-0.323409 -0.267937,-0.403943 -0.741296,-0.777437 -1.277876,-1.083736 -0.334626,-0.191884 -0.690471,-0.356956 -1.034494,-0.498318 z m 2.443694,10.412166 c 0.912903,0.311655 1.649147,0.843048 2.141638,1.523954 0.334727,-0.02849 0.669825,-0.05621 1.005932,-0.0737 h 9.91e-4 c 1.809033,-0.08077 3.358652,-0.381174 4.687185,-0.807649 0.41802,-1.321561 0.712431,-2.863668 0.793132,-4.665664 0.01744,-0.338162 0.04557,-0.675415 0.0742,-1.012162 -0.532471,-0.384677 -0.973665,-0.918428 -1.290877,-1.570132 -0.96127,3.419448 -3.843935,6.035054 -7.412187,6.605619 z m 7.057049,23.606255 c 0.0189,-1.823315 1.190574,-3.719048 1.342242,-3.957711 0.03065,-0.04712 0.06601,-0.09094 0.105389,-0.131324 0.143382,-0.141399 0.339375,-0.225263 0.547088,-0.225263 0.264232,0 0.511252,0.134423 0.653995,0.356587 0.174706,0.269283 1.697648,2.716881 1.307482,4.733295 -0.185484,0.962748 -0.961001,1.612434 -1.928805,1.615803 -0.961405,0.0034 -1.766696,-0.663429 -1.958916,-1.619444 -0.05072,-0.252473 -0.07124,-0.511349 -0.06851,-0.771846 z m 1.549889,0.06227 c 9.91e-4,0.140084 0.01317,0.275181 0.03894,0.403302 0.06801,0.33665 0.325667,0.37373 0.43338,0.37373 0.127248,0 0.350187,-0.04739 0.411116,-0.357088 0.133615,-0.693469 -0.119468,-1.581956 -0.431864,-2.325879 -0.247525,0.601719 -0.45588,1.299095 -0.451601,1.905935 z m 0.153621,-32.266609 c 0,0.24574 0.03708,0.495185 0.113169,0.737557 0.04059,0.129371 0.08767,0.250827 0.139105,0.366455 0.174201,-1.040388 0.396835,-2.041571 0.664906,-2.973672 -0.229842,0.202728 -0.436343,0.438297 -0.604717,0.712161 -0.204986,0.333245 -0.3128,0.740084 -0.312463,1.157499 z m 1.208357,8.364465 c 0.972385,-0.495757 1.779932,-1.05056 2.434398,-1.601252 1.803644,-1.521563 2.483505,-2.996308 2.490916,-3.013149 0.01583,-0.03702 0.03318,-0.06726 0.05036,-0.09754 h 3.37e-4 c 0.386866,-0.643181 0.575414,-1.349314 0.595355,-2.053392 -0.05301,-0.317617 -0.08111,-0.640757 -0.08461,-0.965986 -0.228832,-1.138468 -0.908828,-2.185256 -1.980202,-2.834567 -0.503808,-0.307579 -1.057802,-0.455981 -1.608023,-0.467129 -0.534256,1.455546 -0.954062,3.226284 -1.199028,5.077318 0.04099,0.0034 0.08184,0.0083 0.1225,0.0083 0.597173,0 1.160799,-0.312834 1.470467,-0.827892 0.172348,-0.286123 0.475112,-0.444831 0.784813,-0.444831 0.16093,0 0.324555,0.04379 0.472349,0.131291 0.285148,0.171674 0.443114,0.475111 0.442777,0.784813 3.37e-4,0.161603 -0.04193,0.32607 -0.130819,0.4708 -0.646651,1.070499 -1.805496,1.717048 -3.039587,1.717048 -0.09977,0 -0.200473,-0.01014 -0.301045,-0.01923 -0.0097,0.144527 -0.02428,0.289189 -0.03167,0.433447 -0.06062,1.35861 -0.235972,2.586437 -0.489459,3.701868 z m 2.657571,-12.790451 c 0.619538,0.101786 1.230857,0.313306 1.799064,0.659214 0.65588,0.39751 1.20856,0.901116 1.654234,1.473095 0.727621,-1.626345 2.015972,-2.776938 3.650367,-3.179736 0.413036,-0.100977 0.830451,-0.151601 1.244161,-0.151601 1.60233,0 3.149119,0.740825 4.158688,2.050295 0.597511,0.774236 0.91351,1.703105 0.91351,2.665857 0,0.188515 -0.01175,0.376997 -0.03631,0.568881 -0.149478,1.147899 -0.736614,2.168145 -1.654267,2.875052 -0.165612,0.127923 -0.362716,0.188415 -0.556923,0.188415 -0.274706,0 -0.547089,-0.124319 -0.727183,-0.356587 -0.127923,-0.168305 -0.191548,-0.363793 -0.191548,-0.559045 -3.37e-4,-0.272652 0.123444,-0.54537 0.360729,-0.72715 0.530181,-0.400607 0.865952,-0.993166 0.952446,-1.656321 0.01448,-0.111081 0.02182,-0.221894 0.02182,-0.329607 -3.37e-4,-0.55881 -0.183294,-1.10088 -0.532066,-1.551943 -0.658439,-0.855038 -1.666224,-1.336583 -2.708397,-1.336583 -0.268643,0 -0.53951,0.03412 -0.807143,0.09808 -0.730148,0.18178 -1.347261,0.581915 -1.827626,1.171005 -0.479692,0.58909 -0.821391,1.366695 -0.985656,2.295765 -0.04015,0.228125 -0.05928,0.456047 -0.06488,0.682051 0.05648,0.332133 0.08808,0.668746 0.08926,1.006941 0.127719,0.620279 0.384743,1.203273 0.766623,1.697851 1.126377,1.457601 2.854238,2.282292 4.640402,2.282292 0.451434,0 0.906403,-0.05036 1.356792,-0.161434 2.470168,-0.595826 4.213556,-2.666565 4.786175,-5.729729 0.09155,-0.491481 0.136512,-0.979256 0.136512,-1.460632 0,-1.60233 -0.503001,-3.110386 -1.469457,-4.355928 -0.140351,-0.17841 -0.286563,-0.356957 -0.437051,-0.525262 -1.624527,-1.8144234 -3.852999,-2.7972159 -6.27032,-2.7972159 -0.452744,0 -0.912635,0.033648 -1.375485,0.1043453 -3.021232,0.4587757 -5.578229,2.3434916 -6.886689,5.0598036 z M 43.1521,28.163185 c 0,-0.208724 0.08374,-0.403606 0.226811,-0.545001 0.03937,-0.04039 0.08299,-0.0777 0.130819,-0.107982 0.271304,-0.171675 2.707992,-1.679495 4.729253,-1.272185 0.956016,0.191884 1.621596,0.996131 1.617891,1.958883 -0.0034,0.96612 -0.652175,1.740289 -1.614253,1.928805 -2.017758,0.390503 -4.462328,-1.133989 -4.734306,-1.309031 -0.222533,-0.141396 -0.356417,-0.387573 -0.35608,-0.653489 z m 2.471177,0.0037 c 0.746315,0.31307 1.636955,0.569083 2.324361,0.434458 0.114449,-0.02021 0.193534,-0.06396 0.247054,-0.117851 0.09192,-0.09424 0.110576,-0.212464 0.110576,-0.293266 6.74e-4,-0.107713 -0.03519,-0.363491 -0.372181,-0.430786 -0.688416,-0.138027 -1.570568,0.10448 -2.30981,0.407445 z m 4.625919,-15.891776 c 0,0.784341 0.159684,1.555176 0.481174,2.282292 0.07507,0.168307 0.156214,0.336176 0.241362,0.497745 1.096063,2.077004 3.092837,3.393546 5.492745,3.622446 0.239004,0.02021 0.476728,0.03372 0.713711,0.03372 2.258412,-0.0034 4.384887,-1.00994 5.797371,-2.780576 l 0.168694,-0.212294 h 0.0021 c 1.181826,-1.400848 2.370217,-3.732181 3.136646,-6.1346819 l -4.510114,0.055036 c 0.03167,0.2272827 0.05346,0.4565859 0.05346,0.6872029 0,0.710276 -0.150244,1.426849 -0.449497,2.100109 -0.852664,1.922136 -2.456779,3.090211 -4.285247,3.086842 h -0.0047 -0.002 -0.0047 c -1.697952,-0.0034 -3.237264,-1.016204 -3.921032,-2.57815 -0.202999,-0.461201 -0.304683,-0.953052 -0.304683,-1.444532 0,-0.440992 0.08215,-0.881816 0.248098,-1.305967 0.346044,-0.8853176 1.016912,-1.5818847 1.88677,-1.9589154 0.09963,-0.043753 0.204447,-0.064366 0.307782,-0.064366 0.0427,0 0.08386,0.01125 0.125632,0.018188 l 4.160676,0.050354 C 58.717971,6.9539468 57.274854,6.1563351 55.707586,6.1449845 h -0.03581 c -2.042312,0.00337 -3.803888,1.2856566 -4.850473,3.5746177 -0.381713,0.8348298 -0.57198,1.7036438 -0.57198,2.5553148 z m 4.149258,-0.784813 c 0,0.279389 0.05793,0.558811 0.174403,0.824759 0.43897,1.003137 1.425569,1.65292 2.511191,1.656289 h 0.0088 c 1.205798,-0.0034 2.248071,-0.774204 2.873503,-2.171178 0.211082,-0.474673 0.316641,-0.979289 0.316641,-1.474138 0,-0.225094 -0.0226,-0.4493112 -0.06645,-0.6685441 l -4.766606,0.057629 c -0.415765,0.2234428 -0.734291,0.5841041 -0.909907,1.0313601 -0.09461,0.242372 -0.141697,0.494714 -0.141697,0.743822 z M 68.344542,8.3354513 75.69006,8.4242363 C 75.6361,8.3951443 75.579608,8.3715673 75.527078,8.3396033 74.440449,7.6764481 73.80813,6.6496339 73.808467,5.5387843 c 0,-0.121186 0.0078,-0.2458076 0.02336,-0.3669936 0.143403,-1.1377949 0.941476,-2.0904425 2.034164,-2.427089 0.07507,-0.020175 0.151241,-0.03321 0.22631,-0.03321 0.330564,0 0.635752,0.2150901 0.738086,0.5450004 0.02323,0.077434 0.0346,0.1514658 0.03426,0.2288995 3.37e-4,0.3299102 -0.212604,0.6332459 -0.545536,0.7375912 -0.510324,0.1548339 -0.888423,0.6056608 -0.956086,1.1408935 -0.0074,0.057225 -0.01038,0.1176831 -0.01038,0.174908 0,0.5554416 0.333958,1.087542 0.978943,1.4813798 0.310368,0.1885154 0.666048,0.2896272 1.010078,0.2896272 0.174035,0 0.344976,-0.027349 0.505545,-0.077838 1.092689,-0.3433829 1.793341,-1.3663238 1.793341,-2.4670688 0,-0.2558447 -0.03805,-0.5152597 -0.117824,-0.7744388 -0.461851,-1.4845459 -1.836194,-2.4473653 -3.307924,-2.4473653 -0.330567,0 -0.666048,0.05059 -0.997626,0.1515669 h -0.0016 c -0.0276,0.010105 -0.05766,0.016908 -0.09032,0.020276 -0.09123,0.016807 -1.390134,0.2724159 -2.92279,1.3967382 -1.314693,0.9675347 -2.803018,2.5729298 -3.858072,5.223765 z m 14.273617,0.1723146 1.589885,0.019232 c -0.15132,-0.2872601 -0.452191,-0.4837917 -0.799858,-0.4837917 -0.339957,0 -0.635448,0.187707 -0.789993,0.4645353 z m 0.0011,0.8782788 c 0.154845,0.2767272 0.449833,0.4650742 0.788949,0.4650742 0.346927,0 0.647702,-0.1970705 0.799353,-0.4843063 z"
    />
</svg>