<?xml version="1.0" encoding="UTF-8"?>
<svg version="1.1" viewBox="0 0 120 120" xmlns="http://www.w3.org/2000/svg">
    <path
        d="m67.391 18.217c-0.52984-0.95636-0.83904-2.051-0.85998-3.2155l1.0014-3.2069 0.72014 3.1743c-0.0155 1.1762-0.32628 2.2832-0.86153 3.2481zm-1.0635 1.4427c-1.2585 1.3106-3.0267 2.1278-4.9829 2.1278-2.0308 0-3.6839-1.6524-3.6839-3.6832 0-0.99359 0.80873-1.8016 1.8016-1.8016 0.38842 0 0.70461 0.31521 0.70461 0.70464 0 0.45913 0.37213 0.83126 0.83201 0.83126 0.45913 0 0.83126-0.37228 0.83126-0.83126 0-1.3052-1.062-2.3679-2.3679-2.3679-1.9095 0-3.4641 1.5545-3.4641 3.4648 0 2.9475 2.3982 5.3464 5.3464 5.3464 1.9103 0 3.6699-0.63628 5.0962-1.6967-0.63628 5.8007-4.0093 10.225-9.6751 12.571-5.0218 2.0805-11.199 2.2529-16.788 0.83746 0.02948-2.2762 0.48245-4.394 1.452-5.9912 1.7969-2.9591 5.6651-3.9053 8.6233-2.11 1.5623 0.94857 2.0618 2.991 1.1148 4.5524-0.22065 0.36283-0.56866 0.6184-0.97964 0.71859-0.41253 0.10129-0.83825 0.03402-1.201-0.18406-0.13206-0.08088-0.22529-0.20749-0.2618-0.35829-0.03742-0.15004-0.01323-0.30538 0.06682-0.43816 0.23852-0.39231 0.11342-0.90348-0.27889-1.142-0.3931-0.23848-0.90428-0.11263-1.1428 0.28044-0.64092 1.0566-0.30221 2.4378 0.75434 3.0795 0.74191 0.4498 1.6144 0.58419 2.458 0.37833 0.8429-0.20636 1.5561-0.72872 2.0059-1.4706 1.424-2.3461 0.67354-5.4141-1.6726-6.8382-3.743-2.2716-8.6365-1.0744-10.907 2.6678-1.0154 1.6726-1.5677 3.9023-1.6524 6.3952-1.4605-0.46068-2.8644-1.034-4.1827-1.7122-1.2834-1.4085-3.7717-4.6635-2.2172-7.3284 0.69996-1.1995 2.2444-1.605 3.4431-0.90658 0.53449 0.31218 0.71629 0.99982 0.40399 1.5343-0.05594 0.09638-0.14139 0.13115-0.18799 0.14286-0.04584 0.01134-0.1375 0.02268-0.23229-0.03024-0.397-0.23055-0.90662-0.09713-1.1374 0.29896-0.23149 0.39696-0.09789 0.90583 0.29831 1.1373 0.45448 0.2657 0.98584 0.33637 1.4947 0.20334 0.50962-0.13379 0.93614-0.45834 1.201-0.91361 0.77377-1.3253 0.32398-3.0345-1.0022-3.8082-1.9927-1.1614-4.5565-0.48631-5.718 1.5056-0.95632 1.6384-0.94544 3.6016-0.02872 5.6711-2.0696-0.91671-4.0327-0.9276-5.6711 0.03024-1.9919 1.1614-2.667 3.7243-1.5056 5.7176 0.77453 1.3261 2.4829 1.7759 3.809 1.0022 0.45524-0.26494 0.77921-0.69217 0.91282-1.201 0.13364-0.50887 0.06213-1.0402-0.20356-1.4947-0.23149-0.39696-0.74116-0.5306-1.1374-0.29896-0.397 0.23168-0.5306 0.74036-0.29911 1.1382 0.05594 0.09411 0.0443 0.18671 0.03175 0.23319-0.01247 0.04573-0.04664 0.13115-0.14218 0.18708-0.53449 0.31143-1.2236 0.13039-1.5351-0.40399-0.6992-1.1987-0.29212-2.7439 0.90662-3.4431 2.6647-1.5545 5.9198 0.9338 7.3284 2.2164 0.67743 1.3191 1.2515 2.7237 1.7123 4.1827-2.493 0.08466-4.7225 0.63779-6.3945 1.6524-3.743 2.2723-4.9402 7.1651-2.6686 10.907 1.424 2.3469 4.4919 3.0974 6.8382 1.6734 0.74191-0.45059 1.2648-1.1629 1.4706-2.0059 0.20507-0.84369 0.07147-1.7169-0.37833-2.458-0.64168-1.0573-2.023-1.3953-3.0803-0.75355-0.39231 0.23697-0.51817 0.7489-0.27889 1.1412 0.23773 0.3939 0.7489 0.51817 1.142 0.27968 0.13206-0.07937 0.28743-0.10431 0.43815-0.06765 0.14993 0.03779 0.27734 0.13039 0.35735 0.26192 0.21985 0.36358 0.28588 0.7893 0.18489 1.2018-0.10099 0.41094-0.3558 0.75899-0.71859 0.97885-1.5623 0.94857-3.6055 0.44825-4.5531-1.114-1.7954-2.9583-0.84913-6.8272 2.1092-8.6232 1.598-0.96955 3.7158-1.4224 5.9927-1.4512 1.4139 5.5887 1.2422 11.766-0.83825 16.788-2.3461 5.6651-6.7706 9.0382-12.571 9.6743 1.0612-1.4255 1.6959-3.1859 1.6959-5.0962 0-2.9475-2.3974-5.3457-5.3457-5.3457-1.9103 0-3.4641 1.5537-3.4641 3.4649 0 1.3051 1.0612 2.3671 2.3664 2.3671 0.45992 0 0.83201-0.37228 0.83201-0.83126 0-0.45992-0.37213-0.83126-0.83201-0.83126-0.38766 0-0.70385-0.31634-0.70385-0.70461 0-0.99362 0.80794-1.8016 1.8016-1.8016 2.0308 0 3.6832 1.6517 3.6832 3.6824 0 1.9561-0.81727 3.7251-2.1278 4.9836-1.3665-0.92136-3.0119-1.4605-4.7803-1.4605-0.08466 0-0.16781 0.01512-0.24782 0.03817l-5.2036 1.6237v-34.851c2.9529 3.9091 2.0222 7.2358 1.1171 10.468-0.91981 3.2862-1.8723 6.6851 1.5281 10.084 0.83746 0.83746 1.9966 1.208 3.2652 1.0418 1.6811-0.21996 3.3343-1.3409 4.2122-2.8558 0.95787-1.6524 0.39155-3.7764-1.2617-4.7342-0.54693-0.3171-1.1847-0.40164-1.7961-0.23924-0.61061 0.16327-1.121 0.55313-1.4388 1.1008-0.22994 0.39775-0.09479 0.90583 0.30221 1.1358 0.39775 0.23055 0.90662 0.09562 1.1366-0.30236 0.19498-0.33562 0.62615-0.45134 0.96256-0.25625 0.41638 0.24075 0.71394 0.63004 0.83746 1.0954 0.12431 0.46454 0.05983 0.95012-0.18179 1.3665-0.6184 1.0674-1.8194 1.8878-2.9886 2.0409-0.52595 0.06841-1.2787 0.02646-1.873-0.5687-2.7128-2.7128-2.002-5.2493-1.1024-8.4607 1.0604-3.7867 2.2591-8.0601-2.3865-13.111l1.9554-1.9554c0.10409 0.18633 0.20742 0.37379 0.32084 0.55313 0.9804 1.546 2.5047 2.6165 4.2901 3.0158 1.786 0.40085 3.621 0.07975 5.1662-0.89963 1.3028-0.82661 2.016-2.2359 2.016-3.6746 0-0.79554-0.21755-1.5996-0.67433-2.319-0.85068-1.3409-2.6328-1.7394-3.9737-0.8895-0.45758 0.28989-0.77457 0.74036-0.89264 1.2686-0.11807 0.52754-0.02268 1.0705 0.26725 1.5281 0.24552 0.3869 0.75899 0.50188 1.1467 0.25625 0.38766-0.24718 0.50263-0.76054 0.25716-1.1482-0.06992-0.1096-0.05983-0.21808-0.04819-0.27363 0.01247-0.05442 0.0497-0.15723 0.16002-0.22677 0.56711-0.35981 1.3199-0.19124 1.6796 0.3753 0.79165 1.2484 0.41952 2.9071-0.82816 3.6987-1.17 0.7427-2.5598 0.98508-3.9125 0.68212-1.3525-0.30311-2.507-1.114-3.2489-2.284-0.18255-0.28762-0.34416-0.58888-0.49488-0.89419l13.354-13.354c0.3061 0.1508 0.60676 0.31218 0.89419 0.49488 1.1707 0.74191 1.9818 1.8964 2.2848 3.2489 0.30221 1.3525 0.05983 2.7416-0.68288 3.9125-0.79086 1.2477-2.4495 1.6198-3.6987 0.8274-0.56635-0.35905-0.73492-1.1125-0.37523-1.6788 0.06992-0.11036 0.17246-0.1474 0.22764-0.15912 0.05518-0.01512 0.16312-0.02268 0.27344 0.04724 0.38766 0.24642 0.90118 0.13039 1.1474-0.257 0.24552-0.38687 0.1313-0.90118-0.25636-1.1474-0.45758-0.28913-1.0006-0.38452-1.5281-0.2657-0.5283 0.11754-0.97809 0.4343-1.2686 0.89109-0.85068 1.3409-0.45134 3.1246 0.88954 3.9745 0.72018 0.45603 1.5235 0.67433 2.319 0.67433 1.4388 0 2.8488-0.71319 3.6746-2.0152 0.9804-1.546 1.2997-3.381 0.90038-5.1669-0.3993-1.786-1.4706-3.3095-3.0158-4.2897-0.18024-0.11414-0.36748-0.2177-0.55392-0.32088l1.9554-1.9554c5.052 4.645 9.3247 3.447 13.111 2.3866 3.2116-0.90038 5.7482-1.6105 8.4611 1.1024 0.59508 0.59428 0.63703 1.3471 0.56866 1.873-0.15303 1.1692-0.97265 2.3702-2.0408 2.9886-0.41642 0.24151-0.90193 0.30614-1.3665 0.18255-0.46533-0.12434-0.85454-0.42183-1.0954-0.83825-0.19423-0.33562-0.07926-0.76833 0.25636-0.96252 0.397-0.23017 0.53294-0.73885 0.30296-1.1358-0.23074-0.397-0.73881-0.53294-1.1366-0.30311-0.54693 0.3171-0.93844 0.82816-1.1008 1.4396-0.16237 0.61061-0.07771 1.2484 0.23928 1.7954 0.95787 1.6532 3.0811 2.2195 4.7342 1.2609 1.5149-0.8771 2.6359-2.5311 2.8566-4.2115 0.16547-1.2679-0.20432-2.4277-1.0426-3.2652-3.3996-3.4011-6.7978-2.4487-10.086-1.5281-3.2302 0.90507-6.5578 1.835-10.468-1.1171h34.851l-1.6237 5.2028c-0.02494 0.08012-0.03806 0.16403-0.03806 0.24793 0 1.7689 0.53839 3.4143 1.4605 4.781zm-15.11 31.703c-2.5062-0.71394-7.7759-3.0524-10.12-10.262 7.2086 2.3461 9.5462 7.6141 10.261 10.12l-0.21441-0.07294zm-14.737-12.978c-0.29911-1.006-0.64482-1.9911-1.0449-2.9443 0.95322 0.3993 1.9391 0.7458 2.9444 1.0457 0.03666 0.68987 0.10099 1.3922 0.20742 2.1053-0.71394-0.10582-1.4155-0.17008-2.1069-0.20674zm24.684-0.21619c0.89963 0.85688 1.337 2.1085 1.3401 3.826 0.0042 1.9368-0.58733 3.4882-1.7076 4.4866-1.2236 1.0915-3.0469 1.5297-5.2686 1.2694-0.36978-0.04195-0.72483 0.1663-0.86622 0.51193-0.1406 0.34582-0.03402 0.7427 0.26101 0.97189 0.03175 0.02646 3.2217 2.5318 3.2155 5.3767-0.0024 0.8895-0.33717 1.741-0.98508 2.5466-0.80484 0.64792-1.6563 0.98274-2.5466 0.98508-2.8449 0.0076-5.3517-3.1836-5.3767-3.2155-0.22839-0.29518-0.62618-0.4024-0.97185-0.26116-0.34571 0.14135-0.55468 0.49564-0.51117 0.86622 0.25946 2.2218-0.17945 4.0452-1.2694 5.2686-0.99907 1.1202-2.5505 1.7114-4.4866 1.7083-1.7185-0.0022-2.97-0.44205-3.826-1.3409-1.0752-1.1272-1.3984-2.834-1.4497-4.5837 0.7497 1.3937 1.9577 2.3073 3.6249 2.7253 2.1154 0.5306 4.2682-0.75824 4.7988-2.8736 0.05439-0.21505 0.0808-0.43351 0.0808-0.65026 0-0.47387-0.1282-0.94154-0.37832-1.3587-0.36434-0.60831-0.94389-1.0379-1.6307-1.2104-0.4902-0.12283-0.99982-0.04838-1.4341 0.21203-0.43351 0.26041-0.74116 0.67275-0.86467 1.1645-0.11263 0.44515 0.15927 0.89653 0.60441 1.0092 0.44515 0.11112 0.89728-0.15912 1.0092-0.60441 0.01928-0.07672 0.06758-0.12056 0.10567-0.14211 0.03742-0.02268 0.09789-0.04498 0.1748-0.02646 0.25716 0.06349 0.47312 0.2245 0.60906 0.45138 0.13595 0.22677 0.17559 0.49409 0.11032 0.74966-0.14838 0.59353-0.51972 1.0946-1.0457 1.4093-0.52516 0.3137-1.1412 0.40554-1.7348 0.25625-1.5693-0.39386-3.5907-1.5118-3.2333-6.5196 0.1779-1.3005 0.2649-2.6243 0.2649-3.9526 0-2.4099-0.29287-4.8355-0.84914-7.1761 0.73182 0.0582 1.4691 0.14438 2.2032 0.27968 3.0446 11.656 13.148 12.97 13.254 12.982 0.25326 0.03023 0.50029-0.06463 0.67898-0.24226 0.17869-0.17839 0.2719-0.42576 0.24238-0.67978-0.01247-0.10582-1.3253-10.208-12.982-13.253-0.13515-0.73412-0.2214-1.4714-0.27968-2.2032 2.3407 0.55626 4.7663 0.84914 7.1768 0.84914 1.3284 0 2.6515-0.08806 3.9518-0.26494 5.0078-0.3583 6.1258 1.6648 6.5188 3.2333 0.14993 0.59353 0.05828 1.2103-0.25636 1.7347-0.31464 0.5252-0.81417 0.89653-1.4085 1.0457-0.25561 0.06614-0.52206 0.02646-0.7497-0.11112-0.22684-0.13568-0.38687-0.35111-0.45138-0.60827-0.01928-0.07672 0.0029-0.13833 0.0257-0.17499 0.02268-0.03779 0.06523-0.08617 0.14139-0.10582 0.44594-0.11187 0.71629-0.56397 0.60441-1.0084-0.11187-0.44594-0.56322-0.71704-1.0092-0.60441-0.4902 0.12359-0.90352 0.42961-1.163 0.86391-0.26026 0.43426-0.33562 0.94389-0.2121 1.4333 0.1725 0.68828 0.60207 1.2671 1.2096 1.6314 0.41797 0.2502 0.88485 0.37757 1.3588 0.37757 0.21675 0 0.43426-0.02646 0.65026-0.08013 2.1154-0.53136 3.4042-2.6833 2.8736-4.7988-0.41873-1.6672-1.3315-2.876-2.7253-3.6249 1.7503 0.0514 3.4563 0.37455 4.5837 1.4489zm-46.2 30.088-3.1751-0.71939 3.2077-1.0014c1.1638 0.0189 2.2584 0.33033 3.2155 0.85998-0.96641 0.53529-2.0719 0.84604-3.2481 0.86078zm-5.5415-49.231h8.4445l-8.4445 8.4437zm0-9.5961h7.9335v7.9327h-7.9335zm9.5961 0h8.4437l-8.4437 8.4437zm100.98-1.6633h-112.24v112.22h1.6633v-51.276l5.2663 1.1941c0.06058 0.01134 0.12196 0.02268 0.18489 0.02268 1.7682 0 3.4136-0.53914 4.7803-1.4605 1.3106 1.2585 2.1278 3.0275 2.1278 4.9829 0 2.0315-1.6524 3.6832-3.6832 3.6832-0.99362 0-1.8016-0.80794-1.8016-1.8016 0-0.38842 0.31619-0.70381 0.70385-0.70381 0.45989 0 0.83201-0.37228 0.83201-0.83205 0-0.45913-0.37213-0.83126-0.83201-0.83126-1.3052 0-2.3664 1.062-2.3664 2.3671 0 1.9104 1.5537 3.4649 3.4641 3.4649 2.9482 0 5.3457-2.3982 5.3457-5.3464 0-2.0051-0.69686-3.8479-1.8552-5.3098 6.1296-0.55468 10.905-3.8316 13.671-9.4143 0.24782 1.3432 0.75045 2.6002 1.6998 3.5969 1.17 1.2275 2.862 1.8521 5.0271 1.8559 2.4246 0.0038 4.4072-0.77921 5.7301-2.2646 1.0131-1.1366 1.5988-2.6227 1.734-4.3691 1.2197 1.0651 3.0609 2.2692 5.1514 2.2669 1.3432-0.0017 2.5909-0.50108 3.7305-1.4675 0.96641-1.1397 1.4652-2.3866 1.4667-3.7305 0.0024-2.0898-1.2018-3.931-2.2661-5.1507 1.7456-0.1353 3.2318-0.72018 4.3683-1.7332 1.4854-1.3246 2.2685-3.3064 2.2646-5.7312-0.0029-2.1659-0.6277-3.8581-1.8559-5.0271-0.99672-0.95012-2.2537-1.452-3.5969-1.6998 5.5834-2.7657 8.8595-7.5412 9.4143-13.671 1.4621 1.1583 3.3048 1.856 5.3105 1.856 2.9475 0 5.3457-2.399 5.3457-5.3464 0-1.9103-1.5545-3.4649-3.4649-3.4649-1.3051 0-2.3664 1.0628-2.3664 2.3679 0 0.45913 0.37213 0.83126 0.8305 0.83126 0.45992 0 0.83201-0.37228 0.83201-0.83126 0-0.38925 0.31619-0.70464 0.70385-0.70464 0.99362 0 1.8024 0.80798 1.8024 1.8016 0 2.0307-1.6532 3.6831-3.6832 3.6831-1.9569 0-3.7251-0.81727-4.9829-2.1278 0.9206-1.3665 1.4597-3.0119 1.4597-4.781 0-0.06198-0.0072-0.12359-0.02079-0.1833l-1.194-5.2671h51.299v-1.6633" />
    <path
        d="m26.146 26.154h0.83201v0.83126h-0.83201zm-0.83126 2.4945h3.3258v-3.3258c0-0.45992-0.37213-0.83205-0.83201-0.83205h-3.325v3.3266c0 0.45913 0.37213 0.83126 0.83126 0.83126" />
    <path
        d="m41.683 15.534c-0.48634 1.2407-1.3929 2.8923-2.8853 3.4229-0.69762-0.46147-2.4883-1.7107-4.1408-3.4105 1.8055 0.47621 4.2697 0.74501 7.026-0.01512zm-3.4509 5.0358c0.13206 0.08012 0.28202 0.12208 0.43351 0.12208 0.06213 0 0.12586-0.0076 0.18799-0.02268 3.8044-0.8841 4.8797-6.0691 4.9231-6.2887 0.05983-0.30085-0.05053-0.60986-0.28667-0.80484-0.23694-0.19502-0.56167-0.24378-0.84524-0.12661-5.4644 2.2498-10.135-0.52047-10.197-0.55778-0.33018-0.20296-0.75744-0.15005-1.0294 0.12737-0.2719 0.27817-0.31385 0.70695-0.10333 1.0332 2.4308 3.7539 6.7346 6.4062 6.9164 6.5173" />
    <path
        d="m56.722 29.442c3.3398-1.323 5.6945-3.3141 8.2604-5.7448 0.05284-0.04989-0.02495-0.12434-0.07846-0.07823-2.2864 1.9561-5.5709 3.0073-8.5136 3.3739-1.9228 0.23924-1.2399 3.0726 0.33172 2.4495" />
    <path
        d="m57.081 25.549c2.3042 0.18255 4.2447-0.7613 6.2834-1.6539 0.05669-0.02646 0.01625-0.12056-0.04271-0.10091-1.96 0.63937-4.0335 0.12208-5.9508-0.38842-1.5025-0.40085-1.9103 2.0144-0.28977 2.1434" />
    <path
        d="m64.723 24.869c-0.52051 1.0527-1.6011 1.9865-2.5163 2.7027-0.8429 0.6588-2.0253 1.0511-2.7431 1.8225-0.50652 0.54458-0.01474 1.5483 0.75824 1.3028 1.1078-0.35262 1.9849-1.5413 2.6678-2.4355 0.7994-1.0488 1.2508-2.2304 1.9298-3.3367 0.03742-0.06161-0.06448-0.11943-0.09634-0.05594" />
    <path d="m-6.6646e-4 0v119.98h1.6625v-118.32h118.34v-1.6625h-120" />
    <path
        d="m13.938 84.509 1.2585 4.8355-1.2531 1.5685-1.3518-1.5786zm-0.60441 8.2487c0.16161 0.1886 0.39855 0.29518 0.64557 0.29064 0.24861-0.0038 0.4809-0.11792 0.63628-0.31218l2.1403-2.6787c0.11966-0.15004 0.18179-0.33335 0.18179-0.51892 0-0.07068-0.0087-0.1406-0.02646-0.20976l-2.1411-8.2226c-0.09479-0.36434-0.42107-0.61919-0.79709-0.62229-0.37602-0.0022-0.70695 0.24642-0.80794 0.60831l-2.2941 8.2226c-0.07381 0.26721-0.01021 0.55313 0.16936 0.76364l2.2933 2.6795" />
    <path
        d="m13.235 97.057c0.16161 0.1508 0.37602 0.23093 0.59742 0.22223 0.22065-0.0076 0.42882-0.10431 0.57875-0.26645l2.3042-2.4875c0.14763-0.16025 0.22061-0.36283 0.22061-0.56477 0-0.22374-0.08935-0.44673-0.26645-0.61065-0.33717-0.31143-0.86312-0.2914-1.1746 0.04573l-1.7371 1.8753-2.0626-1.9196c-0.33637-0.31294-0.86232-0.29366-1.1746 0.04195-0.31385 0.33637-0.29442 0.86308 0.04195 1.1754l2.6724 2.4883" />
    <path
        d="m15.495 97.473-1.7371 1.8762-2.0626-1.9197c-0.33637-0.31294-0.86232-0.29442-1.1754 0.04195-0.3123 0.33637-0.29287 0.86232 0.04271 1.1754l2.6724 2.4875c0.16161 0.1508 0.37678 0.23055 0.59742 0.22223 0.22065-8e-3 0.42882-0.10431 0.57875-0.26569l2.3042-2.4883c0.14763-0.16025 0.22065-0.36283 0.22065-0.56477 0-0.22299-0.08935-0.44594-0.26645-0.60986-0.33717-0.31218-0.86312-0.29215-1.1746 0.04498" />
    <path
        d="m13.235 105.22c0.16161 0.1508 0.37602 0.23055 0.59742 0.22223 0.22065-8e-3 0.42882-0.10318 0.57875-0.26569l2.3042-2.4875c0.14763-0.16063 0.22061-0.36359 0.22061-0.56556 0-0.22299-0.08935-0.44594-0.26645-0.60982-0.33717-0.31219-0.86312-0.29215-1.1746 0.045l-1.7371 1.8762-2.0626-1.9197c-0.33637-0.31294-0.86232-0.29366-1.1746 0.042-0.31385 0.33637-0.29442 0.86232 0.04195 1.1746l2.6724 2.4883" />
    <path
        d="m13.235 109.3c0.16161 0.1508 0.37602 0.23055 0.59742 0.22224 0.22065-8e-3 0.42882-0.10432 0.57875-0.2657l2.3042-2.4883c0.14763-0.16025 0.22061-0.36283 0.22061-0.56477 0-0.22374-0.08935-0.4467-0.26645-0.61061-0.33717-0.31143-0.86312-0.2914-1.1746 0.0457l-1.7371 1.8762-2.0626-1.9204c-0.33637-0.31294-0.86232-0.29366-1.1746 0.0419-0.31385 0.33638-0.29442 0.86233 0.04195 1.1754l2.6724 2.4883" />
    <path
        d="m12.97 113.16v6.8235h1.6625v-6.859l2.082-2.2491c0.14838-0.16025 0.2214-0.36283 0.2214-0.56477 0-0.22374-0.08935-0.44669-0.26645-0.61061-0.33637-0.31143-0.86312-0.2914-1.1746 0.0457l-1.7371 1.8762-2.0626-1.9204c-0.33562-0.31294-0.86232-0.29366-1.1746 0.042-0.31385 0.33637-0.29442 0.86157 0.04195 1.1754l2.4075 2.2413" />
    <path
        d="m15.548 41.688c0.75744-2.7555 0.48944-5.2206 0.01323-7.0253 1.6998 1.6524 2.949 3.4431 3.4097 4.1408-0.52981 1.4931-2.1815 2.3982-3.4229 2.8845zm5.1586-3.0166c0-0.15231-0.04195-0.3016-0.12196-0.43347-0.11112-0.18179-2.7633-4.4847-6.5173-6.9164-0.32553-0.21127-0.75514-0.16856-1.0332 0.10318-0.27734 0.27212-0.33018 0.69841-0.12741 1.0293 0.03742 0.06161 2.8069 4.7319 0.55781 10.197-0.11732 0.2827-0.06837 0.60751 0.12661 0.84524 0.19502 0.23622 0.50418 0.34658 0.80484 0.28686 0.21985-0.04422 5.4046-1.1187 6.2887-4.9231 0.01398-0.06198 0.02192-0.1251 0.02192-0.18822" />
    <path
        d="m23.685 64.969c2.4316-2.566 4.422-4.9216 5.7448-8.2604 0.62305-1.5716-2.2102-2.2545-2.4495-0.33184-0.36668 2.9428-1.4178 6.2274-3.374 8.5136-0.04584 0.05367 0.02872 0.13039 0.07846 0.07824" />
    <path
        d="m23.799 63.306c-0.01928 0.05972 0.07612 0.10091 0.10178 0.04346 0.89184-2.0385 1.8358-3.979 1.6532-6.2834-0.1282-1.6206-2.5443-1.2127-2.1442 0.28989 0.51117 1.9173 1.0286 3.9915 0.38921 5.95" />
    <path
        d="m27.574 62.21c-0.71549 0.91437-1.6493 1.995-2.7019 2.5163-0.06372 0.03024-0.0053 0.13379 0.05594 0.09562 1.107-0.67898 2.2871-1.1296 3.3359-1.929 0.89574-0.68288 2.0843-1.56 2.4355-2.667 0.24627-0.77373-0.75824-1.2655-1.3028-0.75899-0.77067 0.71784-1.163 1.8995-1.8225 2.7431" />
    <path
        d="m4.342 64.818c-0.45992 0-0.83201 0.37152-0.83201 0.83126 0 0.45989 0.37213 0.83126 0.83201 0.83126 0.45992 0 0.83126-0.37152 0.83126-0.83126 0-0.45992-0.37133-0.83126-0.83126-0.83126" />
    <path
        d="m4.342 39.836c-0.45992 0-0.83201 0.37152-0.83201 0.83126 0 0.46068 0.37213 0.83122 0.83201 0.83122 0.45992 0 0.83126-0.37039 0.83126-0.83122 0-0.45992-0.37133-0.83126-0.83126-0.83126" />
    <path
        d="m4.342 42.595c-0.45992 0-0.83201 0.37152-0.83201 0.83126 0 0.45448 0.37213 0.82582 0.83201 0.82582 0.45992 0 0.83126-0.37152 0.83126-0.82582 0-0.45992-0.37133-0.83126-0.83126-0.83126" />
    <path
        d="m4.342 34.28c-0.45992 0-0.83201 0.37681-0.83201 0.83122 0 0.45913 0.37213 0.8367 0.83201 0.8367 0.45992 0 0.83126-0.37757 0.83126-0.8367 0-0.45444-0.37133-0.83122-0.83126-0.83122" />
    <path
        d="m4.342 37.039c-0.45992 0-0.83201 0.37228-0.83201 0.83126 0 0.46072 0.37213 0.83126 0.83201 0.83126 0.45992 0 0.83126-0.37039 0.83126-0.83126 0-0.45913-0.37133-0.83126-0.83126-0.83126" />
    <path
        d="m4.342 53.706c-0.45992 0-0.83201 0.37114-0.83201 0.83126 0 0.45989 0.37213 0.83126 0.83201 0.83126 0.45992 0 0.83126-0.37152 0.83126-0.83126 0-0.45992-0.37133-0.83126-0.83126-0.83126" />
    <path
        d="m4.342 56.503c-0.45992 0-0.83201 0.37228-0.83201 0.83205 0 0.45992 0.37213 0.83126 0.83201 0.83126 0.45992 0 0.83126-0.37152 0.83126-0.83126 0-0.45989-0.37133-0.83205-0.83126-0.83205" />
    <path
        d="m4.342 62.059c-0.45992 0-0.83201 0.37152-0.83201 0.83126 0 0.45989 0.37213 0.83122 0.83201 0.83122 0.45992 0 0.83126-0.37152 0.83126-0.83122 0-0.45992-0.37133-0.83126-0.83126-0.83126" />
    <path
        d="m4.342 50.947c-0.45992 0-0.83201 0.37152-0.83201 0.83126 0 0.45444 0.37213 0.83201 0.83201 0.83201 0.45992 0 0.83126-0.37757 0.83126-0.83201 0-0.45992-0.37133-0.83126-0.83126-0.83126" />
    <path
        d="m4.342 48.151c-0.45992 0-0.83201 0.37152-0.83201 0.83126 0 0.46068 0.37213 0.83126 0.83201 0.83126 0.45992 0 0.83126-0.37077 0.83126-0.83126 0-0.45992-0.37133-0.83126-0.83126-0.83126" />
    <path
        d="m4.342 31.483c-0.45992 0-0.83201 0.37077-0.83201 0.83126 0 0.45992 0.37213 0.83126 0.83201 0.83126 0.45992 0 0.83126-0.37114 0.83126-0.83126 0-0.46068-0.37133-0.83126-0.83126-0.83126" />
    <path
        d="m4.342 45.391c-0.45992 0-0.83201 0.37228-0.83201 0.83201 0 0.45992 0.37213 0.83126 0.83201 0.83126 0.45992 0 0.83126-0.37152 0.83126-0.83126 0-0.45989-0.37133-0.83201-0.83126-0.83201" />
    <path
        d="m4.342 12.019c-0.45992 0-0.83201 0.37152-0.83201 0.83201 0 0.45992 0.37213 0.8313 0.83201 0.8313 0.45992 0 0.83126-0.37152 0.83126-0.8313 0-0.46064-0.37133-0.83201-0.83126-0.83201" />
    <path
        d="m4.342 9.2597c-0.45992 0-0.83201 0.37681-0.83201 0.83126 0 0.45992 0.37213 0.8313 0.83201 0.8313 0.45992 0 0.83126-0.37152 0.83126-0.8313 0-0.45444-0.37133-0.83126-0.83126-0.83126" />
    <path
        d="m4.342 6.4629c-0.45992 0-0.83201 0.37152-0.83201 0.83126 0 0.45992 0.37213 0.83126 0.83201 0.83126 0.45992 0 0.83126-0.37152 0.83126-0.83126 0-0.45992-0.37133-0.83126-0.83126-0.83126" />
    <path
        d="m4.342 14.816c-0.45992 0-0.83201 0.37152-0.83201 0.83122 0 0.45992 0.37213 0.83205 0.83201 0.83205 0.45992 0 0.83126-0.37228 0.83126-0.83205 0-0.45989-0.37133-0.83122-0.83126-0.83122" />
    <path
        d="m4.342 25.927c-0.45992 0-0.83201 0.37681-0.83201 0.83122 0 0.45992 0.37213 0.8367 0.83201 0.8367 0.45992 0 0.83126-0.37681 0.83126-0.8367 0-0.45444-0.37133-0.83122-0.83126-0.83122" />
    <path
        d="m4.342 23.13c-0.45992 0-0.83201 0.37152-0.83201 0.83126 0 0.46068 0.37213 0.83205 0.83201 0.83205 0.45992 0 0.83126-0.37152 0.83126-0.83205 0-0.45989-0.37133-0.83126-0.83126-0.83126" />
    <path
        d="m4.342 28.724c-0.45992 0-0.83201 0.37114-0.83201 0.83201 0 0.45917 0.37213 0.83046 0.83201 0.83046 0.45992 0 0.83126-0.37114 0.83126-0.83046 0-0.46068-0.37133-0.83201-0.83126-0.83201" />
    <path
        d="m4.342 17.612c-0.45992 0-0.83201 0.37152-0.83201 0.82582 0 0.46068 0.37213 0.83126 0.83201 0.83126 0.45992 0 0.83126-0.37077 0.83126-0.83126 0-0.45448-0.37133-0.82582-0.83126-0.82582" />
    <path
        d="m4.342 20.371c-0.45992 0-0.83201 0.37228-0.83201 0.83201 0 0.45992 0.37213 0.83126 0.83201 0.83126 0.45992 0 0.83126-0.37152 0.83126-0.83126 0-0.45989-0.37133-0.83201-0.83126-0.83201" />
    <path
        d="m4.342 59.262c-0.45992 0-0.83201 0.37152-0.83201 0.82582 0 0.46068 0.37213 0.83746 0.83201 0.83746 0.45992 0 0.83126-0.37681 0.83126-0.83746 0-0.45448-0.37133-0.82582-0.83126-0.82582" />
    <path
        d="m4.342 95.394c-0.45992 0-0.83201 0.37152-0.83201 0.83126 0 0.46068 0.37213 0.83126 0.83201 0.83126 0.45992 0 0.83126-0.37077 0.83126-0.83126 0-0.45992-0.37133-0.83126-0.83126-0.83126" />
    <path
        d="m4.342 73.171c-0.45992 0-0.83201 0.37152-0.83201 0.8313 0 0.45989 0.37213 0.83201 0.83201 0.83201 0.45992 0 0.83126-0.37228 0.83126-0.83201 0-0.45992-0.37133-0.8313-0.83126-0.8313" />
    <path
        d="m4.342 78.726c-0.45992 0-0.83201 0.37152-0.83201 0.83205 0 0.45989 0.37213 0.83126 0.83201 0.83126 0.45992 0 0.83126-0.37152 0.83126-0.83126 0-0.46068-0.37133-0.83205-0.83126-0.83205" />
    <path
        d="m4.342 81.523c-0.45992 0-0.83201 0.37681-0.83201 0.83126 0 0.45989 0.37213 0.83201 0.83201 0.83201 0.45992 0 0.83126-0.37228 0.83126-0.83201 0-0.45448-0.37133-0.83126-0.83126-0.83126" />
    <path
        d="m4.342 75.967c-0.45992 0-0.83201 0.37152-0.83201 0.8313 0 0.45989 0.37213 0.83126 0.83201 0.83126 0.45992 0 0.83126-0.37152 0.83126-0.83126 0-0.45992-0.37133-0.8313-0.83126-0.8313" />
    <path
        d="m4.342 67.615c-0.45992 0-0.83201 0.37152-0.83201 0.83205 0 0.45448 0.37213 0.83126 0.83201 0.83126 0.45992 0 0.83126-0.37681 0.83126-0.83126 0-0.46068-0.37133-0.83205-0.83126-0.83205" />
    <path
        d="m4.342 92.635c-0.45992 0-0.83201 0.37152-0.83201 0.83122 0 0.45448 0.37213 0.83126 0.83201 0.83126 0.45992 0 0.83126-0.37681 0.83126-0.83126 0-0.45989-0.37133-0.83122-0.83126-0.83122" />
    <path
        d="m4.342 89.838c-0.45992 0-0.83201 0.37681-0.83201 0.83126 0 0.46068 0.37213 0.83205 0.83201 0.83205 0.45992 0 0.83126-0.37152 0.83126-0.83205 0-0.45444-0.37133-0.83126-0.83126-0.83126" />
    <path
        d="m4.342 70.412c-0.45992 0-0.83201 0.37114-0.83201 0.83126 0 0.46068 0.37213 0.83201 0.83201 0.83201 0.45992 0 0.83126-0.37152 0.83126-0.83201 0-0.45992-0.37133-0.83126-0.83126-0.83126" />
    <path
        d="m4.342 84.282c-0.45992 0-0.83201 0.37152-0.83201 0.83126 0 0.45448 0.37213 0.83126 0.83201 0.83126 0.45992 0 0.83126-0.37681 0.83126-0.83126 0-0.45992-0.37133-0.83126-0.83126-0.83126" />
    <path
        d="m4.342 87.079c-0.45992 0-0.83201 0.37228-0.83201 0.83205 0 0.45989 0.37213 0.83126 0.83201 0.83126 0.45992 0 0.83126-0.37152 0.83126-0.83126 0-0.45992-0.37133-0.83205-0.83126-0.83205" />
    <path
        d="m3.7561 3.9307c-0.15617 0.15458-0.24472 0.36585-0.24472 0.58729 0 0.21656 0.088591 0.43275 0.24472 0.58812 0.15458 0.15534 0.37058 0.24378 0.58733 0.24378 0.2214 0 0.43815-0.08844 0.58733-0.24378 0.15537-0.15534 0.24393-0.37152 0.24393-0.58812 0-0.22148-0.088591-0.43267-0.24393-0.58729-0.30455-0.30992-0.86467-0.30992-1.1746 0" />
    <path
        d="m79.213 5.3669c0.46068 0 0.83126-0.37681 0.83126-0.83205 0-0.45989-0.37058-0.83046-0.83126-0.83046-0.45992 0-0.83126 0.37077-0.83126 0.83046 0 0.45528 0.37133 0.83205 0.83126 0.83205" />
    <path
        d="m73.669 5.3669c0.45448 0 0.83126-0.37681 0.83126-0.83205 0-0.45989-0.37678-0.83046-0.83126-0.83046-0.45992 0-0.83126 0.37077-0.83126 0.83046 0 0.45528 0.37133 0.83205 0.83126 0.83205" />
    <path
        d="m76.439 5.3669c0.45992 0 0.83126-0.37681 0.83126-0.83205 0-0.45989-0.37133-0.83046-0.83126-0.83046-0.46068 0-0.83201 0.37077-0.83201 0.83046 0 0.45528 0.37133 0.83205 0.83201 0.83205" />
    <path
        d="m70.891 5.3669c0.46068 0 0.83126-0.37681 0.83126-0.83205 0-0.45989-0.37058-0.83046-0.83126-0.83046-0.45992 0-0.83126 0.37077-0.83126 0.83046 0 0.45528 0.37133 0.83205 0.83126 0.83205" />
    <path
        d="m68.121 5.3669c0.45989 0 0.83126-0.37681 0.83126-0.83205 0-0.45989-0.37137-0.83046-0.83126-0.83046-0.45992 0-0.83201 0.37077-0.83201 0.83046 0 0.45528 0.37213 0.83205 0.83201 0.83205" />
    <path
        d="m65.35 5.3669c0.45989 0 0.83126-0.37681 0.83126-0.83205 0-0.45989-0.37133-0.83046-0.83126-0.83046s-0.83126 0.37077-0.83126 0.83046c0 0.45528 0.37133 0.83205 0.83126 0.83205" />
    <path
        d="m62.576 5.3669c0.45524 0 0.83201-0.37681 0.83201-0.83205 0-0.45989-0.37678-0.83046-0.83201-0.83046-0.45913 0-0.83126 0.37077-0.83126 0.83046 0 0.45528 0.37213 0.83205 0.83126 0.83205" />
    <path
        d="m81.984 5.3669c0.45992 0 0.83126-0.37681 0.83126-0.83205 0-0.45989-0.37133-0.83046-0.83126-0.83046-0.45524 0-0.83201 0.37077-0.83201 0.83046 0 0.45528 0.37678 0.83205 0.83201 0.83205" />
    <path
        d="m84.762 5.3669c0.45524 0 0.83201-0.37681 0.83201-0.83205 0-0.45989-0.37678-0.83046-0.83201-0.83046-0.45992 0-0.83126 0.37077-0.83126 0.83046 0 0.45528 0.37133 0.83205 0.83126 0.83205" />
    <path
        d="m29.298 5.3669c0.46068 0 0.83746-0.37681 0.83746-0.83205 0-0.45989-0.37678-0.83046-0.83746-0.83046-0.45448 0-0.82582 0.37077-0.82582 0.83046 0 0.45528 0.37133 0.83205 0.82582 0.83205" />
    <path
        d="m59.802 5.3669c0.45989 0 0.83126-0.37681 0.83126-0.83205 0-0.45989-0.37137-0.83046-0.83126-0.83046-0.45992 0-0.83201 0.37077-0.83201 0.83046 0 0.45528 0.37213 0.83205 0.83201 0.83205" />
    <path
        d="m32.072 5.3669c0.45992 0 0.83126-0.37681 0.83126-0.83205 0-0.45989-0.37133-0.83046-0.83126-0.83046s-0.83201 0.37077-0.83201 0.83046c0 0.45528 0.37213 0.83205 0.83201 0.83205" />
    <path
        d="m40.394 5.3669c0.45448 0 0.83126-0.37681 0.83126-0.83205 0-0.45989-0.37678-0.83046-0.83126-0.83046-0.45992 0-0.83201 0.37077-0.83201 0.83046 0 0.45528 0.37213 0.83205 0.83201 0.83205" />
    <path
        d="m37.616 5.3669c0.46068 0 0.83126-0.37681 0.83126-0.83205 0-0.45989-0.37058-0.83046-0.83126-0.83046-0.45448 0-0.83126 0.37077-0.83126 0.83046 0 0.45528 0.37678 0.83205 0.83126 0.83205" />
    <path
        d="m26.524 5.3669c0.45989 0 0.83126-0.37681 0.83126-0.83205 0-0.45989-0.37133-0.83046-0.83126-0.83046-0.45992 0-0.83201 0.37077-0.83201 0.83046 0 0.45528 0.37213 0.83205 0.83201 0.83205" />
    <path
        d="m34.846 5.3669c0.45989 0 0.83126-0.37681 0.83126-0.83205 0-0.45989-0.37133-0.83046-0.83126-0.83046-0.46068 0-0.83201 0.37077-0.83201 0.83046 0 0.45528 0.37133 0.83205 0.83201 0.83205" />
    <path
        d="m51.487 5.3669c0.45448 0 0.83201-0.37681 0.83201-0.83205 0-0.45989-0.37757-0.83046-0.83201-0.83046-0.45992 0-0.83126 0.37077-0.83126 0.83046 0 0.45528 0.37133 0.83205 0.83126 0.83205" />
    <path
        d="m43.165 5.3669c0.46068 0 0.83201-0.37681 0.83201-0.83205 0-0.45989-0.37133-0.83046-0.83201-0.83046-0.45989 0-0.83126 0.37077-0.83126 0.83046 0 0.45528 0.37133 0.83205 0.83126 0.83205" />
    <path
        d="m57.028 5.3669c0.45992 0 0.83046-0.37681 0.83046-0.83205 0-0.45989-0.37058-0.83046-0.83046-0.83046-0.46068 0-0.83201 0.37077-0.83201 0.83046 0 0.45528 0.37133 0.83205 0.83201 0.83205" />
    <path
        d="m54.257 5.3669c0.45992 0 0.83126-0.37681 0.83126-0.83205 0-0.45989-0.37133-0.83046-0.83126-0.83046-0.46068 0-0.83201 0.37077-0.83201 0.83046 0 0.45528 0.37133 0.83205 0.83201 0.83205" />
    <path
        d="m45.939 5.3669c0.45992 0 0.83126-0.37681 0.83126-0.83205 0-0.45989-0.37133-0.83046-0.83126-0.83046-0.45992 0-0.83201 0.37077-0.83201 0.83046 0 0.45528 0.37213 0.83205 0.83201 0.83205" />
    <path
        d="m48.709 5.3669c0.46068 0 0.83126-0.37681 0.83126-0.83205 0-0.45989-0.37058-0.83046-0.83126-0.83046-0.45913 0-0.83126 0.37077-0.83126 0.83046 0 0.45528 0.37213 0.83205 0.83126 0.83205" />
    <path
        d="m23.753 5.3669c0.45992 0 0.83126-0.37681 0.83126-0.83205 0-0.45989-0.37133-0.83046-0.83126-0.83046-0.45989 0-0.83201 0.37077-0.83201 0.83046 0 0.45528 0.37213 0.83205 0.83201 0.83205" />
    <path
        d="m20.983 5.3669c0.46068 0 0.83201-0.37681 0.83201-0.83205 0-0.45989-0.37133-0.83046-0.83201-0.83046-0.45913 0-0.83126 0.37077-0.83126 0.83046 0 0.45528 0.37213 0.83205 0.83126 0.83205" />
    <path
        d="m12.661 5.3669c0.45992 0 0.83126-0.37681 0.83126-0.83205 0-0.45989-0.37133-0.83046-0.83126-0.83046-0.46068 0-0.83201 0.37077-0.83201 0.83046 0 0.45528 0.37133 0.83205 0.83201 0.83205" />
    <path
        d="m15.435 5.3669c0.45989 0 0.83046-0.37681 0.83046-0.83205 0-0.45989-0.37058-0.83046-0.83046-0.83046-0.46068 0-0.83201 0.37077-0.83201 0.83046 0 0.45528 0.37133 0.83205 0.83201 0.83205" />
    <path
        d="m18.209 5.3669c0.45448 0 0.83126-0.37681 0.83126-0.83205 0-0.45989-0.37678-0.83046-0.83126-0.83046-0.45992 0-0.83201 0.37077-0.83201 0.83046 0 0.45528 0.37213 0.83205 0.83201 0.83205" />
    <path
        d="m7.1199 5.3669c0.45448 0 0.83126-0.37681 0.83126-0.83205 0-0.45989-0.37678-0.83046-0.83126-0.83046-0.46068 0-0.83201 0.37077-0.83201 0.83046 0 0.45528 0.37133 0.83205 0.83201 0.83205" />
    <path
        d="m9.8902 5.3669c0.46068 0 0.83126-0.37681 0.83126-0.83205 0-0.45989-0.37058-0.83046-0.83126-0.83046-0.45992 0-0.83126 0.37077-0.83126 0.83046 0 0.45528 0.37133 0.83205 0.83126 0.83205" />
    <path
        d="m84.501 13.795 4.8351-1.2578 1.5685 1.2531-1.5786 1.3518zm8.2487 0.60441c0.18799-0.16176 0.29522-0.39855 0.29053-0.64561-0.0045-0.24793-0.11886-0.48086-0.3123-0.63548l-2.6787-2.1403c-0.14993-0.11943-0.33327-0.18255-0.51896-0.18255-0.07071 0-0.14063 0.0076-0.20976 0.02646l-8.2222 2.1403c-0.36438 0.09487-0.61915 0.42183-0.62229 0.79785-0.0029 0.3753 0.24627 0.70695 0.60831 0.80794l8.2222 2.2941c0.26725 0.07294 0.55313 0.01134 0.76368-0.16932l2.6794-2.2941" />
    <path
        d="m97.064 14.513c0.14993-0.16176 0.23074-0.37606 0.2222-0.59667-0.0076-0.22072-0.10409-0.42958-0.26645-0.57951l-2.4876-2.3034c-0.16002-0.1474-0.36279-0.22148-0.5648-0.22148-0.22374 0-0.4467 0.08957-0.61061 0.26645-0.31154 0.33713-0.29132 0.86387 0.04584 1.1754l1.8754 1.7371-1.9197 2.0626c-0.31309 0.33562-0.29366 0.86157 0.04195 1.1747 0.33637 0.31294 0.86312 0.29366 1.1754-0.04195l2.4883-2.6732" />
    <path
        d="m97.491 12.246 1.8761 1.7371-1.9204 2.0626c-0.31309 0.33562-0.29366 0.86157 0.04271 1.1747 0.33637 0.31294 0.86233 0.29366 1.1754-0.04195l2.4875-2.6732c0.15073-0.16176 0.23074-0.37606 0.2222-0.59663-8e-3 -0.22072-0.10409-0.42961-0.2657-0.57954l-2.4883-2.3034c-0.16002-0.1474-0.36279-0.22148-0.5648-0.22148-0.22295 0-0.44594 0.08957-0.61061 0.26645-0.31154 0.33713-0.29132 0.86388 0.04584 1.1754" />
    <path
        d="m105.24 14.513c0.15073-0.16176 0.23074-0.37606 0.2222-0.59667-8e-3 -0.22072-0.10334-0.42958-0.2657-0.57951l-2.4883-2.3034c-0.16003-0.1474-0.36279-0.22148-0.56481-0.22148-0.22295 0-0.44594 0.08957-0.60985 0.26645-0.3123 0.33713-0.29212 0.86387 0.0451 1.1754l1.8761 1.7371-1.9197 2.0626c-0.31309 0.33562-0.29367 0.86157 0.0419 1.1747 0.33641 0.31294 0.86233 0.29366 1.1746-0.04195l2.4883-2.6732" />
    <path
        d="m109.33 14.513c0.15073-0.16176 0.23074-0.37606 0.2222-0.59667-8e-3 -0.22072-0.10409-0.42958-0.26646-0.57951l-2.4875-2.3034c-0.16003-0.1474-0.36279-0.22148-0.56481-0.22148-0.22374 0-0.44669 0.08957-0.61061 0.26645-0.31154 0.33713-0.29132 0.86387 0.0459 1.1754l1.8754 1.7371-1.9197 2.0626c-0.31309 0.33562-0.29367 0.86157 0.0419 1.1747 0.33638 0.31294 0.86233 0.29366 1.1754-0.04195l2.4883-2.6732" />
    <path
        d="m120 13.115h-6.8684l-2.249-2.082c-0.16002-0.1474-0.36279-0.22148-0.56481-0.22148-0.22374 0-0.44669 0.08957-0.61061 0.26721-0.31154 0.33637-0.29132 0.86308 0.0459 1.1738l1.8761 1.7379-1.9204 2.0626c-0.31309 0.33562-0.29366 0.86157 0.0419 1.1747 0.33638 0.31294 0.86157 0.29366 1.1754-0.04195l2.2413-2.4075h6.8325v-1.6633" />
</svg>