<?xml version="1.0" encoding="UTF-8"?>
<svg version="1.1" viewBox="0 0 120 120" xmlns="http://www.w3.org/2000/svg">
    <path
        d="m58.057 7.7018c2.4996 0.90522 5.043 0.91293 7.6534 1.1652 0.04229 0.00454 0.0531-0.068446 0.0098-0.075363-5.4122-0.90367-9.5738-3.6363-13.352-7.4932-1.3105-1.3374-3.1994 0.89524-1.6174 2.095 2.2635 1.7166 4.6185 3.3348 7.3065 4.3086" />
    <path
        d="m65.699 6.9988c0.0477 0.00831 0.0692-0.05998 0.02003-0.073851-1.7612-0.48914-3.3748-1.8097-4.6431-3.0726-0.59376-0.59145-1.149-1.2205-1.609-1.922-0.42916-0.65449-0.58219-1.0921-1.4297-1.2159-0.51529-0.075363-1.1813 0.12072-1.2867 0.73065-0.01474 0.083829-0.02948 0.16766-0.0438 0.25149-0.07691 0.44685-0.03919 0.98754 0.34533 1.3044 2.6126 2.1519 5.32 3.4048 8.6471 3.9979" />
    <path
        d="m64.175 5.0369c0.75064 0.64372 1.5289 1.1644 2.4081 1.5966 0.03326 0.017008 0.07298-0.017008 0.05231-0.052308-0.39454-0.6791-0.76833-1.4251-1.0852-2.1466-0.32764-0.74603-0.42916-1.4067-0.52682-2.1935-0.24457-1.9566-3.031-1.6136-2.6918 0.36457 0.16456 0.96135 1.1398 1.8274 1.8435 2.4311" />
    <path
        d="m80.911 9.3538c-5.5989 3.6509-11.993 5.5781-18.671 5.7474-0.0469 5.78e-4 -0.04539 0.06769 0 0.0723 6.8836 0.64912 13.668-0.72604 19.835-3.8271 1.3252-0.66602 0.0884-2.8103-1.1644-1.9927" />
    <path
        d="m61.061 16.446c4.5947 1.3552 8.9645 2.2719 13.791 1.9981 0.51684-0.0291 1.0675-0.35841 1.1852-0.90292 0.09078-0.42069 0.07151-0.56685-0.12382-0.94676-0.26766-0.51839-0.86599-0.65374-1.3882-0.5653-4.3577 0.74218-9.0609 1.1083-13.443 0.34223-0.04849-0.0076-0.0692 0.05998-0.02079 0.07461" />
    <path
        d="m60.188 17.585c2.2311 1.7828 5.0139 3.5932 7.9603 3.7301 1.229 0.05692 1.3498-1.6882 0.2784-2.0543-2.598-0.88753-5.512-1.0298-8.1678-1.7959-0.06538-0.01928-0.12843 0.07385-0.07079 0.11996" />
    <path
        d="m25.838 9.2068c-5.4077-0.14846-10.92-1.1644-15.26-4.6514-0.03779-0.029858-0.09075 0.020031-0.05461 0.054614 4.3146 4.1087 9.2544 7.3617 15.314 7.9864 2.135 0.21996 2.2127-3.3294 0-3.3894" />
    <path
        d="m24.87 5.0067c-4.8347-0.072301-9.6305-0.1861-14.095-2.3457-0.04384-0.021543-0.08073 0.039949-0.03848 0.066141 4.2738 2.6788 8.9498 5.0868 14.134 5.1647 1.8566 0.026834 1.8574-2.8572 0-2.8849" />
    <path
        d="m23.805 4.0047c2.538-0.85291 0.46378-4.5701-1.6143-2.7718-1.2298 1.0644-3.5971 0.94751-5.1367 0.95368-1.8074 0.00605-3.6363-0.13459-5.3922-0.57452-0.04845-0.012094-0.06538 0.056919-0.02003 0.073851 2.1635 0.83678 4.2814 1.6405 6.5767 2.052 1.7851 0.31993 3.8176 0.86138 5.5868 0.26687" />
    <path
        d="m27.902 29.561c-3.5217-1.7236-5.1469-5.069-6.7603-8.4192 3.3502 1.6136 6.695 3.2394 8.4184 6.7603 0.36839 0.75295 0.58219 1.579 0.75986 2.418-0.83908-0.17767-1.6651-0.39068-2.418-0.75911zm5.5751 2.8233c-0.12227-0.56375-0.25379-1.1129-0.43377-1.6628-0.53298-1.6336-1.2475-3.2171-2.255-4.6147-2.628-3.6432-6.529-4.6522-10.535-5.8537 1.2013 4.0062 2.2104 7.907 5.8537 10.535 1.3975 1.0083 2.981 1.722 4.6147 2.255 0.54912 0.17998 1.0983 0.31147 1.6628 0.43453 0.23229 0.05 1.136 0.31071 0.90522 0.18765 0.18153 0.09611 0.35916 0.14305 0.52913 0.15307-0.0102-0.16996-0.05692-0.34764-0.15307-0.52913 0.12227 0.23149-0.13765-0.67218-0.18844-0.90522" />
    <path
        d="m33.053 35.524c-2.0058-0.20534-3.5232 0.19918-5.2198-1.1306-0.2815-0.22152-0.58529-0.20995-0.80601-0.07461-0.1446 0.02457-0.28917 0.10076-0.41763 0.24306-1.2152 1.3382-3.1071 1.8128-4.5868 0.61987 0.82139-0.64527 1.4728-1.5105 1.8197-2.5696 0.0072-0.02079-0.02381-0.03213-0.03553-0.01474-1.3351 2.1619-3.5948 2.9418-5.7837 2.1027 0.53608-1.5097 0.61526-3.3787 0.66296-4.8869 0.06308-1.9835-0.1169-4.013-0.45531-5.9682-0.523-3.0249-1.5836-5.7951-2.8818-8.4955 2.7003 1.2975 5.4712 2.3581 8.4955 2.8818 1.955 0.33762 3.9855 0.51839 5.9689 0.45452 1.5074-0.0477 3.3763-0.12692 4.8869-0.66296 0.83908 2.1896 0.05922 4.4484-2.1027 5.7845-0.01852 0.01058-0.0072 0.04229 0.01474 0.03477 1.0583-0.34688 1.9243-0.99752 2.5696-1.8197 1.1929 1.4797 0.71757 3.3717-0.62066 4.5868-0.14226 0.12922-0.21766 0.27303-0.24226 0.41839-0.13538 0.22072-0.14691 0.52452 0.07385 0.80601 1.3298 1.6958 0.92601 3.2133 1.1306 5.2191 0.12382 1.2052 0.43146 2.3711 0.96059 3.4317-1.0598-0.52992-2.2265-0.83753-3.4309-0.96059zm3.5925-1.5644c-0.0477-0.98289 0.12843-1.9481 0.16611-2.9272 0.05-1.2829-0.11304-2.5588-0.88753-3.5463 1.5874-1.7036 1.1367-4.1861-0.68836-5.532 0.08689 0.05919 0.89214-1.6597 0.95292-1.8612 0.42069-1.3767 0.29994-2.8572-0.16535-4.2069-0.2138-0.61912-1.0406-1.1483-1.6689-0.67834-2.8826 2.1588-7.2762 2.355-10.709 1.9473-2.9879-0.35531-5.9882-1.206-8.8255-2.3342 1.129 2.8364 1.9797 5.8374 2.3342 8.8247 0.40762 3.4325 0.2115 7.8273-1.9473 10.71-0.46994 0.62758 0.05922 1.4551 0.6791 1.6682 1.3498 0.46529 2.8295 0.5868 4.2069 0.16611 0.20152-0.06149 1.9204-0.86599 1.8612-0.95292 1.3459 1.8243 3.8279 2.2758 5.5313 0.68756 0.9883 0.77449 2.2642 0.93754 3.5471 0.88753 0.97828-0.03779 1.9443-0.21305 2.9272-0.16535 1.2536 0.06081 2.388 0.44605 3.5417 0.85601-0.40917-1.1544-0.79448-2.2888-0.85601-3.5425" />
    <path
        d="m7.6017 7.6017c-0.38452 0.089989-0.76523 0.20073-1.149 0.29378-0.042254-0.41302 0.013228-0.83062 0.1923-1.2506 0.41914-0.17922 0.83678-0.23459 1.2506-0.19151-0.093844 0.38377-0.20383 0.76372-0.29378 1.1483zm-0.81448-3.5078c0.2592-0.51223-0.06153-1.2744-0.48838-1.5043 1.5997-0.50297 1.8658 2.488 1.7366 3.1641-0.60683 0.055369-1.1505 0.29763-1.6228 0.6599-0.36147 0.47145-0.60373 1.0152-0.6599 1.622-0.67603 0.12922-3.6671-0.13689-3.1641-1.7358 0.23074 0.42606 0.99291 0.74679 1.5043 0.48759 1.5836-0.8014 0.13228-2.7426-1.2067-2.7095-2.1281 0.051514-2.5234 2.5665-1.1483 3.8384 1.2513 1.1567 2.6442 1.189 4.0686 1.029 0.34072 1.6905 1.9281 2.7234 3.0556 3.9008 3.2256 3.3663 5.7112 7.5964 5.7837 12.37 0.07616 5.0052-2.4134 12.053-8.6837 10.366-2.3334-0.62834-4.3948-3.1517-2.3557-5.3661 0.91444-0.99291 2.7172-1.2836 3.5717-0.03477 0.49685 0.72679 0.55298 1.8851-0.43301 2.2189-0.4953 0.1669-1.6443 0.10843-1.1806-0.69217 0.54761-0.94676-0.91214-1.7959-1.4636-0.85522-1.1575 1.975 0.69142 3.5702 2.7103 3.3025 2.3373-0.30995 3.1041-3.0164 1.7251-4.7678-2.7457-3.4871-7.8054 0.2115-6.831 4.0078 1.1075 4.3109 7.5087 4.4847 10.46 2.2288 2.2304-1.7043 3.1241-5.0176 3.5002-7.664 0.39915-2.8118 0.01852-5.656-1.0406-8.2854-0.91369-2.2704-2.2819-4.3215-3.8879-6.1598-1.1229-1.2859-3.2794-2.9233-4.0323-4.6862 0.64912-0.090745 1.2998-0.17922 1.942-0.18228 0.0024-0.64141 0.091501-1.2928 0.18153-1.942 1.7628 0.75295 3.401 2.9103 4.6862 4.0331 1.8389 1.6051 3.8902 2.9733 6.1598 3.8872 2.6303 1.0598 5.4746 1.4398 8.2861 1.0406 2.6457-0.3761 5.9599-1.2698 7.6633-3.4994 2.2557-2.9526 2.0827-9.3538-2.2281-10.46-3.7961-0.97522-7.4947 4.0849-4.0085 6.8303 1.752 1.3798 4.4583 0.61296 4.7686-1.7243 0.26766-2.0196-1.3282-3.8687-3.3033-2.7103-0.9406 0.55067-0.0915 2.0112 0.85522 1.4628 0.8014-0.46378 0.85983 0.68526 0.69217 1.1806-0.3338 0.98599-1.4921 0.92983-2.2189 0.43301-1.249-0.85446-0.95753-2.6572 0.03553-3.5717 2.2134-2.0389 4.7376 0.022299 5.3653 2.3557 1.6874 6.2713-5.3604 8.7601-10.366 8.6845-4.7731-0.072301-9.0038-2.5588-12.369-5.7845-1.1775-1.1275-2.2111-2.7149-3.9008-3.0556 0.15999-1.4244 0.12767-2.8172-1.029-4.0678-1.2729-1.3759-3.787-0.97983-3.8392 1.1475-0.032126 1.3397 1.9081 2.7903 2.7103 1.2075" />
    <path
        d="m47.678 13.707c1.1321 0.28535 2.1719 0.4953 3.1894 1.1144 0.95522 0.58219 1.7989 1.3252 2.8157 1.8089 1.3428 0.63911 2.4919 0.68756 3.7961-0.01323 0.01625-0.0083 0.0098-0.03779-0.0091-0.03553-2.6949 0.30534-4.1177-1.509-6.0298-3.0056-1.0952-0.85756-2.3719-1.5667-3.7624-1.1213-0.58914 0.1892-0.64603 1.0891 0 1.2521" />
    <path
        d="m41.88 26.61c0.95598-0.88137 1.6113-1.9704 1.9843-3.1671 0.81523 1.5713 3.7478 2.3165 5.2006 1.9489 1.1036-1.1075 1.7243-2.2473 1.6212-3.8433-0.03213-0.49916-0.1192-0.99907-0.26381-1.4805 2.8187 0.71602 6.289-0.24302 7.0465-3.3717 0.0049-0.01852-0.01852-0.03213-0.03213-0.01852-2.2627 2.2373-4.8967 3.4832-7.8885 1.552-0.75986-0.49144-1.3613 0.58143-0.70986 1.2136 1.0337 1.0037 1.2244 4.0754 0.19381 5.916-1.4805-0.27072-3.9684-1.1144-4.8544-4.2255-0.2392-0.83908-1.3252-0.6153-1.309 0.58298-0.13304 1.3444-0.57372 2.6757-1.3828 3.7647-1.0552 1.4205-2.2627 1.6074-3.8433 1.5505 3.3764-1.3067 0.71296-6.608 2.9833-8.7586 0.74679-0.70756-0.4484-1.8866-1.1221-1.1221-2.6165 2.971 0.64988 7.1795-2.2588 9.8882-0.06459 0.07309-0.13228 0.20303-5.74e-4 0.31532 1.3467 1.1498 3.4548 0.34302 4.6363-0.74524" />
    <path
        d="m39.873 8.3455c0.40686 2.9641 2.8026 4.7754 5.7059 4.837-1.409 1.3267-3.0941 2.1258-5.0014 2.575 0.05768-0.7314-0.12843-1.4882-0.26917-2.1966-0.33841-1.7005-0.75295-3.4802-0.43532-5.2153zm-0.17537 7.8201c-0.09615 0.3084 0.20689 0.54375 0.48838 0.48838 2.6588-0.52066 4.9723-1.5828 6.7743-3.6486 0.22152-0.25379 0.10072-0.79524-0.30996-0.74909-3.314 0.37148-5.6061-1.3482-6.6613-4.4462 0.19381-0.71757 0.46299-1.3067 0.79524-1.7789-0.5176 1.4313 0.07922 3.274 1.3944 4.326 1.9066 1.5251 5.1469 1.479 5.6484-1.4067 0.423-2.4327-1.5766-5.2659-4.2024-3.8755-1.8358 0.97291-1.7328 4.001 0.58144 4.1748 0.91293 0.069202 1.8635-0.45376 1.9374-1.4359 0.06845-0.89906-0.69833-1.5051-1.4398-0.8491-0.36457 0.32379 0.17457 0.86217 0.53604 0.53604 0.20383 0.15768 0.22152 0.3284 0.05151 0.50993-0.06002 0.2561-0.22919 0.40992-0.50762 0.46223-0.27457 0.11149-0.62217 0.066897-0.88908-0.029858-1.0506-0.38071-1.0398-1.7259-0.31687-2.4234 0.69988-0.67524 2.0035-0.66371 2.7111-0.020031 0.62683 0.56911 0.80832 1.6336 0.76372 2.4373-0.11769 2.145-2.1535 2.5934-3.7878 1.7697-1.5097-0.76066-2.838-2.9349-2.2319-4.4968 2.0896-2.4288 6.1057-1.1867 8.9162 0.32458 3.2748 1.7597 6.2214 3.3463 9.886 4.2375 3.2656 0.79369 6.9935 1.6767 10.287 0.55222 2.3604-0.80601 4.244-2.788 4.3608-5.3616 0.0977-2.135-1.239-4.2769-3.4332-4.6684-1.9651-0.3507-4.4106 0.63911-4.8884 2.7503-0.53298 2.3596 1.5536 4.0992 3.7455 3.8331 2.0473-0.24842 3.88-2.1027 2.4665-4.1045-1.449-2.0512-4.4394-0.46223-3.6732 1.8512 0.22533 0.67834 1.2967 0.39303 1.0783-0.29763-0.43918-1.3836 2.8772-0.88678 1.5497 0.67683-0.34533 0.40607-1.0668 0.62528-1.579 0.71141-2.5011 0.42069-3.5755-2.7357-1.3721-4.0633 2.9264-1.762 5.8612 1.2167 5.063 4.2409-0.95292 3.6071-5.0792 4.2716-8.2555 3.9938-3.5801-0.31302-7.5234-1.2567-10.754-2.8311-3.5048-1.7066-8.3099-5.8291-12.436-3.6009-1.9843 1.0714-2.9718 3.251-3.0402 5.4315-0.03779 1.1806 0.17227 2.3588 0.40146 3.5125 0.20152 1.0168 0.66296 2.2419 0.34223 3.2671" />
    <path
        d="m89.517 3.3325c-6.591 1.7612-11.714 6.6912-18.155 8.796-7.0933 2.3181-15.589 1.1998-21.825-2.9418-0.02154-0.013228-0.03999 0.020031-0.02003 0.034015 3.7901 2.648 7.7585 4.2924 12.4 4.6745 4.6336 0.38226 9.1777-0.55067 13.359-2.5557 5.0452-2.4188 9.5738-6.0857 15.127-7.3303 2.6095-0.5845 7.2963-1.0521 8.5976 2.0104 0.8037 1.8905-0.18074 4.476-2.2096 5.0146-2.5257 0.66912-3.3209-1.7181-3.1094-2.3765 0.34609-2.0266 3.1979-1.459 2.0089 0.34533-0.48763 0.42992 0.22994 1.1459 0.71447 0.71451 1.0952-0.97828 0.95061-2.8564-0.55838-3.3294-1.6235-0.50838-3.0441 0.96369-3.1763 2.5042-0.15307 1.7812 1.3459 3.1041 3.0395 3.2448 2.0312 0.16921 3.7347-1.412 4.2776-3.2848 1.8535-6.3949-6.4973-6.5812-10.471-5.5199" />
    <path
        d="m74.437 1.0906c1.6143 0.39839 3.0172 1.6943 3.2879 3.3432 0.10307 0.62834 0.63064 0.49761 0.67603 0.38301 1.4221-3.5771 8.5099-3.1733 9.943-2.5996-2.4496-0.1192-9.9876 3.2056-11.935 5.1522 0.36687-2.3227-0.17076-4.4299-1.972-6.2788zm0.55298 7.6995c-0.22076 0.58143 0.66987 0.88217 0.95674 0.39299 0.70294-1.1883 9.333-6.6213 12.952-6.6628 0.13995-0.0017 0.15382-0.17076 0.03401-0.24763-1.2736-0.81678-3.9877-1.3006-5.8011-1.1067-1.2644 0.13538-3.8199 0.81599-4.7746 2.1504-0.79985-1.4344-2.2458-2.3588-3.9669-2.3488-0.03779 0-0.05461 0.036283-0.04921 0.066897-0.01361 0.010205-0.0223 0.02759-0.01058 0.046147 1.5851 2.418 1.6728 5.0422 0.6599 7.7094" />
    <path
        d="m8.7914 65.718c0.00718 0.0432 0.079218 0.03213 0.075363-0.01096-0.25304-2.6095-0.25995-5.1529-1.1652-7.6527-0.97367-2.688-2.5926-5.0437-4.3086-7.3065-1.1998-1.582-3.4332 0.3061-2.095 1.6166 3.857 3.7794 6.5888 7.9403 7.4932 13.353" />
    <path
        d="m1.9296 59.466c0.7014 0.45996 1.3313 1.0152 1.922 1.609 1.2636 1.269 2.5842 2.8818 3.0733 4.6438 0.013228 0.04841 0.082279 0.02683 0.073851-0.02192-0.59376-3.3263-1.8458-6.0343-3.9987-8.6471-0.31687-0.38456-0.85677-0.42145-1.3036-0.34454-0.083829 0.01512-0.16845 0.0291-0.25224 0.0432-0.60989 0.1053-0.80526 0.77218-0.73065 1.2867 0.12382 0.84755 0.5622 1.0006 1.2159 1.4297" />
    <path
        d="m4.4345 65.551c0.72063 0.31687 1.4667 0.68987 2.1466 1.0852 0.034771 0.01965 0.068446-0.01965 0.052308-0.05299-0.43222-0.87907-0.95292-1.6566-1.5966-2.408-0.60373-0.70374-1.4698-1.6782-2.4311-1.8435-1.9781-0.33838-2.3211 2.4473-0.36457 2.6918 0.78677 0.09849 1.4467 0.19925 2.1935 0.52762" />
    <path
        d="m11.346 82.075c3.1018-6.1681 4.476-12.952 3.8271-19.836-0.0042-0.04539-0.07075-0.0469-0.07151 0-0.16921 6.6772-2.0966 13.072-5.7482 18.671-0.81678 1.2529 1.3267 2.4895 1.9927 1.1652" />
    <path
        d="m16.594 75.915c0.37995 0.19615 0.52686 0.21467 0.94751 0.12397 0.54375-0.11754 0.87291-0.66757 0.90216-1.1852 0.27458-4.8253-0.64221-9.1962-1.9973-13.791-0.01474-0.04781-0.08307-0.02683-0.07461 0.02192 0.76602 4.3823 0.39994 9.0862-0.34223 13.443-0.0892 0.52221 0.0469 1.1206 0.5645 1.3882" />
    <path
        d="m17.585 60.188c-0.04615-0.05839-0.1392 0.0042-0.12075 0.07 0.76678 2.6564 0.90908 5.5698 1.7966 8.1678 0.36608 1.0721 2.1104 0.95061 2.0535-0.27843-0.13614-2.9464-1.9473-5.7282-3.7294-7.9592" />
    <path
        d="m12.595 25.838c-0.62452-6.0596-3.8777-11-7.9857-15.314-0.035527-0.03704-0.084623 0.01625-0.054613 0.05382 3.4863 4.34 4.5032 9.8527 4.6506 15.26 0.060774 2.2127 3.6094 2.135 3.3894 0" />
    <path
        d="m2.6611 10.776c2.1596 4.4647 2.2734 9.2601 2.345 14.094 0.02759 1.8581 2.9126 1.8574 2.8849 0-0.076912-5.1828-2.4857-9.8591-5.1639-14.134-0.026834-0.04225-0.087684-0.0053-0.066141 0.03923" />
    <path
        d="m4.0047 23.805c0.59451-1.7689 0.053064-3.8018-0.26687-5.5868-0.41147-2.295-1.2152-4.4122-2.052-6.5767-0.017764-0.04539-0.086134-0.02835-0.073851 0.02079 0.43993 1.7551 0.58068 3.584 0.57376 5.3914-0.00529 1.5405 0.11074 3.9076-0.95368 5.1374-1.7982 2.0781 1.9197 4.1525 2.7726 1.6136" />
    <path
        d="m3.7647 3.7647c0.35531-0.51144 0.1869-1.3382-0.1615-1.8112-0.56144-0.76217-1.5928-1.2398-2.5319-1.206-0.09615 0.0041574-0.18383 0.025322-0.26226 0.06153-0.036283 0.079218-0.058431 0.1669-0.06153 0.26226-0.034771 0.93905 0.44299 1.9704 1.206 2.5326 0.473 0.34764 1.299 0.51605 1.8112 0.16074" />
    <path
        d="m14.821 50.868c-0.61991-1.0175-0.82907-2.0573-1.1144-3.1895-0.16305-0.64527-1.0637-0.58914-1.2521 0-0.44605 1.3905 0.26381 2.668 1.1206 3.7624 1.4974 1.912 3.311 3.3356 3.0056 6.0298-0.0017 0.01965 0.02759 0.02608 0.03628 0.01096 0.70064-1.3044 0.65143-2.4542 0.01209-3.7969-0.48377-1.016-1.2267-1.8597-1.8081-2.8157" />
    <path
        d="m27.354 37.243c-0.11153-0.13073-0.24226-0.0638-0.31532 2e-3 -2.708 2.9087-6.9164-0.35841-9.8882 2.2588-0.76372 0.67297 0.41533 1.8682 1.1221 1.1213 2.1512-2.2704 7.4524 0.39299 8.7593-2.9833 0.05612 1.5805-0.12998 2.788-1.5505 3.8433-1.0898 0.80987-2.4211 1.2498-3.7647 1.3828-1.1982-0.01512-1.4221 1.0706-0.58374 1.3098 3.1118 0.88598 3.9548 3.3733 4.2262 4.8536-1.8405 1.0306-4.9129 0.83984-5.916-0.19294-0.63219-0.65143-1.7051-0.0508-1.2144 0.70986 1.932 2.9918 0.68605 5.6261-1.5512 7.8885-0.01474 0.01323 0 0.03666 0.01852 0.03213 3.1287-0.75835 4.0879-4.2277 3.371-7.0472 0.48222 0.14453 0.98138 0.23229 1.4813 0.26381 1.5951 0.1031 2.7357-0.5176 3.8426-1.6205 0.36838-1.4536-0.37685-4.3861-1.9481-5.2006 1.1959-0.37303 2.2858-1.0283 3.1664-1.985 1.089-1.1814 1.8958-3.2887 0.74524-4.6363" />
    <path
        d="m13.561 40.308c0.70756 0.1415 1.4651 0.32764 2.1966 0.26997-0.44991 1.9074-1.2482 3.5925-2.5749 5.0006-0.06153-2.9034-1.8728-5.2984-4.837-5.7051 1.7351-0.31763 3.514 0.09619 5.2153 0.43453zm-12.766 30.741c0.39148 2.1942 2.5334 3.5317 4.6677 3.434 2.5734-0.11754 4.5562-2.0012 5.3612-4.3608 1.1244-3.294 0.24151-7.0219-0.55222-10.287-0.89139-3.6655-2.4773-6.6111-4.2375-9.886-1.5105-2.8103-2.7534-6.8265-0.32379-8.9169 1.562-0.60528 3.7363 0.72218 4.4968 2.2327 0.8237 1.6343 0.37534 3.6693-1.7697 3.7878-0.80371 0.0438-1.8681-0.13757-2.4373-0.76368-0.64372-0.70759-0.65529-2.012 0.019275-2.7111 0.69758-0.72294 2.0435-0.73371 2.4234 0.31612 0.096906 0.26687 0.1415 0.6145 0.029858 0.88984-0.051514 0.27764-0.20534 0.44685-0.46147 0.50758-0.18228 0.16917-0.35225 0.15239-0.51068-0.05231 0.32689-0.36147-0.21229-0.89986-0.53529-0.53529-0.6568 0.74063-0.050758 1.5074 0.8491 1.4398 0.98138-0.07461 1.5043-1.0244 1.4359-1.9374-0.17457-2.3142-3.2017-2.4173-4.1748-0.58143-1.3905 2.6249 1.4421 4.6253 3.8747 4.2024 2.8864-0.50221 2.9326-3.7424 1.4074-5.6484-1.0521-1.3152-2.8949-1.9128-4.3271-1.3944 0.473-0.33301 1.0621-0.60222 1.7789-0.796 3.0979 1.056 4.8177 3.3471 4.4469 6.6613-0.04615 0.41068 0.49454 0.53143 0.74834 0.30996 2.0665-1.802 3.1287-4.1155 3.6493-6.7736 0.05461-0.28225-0.18074-0.58529-0.48914-0.48914-1.0244 0.32073-2.2504-0.13999-3.2671-0.34227-1.1529-0.22919-2.3311-0.43918-3.5125-0.40146-2.1796 0.0692-4.3592 1.0567-5.4315 3.041-2.2273 4.1253 1.8951 8.9309 3.6017 12.435 1.5736 3.231 2.5172 7.175 2.8311 10.755 0.27764 3.1763-0.38687 7.3019-3.9938 8.2548-3.0249 0.79909-6.0037-2.1358-4.2409-5.0622 1.3275-2.2042 4.484-1.1298 4.0622 1.3721-0.086134 0.51144-0.30455 1.2329-0.71141 1.579-1.5628 1.3275-2.0604-1.9889-0.67603-1.5505 0.68987 0.21917 0.97597-0.85291 0.29763-1.0775-2.3135-0.76682-3.9023 2.2242-1.852 3.6724 2.002 1.4144 3.857-0.41914 4.1053-2.4665 0.26536-2.1919-1.4744-4.2776-3.8331-3.7447-2.1119 0.47686-3.101 2.9233-2.7503 4.8876" />
    <path
        d="m3.3325 89.517c-1.0614 3.9737-0.87525 12.325 5.5199 10.471 1.872-0.543 3.4532-2.2466 3.2848-4.2769-0.14075-1.6935-1.4636-3.1933-3.2456-3.0402-1.5405 0.13304-3.0125 1.5528-2.5034 3.1763 0.473 1.509 2.3511 1.6544 3.3287 0.55838 0.43222-0.48453-0.2838-1.2021-0.71372-0.71372-1.8043 1.189-2.3719-1.6636-0.34533-2.0097 0.65759-0.2109 3.0456 0.58374 2.3757 3.1094-0.53759 2.0297-3.1233 3.0133-5.0139 2.2104-3.0625-1.3021-2.5957-5.9882-2.0112-8.5976 1.2444-5.5543 4.9122-10.082 7.331-15.127 2.0043-4.1809 2.9379-8.7245 2.5557-13.359-0.38301-4.6408-2.0266-8.6093-4.6752-12.399-0.013984-0.01965-0.046903-2e-3 -0.032881 0.01965 4.1408 6.2373 5.2599 14.733 2.941 21.826-2.1043 6.4402-7.0351 11.563-8.7952 18.154" />
    <path
        d="m2.2165 88.345c-0.57297-1.432-0.97677-8.5208 2.6003-9.943 0.11384-0.044598 0.24457-0.57297-0.38377-0.67604-1.6489-0.26985-2.9441-1.6736-3.3432-3.2871 1.8497 1.8012 3.9571 2.338 6.2796 1.9719-1.9473 1.9473-5.2712 9.4846-5.1529 11.934zm6.5729-13.353c-2.6665 1.0121-5.2913 0.92446-7.7094-0.65986-0.017763-0.01134-0.036283-0.0038-0.046147 0.01134-0.030614-0.0076-0.066141 0.01134-0.066141 0.04913-0.010582 1.7205 0.91369 3.1664 2.3488 3.9662-1.3344 0.95447-2.015 3.5102-2.1504 4.7754-0.19457 1.8135 0.28996 4.5278 1.106 5.8007 0.077668 0.12094 0.24612 0.1062 0.24767-0.03402 0.042254-3.6194 5.4746-12.249 6.6636-12.951 0.48914-0.28762 0.18844-1.1775-0.39378-0.95674" />
    <path d="m0 0v116.57h1.0221v-115.55h118.98v-1.0229h-120" />
    <path
        d="m31.091 45.048c0 0.98674-0.79985 1.7874-1.7874 1.7874-0.98674 0-1.7866-0.80064-1.7866-1.7874 0-0.98675 0.79985-1.7866 1.7866-1.7866 0.9875 0 1.7874 0.79989 1.7874 1.7866" />
    <path
        d="m43.819 40.599c0 0.98675-0.79985 1.7866-1.7866 1.7866-0.9875 0-1.7874-0.79985-1.7874-1.7866 0-0.98674 0.79985-1.7866 1.7874-1.7866 0.98674 0 1.7866 0.79985 1.7866 1.7866" />
    <path
        d="m46.835 28.896c0 0.98674-0.80064 1.7866-1.7874 1.7866s-1.7866-0.79985-1.7866-1.7866c0-0.98754 0.79985-1.7874 1.7866-1.7874 0.98674 0 1.7874 0.79985 1.7874 1.7874" />
    <path
        d="m46.616 35.068c0 0.98754-0.79985 1.7874-1.7866 1.7874-0.98674 0-1.7866-0.79985-1.7866-1.7874 0-0.98674 0.79985-1.7866 1.7866-1.7866 0.98675 0 1.7866 0.79985 1.7866 1.7866" />
    <path
        d="m38.271 44.175c0 0.98678-0.79985 1.7866-1.7866 1.7866-0.98674 0-1.7874-0.79985-1.7874-1.7866 0-0.9875 0.80064-1.7874 1.7874-1.7874 0.98675 0 1.7866 0.79985 1.7866 1.7874" />
</svg>