<?xml version="1.0" encoding="UTF-8" standalone="no"?>
<!-- Created with Inkscape (http://www.inkscape.org/) -->

<svg
    version="1.1"
    viewBox="0 0 120 120"
    xmlns="http://www.w3.org/2000/svg"
    xmlns:svg="http://www.w3.org/2000/svg">
    <defs>
        <path
            d="M 120.00415,0.74219 C 120.00415,0.32936 119.67042,0 119.26,0 H 0 v 119.26 c 0,0.40904 0.33147,0.74414 0.74415,0.74414 0.40902,0 0.74022,-0.33509 0.74022,-0.74414 v -17.791 c 0.10129,0.18754 0.22073,0.36768 0.35755,0.53711 l 0.0506,0.0664 c 0.49085,0.64702 1.3462,1.3493 2.2832,1.8848 1.4143,0.79358 1.9086,1.796 2.0801,2.4258 v 0.27345 c -0.15081,-0.28721 -0.40332,-0.51754 -0.71876,-0.63086 -0.52433,-0.18592 -1.0919,-0.034 -1.5196,0.41211 -0.30122,0.30864 -0.45906,0.73977 -0.42187,1.1562 0.0854,0.95937 0.93714,1.6777 1.8965,1.5996 0.53912,-0.0398 1.0256,-0.28536 1.3828,-0.68555 0.35716,0.40081 0.84741,0.64571 1.3848,0.68555 0.96159,0.0781 1.8124,-0.64024 1.8964,-1.5996 0.0378,-0.40532 -0.12018,-0.84761 -0.4199,-1.1562 -0.42951,-0.44622 -0.9967,-0.59804 -1.5195,-0.41211 -0.31408,0.11229 -0.56727,0.33944 -0.71876,0.62305 v -0.26952 c 0.17311,-0.63191 0.66751,-1.6311 2.0801,-2.4219 0.93706,-0.53546 1.7888,-1.2374 2.2715,-1.877 l 0.0624,-0.0742 c 0.75038,-0.93335 0.97636,-2.175 0.60155,-3.3203 -0.3583,-1.1007 -1.1918,-1.8976 -2.2832,-2.1914 -0.0835,-0.0261 -0.16781,-0.0439 -0.25398,-0.0625 C 9.16196,96.27576 8.2977,96.48383 7.6072,97.0081 7.569,97.0372 7.5343,97.068 7.49797,97.0979 v -65.523 c 0.28271,-0.0125 0.57487,-0.0151 0.88671,0 h 0.002 c 1.3015,0.0483 2.6111,-0.0714 3.7051,-0.32422 0.38151,-0.0892 0.7361,-0.1976 1.0566,-0.32031 l 0.1561,-0.0527 c 1.1696,-0.41176 2.1479,-1.1855 2.8184,-2.1875 3.2685,-0.0728 6.3913,-1.3794 8.7109,-3.6641 2.3241,-2.2891 3.6588,-5.3824 3.7324,-8.6191 1.3882,-0.6082 2.4827,-1.7474 3.0235,-3.1914 l 0.0586,-0.15234 c 0.1285,-0.31987 0.24075,-0.67349 0.33788,-1.0527 0.27742,-1.0896 0.42271,-2.3938 0.40041,-3.6953 v -0.004 c -0.004,-0.18031 -7.6e-4,-0.3511 0.004,-0.52149 h 62.674 c -0.50279,0.68114 -0.70133,1.5295 -0.54493,2.3281 0.0151,0.0854 0.0378,0.17213 0.0586,0.2539 0.29443,1.0932 1.0926,1.9262 2.1914,2.2832 0.36435,0.11895 0.73863,0.17773 1.1094,0.17773 0.79464,0 1.5743,-0.26809 2.2109,-0.78125 l 0.0665,-0.0527 c 0.64643,-0.49081 1.3522,-1.3442 1.8884,-2.2812 0.63039,-1.1246 1.3914,-1.6664 1.9941,-1.9277 h 0.4707 c -0.17726,0.14752 -0.31748,0.34146 -0.39843,0.5664 -0.18709,0.52439 -0.034,1.0919 0.41211,1.5195 0.30917,0.30109 0.74098,0.45726 1.1582,0.41993 0.95751,-0.0854 1.6751,-0.93512 1.5996,-1.8945 -0.0151,-0.21292 -0.0661,-0.41907 -0.14249,-0.61132 h 0.49217 c 0.23736,0.52381 0.71766,0.908 1.3379,1.0312 0.22904,0.0447 0.46439,0.0664 0.70311,0.0664 1.9608,0 4.1098,-1.3685 4.2109,-1.4316 0.15042,-0.0966 0.24227,-0.26487 0.24227,-0.44336 0,-0.17852 -0.0918,-0.3448 -0.24227,-0.4414 -0.11339,-0.0745 -2.806,-1.7855 -4.914,-1.3652 -0.64554,0.12838 -1.1372,0.54085 -1.3633,1.0977 h -0.49414 c 0.0915,-0.20958 0.15156,-0.43436 0.17008,-0.66992 0.0756,-0.95942 -0.6421,-1.8109 -1.5996,-1.8965 -0.40532,-0.0372 -0.84847,0.11865 -1.1582,0.41992 -0.44511,0.42763 -0.59917,0.99729 -0.41212,1.5215 0.0922,0.25718 0.26192,0.47193 0.47656,0.625 h -0.40429 c -0.6226,-0.23501 -1.4578,-0.7692 -2.1406,-1.9863 -0.53473,-0.94082 -1.2411,-1.792 -1.877,-2.2754 l -0.0763,-0.0605 C 99.83733,1.77813 99.56104,1.61606 99.27145,1.49114 h 19.984 c 0.41053,0 0.74415,-0.33511 0.74415,-0.74414 z m -7.4805,6.2656 c -0.92923,0.46102 -2.3154,0.98187 -3.3476,0.77735 -0.2555,-0.0513 -0.42164,-0.17869 -0.52343,-0.33399 0.0805,-0.11876 0.13871,-0.2531 0.13871,-0.4082 0,-0.16824 -0.0673,-0.31645 -0.16214,-0.44141 0.0987,-0.17132 0.27175,-0.31584 0.5469,-0.37109 1.0932,-0.21571 2.4879,0.34592 3.3476,0.77734 z m -6.2851,-1.5332 c 5.3e-4,0.024 -7e-5,0.0479 -0.002,0.0723 -0.0227,0.27148 -0.14854,0.52069 -0.35528,0.69921 -0.0227,0.0189 -0.0465,0.0357 -0.0703,0.0527 h -0.076 c 0.0442,-0.0703 0.0748,-0.1515 0.082,-0.23828 0.0227,-0.29008 -0.19464,-0.54222 -0.48435,-0.56445 -0.1028,-0.0112 -0.19086,-0.0793 -0.22677,-0.17969 -0.045,-0.12275 0.008,-0.27066 0.15232,-0.4082 0.085,-0.0818 0.19842,-0.13086 0.30463,-0.13086 l 0.0302,0.004 c 0.36133,0.0315 0.63659,0.33394 0.64456,0.69336 z m 0,3.0762 c -0.008,0.35942 -0.28308,0.66206 -0.64456,0.69336 -0.12359,0.0112 -0.24302,-0.0378 -0.336,-0.12695 -0.14324,-0.13755 -0.19729,-0.28546 -0.15231,-0.40821 0.034,-0.10036 0.12397,-0.16849 0.22677,-0.17968 0.28951,-0.0222 0.5074,-0.27437 0.48435,-0.56446 -0.004,-0.0632 -0.0227,-0.12436 -0.0488,-0.17968 h 0.11906 c 0.20296,0.17812 0.32806,0.4227 0.3496,0.6914 0.002,0.0244 0.003,0.0503 0.002,0.0742 z m -3.9727,-2.252 h -2.6953 c 0.14816,-0.24836 0.2555,-0.52455 0.31257,-0.81836 0.10923,-0.56518 -0.034,-1.1648 -0.38865,-1.6406 -0.52691,-0.70667 -1.2888,-1.0225 -2.041,-0.85157 -0.69835,0.15994 -1.2373,0.71927 -1.3731,1.4258 -0.16252,0.84042 0.38767,1.6567 1.2266,1.8203 0.28309,0.0558 0.56141,-0.12973 0.6172,-0.41602 0.0556,-0.28633 -0.13115,-0.56141 -0.41601,-0.61719 -0.27099,-0.052 -0.44931,-0.3167 -0.39647,-0.59179 0.0571,-0.29748 0.28384,-0.53069 0.57615,-0.59766 0.34129,-0.0744 0.68919,0.0889 0.96291,0.45703 0.17952,0.24171 0.25209,0.53527 0.19918,0.81055 -0.0854,0.44054 -0.36133,0.81101 -0.74026,1.0195 h -1.4277 C 96.41174,6.15794 96.15734,5.93813 95.93393,5.64448 95.58508,5.18725 95.45125,4.64318 95.55499,4.11518 c 0.0113,-0.0594 0.0265,-0.12222 0.0431,-0.18164 0.19994,-0.74371 0.7471,-1.3131 1.502,-1.5586 0.80583,-0.26409 1.6793,-0.10446 2.3359,0.41992 l 0.09,0.0703 c 0.53174,0.40543 1.1462,1.158 1.6055,1.9648 0.34961,0.62262 0.73977,1.0999 1.1348,1.4688 z m -0.0684,1.4863 c -0.37077,0.36064 -0.73512,0.81941 -1.0645,1.4062 -0.46073,0.81067 -1.0755,1.5618 -1.6191,1.9746 l -0.0782,0.0625 c -0.65556,0.5242 -1.529,0.68387 -2.3359,0.41993 -0.75485,-0.24546 -1.3031,-0.81294 -1.5039,-1.5566 -0.0151,-0.0594 -0.0302,-0.12042 -0.0412,-0.1836 -0.10394,-0.52803 0.0302,-1.0699 0.37894,-1.5273 0.19426,-0.25548 0.41321,-0.45529 0.64452,-0.59571 h 0.77148 c -0.0151,0.002 -0.0302,10e-4 -0.0431,0.004 -0.8389,0.16355 -1.3906,0.98181 -1.2285,1.8223 0.13607,0.70652 0.67665,1.2641 1.375,1.4238 0.75187,0.17492 1.5141,-0.14505 2.041,-0.85156 0.35566,-0.47601 0.498,-1.0735 0.38865,-1.6387 -0.0525,-0.27109 -0.14853,-0.52674 -0.2793,-0.75976 z m -3.3301,1.168 c -0.008,0.21003 -0.082,0.42223 -0.21695,0.60351 -0.27401,0.36806 -0.62491,0.53155 -0.96291,0.45703 C 97.39496,9.94683 97.16898,9.71151 97.11134,9.41402 97.05914,9.13889 97.23682,8.8762 97.50781,8.82418 97.79279,8.76838 97.97923,8.49133 97.92383,8.20504 97.87843,7.97243 97.68496,7.8094 97.46287,7.78512 h 0.74612 c 0.32769,0.21568 0.563,0.55991 0.64063,0.96093 0.0113,0.0688 0.0189,0.13702 0.0189,0.20704 z m -2.3867,-7.4668 c -0.94677,0.40184 -1.6312,1.1788 -1.8984,2.1719 -0.0227,0.0818 -0.042,0.16639 -0.0586,0.25196 -0.15949,0.81428 0.0491,1.6812 0.57423,2.3691 0.004,0.007 0.0113,0.0129 0.0151,0.0195 h -62.555 c 0.0265,-0.12637 0.0518,-0.25397 0.082,-0.37305 0.64218,-2.5138 2.2845,-3.4316 2.3496,-3.4688 h 0.004 l 0.004,-0.004 0.0507,-0.0332 0.008,-0.004 c 0.41238,-0.29008 0.91196,-0.40197 1.4121,-0.31641 0.0503,0.011 0.099,0.0184 0.14665,0.0332 0.43767,0.11155 0.81653,0.3724 1.082,0.74804 0.24302,0.34207 0.30652,0.76348 0.20901,1.1465 -0.0779,0.30491 -0.25701,0.57827 -0.52732,0.77539 -0.19805,0.141 -0.48257,0.19727 -0.75198,0.13476 h -0.002 l -0.0302,-0.008 C 36.38818,4.87718 36.22755,4.79115 36.11409,4.687 36.00108,4.57923 35.93305,4.46115 35.90508,4.31981 c -0.0189,-0.0968 -0.0151,-0.19385 0.008,-0.28321 0.0378,-0.14874 0.12548,-0.27801 0.25209,-0.36719 0.13418,-0.093 0.22262,-0.23016 0.25966,-0.3789 0.0465,-0.18232 0.0151,-0.3833 -0.0994,-0.54688 -0.0937,-0.1339 -0.23093,-0.22438 -0.3789,-0.26171 -0.18066,-0.0482 -0.38143,-0.0138 -0.5469,0.10156 h -0.002 c -0.39008,0.2751 -0.65968,0.67698 -0.77344,1.127 -0.0711,0.27513 -0.0824,0.57125 -0.0265,0.86133 0.15534,0.81428 0.79782,1.4288 1.668,1.6445 l 0.0469,0.0137 h 0.004 c 0.63738,0.14889 1.3169,0.0242 1.8379,-0.34765 0.53359,-0.38305 0.88577,-0.93043 1.0371,-1.5254 0.19011,-0.7475 0.0654,-1.5691 -0.41015,-2.2422 C 38.61476,1.87788 38.42011,1.66664 38.20332,1.48585 Z m -62.434,0 c -0.63208,0.43684 -2.0731,1.6636 -2.6973,4.1094 -0.0571,0.22392 -0.10469,0.45958 -0.14664,0.70313 h -9.3262 c 0.10771,-0.73351 0.034,-1.5155 -0.21884,-2.2949 -0.0847,-0.26409 -0.18898,-0.52501 -0.31446,-0.78516 -0.32806,-0.68185 -0.79336,-1.2698 -1.3516,-1.7324 z m -2.9844,6.2988 c -0.004,0.17987 -0.008,0.36203 -0.002,0.55078 0.0227,1.1713 -0.11377,2.3829 -0.36133,3.3496 -0.0831,0.32726 -0.1799,0.63033 -0.28535,0.89062 l -0.002,0.002 -0.0624,0.16797 c -0.51352,1.3683 -1.6803,2.3795 -3.1231,2.7031 -0.65556,0.14874 -1.3007,0.13886 -1.9024,-0.0137 -0.64777,-0.16354 -1.2453,-0.49913 -1.748,-0.98633 -0.0775,-0.0742 -0.1508,-0.15257 -0.22262,-0.23438 -0.63288,-0.70651 -0.91876,-1.6469 -0.80273,-2.6621 0.0265,-0.21935 0.0627,-0.43179 0.11339,-0.6289 0.29291,-1.1379 0.96593,-1.904 1.916,-2.2051 0.48117,-0.15254 0.98513,-0.15997 1.457,-0.041 0.50683,0.13015 0.97572,0.40527 1.3379,0.81446 0.34318,0.38668 0.51224,0.92659 0.45309,1.4844 -0.0151,0.13755 -0.0382,0.27208 -0.0703,0.39844 -0.16932,0.65074 -0.54032,1.0693 -1.0605,1.2402 -0.26646,0.0857 -0.5472,0.0904 -0.8086,0.0234 -0.27893,-0.0706 -0.53665,-0.22416 -0.73632,-0.44727 -0.24,-0.27149 -0.31333,-0.6316 -0.23056,-0.95508 0.0491,-0.19332 0.1527,-0.37064 0.31257,-0.51562 0.10243,-0.0893 0.17008,-0.20929 0.20107,-0.33203 0.0529,-0.20452 0.004,-0.43435 -0.14853,-0.60547 -0.0907,-0.10036 -0.20674,-0.17139 -0.32996,-0.20118 -0.20674,-0.052 -0.43638,-0.008 -0.6074,0.14844 h -0.002 c -0.36283,0.32333 -0.60302,0.73743 -0.71486,1.1758 -0.1886,0.73995 -0.0189,1.5581 0.52539,2.168 0.37969,0.42748 0.87137,0.71792 1.4024,0.85547 0.49829,0.12654 1.0328,0.11475 1.543,-0.0488 0.97539,-0.31242 1.6753,-1.1241 1.9434,-2.1875 0.0476,-0.18592 0.082,-0.37935 0.10356,-0.58008 0.0971,-0.92207 -0.18482,-1.8329 -0.78123,-2.5058 -0.29896,-0.33646 -0.64826,-0.60957 -1.0274,-0.82227 z m -3.584,8.9707 c -0.14778,2.6361 -1.2138,5.1472 -3.0195,7.1035 -0.0684,-0.23902 -0.17802,-0.58179 -0.33978,-0.96094 -0.28763,-0.66933 -0.72688,-1.4429 -1.3984,-1.8965 -0.25965,-0.17488 -0.55166,-0.26367 -0.83985,-0.26367 -0.37304,0 -0.73927,0.1472 -1.0215,0.42969 -0.28309,0.28268 -0.43238,0.65159 -0.43166,1.0234 -3.4e-4,0.28632 0.0888,0.57955 0.26381,0.83984 0.45404,0.66933 1.2279,1.1084 1.8965,1.3984 0.36586,0.15549 0.69778,0.26171 0.93555,0.33008 -1.9013,1.6422 -4.296,2.6304 -6.8184,2.8144 0.0881,-0.22813 0.16327,-0.46348 0.22261,-0.70508 0.2109,-0.85526 0.2177,-1.7148 0.0302,-2.5254 -0.20372,-0.87385 -0.63458,-1.683 -1.2734,-2.3672 -0.0937,-0.1004 -0.19313,-0.20196 -0.2948,-0.29492 -0.32655,-0.30403 -0.69714,-0.55343 -1.0957,-0.74805 0.40986,-0.30684 0.74521,-0.70369 0.98045,-1.166 0.034,-0.067 0.0673,-0.13432 0.0975,-0.20508 0.0892,-0.16716 0.41454,-0.8386 0.5664,-1.8691 0.0189,0.0466 0.0378,0.0929 0.0567,0.14062 0.28762,0.66934 0.72687,1.4429 1.3984,1.8965 0.25928,0.17488 0.54973,0.26367 0.83788,0.26367 0.37304,0 0.73928,-0.14896 1.0215,-0.43164 0.28308,-0.2825 0.43203,-0.65159 0.43166,-1.0234 0,-0.28629 -0.0873,-0.57925 -0.26155,-0.83594 -0.45441,-0.67293 -1.2298,-1.1121 -1.8984,-1.3984 -0.11149,-0.0479 -0.21656,-0.0897 -0.32012,-0.12891 1.251,-0.0328 2.0908,-0.37201 2.2832,-0.45899 0.0726,-0.026 0.14552,-0.0542 0.21468,-0.084 0.73962,-0.31607 1.3377,-0.88243 1.6973,-1.6113 0.0397,-0.0818 0.0767,-0.16237 0.10923,-0.24414 0.008,-0.0153 0.0113,-0.0315 0.0151,-0.0469 0.19616,0.50307 0.47694,0.96876 0.83788,1.373 0.093,0.10036 0.18974,0.20392 0.28914,0.29688 0.67045,0.65434 1.4728,1.1011 2.3418,1.3242 0.79178,0.20141 1.6379,0.21553 2.4863,0.0312 z m -4.0605,-8.9707 c -1.0048,0.57312 -1.7275,1.576 -2.0449,2.8262 -0.0227,0.0864 -0.0382,0.17682 -0.0567,0.26562 -0.32769,-0.54774 -0.82405,-0.96183 -1.3965,-1.1914 -0.1663,-0.0671 -0.34054,-0.11738 -0.51761,-0.15235 0.58254,-0.2536 1.1128,-0.6371 1.5371,-1.1406 0.16177,-0.1909 0.30199,-0.39577 0.4238,-0.60742 z m -2.8867,-2.0684 c -0.0151,0.66903 -0.23774,1.2733 -0.66014,1.7754 -0.34242,0.40524 -0.78557,0.69553 -1.2734,0.85547 -0.52358,0.16733 -1.097,0.18532 -1.6484,0.0254 C 16.427,8.22422 15.97308,7.83845 15.71281,7.31046 15.64701,7.17655 15.593,7.04607 15.55067,6.91592 15.33524,6.2428 15.42935,5.65902 15.79672,5.21282 15.9857,4.98606 16.23106,4.82558 16.50179,4.73626 c 0.28762,-0.093 0.6028,-0.0992 0.90626,-0.0137 0.3651,0.10776 0.63481,0.38603 0.74411,0.7207 0.0646,0.20073 0.0718,0.4171 0.0113,0.63281 -0.0397,0.14134 -0.034,0.28185 0.008,0.4082 0.0688,0.21571 0.24075,0.39006 0.47267,0.45704 0.13795,0.0409 0.28044,0.033 0.40822,-0.008 0.21355,-0.0708 0.39118,-0.24016 0.45702,-0.47071 0.14098,-0.49456 0.12208,-0.99751 -0.0265,-1.4512 -0.24681,-0.76244 -0.85705,-1.3948 -1.6856,-1.6328 -0.57785,-0.16734 -1.1797,-0.14754 -1.7285,0.0273 -0.51466,0.16719 -0.98355,0.47892 -1.3457,0.91016 -0.69203,0.82562 -0.85811,1.9458 -0.50003,3.0391 0.0624,0.19337 0.14059,0.38649 0.23433,0.57617 0.43207,0.87371 1.1974,1.5268 2.1055,1.7871 0.29556,0.0854 0.59516,0.13514 0.89454,0.1543 -0.4006,0.25955 -0.72473,0.63939 -0.91605,1.0918 v 0.004 l -0.0189,0.0488 c -0.35452,0.87385 -0.23207,1.7998 0.36132,2.4356 0.21316,0.2307 0.47036,0.40407 0.74997,0.51563 0.44995,0.18213 0.96079,0.20095 1.4375,0.041 h 0.002 c 0.20032,-0.0706 0.3515,-0.21826 0.42384,-0.40039 0.0601,-0.14874 0.0684,-0.32448 0.0151,-0.48437 -0.068,-0.20092 -0.2211,-0.35337 -0.40429,-0.42774 -0.14816,-0.0596 -0.31899,-0.0657 -0.48246,-0.0137 -0.1542,0.0558 -0.32088,0.0477 -0.46874,-0.0117 -0.0918,-0.0372 -0.17612,-0.0937 -0.24604,-0.17187 -0.10281,-0.11156 -0.16252,-0.24072 -0.1818,-0.4043 -0.0189,-0.1599 0.008,-0.35043 0.0918,-0.55859 l 0.0151,-0.0293 h -0.002 c 0.11338,-0.26774 0.3394,-0.47852 0.58397,-0.55664 0.33373,-0.1078 0.67797,-0.0896 0.98438,0.0332 0.38562,0.15614 0.70329,0.46874 0.84571,0.89258 0.1542,0.45741 0.14135,0.94008 -0.034,1.3789 -0.0189,0.0483 -0.0408,0.0963 -0.0646,0.14453 -0.2366,0.47977 -0.64335,0.83293 -1.1465,1.0039 l -0.008,0.004 -0.0586,0.0234 -0.008,0.002 h -0.002 c -0.0601,0.0246 -1.3,0.59219 -3.1562,0.21875 -0.0476,-0.18935 -0.10205,-0.38109 -0.16593,-0.57812 -0.26381,-0.81067 -0.67302,-1.6848 -1.2832,-2.5996 C 13.64365,10.4445 13.08289,9.291 12.75829,8.287 12.64868,7.94869 12.56666,7.62981 12.51413,7.33973 l -0.002,-0.004 -0.0378,-0.18554 c -0.3137,-1.5062 0.15458,-3.0614 1.2559,-4.1621 0.50052,-0.49821 1.0794,-0.85017 1.7012,-1.0547 0.66936,-0.21571 1.3876,-0.258 2.1094,-0.10547 0.11111,0.0223 0.21921,0.0486 0.32806,0.082 0.96238,0.27525 1.7451,0.9492 2.2129,1.916 0.10129,0.21192 0.18482,0.42048 0.2521,0.625 0.14173,0.44066 0.20674,0.8642 0.19729,1.2656 z m -1.9629,12.818 c 3.8e-4,0.093 -0.0423,0.1751 -0.10356,0.23828 -0.0612,0.0596 -0.14816,0.10547 -0.23849,0.10547 -0.0601,0 -0.1285,-0.0147 -0.21279,-0.0742 -0.28044,-0.18593 -0.53076,-0.51003 -0.73047,-0.86328 -0.1217,-0.21571 -0.22261,-0.44238 -0.30841,-0.6543 0.2264,0.0893 0.4599,0.19591 0.67968,0.32226 0.353,0.20467 0.66591,0.4508 0.84177,0.71485 0.0563,0.0854 0.0718,0.15136 0.0722,0.21093 z m -2.8066,7.0488 c -0.003,0.31886 -0.045,0.64338 -0.1251,0.96875 -0.35339,1.4353 -1.3888,2.581 -2.7695,3.0644 l -0.16592,0.0586 -0.008,0.004 c -0.26192,0.1004 -0.56421,0.19125 -0.89257,0.26562 -0.97368,0.23042 -2.1894,0.3374 -3.3594,0.29297 -0.32731,-0.0139 -0.63991,-0.0118 -0.9414,0 v -5.3555 c 0.0151,0.21736 0.0446,0.43336 0.0937,0.64453 0.17764,0.76229 0.57982,1.4713 1.1777,2.0254 0.65816,0.60983 1.565,0.91207 2.4883,0.83398 0.20069,-0.0186 0.39462,-0.0491 0.58204,-0.0937 1.0665,-0.24542 1.8941,-0.92595 2.2266,-1.8965 0.17386,-0.50572 0.19502,-1.041 0.0782,-1.543 -0.12473,-0.53175 -0.40479,-1.0293 -0.82424,-1.416 -0.60129,-0.55777 -1.4148,-0.74331 -2.1563,-0.57226 -0.44213,0.10412 -0.86045,0.33814 -1.1914,0.6914 l -0.002,0.004 c -0.15496,0.16707 -0.20674,0.39467 -0.15836,0.60157 0.0302,0.12271 0.0937,0.24102 0.19351,0.33398 0.16857,0.15618 0.39602,0.2085 0.60352,0.16016 0.12397,-0.026 0.24302,-0.093 0.336,-0.19336 0.14551,-0.15618 0.32693,-0.25616 0.52146,-0.30078 0.32731,-0.0781 0.68447,0.005 0.94923,0.25 0.21996,0.20451 0.36812,0.46348 0.43358,0.74609 0.0612,0.2603 0.0499,0.53891 -0.0408,0.80664 -0.18028,0.51687 -0.6096,0.87898 -1.2637,1.0352 -0.12624,0.0297 -0.25928,0.0476 -0.40037,0.0625 -0.5574,0.0483 -1.0941,-0.13288 -1.4726,-0.48242 -0.39976,-0.37186 -0.66618,-0.8478 -0.78516,-1.3535 -0.11074,-0.47597 -0.0922,-0.98301 0.0703,-1.459 0.3205,-0.94451 1.1029,-1.5977 2.2441,-1.8691 0.19994,-0.0446 0.41159,-0.083 0.63285,-0.10157 1.0174,-0.0967 1.948,0.21235 2.6445,0.85938 0.0794,0.0707 0.15534,0.14847 0.22866,0.22656 0.47819,0.51315 0.79749,1.1149 0.9492,1.7656 0.0707,0.30305 0.10469,0.61668 0.10166,0.93554 z m -1.1426,-8.918 c -0.008,1.3635 -0.46322,2.2014 -0.48828,2.25 l -0.002,0.004 -0.004,0.002 -0.0265,0.0566 -0.002,0.008 c -0.20334,0.49095 -0.5839,0.8697 -1.0781,1.0742 -0.0495,0.0222 -0.099,0.0417 -0.14853,0.0566 -0.45256,0.14494 -0.93392,0.12549 -1.3809,-0.0566 -0.41087,-0.17113 -0.70337,-0.5101 -0.83203,-0.9043 -0.10204,-0.31608 -0.0998,-0.6609 0.0302,-0.98438 0.0964,-0.2417 0.32126,-0.45015 0.59766,-0.54687 l -0.002,0.004 0.0302,-0.0117 c 0.21354,-0.0707 0.40528,-0.0807 0.56443,-0.0547 0.15988,0.0296 0.288,0.0993 0.39258,0.20703 0.0707,0.0744 0.12359,0.16484 0.15421,0.25781 0.0491,0.15238 0.0431,0.31805 -0.0189,0.4668 -0.0661,0.15993 -0.0673,0.33199 -0.0189,0.48437 0.0605,0.18972 0.20032,0.34983 0.39647,0.43164 0.15799,0.0669 0.33109,0.0696 0.48439,0.0176 0.18671,-0.0596 0.34696,-0.19936 0.42965,-0.39648 0.19276,-0.46482 0.20599,-0.97453 0.0567,-1.4356 -0.0934,-0.28629 -0.24983,-0.55825 -0.46485,-0.78516 -0.59531,-0.63575 -1.5109,-0.81731 -2.4082,-0.52343 l -0.0487,0.0137 -0.004,0.004 c -0.46258,0.1585 -0.86283,0.45609 -1.1484,0.83789 6.8e-4,-0.29903 -0.0302,-0.60023 -0.0937,-0.90039 -0.19918,-0.92204 -0.79922,-1.7298 -1.6426,-2.2207 -0.18368,-0.10416 -0.37077,-0.19727 -0.55861,-0.27149 -1.0702,-0.43138 -2.1925,-0.34102 -3.0664,0.29492 -0.45365,0.33102 -0.79528,0.77925 -0.99609,1.2812 -0.21203,0.53554 -0.27288,1.1351 -0.14627,1.7227 0.18218,0.84027 0.77386,1.4955 1.5176,1.793 0.4425,0.17852 0.94507,0.22886 1.4434,0.12109 0.23811,-0.0522 0.42063,-0.21552 0.50393,-0.42383 0.0499,-0.12635 0.0654,-0.26686 0.034,-0.4082 -0.051,-0.23415 -0.21543,-0.41654 -0.42383,-0.50195 -0.12284,-0.0484 -0.26495,-0.063 -0.40627,-0.0332 -0.22299,0.0484 -0.43748,0.0254 -0.63084,-0.0527 -0.3273,-0.13376 -0.58813,-0.41917 -0.66992,-0.79102 -0.0669,-0.30867 -0.0378,-0.62541 0.0782,-0.9043 0.10431,-0.26394 0.28346,-0.49894 0.52146,-0.67382 0.46484,-0.33452 1.0555,-0.38921 1.7129,-0.12891 0.12624,0.0522 0.25398,0.11508 0.38279,0.18945 0.50906,0.29369 0.864,0.77294 0.97852,1.3047 0.1217,0.56142 0.0658,1.1312 -0.13871,1.6406 -0.19087,0.476 -0.51144,0.89862 -0.93944,1.2148 -0.84487,0.62095 -1.9154,0.71519 -3.0645,0.25781 -0.20069,-0.0782 -0.40093,-0.17957 -0.60544,-0.29492 -0.93335,-0.53163 -1.5555,-1.356 -1.7637,-2.334 -0.0265,-0.11156 -0.0438,-0.22074 -0.0586,-0.33594 -0.10432,-0.72886 -0.0151,-1.4431 0.24605,-2.0976 0.24529,-0.60616 0.63424,-1.1602 1.166,-1.625 1.1713,-1.0264 2.7553,-1.3855 4.2382,-0.97266 l 0.18179,0.0508 h 0.008 c 0.28649,0.0707 0.60023,0.17465 0.92969,0.3086 0.97689,0.39015 2.0904,1.0248 3.0723,1.7715 l 0.002,0.002 c 0.87046,0.67206 1.7138,1.1355 2.5059,1.4551 0.19125,0.0764 0.37988,0.14334 0.56444,0.20312 0.0412,0.3131 0.0605,0.60978 0.0586,0.88282 z m -0.4961,-2.5625 c -0.56501,-0.26256 -1.1617,-0.61513 -1.7832,-1.0938 h -0.002 c -1.0933,-0.82548 -2.2937,-1.5163 -3.3906,-1.9551 -0.38298,-0.1525 -0.7536,-0.27607 -1.1035,-0.36524 l -0.16592,-0.0449 c -1.9385,-0.54294 -4.0145,-0.0691 -5.5391,1.2695 -0.0227,0.0211 -0.0465,0.0431 -0.0703,0.0644 0.50495,-2.5499 1.7675,-4.917 3.6562,-6.7774 2.0624,-2.0324 4.7338,-3.3259 7.5918,-3.7148 h 0.0151 c -0.20371,0.15651 -0.40097,0.32672 -0.58786,0.51367 -1.4357,1.4316 -2.0499,3.4647 -1.6387,5.4356 l 0.0378,0.17187 c 0.0635,0.35341 0.16139,0.73272 0.28914,1.127 0.3651,1.123 0.97114,2.3683 1.7227,3.5137 h 0.002 c 0.43556,0.65404 0.74484,1.2748 0.96877,1.8555 z m -2.4805,85.67 c 0.003,0.56333 -0.18444,1.1178 -0.5469,1.5703 l -0.0703,0.0898 c -0.40346,0.53175 -1.1559,1.1444 -1.9609,1.6055 -0.67604,0.37956 -1.1822,0.80707 -1.5625,1.2363 v -2.8594 c 0.27212,0.17903 0.57849,0.30897 0.91014,0.37303 0.5641,0.10783 1.1632,-0.0336 1.6406,-0.38671 0.70617,-0.52803 1.023,-1.2901 0.85157,-2.0449 -0.15988,-0.69536 -0.71879,-1.2335 -1.4238,-1.3711 -0.84185,-0.16361 -1.6586,0.3899 -1.8223,1.2266 -0.0548,0.2826 0.13115,0.56141 0.41602,0.61719 0.28535,0.0558 0.55982,-0.12968 0.61523,-0.41601 0.0529,-0.27145 0.31823,-0.4466 0.5918,-0.39454 0.29593,0.0558 0.53072,0.28222 0.59765,0.57227 0.0771,0.34208 -0.0877,0.69163 -0.45509,0.9668 -0.24076,0.17847 -0.53609,0.25304 -0.81052,0.19725 -0.51273,-0.0995 -0.93256,-0.45592 -1.1113,-0.93554 v -1.0274 c 0.12623,-0.34609 0.37935,-0.6734 0.74608,-0.95312 0.45887,-0.34953 1.0016,-0.48303 1.5293,-0.37891 0.0608,0.0113 0.12056,0.0261 0.18179,0.041 0.74408,0.2008 1.3124,0.751 1.5586,1.5059 0.082,0.251 0.12322,0.50956 0.12511,0.76562 z m -1.498,-78.928 c -1.1718,0.47284 -2.0545,1.3453 -2.4434,2.4941 -0.11188,0.32894 -0.17613,0.66638 -0.19919,1.0039 v -3.5254 c 0.16101,-0.0878 0.31635,-0.18622 0.46678,-0.29687 0.53034,-0.38929 0.94911,-0.89129 1.2402,-1.4551 0.0227,0.17758 0.0624,0.35265 0.11716,0.52148 0.15496,0.47859 0.43563,0.91626 0.81835,1.2578 z m -0.7578,-12.84 c 0,-0.76605 -0.62275,-1.3906 -1.3906,-1.3906 -0.76788,0 -1.3906,0.62457 -1.3906,1.3906 0,0.76973 0.62276,1.3906 1.3906,1.3906 0.76789,0 1.3906,-0.6209 1.3906,-1.3906 z m -0.27364,99.465 -0.002,0.0314 c -0.034,0.38301 -0.3772,0.67233 -0.76562,0.64258 -0.2725,-0.0223 -0.51987,-0.14918 -0.69725,-0.35743 -0.0571,-0.0669 -0.10507,-0.13675 -0.14249,-0.21483 0.0847,0.0855 0.19805,0.1412 0.32618,0.15235 0.28913,0.0223 0.54334,-0.19434 0.5664,-0.48437 0.008,-0.10413 0.0771,-0.19329 0.17575,-0.23048 0.12585,-0.0446 0.27137,0.0113 0.41015,0.15625 0.0813,0.0818 0.12888,0.19683 0.12888,0.30466 z M 8.95682,1.48999 c -1.5082,0.69832 -2.8978,1.6519 -4.0996,2.834 -1.5028,1.4821 -2.6451,3.2567 -3.3691,5.1895 v -8.0234 z m -0.19918,110 c -0.004,-0.20531 -0.0265,-0.40976 -0.0665,-0.60743 -0.17764,-0.89616 -0.90304,-1.498 -1.8066,-1.498 -0.90395,0 -1.6301,0.60188 -1.8086,1.498 -0.0446,0.23055 -0.0665,0.46905 -0.0665,0.70704 0,1.9596 1.3684,4.1086 1.4316,4.209 0.0979,0.14872 0.26457,0.24219 0.44334,0.24219 0.17915,0 0.3447,-0.0935 0.44141,-0.24219 0.0665,-0.10447 1.4792,-2.3238 1.4316,-4.3086 z m -1.0508,0.0197 c 0.0302,1.011 -0.44745,2.1742 -0.82424,2.9258 -0.46072,-0.92963 -0.97988,-2.3139 -0.77537,-3.3477 0.0968,-0.47969 0.46462,-0.65039 0.77734,-0.65039 0.31257,0 0.6802,0.17072 0.77541,0.65039 0.0265,0.13667 0.0423,0.27746 0.0469,0.42188 z m -1.4472,-90.248 v 9.1074 c -0.19162,0.0321 -0.37969,0.0672 -0.55862,0.10938 -2.5346,0.59033 -3.8,2.0832 -4.2129,2.6719 v -13.604 c 0.36548,0.4049 0.80027,0.75693 1.291,1.0371 0.25285,0.14134 0.50513,0.26291 0.76172,0.36328 0.9134,0.36839 1.8492,0.47376 2.7188,0.31445 z m 0,10.461 v 3.9277 c -0.008,-0.0644 -0.0189,-0.12952 -0.0302,-0.19336 v -0.004 l -0.0113,-0.0469 c -0.20069,-0.87385 -0.80069,-1.5284 -1.6113,-1.7031 -0.28989,-0.0595 -0.58243,-0.0574 -0.86132,0.006 -0.44995,0.10784 -0.85996,0.36894 -1.1426,0.75195 v 0.004 c -0.11905,0.1599 -0.15609,0.36076 -0.11527,0.54297 0.0378,0.14874 0.12396,0.28613 0.25776,0.38281 0.15987,0.119 0.35868,0.15595 0.541,0.11133 0.14891,-0.0335 0.28989,-0.11809 0.38672,-0.25195 0.0892,-0.12271 0.22413,-0.20872 0.37304,-0.24219 0.0892,-0.0223 0.18671,-0.0225 0.28309,-0.004 0.14135,0.0298 0.2589,0.0996 0.35943,0.21484 0.10394,0.119 0.18595,0.28005 0.23433,0.48829 l 0.008,0.0293 c 0.0593,0.27145 -0.003,0.55487 -0.14853,0.75195 -0.2007,0.26773 -0.48412,0.43716 -0.78906,0.50781 -0.38301,0.0893 -0.80224,0.0187 -1.1406,-0.23047 -0.37191,-0.27517 -0.62245,-0.65692 -0.72658,-1.0957 -0.0113,-0.0483 -0.0227,-0.0964 -0.0302,-0.14844 -0.0745,-0.502 0.0484,-0.99721 0.34582,-1.4062 l 0.004,-0.004 0.034,-0.0527 0.004,-0.004 v -0.002 c 0.0408,-0.0632 0.98899,-1.69 3.5176,-2.2812 0.0824,-0.019 0.17197,-0.032 0.25776,-0.0488 z m 0,4.5215 v 60.855 c -0.0378,-0.0302 -0.0726,-0.0605 -0.1115,-0.0898 -0.68791,-0.52431 -1.5548,-0.73235 -2.3691,-0.57617 -0.0854,0.0185 -0.17197,0.0363 -0.25398,0.0586 -0.89254,0.24287 -1.6078,0.81922 -2.0371,1.6211 v -60.824 c 0.16781,0.20271 0.35943,0.389 0.57619,0.54883 0.66561,0.48713 1.4832,0.6279 2.2343,0.45313 0.59497,-0.13759 1.149,-0.4796 1.5469,-1.0039 0.22677,-0.30389 0.36548,-0.66601 0.41408,-1.043 z m 0,62.564 v 1.0117 c -0.17575,0.48255 -0.59717,0.84151 -1.1133,0.94141 -0.27515,0.0558 -0.56886,-0.0189 -0.81056,-0.19725 -0.36812,-0.27519 -0.5314,-0.62842 -0.45702,-0.9668 0.0669,-0.29004 0.30199,-0.51649 0.59962,-0.57227 0.27515,-0.052 0.53779,0.12306 0.58984,0.39454 0.0559,0.28633 0.33071,0.47179 0.61719,0.41601 0.28611,-0.0558 0.47373,-0.33456 0.41794,-0.61719 -0.16365,-0.83666 -0.98184,-1.3902 -1.8223,-1.2266 -0.7065,0.13758 -1.2639,0.67573 -1.4238,1.3711 -0.17462,0.75486 0.14513,1.5169 0.85156,2.0449 0.476,0.35327 1.0735,0.49455 1.6387,0.38671 0.33147,-0.0641 0.64007,-0.194 0.91212,-0.37303 v 2.8516 c -0.38068,-0.42682 -0.88539,-0.85084 -1.5586,-1.2285 -0.81064,-0.46109 -1.5619,-1.0745 -1.9746,-1.6211 l -0.0624,-0.0742 c -0.5243,-0.65818 -0.68587,-1.529 -0.42187,-2.3359 0.24529,-0.75486 0.8149,-1.3051 1.5586,-1.5059 0.0593,-0.0147 0.12019,-0.0299 0.18369,-0.041 0.528,-0.10413 1.0699,0.0295 1.5273,0.37891 0.37002,0.28237 0.62336,0.61316 0.74804,0.96289 z m -0.004,8.7695 c -0.0378,0.0781 -0.0869,0.15163 -0.14249,0.21482 -0.17839,0.20826 -0.4258,0.3351 -0.69729,0.35743 -0.39042,0.0299 -0.73409,-0.25957 -0.76754,-0.64257 -0.0113,-0.12643 0.0378,-0.24299 0.12699,-0.33593 0.14135,-0.14502 0.28535,-0.20088 0.40819,-0.15624 0.10053,0.037 0.17235,0.12635 0.17953,0.23047 0.0227,0.29004 0.27439,0.50669 0.56447,0.48438 0.12624,-0.0113 0.24264,-0.0668 0.32806,-0.15235 z" />

        <mask id="top-left">
            <use
                xlink:href="#corner" />
        </mask>
        <mask id="bottom-left">
            <use
                xlink:href="#corner"
                transform="rotate(-90,60.002075,60.00207)"
            />
        </mask>
        <mask id="bottom-right">
            <use
                xlink:href="#corner"
                transform="rotate(180,60.002075,60.00207)"
            />
        </mask>
        <mask id="top-right">
            <use
                xlink:href="#corner"
                transform="rotate(90,60.002075,60.00207)"
            />
        </mask>

        <mask id="mask">
            <rect fill="#000000" x="0" y="0" width="400" height="300"></rect>
            <circle fill="#FFFFFF" cx="150" cy="150" r="100" />
            <circle fill="#FFFFFF" cx="50" cy="50" r="150" />
        </mask>
    </defs>
</svg>