<?xml version="1.0" encoding="UTF-8"?>
<!-- Created with Inkscape (http://www.inkscape.org/) -->
<svg width="120" height="120" version="1.1" viewBox="0 0 120 120" xmlns="http://www.w3.org/2000/svg">
 <g transform="translate(9.2604 -108.21)">
  <path d="m110 228.21c0.41283 0 0.74219-0.33373 0.74219-0.74415v-119.26h-119.26c-0.40904 0-0.74414 0.33147-0.74414 0.74415 0 0.40902 0.33509 0.74022 0.74414 0.74022h17.791c-0.18754 0.10129-0.36768 0.22073-0.53711 0.35755l-0.0664 0.0506c-0.64702 0.49085-1.3493 1.3462-1.8848 2.2832-0.79358 1.4143-1.796 1.9086-2.4258 2.0801h-0.27345c0.28721-0.15081 0.51754-0.40332 0.63086-0.71876 0.18592-0.52433 0.034-1.0919-0.41211-1.5196-0.30864-0.30122-0.73977-0.45906-1.1562-0.42187-0.95937 0.0854-1.6777 0.93714-1.5996 1.8965 0.0398 0.53912 0.28536 1.0256 0.68555 1.3828-0.40081 0.35716-0.64571 0.84741-0.68555 1.3848-0.0781 0.96159 0.64024 1.8124 1.5996 1.8964 0.40532 0.0378 0.84761-0.12018 1.1562-0.4199 0.44622-0.42951 0.59804-0.9967 0.41211-1.5195-0.11229-0.31408-0.33944-0.56727-0.62305-0.71876h0.26952c0.63191 0.17311 1.6311 0.66751 2.4219 2.0801 0.53546 0.93706 1.2374 1.7888 1.877 2.2715l0.0742 0.0624c0.93335 0.75038 2.175 0.97636 3.3203 0.60155 1.1007-0.3583 1.8976-1.1918 2.1914-2.2832 0.0261-0.0835 0.0439-0.16781 0.0625-0.25398 0.15617-0.81434-0.0519-1.6786-0.57617-2.3691-0.0291-0.0382-0.0599-0.0729-0.0898-0.10923h65.523c0.0125 0.28271 0.0151 0.57487 0 0.88671v2e-3c-0.0483 1.3015 0.0714 2.6111 0.32422 3.7051 0.0892 0.38151 0.1976 0.7361 0.32031 1.0566l0.0527 0.1561c0.41176 1.1696 1.1855 2.1479 2.1875 2.8184 0.0728 3.2685 1.3794 6.3913 3.6641 8.7109 2.2891 2.3241 5.3824 3.6588 8.6191 3.7324 0.6082 1.3882 1.7474 2.4827 3.1914 3.0235l0.15234 0.0586c0.31987 0.1285 0.67349 0.24075 1.0527 0.33788 1.0896 0.27742 2.3938 0.42271 3.6953 0.40041h4e-3c0.18031-4e-3 0.3511-7.6e-4 0.52149 4e-3v62.674c-0.68114-0.50279-1.5295-0.70133-2.3281-0.54493-0.0854 0.0151-0.17213 0.0378-0.2539 0.0586-1.0932 0.29443-1.9262 1.0926-2.2832 2.1914-0.11895 0.36435-0.17773 0.73863-0.17773 1.1094 0 0.79464 0.26809 1.5743 0.78125 2.2109l0.0527 0.0665c0.49081 0.64643 1.3442 1.3522 2.2812 1.8884 1.1246 0.63039 1.6664 1.3914 1.9277 1.9941v0.4707c-0.14752-0.17726-0.34146-0.31748-0.5664-0.39843-0.52439-0.18709-1.0919-0.034-1.5195 0.41211-0.30109 0.30917-0.45726 0.74098-0.41993 1.1582 0.0854 0.95751 0.93512 1.6751 1.8945 1.5996 0.21292-0.0151 0.41907-0.0661 0.61132-0.14249v0.49217c-0.52381 0.23736-0.908 0.71766-1.0312 1.3379-0.0447 0.22904-0.0664 0.46439-0.0664 0.70311 0 1.9608 1.3685 4.1098 1.4316 4.2109 0.0966 0.15042 0.26487 0.24227 0.44336 0.24227 0.17852 0 0.3448-0.0918 0.4414-0.24227 0.0745-0.11339 1.7855-2.806 1.3652-4.914-0.12838-0.64554-0.54085-1.1372-1.0977-1.3633v-0.49414c0.20958 0.0915 0.43436 0.15156 0.66992 0.17008 0.95942 0.0756 1.8109-0.6421 1.8965-1.5996 0.0372-0.40532-0.11865-0.84847-0.41992-1.1582-0.42763-0.44511-0.99729-0.59917-1.5215-0.41212-0.25718 0.0922-0.47193 0.26192-0.625 0.47656v-0.40429c0.23501-0.6226 0.7692-1.4578 1.9863-2.1406 0.94082-0.53473 1.792-1.2411 2.2754-1.877l0.0605-0.0763c0.20324-0.25247 0.36531-0.52876 0.49023-0.81835v19.984c0 0.41053 0.33511 0.74415 0.74414 0.74415zm-6.2656-7.4805c-0.46102-0.92923-0.98187-2.3154-0.77735-3.3476 0.0513-0.2555 0.17869-0.42164 0.33399-0.52343 0.11876 0.0805 0.2531 0.13871 0.4082 0.13871 0.16824 0 0.31645-0.0673 0.44141-0.16214 0.17132 0.0987 0.31584 0.27175 0.37109 0.5469 0.21571 1.0932-0.34592 2.488-0.77734 3.3476zm1.5332-6.2851c-0.024 5.3e-4 -0.0479-7e-5 -0.0723-2e-3 -0.27148-0.0227-0.52069-0.14854-0.69921-0.35528-0.0189-0.0227-0.0357-0.0465-0.0527-0.0703v-0.076c0.0703 0.0442 0.1515 0.0748 0.23828 0.082 0.29008 0.0227 0.54222-0.19464 0.56445-0.48435 0.0112-0.1028 0.0793-0.19086 0.17969-0.22677 0.12275-0.045 0.27066 8e-3 0.4082 0.15232 0.0818 0.085 0.13086 0.19842 0.13086 0.30463l-4e-3 0.0302c-0.0315 0.36133-0.33394 0.63659-0.69336 0.64456zm-3.0762 0c-0.35942-8e-3 -0.66206-0.28308-0.69336-0.64456-0.0112-0.12359 0.0378-0.24302 0.12695-0.336 0.13755-0.14324 0.28546-0.19729 0.40821-0.15231 0.10036 0.034 0.16849 0.12397 0.17968 0.22677 0.0222 0.28951 0.27437 0.5074 0.56446 0.48435 0.0632-4e-3 0.12436-0.0227 0.17968-0.0488v0.11906c-0.17812 0.20296-0.4227 0.32806-0.6914 0.3496-0.0244 2e-3 -0.0503 3e-3 -0.0742 2e-3zm2.252-3.9727v-2.6953c0.24836 0.14816 0.52455 0.2555 0.81836 0.31257 0.56518 0.10923 1.1648-0.034 1.6406-0.38865 0.70667-0.52691 1.0225-1.2888 0.85157-2.041-0.15994-0.69835-0.71927-1.2373-1.4258-1.3731-0.84042-0.16252-1.6567 0.38767-1.8203 1.2266-0.0558 0.28309 0.12973 0.56141 0.41602 0.6172 0.28633 0.0556 0.56141-0.13115 0.61719-0.41601 0.052-0.27099 0.3167-0.44931 0.59179-0.39647 0.29748 0.0571 0.53069 0.28384 0.59766 0.57615 0.0744 0.34129-0.0889 0.68919-0.45703 0.96291-0.24171 0.17952-0.53527 0.25209-0.81055 0.19918-0.44054-0.0854-0.81101-0.36133-1.0195-0.74026v-1.4277c0.14084-0.27023 0.36065-0.52463 0.6543-0.74804 0.45723-0.34885 1.0013-0.48268 1.5293-0.37894 0.0594 0.0113 0.12222 0.0265 0.18164 0.0431 0.74371 0.19994 1.3131 0.7471 1.5586 1.502 0.26409 0.80583 0.10446 1.6793-0.41992 2.3359l-0.0703 0.09c-0.40543 0.53174-1.158 1.1462-1.9648 1.6055-0.62262 0.34961-1.0999 0.73977-1.4688 1.1348zm-1.4863-0.0684c-0.36064-0.37077-0.81941-0.73512-1.4062-1.0645-0.81067-0.46073-1.5618-1.0755-1.9746-1.6191l-0.0625-0.0782c-0.5242-0.65556-0.68387-1.529-0.41993-2.3359 0.24546-0.75485 0.81294-1.3031 1.5566-1.5039 0.0594-0.0151 0.12042-0.0302 0.1836-0.0412 0.52803-0.10394 1.0699 0.0302 1.5273 0.37894 0.25548 0.19426 0.45529 0.41321 0.59571 0.64452v0.77148c-2e-3 -0.0151-1e-3 -0.0302-4e-3 -0.0431-0.16355-0.8389-0.98181-1.3906-1.8223-1.2285-0.70652 0.13607-1.2641 0.67665-1.4238 1.375-0.17492 0.75187 0.14505 1.5141 0.85156 2.041 0.47601 0.35566 1.0735 0.498 1.6387 0.38865 0.27109-0.0525 0.52674-0.14853 0.75976-0.2793zm-1.168-3.3301c-0.21003-8e-3 -0.42223-0.082-0.60351-0.21695-0.36806-0.27401-0.53155-0.62491-0.45703-0.96291 0.0668-0.29253 0.30212-0.51851 0.59961-0.57615 0.27513-0.0522 0.53782 0.12548 0.58984 0.39647 0.0558 0.28498 0.33285 0.47142 0.61914 0.41602 0.23261-0.0454 0.39564-0.23887 0.41992-0.46096v0.74612c-0.21568 0.32769-0.55991 0.563-0.96093 0.64063-0.0688 0.0113-0.13702 0.0189-0.20704 0.0189zm7.4668-2.3867c-0.40184-0.94677-1.1788-1.6312-2.1719-1.8984-0.0818-0.0227-0.16639-0.042-0.25196-0.0586-0.81428-0.15949-1.6812 0.0491-2.3691 0.57423-7e-3 4e-3 -0.0129 0.0113-0.0195 0.0151v-62.555c0.12637 0.0265 0.25397 0.0518 0.37305 0.082 2.5138 0.64218 3.4316 2.2845 3.4688 2.3496v4e-3l4e-3 4e-3 0.0332 0.0507 4e-3 8e-3c0.29008 0.41238 0.40197 0.91196 0.31641 1.4121-0.011 0.0503-0.0184 0.099-0.0332 0.14665-0.11155 0.43767-0.3724 0.81653-0.74804 1.082-0.34207 0.24302-0.76348 0.30652-1.1465 0.20901-0.30491-0.0779-0.57827-0.25701-0.77539-0.52732-0.141-0.19805-0.19727-0.48257-0.13476-0.75198v-2e-3l8e-3 -0.0302c0.052-0.20636 0.13803-0.36699 0.24218-0.48045 0.10777-0.11301 0.22585-0.18104 0.36719-0.20901 0.0968-0.0189 0.19385-0.0151 0.28321 8e-3 0.14874 0.0378 0.27801 0.12548 0.36719 0.25209 0.093 0.13418 0.23016 0.22262 0.3789 0.25966 0.18232 0.0465 0.3833 0.0151 0.54688-0.0994 0.1339-0.0937 0.22438-0.23093 0.26171-0.3789 0.0482-0.18066 0.0138-0.38143-0.10156-0.5469v-2e-3c-0.2751-0.39008-0.67698-0.65968-1.127-0.77344-0.27513-0.0711-0.57125-0.0824-0.86133-0.0265-0.81428 0.15534-1.4288 0.79782-1.6445 1.668l-0.0137 0.0469v4e-3c-0.14889 0.63738-0.0242 1.3169 0.34765 1.8379 0.38305 0.53359 0.93043 0.88577 1.5254 1.0371 0.7475 0.19011 1.5691 0.0654 2.2422-0.41015 0.23688-0.16668 0.44812-0.36133 0.62891-0.57812zm0-62.434c-0.43684-0.63208-1.6636-2.0731-4.1094-2.6973-0.22392-0.0571-0.45958-0.10469-0.70313-0.14664v-9.3262c0.73351 0.10771 1.5155 0.034 2.2949-0.21884 0.26409-0.0847 0.52501-0.18898 0.78516-0.31446 0.68185-0.32806 1.2698-0.79336 1.7324-1.3516zm-6.2988-2.9844c-0.17987-4e-3 -0.36203-8e-3 -0.55078-2e-3 -1.1713 0.0227-2.3829-0.11377-3.3496-0.36133-0.32726-0.0831-0.63033-0.1799-0.89062-0.28535l-2e-3 -2e-3 -0.16797-0.0624c-1.3683-0.51352-2.3795-1.6803-2.7031-3.1231-0.14874-0.65556-0.13886-1.3007 0.0137-1.9024 0.16354-0.64777 0.49913-1.2453 0.98633-1.748 0.0742-0.0775 0.15257-0.1508 0.23438-0.22262 0.70651-0.63288 1.6469-0.91876 2.6621-0.80273 0.21935 0.0265 0.43179 0.0627 0.6289 0.11339 1.1379 0.29291 1.904 0.96593 2.2051 1.916 0.15254 0.48117 0.15997 0.98513 0.041 1.457-0.13015 0.50683-0.40527 0.97572-0.81446 1.3379-0.38668 0.34318-0.92659 0.51224-1.4844 0.45309-0.13755-0.0151-0.27208-0.0382-0.39844-0.0703-0.65074-0.16932-1.0693-0.54032-1.2402-1.0605-0.0857-0.26646-0.0904-0.5472-0.0234-0.8086 0.0706-0.27893 0.22416-0.53665 0.44727-0.73632 0.27149-0.24 0.6316-0.31333 0.95508-0.23056 0.19332 0.0491 0.37064 0.1527 0.51562 0.31257 0.0893 0.10243 0.20929 0.17008 0.33203 0.20107 0.20452 0.0529 0.43435 4e-3 0.60547-0.14853 0.10036-0.0907 0.17139-0.20674 0.20118-0.32996 0.052-0.20674 8e-3 -0.43638-0.14844-0.6074v-2e-3c-0.32333-0.36283-0.73743-0.60302-1.1758-0.71486-0.73995-0.1886-1.5581-0.0189-2.168 0.52539-0.42748 0.37969-0.71792 0.87137-0.85547 1.4024-0.12654 0.49829-0.11475 1.0328 0.0488 1.543 0.31242 0.97539 1.1241 1.6753 2.1875 1.9434 0.18592 0.0476 0.37935 0.082 0.58008 0.10356 0.92207 0.0971 1.8329-0.18482 2.5058-0.78123 0.33646-0.29896 0.60957-0.64826 0.82227-1.0274zm-8.9707-3.584c-2.6361-0.14778-5.1472-1.2138-7.1035-3.0195 0.23902-0.0684 0.58179-0.17802 0.96094-0.33978 0.66933-0.28763 1.4429-0.72688 1.8965-1.3984 0.17488-0.25965 0.26367-0.55166 0.26367-0.83985 0-0.37304-0.1472-0.73927-0.42969-1.0215-0.28268-0.28309-0.65159-0.43238-1.0234-0.43166-0.28632-3.4e-4 -0.57955 0.0888-0.83984 0.26381-0.66933 0.45404-1.1084 1.2279-1.3984 1.8965-0.15549 0.36586-0.26171 0.69778-0.33008 0.93555-1.6422-1.9013-2.6304-4.296-2.8144-6.8184 0.22813 0.0881 0.46348 0.16327 0.70508 0.22261 0.85526 0.2109 1.7148 0.2177 2.5254 0.0302 0.87385-0.20372 1.683-0.63458 2.3672-1.2734 0.1004-0.0937 0.20196-0.19313 0.29492-0.2948 0.30403-0.32655 0.55343-0.69714 0.74805-1.0957 0.30684 0.40986 0.70369 0.74521 1.166 0.98045 0.067 0.034 0.13432 0.0673 0.20508 0.0975 0.16716 0.0892 0.8386 0.41454 1.8691 0.5664-0.0466 0.0189-0.0929 0.0378-0.14062 0.0567-0.66934 0.28762-1.4429 0.72687-1.8965 1.3984-0.17488 0.25928-0.26367 0.54973-0.26367 0.83788 0 0.37304 0.14896 0.73928 0.43164 1.0215 0.2825 0.28308 0.65159 0.43203 1.0234 0.43166 0.28629 0 0.57925-0.0873 0.83594-0.26155 0.67293-0.45441 1.1121-1.2298 1.3984-1.8984 0.0479-0.11149 0.0897-0.21656 0.12891-0.32012 0.0328 1.251 0.37201 2.0908 0.45899 2.2832 0.026 0.0726 0.0542 0.14552 0.084 0.21468 0.31607 0.73962 0.88243 1.3377 1.6113 1.6973 0.0818 0.0397 0.16237 0.0767 0.24414 0.10923 0.0153 8e-3 0.0315 0.0113 0.0469 0.0151-0.50307 0.19616-0.96876 0.47694-1.373 0.83788-0.10036 0.093-0.20392 0.18974-0.29688 0.28914-0.65434 0.67045-1.1011 1.4728-1.3242 2.3418-0.20141 0.79178-0.21553 1.6379-0.0312 2.4863zm8.9707-4.0605c-0.57312-1.0048-1.576-1.7275-2.8262-2.0449-0.0864-0.0227-0.17682-0.0382-0.26562-0.0567 0.54774-0.32769 0.96183-0.82405 1.1914-1.3965 0.0671-0.1663 0.11738-0.34054 0.15235-0.51761 0.2536 0.58254 0.6371 1.1128 1.1406 1.5371 0.1909 0.16177 0.39577 0.30199 0.60742 0.4238zm2.0684-2.8867c-0.66903-0.0151-1.2733-0.23774-1.7754-0.66014-0.40524-0.34242-0.69553-0.78557-0.85547-1.2734-0.16733-0.52358-0.18532-1.097-0.0254-1.6484 0.14874-0.52211 0.53451-0.97603 1.0625-1.2363 0.13391-0.0658 0.26439-0.11981 0.39454-0.16214 0.67312-0.21543 1.2569-0.12132 1.7031 0.24605 0.22676 0.18898 0.38724 0.43434 0.47656 0.70507 0.093 0.28762 0.0992 0.6028 0.0137 0.90626-0.10776 0.3651-0.38603 0.63481-0.7207 0.74411-0.20073 0.0646-0.4171 0.0718-0.63281 0.0113-0.14134-0.0397-0.28185-0.034-0.4082 8e-3 -0.21571 0.0688-0.39006 0.24075-0.45704 0.47267-0.0409 0.13795-0.033 0.28044 8e-3 0.40822 0.0708 0.21355 0.24016 0.39118 0.47071 0.45702 0.49456 0.14098 0.99751 0.12208 1.4512-0.0265 0.76244-0.24681 1.3948-0.85705 1.6328-1.6856 0.16734-0.57785 0.14754-1.1797-0.0273-1.7285-0.16719-0.51466-0.47892-0.98355-0.91016-1.3457-0.82562-0.69203-1.9458-0.85811-3.0391-0.50003-0.19337 0.0624-0.38649 0.14059-0.57617 0.23433-0.87371 0.43207-1.5268 1.1974-1.7871 2.1055-0.0854 0.29556-0.13514 0.59516-0.1543 0.89454-0.25955-0.4006-0.63939-0.72473-1.0918-0.91605h-4e-3l-0.0488-0.0189c-0.87385-0.35452-1.7998-0.23207-2.4356 0.36132-0.2307 0.21316-0.40407 0.47036-0.51563 0.74997-0.18213 0.44995-0.20095 0.96079-0.041 1.4375v2e-3c0.0706 0.20032 0.21826 0.3515 0.40039 0.42384 0.14874 0.0601 0.32448 0.0684 0.48437 0.0151 0.20092-0.068 0.35337-0.2211 0.42774-0.40429 0.0596-0.14816 0.0657-0.31899 0.0137-0.48246-0.0558-0.1542-0.0477-0.32088 0.0117-0.46874 0.0372-0.0918 0.0937-0.17612 0.17187-0.24604 0.11156-0.10281 0.24072-0.16252 0.4043-0.1818 0.1599-0.0189 0.35043 8e-3 0.55859 0.0918l0.0293 0.0151v-2e-3c0.26774 0.11338 0.47852 0.3394 0.55664 0.58397 0.1078 0.33373 0.0896 0.67797-0.0332 0.98438-0.15614 0.38562-0.46874 0.70329-0.89258 0.84571-0.45741 0.1542-0.94008 0.14135-1.3789-0.034-0.0483-0.0189-0.0963-0.0408-0.14453-0.0646-0.47977-0.2366-0.83293-0.64335-1.0039-1.1465l-4e-3 -8e-3 -0.0234-0.0586-2e-3 -8e-3v-2e-3c-0.0246-0.0601-0.59219-1.3-0.21875-3.1562 0.18935-0.0476 0.38109-0.10205 0.57812-0.16593 0.81067-0.26381 1.6848-0.67302 2.5996-1.2832 1.03-0.67714 2.1835-1.2379 3.1875-1.5625 0.33831-0.10961 0.65719-0.19163 0.94727-0.24416l4e-3 -2e-3 0.18554-0.0378c1.5062-0.3137 3.0614 0.15458 4.1621 1.2559 0.49821 0.50052 0.85017 1.0794 1.0547 1.7012 0.21571 0.66936 0.258 1.3876 0.10547 2.1094-0.0223 0.11111-0.0486 0.21921-0.082 0.32806-0.27525 0.96238-0.9492 1.7451-1.916 2.2129-0.21192 0.10129-0.42048 0.18482-0.625 0.2521-0.44066 0.14173-0.8642 0.20674-1.2656 0.19729zm-12.818-1.9629c-0.093 3.8e-4 -0.1751-0.0423-0.23828-0.10356-0.0596-0.0612-0.10547-0.14816-0.10547-0.23849 0-0.0601 0.0147-0.1285 0.0742-0.21279 0.18593-0.28044 0.51003-0.53076 0.86328-0.73047 0.21571-0.1217 0.44238-0.22261 0.6543-0.30841-0.0893 0.2264-0.19591 0.4599-0.32226 0.67968-0.20467 0.353-0.4508 0.66591-0.71485 0.84177-0.0854 0.0563-0.15136 0.0718-0.21093 0.0722zm-7.0488-2.8066c-0.31886-3e-3 -0.64338-0.045-0.96875-0.1251-1.4353-0.35339-2.581-1.3888-3.0644-2.7695l-0.0586-0.16592-4e-3 -8e-3c-0.1004-0.26192-0.19125-0.56421-0.26562-0.89257-0.23042-0.97368-0.3374-2.1894-0.29297-3.3594 0.0139-0.32731 0.0118-0.63991 0-0.9414h5.3555c-0.21736 0.0151-0.43336 0.0446-0.64453 0.0937-0.76229 0.17764-1.4713 0.57982-2.0254 1.1777-0.60983 0.65816-0.91207 1.565-0.83398 2.4883 0.0186 0.20069 0.0491 0.39462 0.0937 0.58204 0.24542 1.0665 0.92595 1.8941 1.8965 2.2266 0.50572 0.17386 1.041 0.19502 1.543 0.0782 0.53175-0.12473 1.0293-0.40479 1.416-0.82424 0.55777-0.60129 0.74331-1.4148 0.57226-2.1563-0.10412-0.44213-0.33814-0.86045-0.6914-1.1914l-4e-3 -2e-3c-0.16707-0.15496-0.39467-0.20674-0.60157-0.15836-0.12271 0.0302-0.24102 0.0937-0.33398 0.19351-0.15618 0.16857-0.2085 0.39602-0.16016 0.60352 0.026 0.12397 0.093 0.24302 0.19336 0.336 0.15618 0.14551 0.25616 0.32693 0.30078 0.52146 0.0781 0.32731-5e-3 0.68447-0.25 0.94923-0.20451 0.21996-0.46348 0.36812-0.74609 0.43358-0.2603 0.0612-0.53891 0.0499-0.80664-0.0408-0.51687-0.18028-0.87898-0.6096-1.0352-1.2637-0.0297-0.12624-0.0476-0.25928-0.0625-0.40037-0.0483-0.5574 0.13288-1.0941 0.48242-1.4726 0.37186-0.39976 0.8478-0.66618 1.3535-0.78516 0.47597-0.11074 0.98301-0.0922 1.459 0.0703 0.94451 0.3205 1.5977 1.1029 1.8691 2.2441 0.0446 0.19994 0.083 0.41159 0.10157 0.63285 0.0967 1.0174-0.21235 1.948-0.85938 2.6445-0.0707 0.0794-0.14847 0.15534-0.22656 0.22866-0.51315 0.47819-1.1149 0.79749-1.7656 0.9492-0.30305 0.0707-0.61668 0.10469-0.93554 0.10166zm8.918-1.1426c-1.3635-8e-3 -2.2014-0.46322-2.25-0.48828l-4e-3 -2e-3 -2e-3 -4e-3 -0.0566-0.0265-8e-3 -2e-3c-0.49095-0.20334-0.8697-0.5839-1.0742-1.0781-0.0222-0.0495-0.0417-0.099-0.0566-0.14853-0.14494-0.45256-0.12549-0.93392 0.0566-1.3809 0.17113-0.41087 0.5101-0.70337 0.9043-0.83203 0.31608-0.10204 0.6609-0.0998 0.98438 0.0302 0.2417 0.0964 0.45015 0.32126 0.54687 0.59766l-4e-3 -2e-3 0.0117 0.0302c0.0707 0.21354 0.0807 0.40528 0.0547 0.56443-0.0296 0.15988-0.0993 0.288-0.20703 0.39258-0.0744 0.0707-0.16484 0.12359-0.25781 0.15421-0.15238 0.0491-0.31805 0.0431-0.4668-0.0189-0.15993-0.0661-0.33199-0.0673-0.48437-0.0189-0.18972 0.0605-0.34983 0.20032-0.43164 0.39647-0.0669 0.15799-0.0696 0.33109-0.0176 0.48439 0.0596 0.18671 0.19936 0.34696 0.39648 0.42965 0.46482 0.19276 0.97453 0.20599 1.4356 0.0567 0.28629-0.0934 0.55825-0.24983 0.78516-0.46485 0.63575-0.59531 0.81731-1.5109 0.52343-2.4082l-0.0137-0.0487-4e-3 -4e-3c-0.1585-0.46258-0.45609-0.86283-0.83789-1.1484 0.29903 6.8e-4 0.60023-0.0302 0.90039-0.0937 0.92204-0.19918 1.7298-0.79922 2.2207-1.6426 0.10416-0.18368 0.19727-0.37077 0.27149-0.55861 0.43138-1.0702 0.34102-2.1925-0.29492-3.0664-0.33102-0.45365-0.77925-0.79528-1.2812-0.99609-0.53554-0.21203-1.1351-0.27288-1.7227-0.14627-0.84027 0.18218-1.4955 0.77386-1.793 1.5176-0.17852 0.4425-0.22886 0.94507-0.12109 1.4434 0.0522 0.23811 0.21552 0.42063 0.42383 0.50393 0.12635 0.0499 0.26686 0.0654 0.4082 0.034 0.23415-0.051 0.41654-0.21543 0.50195-0.42383 0.0484-0.12284 0.063-0.26495 0.0332-0.40627-0.0484-0.22299-0.0254-0.43748 0.0527-0.63084 0.13376-0.3273 0.41917-0.58813 0.79102-0.66992 0.30867-0.0669 0.62541-0.0378 0.9043 0.0782 0.26394 0.10431 0.49894 0.28346 0.67382 0.52146 0.33452 0.46484 0.38921 1.0555 0.12891 1.7129-0.0522 0.12624-0.11508 0.25398-0.18945 0.38279-0.29369 0.50906-0.77294 0.864-1.3047 0.97852-0.56142 0.1217-1.1312 0.0658-1.6406-0.13871-0.476-0.19087-0.89862-0.51144-1.2148-0.93944-0.62095-0.84487-0.71519-1.9154-0.25781-3.0645 0.0782-0.20069 0.17957-0.40093 0.29492-0.60544 0.53163-0.93335 1.356-1.5555 2.334-1.7637 0.11156-0.0265 0.22074-0.0438 0.33594-0.0586 0.72886-0.10432 1.4431-0.0151 2.0976 0.24605 0.60616 0.24529 1.1602 0.63424 1.625 1.166 1.0264 1.1713 1.3855 2.7553 0.97266 4.2382l-0.0508 0.18179v8e-3c-0.0707 0.28649-0.17465 0.60023-0.3086 0.92969-0.39015 0.97689-1.0248 2.0904-1.7715 3.0723l-2e-3 2e-3c-0.67206 0.87046-1.1355 1.7138-1.4551 2.5059-0.0764 0.19125-0.14334 0.37988-0.20312 0.56444-0.3131 0.0412-0.60978 0.0605-0.88282 0.0586zm2.5625-0.4961c0.26256-0.56501 0.61513-1.1617 1.0938-1.7832v-2e-3c0.82548-1.0933 1.5163-2.2937 1.9551-3.3906 0.1525-0.38298 0.27607-0.7536 0.36524-1.1035l0.0449-0.16592c0.54294-1.9385 0.0691-4.0145-1.2695-5.5391-0.0211-0.0227-0.0431-0.0465-0.0644-0.0703 2.5499 0.50495 4.917 1.7675 6.7773 3.6562 2.0324 2.0624 3.3259 4.7338 3.7148 7.5918v0.0151c-0.15651-0.20371-0.32672-0.40097-0.51367-0.58786-1.4316-1.4357-3.4647-2.0499-5.4356-1.6387l-0.17187 0.0378c-0.35341 0.0635-0.73272 0.16139-1.127 0.28914-1.123 0.3651-2.3683 0.97114-3.5137 1.7227v2e-3c-0.65404 0.43556-1.2748 0.74484-1.8555 0.96877zm-85.67-2.4805c-0.56333 3e-3 -1.1178-0.18444-1.5703-0.5469l-0.0898-0.0703c-0.53175-0.40346-1.1444-1.1559-1.6055-1.9609-0.37956-0.67604-0.80707-1.1822-1.2363-1.5625h2.8594c-0.17903 0.27212-0.30897 0.57849-0.37303 0.91014-0.10783 0.5641 0.0336 1.1632 0.38671 1.6406 0.52803 0.70617 1.2901 1.023 2.0449 0.85157 0.69536-0.15988 1.2335-0.71879 1.3711-1.4238 0.16361-0.84185-0.3899-1.6586-1.2266-1.8223-0.2826-0.0548-0.56141 0.13115-0.61719 0.41602-0.0558 0.28535 0.12968 0.55982 0.41601 0.61523 0.27145 0.0529 0.4466 0.31823 0.39454 0.5918-0.0558 0.29593-0.28222 0.53072-0.57227 0.59765-0.34208 0.0771-0.69163-0.0877-0.9668-0.45509-0.17847-0.24076-0.25304-0.53609-0.19725-0.81052 0.0995-0.51273 0.45592-0.93256 0.93554-1.1113h1.0274c0.34609 0.12623 0.6734 0.37935 0.95312 0.74608 0.34953 0.45887 0.48303 1.0016 0.37891 1.5293-0.0113 0.0608-0.0261 0.12056-0.041 0.18179-0.2008 0.74408-0.751 1.3124-1.5059 1.5586-0.251 0.082-0.50956 0.12322-0.76562 0.12511zm78.928-1.498c-0.47284-1.1718-1.3453-2.0545-2.4941-2.4434-0.32894-0.11188-0.66638-0.17613-1.0039-0.19919h3.5254c0.0878 0.16101 0.18622 0.31635 0.29687 0.46678 0.38929 0.53034 0.89129 0.94911 1.4551 1.2402-0.17758 0.0227-0.35265 0.0624-0.52148 0.11716-0.47859 0.15496-0.91626 0.43563-1.2578 0.81835zm12.84-0.7578c0.76605 0 1.3906-0.62275 1.3906-1.3906 0-0.76788-0.62457-1.3906-1.3906-1.3906-0.76973 0-1.3906 0.62276-1.3906 1.3906 0 0.76789 0.6209 1.3906 1.3906 1.3906zm-99.465-0.27364-0.0314-2e-3c-0.38301-0.034-0.67233-0.3772-0.64258-0.76562 0.0223-0.2725 0.14918-0.51987 0.35743-0.69725 0.0669-0.0571 0.13675-0.10507 0.21483-0.14249-0.0855 0.0847-0.1412 0.19805-0.15235 0.32618-0.0223 0.28913 0.19434 0.54334 0.48437 0.5664 0.10413 8e-3 0.19329 0.0771 0.23048 0.17575 0.0446 0.12585-0.0113 0.27137-0.15625 0.41015-0.0818 0.0813-0.19683 0.12888-0.30466 0.12888zm105.98-0.15609c-0.69832-1.5082-1.6519-2.8978-2.834-4.0996-1.4821-1.5028-3.2567-2.6451-5.1895-3.3691h8.0234zm-110-0.19918c0.20531-4e-3 0.40976-0.0265 0.60743-0.0665 0.89616-0.17764 1.498-0.90304 1.498-1.8066 0-0.90395-0.60188-1.6301-1.498-1.8086-0.23055-0.0446-0.46905-0.0665-0.70704-0.0665-1.9597 0-4.1086 1.3684-4.209 1.4316-0.14872 0.0979-0.24219 0.26457-0.24219 0.44334 0 0.17915 0.0935 0.3447 0.24219 0.44141 0.10447 0.0665 2.3238 1.4792 4.3086 1.4316zm-0.0197-1.0508c-1.011 0.0302-2.1742-0.44745-2.9258-0.82424 0.92963-0.46072 2.3139-0.97988 3.3477-0.77537 0.47969 0.0968 0.65039 0.46462 0.65039 0.77734 0 0.31257-0.17072 0.6802-0.65039 0.77541-0.13667 0.0265-0.27746 0.0423-0.42188 0.0469zm90.248-1.4472h-9.1074c-0.0321-0.19162-0.0672-0.37969-0.10938-0.55862-0.59033-2.5346-2.0832-3.8-2.6719-4.2129h13.604c-0.4049 0.36548-0.75693 0.80027-1.0371 1.291-0.14134 0.25285-0.26291 0.50513-0.36328 0.76172-0.36839 0.9134-0.47376 1.8492-0.31445 2.7188zm-10.461 0h-3.9277c0.0644-8e-3 0.12952-0.0189 0.19336-0.0302h4e-3l0.0469-0.0113c0.87385-0.20069 1.5284-0.80069 1.7031-1.6113 0.0595-0.28989 0.0574-0.58243-6e-3 -0.86132-0.10784-0.44995-0.36894-0.85996-0.75195-1.1426h-4e-3c-0.1599-0.11905-0.36076-0.15609-0.54297-0.11527-0.14874 0.0378-0.28613 0.12396-0.38281 0.25776-0.119 0.15987-0.15595 0.35868-0.11133 0.541 0.0335 0.14891 0.11809 0.28989 0.25195 0.38672 0.12271 0.0892 0.20872 0.22413 0.24219 0.37304 0.0223 0.0892 0.0225 0.18671 4e-3 0.28309-0.0298 0.14135-0.0996 0.2589-0.21484 0.35943-0.119 0.10394-0.28005 0.18595-0.48829 0.23433l-0.0293 8e-3c-0.27145 0.0593-0.55487-3e-3 -0.75195-0.14853-0.26773-0.2007-0.43716-0.48412-0.50781-0.78906-0.0893-0.38301-0.0187-0.80224 0.23047-1.1406 0.27517-0.37191 0.65692-0.62245 1.0957-0.72658 0.0483-0.0113 0.0964-0.0227 0.14844-0.0302 0.502-0.0745 0.99721 0.0484 1.4062 0.34582l4e-3 4e-3 0.0527 0.034 4e-3 4e-3h2e-3c0.0632 0.0408 1.69 0.98899 2.2812 3.5176 0.019 0.0824 0.032 0.17197 0.0488 0.25776zm-4.5215 0h-60.855c0.0302-0.0378 0.0605-0.0726 0.0898-0.1115 0.52431-0.68791 0.73235-1.5548 0.57617-2.3691-0.0185-0.0854-0.0363-0.17197-0.0586-0.25398-0.24287-0.89254-0.81922-1.6078-1.6211-2.0371h60.824c-0.20271 0.16781-0.389 0.35943-0.54883 0.57619-0.48713 0.66561-0.6279 1.4832-0.45313 2.2343 0.13759 0.59497 0.4796 1.149 1.0039 1.5469 0.30389 0.22677 0.66601 0.36548 1.043 0.41408zm-62.564 0h-1.0117c-0.48255-0.17575-0.84151-0.59717-0.94141-1.1133-0.0558-0.27515 0.0189-0.56886 0.19725-0.81056 0.27519-0.36812 0.62842-0.5314 0.9668-0.45702 0.29004 0.0669 0.51649 0.30199 0.57227 0.59962 0.052 0.27515-0.12306 0.53779-0.39454 0.58984-0.28633 0.0559-0.47179 0.33071-0.41601 0.61719 0.0558 0.28611 0.33456 0.47373 0.61719 0.41794 0.83666-0.16365 1.3902-0.98184 1.2266-1.8223-0.13758-0.7065-0.67573-1.2639-1.3711-1.4238-0.75486-0.17462-1.5169 0.14513-2.0449 0.85156-0.35327 0.476-0.49455 1.0735-0.38671 1.6387 0.0641 0.33147 0.194 0.64007 0.37303 0.91212h-2.8516c0.42682-0.38068 0.85084-0.88539 1.2285-1.5586 0.46109-0.81064 1.0745-1.5619 1.6211-1.9746l0.0742-0.0624c0.65818-0.5243 1.529-0.68587 2.3359-0.42187 0.75486 0.24529 1.3051 0.8149 1.5059 1.5586 0.0147 0.0593 0.0299 0.12019 0.041 0.18369 0.10413 0.528-0.0295 1.0699-0.37891 1.5273-0.28237 0.37002-0.61316 0.62336-0.96289 0.74804zm-8.7695-4e-3c-0.0781-0.0378-0.15163-0.0869-0.21482-0.14249-0.20826-0.17839-0.3351-0.4258-0.35743-0.69729-0.0299-0.39042 0.25957-0.73409 0.64257-0.76754 0.12643-0.0113 0.24299 0.0378 0.33593 0.12699 0.14502 0.14135 0.20088 0.28535 0.15624 0.40819-0.037 0.10053-0.12635 0.17235-0.23047 0.17953-0.29004 0.0227-0.50669 0.27439-0.48438 0.56447 0.0113 0.12624 0.0668 0.24264 0.15235 0.32806z"/>
 </g>
</svg>
