<?xml version="1.0" encoding="UTF-8"?>
<svg version="1.1" viewBox="0 0 120 120" xmlns="http://www.w3.org/2000/svg">
    <path
        d="m45.102 7.2551c0.61594-0.49607 1.3287-0.88783 1.9775-1.3422 0.578-0.40518 1.1448-0.85427 1.76-1.2014 0.66882-0.37612 0.77237-1.331 0.24055-1.8628-0.49157-0.49157-1.5596-0.47815-1.8635 0.23984-0.30091 0.7113-0.71724 1.3846-1.0837 2.0639-0.3672 0.68073-0.66436 1.4144-1.0763 2.0683-0.0189 0.0302 0.0215 0.0537 0.0454 0.034" />
    <path
        d="m44.127 6.8998c4e-3 0.0284 0.0498 0.0261 0.0559 0 0.32771-1.4688 0.75972-3.0194 1.2558-4.4406 0.63533-1.8211-2.8586-2.002-2.2881 0 0.4059 1.4248 0.74033 2.977 0.97646 4.4406" />
    <path
        d="m39.69 4.534c0.61671 0.40295 1.1783 0.90718 1.7548 1.3645 0.5802 0.46032 1.217 0.8647 1.7682 1.3593 0.0246 0.0227 0.0619-8e-3 0.0454-0.034-0.35154-0.64799-0.59436-1.3563-0.90642-2.0244-0.30835-0.6599-0.67256-1.3183-0.91984-2.0043-0.27857-0.77608-1.1701-1.1507-1.8628-0.61595-0.6763 0.52211-0.57347 1.503 0.12056 1.9558" />
    <path
        d="m38.099 8.3133c1.5112-0.15344 3.1327-0.2158 4.6519-0.19501 0.0344 0 0.0355-0.0446 8e-3 -0.0567-1.3556-0.56236-2.7811-1.2416-4.0608-1.9589-1.8613-1.0435-2.4437 2.3983-0.59883 2.2106" />
    <path
        d="m40.677 9.5982c-0.74331 0.19804-1.4874 0.43723-2.2441 0.57279-1.877 0.33522-0.27857 3.4961 1.1544 1.9827 0.51988-0.5489 1.1194-1.0301 1.6848-1.5328 0.56606-0.50352 1.0859-1.0681 1.6788-1.5388 0.0223-0.0151-2e-3 -0.0567-0.0283-0.0484-0.7314 0.23923-1.5015 0.36584-2.2456 0.56455" />
    <path
        d="m43.122 14.096c0.0961-1.4338 0.31875-2.9949 0.59732-4.4063 6e-3 -0.0302-0.0351-0.0506-0.053-0.0227-0.76269 1.2088-1.6594 2.4862-2.5696 3.59-1.4211 1.722 1.8829 2.9852 2.0252 0.83866" />
    <path
        d="m47.192 13.604c-0.8893-1.2178-1.7652-2.6068-2.4929-3.9259-0.017-0.0302-0.0566-8e-3 -0.0522 0.0227 0.1995 1.4494 0.32399 3.0388 0.33367 4.5023 0.0147 2.1197 3.3167 0.91462 2.2113-0.59883" />
    <path
        d="m49.781 10.392c-0.73662-0.17573-1.4546-0.4551-2.1741-0.69346-0.72025-0.23923-1.471-0.40665-2.1756-0.68518-0.0276-0.0113-0.0492 0.0302-0.0284 0.0476 0.572 0.51319 1.0658 1.1165 1.6088 1.6602 0.54221 0.54293 1.1202 1.0673 1.6147 1.6542 1.2438 1.4755 3.1595-1.5038 1.1545-1.9834" />
    <path
        d="m49.668 6.3556c-1.2974 0.62861-2.7476 1.2088-4.1092 1.6832-0.0306 0.0113-0.0261 0.0552 8e-3 0.0567 1.4308 0.065 2.9703 0.19955 4.3855 0.42831 2.2061 0.35601 1.6587-3.1096-0.28382-2.1682" />
    <path
        d="m82.774 1.1553c-0.68077 0.6167-0.49751 1.573 0 2.2121 0.63979 0.82079 1.1694 0.15941 1.8948 0.2443 0.72021-0.72396 1.3302-0.24354 1.8307 1.4419-0.20559 0.69044-0.5921 1.226-1.1604 1.6066-1.2133 1.0264-2.6746 1.1009-4.1591 0.63163-2.5622-0.80964-4.5053-2.7-6.6795-4.2351-0.88258-1.0964-2.1905-1.8881-3.8401-2.0549-2.9882-0.30314-6.0257 0.78428-8.5563 2.2955-3.2571 1.944-6.0321 6.1693-10.024 6.3987-0.0302 2e-3 -0.0397 0.0476-8e-3 0.0567 3.7925 1.1172 6.9187-3.1089 9.8836-4.8035 2.3633-1.3496 6.8745-3.3278 9.5404-1.608 3.0426 1.9633 0.36129 3.955-0.35904 6.0994-0.19652 0.58465 0.22714 1.2796 0.8096 1.4263 0.17952 0.045 0.35903 0.0903 0.53847 0.13568 0.57725 0.14512 1.2178 4e-3 1.6386-0.43349 1.5976-1.6624 1.9477-3.8337 1.3556-5.692 3.5594 3.5118 7.4323 7.5072 11.945 3.6042 1.9127-1.6542 2.8139-4.6969 1.252-6.8934-1.4531-2.0438-4.1338-2.0341-5.9032-0.43273" />
    <path
        d="m32.264 9.0691c-0.0589 1.299 2.116 1.2692 1.9954 0-0.13111-1.3868 0.22566-2.7618 1.3101-3.6883 0.0655-0.0559-4e-3 -0.15117-0.0781-0.13492-1.8598 0.41783-3.1409 1.9306-3.2273 3.8231" />
    <path
        d="m32.411 5.5393c0.0268-0.0215-8e-3 -0.0595-0.0352-0.0454-1.3176 0.67105-2.2761 1.4666-2.8645 2.8556-0.47517 1.1232-0.95858 3.1528 0.19592 3.9841 0.28526 0.20559 0.74629 0.17725 1.0345 0 0.0329-0.0227 0.0663-0.0408 0.0998-0.0609 0.66957-0.41114 0.58911-1.1641 0.14229-1.5701-0.79845-1.6103 0.14758-4.133 1.427-5.1629" />
    <path
        d="m32.827 2.7124c0.16002-0.0352 0.14823-0.27037 0-0.3121-0.51394-0.14376-0.96678-0.3791-1.3697-0.7314-0.38061-0.3322-0.59138-0.78579-0.95635-1.1172-0.68447-0.62044-1.8166 0.16833-1.3131 1.0129 0.68522 1.15 2.4408 1.4084 3.6392 1.1478" />
    <path
        d="m23.829 3.2679c1.5909 1.1574 3.3948 1.3876 5.2302 0.68224 0.0291-0.0106 0.0231-0.0483-8e-3 -0.053-1.5082-0.20185-3.0098-1.0561-4.0136-2.1964-0.90348-1.0263-2.4393 0.6718-1.2088 1.5671" />
    <path
        d="m23.961 7.0283c0.89898-0.20775 2.1853-0.50574 2.8556-1.1828 0.0402-0.0403 0.0261-0.12374-0.0359-0.13493-0.42457-0.0811-0.86996-0.0215-1.3027-0.0589-0.5251-0.0454-1.0189-0.1706-1.5172-0.33961-1.3265-0.44989-1.541 2.0728 0 1.7161" />
    <path
        d="m52.502 8.9557c1.1008-0.86247 1.9641-2.1518 2.268-3.5237 0.32842-1.4829-2.1056-1.4799-1.7682 0 0.28836 1.2602 0.10053 2.3559-0.58466 3.4582-0.034 0.0559 0.0404 0.10053 0.085 0.0654" />
    <path
        d="m55.601 7.2929c1.1708-1.042 1.9879-2.3268 2.4936-3.8076 0.0907-0.26591-0.0189-0.56084-0.20031-0.75672-0.0382-0.0418-0.0767-0.0834-0.11564-0.12514-0.16327-0.17577-0.48265-0.22048-0.68598-0.0886-0.73292 0.47668-0.48564 1.2706-0.59887 2.0408-0.13945 0.95711-0.4707 1.8583-0.93548 2.7044-0.0151 0.0265 0.0189 0.0529 0.0423 0.034" />
    <path
        d="m59.191 4.088c0.35147-0.35752 0.76341-0.61149 1.1462-0.92952 0.3791-0.31432 0.78878-0.59437 1.2453-0.78726 0.89827-0.3791 0.2449-1.6878-0.49826-1.1828-0.51617 0.35079-0.98095 0.75748-1.369 1.2483-0.35676 0.45136-0.51243 1.0398-0.61447 1.5991-0.0113 0.0498 0.0499 0.0931 0.0903 0.0522" />
    <path
        d="m52.502 10.656c-0.13038-0.0302-0.22637 0.12661-0.13114 0.22563 0.65023 0.67403 1.2893 1.1611 2.1332 1.5753 0.79471 0.39025 1.5894 0.80959 2.4832 0.68 0.69418-0.0998 0.71874-1.118 0.1867-1.4293-0.68371-0.39917-1.5366-0.34127-2.303-0.51092-0.79025-0.17498-1.582-0.35374-2.3692-0.54074" />
    <path
        d="m56.508 9.7116c-0.076-2e-3 -0.11602 0.11754-0.0408 0.15117 0.88484 0.38806 1.7965 0.67332 2.7543 0.81856 0.90646 0.13794 1.7466 0.30385 2.3298-0.50276 0.20937-0.29063 0.0408-0.71353-0.23243-0.8856-0.71356-0.44909-1.3489-0.0408-2.0974 0.14588-0.89301 0.2226-1.7965 0.29554-2.7133 0.27249" />
    <path
        d="m62.101 6.76c-0.87811 0.39849-1.8009 0.69418-2.6969 1.0494-0.0227 8e-3 -0.0302 0.0461 0 0.0522 0.94664 0.18934 1.8814 0.18518 2.8392 0.085 0.91167-0.0952 1.8717-0.13492 2.5778-0.75744 0.48787-0.43054 0.10582-1.3288-0.537-1.2968-0.82676 0.0401-1.4427 0.53106-2.1831 0.86772" />
    <path
        d="m69.169 4.243c-1.4524-0.85057-3.0023-0.51315-4.3326 0.34709-0.0302 0.0212-4e-3 0.064 0.0302 0.0498 1.1984-0.51912 2.4497 0.064 3.2809 0.92728 0.84236 0.87366 2.0974-0.69489 1.0226-1.3243" />
    <path
        d="m43.776 7.5196c-0.0454 8e-3 -0.0908 0.0151-0.1364 0.0264-0.77161 0.14664-0.77237 1.4129 0 1.5596 0.0454 8e-3 0.0908 0.0151 0.1364 0.0264 0.52732 0.10053 1.0584-0.23394 1.0584-0.80586 0-0.56829-0.53031-0.90646-1.0584-0.80589" />
    <path
        d="m75.934 11.904c-0.43941 2.1413 2.8772 2.5778 2.9428 0.39845 0.0302-0.99282-0.0151-1.9566-0.49456-2.8422-0.41712-0.76939-0.96156-1.4584-1.5835-2.0721-0.14097-0.13946-0.42974-0.0446-0.41409 0.1712 0.0537 0.73439 0.034 1.4576-0.12963 2.1793-0.16478 0.71947-0.17196 1.4419-0.32087 2.1652" />
    <path
        d="m33.118 27.436c-0.25696 0.83345-0.71429 1.6259-1.2379 2.3089-0.31727 0.41409-0.68598 0.75449-1.0606 1.0889-0.33443 0.37453-0.67483 0.74256-1.0889 1.0606-0.68228 0.52362-1.4755 0.98095-2.309 1.2379 0.16826-0.61746 0.24653-1.2565 0.2279-1.906 0.61073-0.17876 1.1656-0.26531 1.7406-0.57275 0.26814-0.14361 0.52286-0.30612 0.77014-0.47895 0.17272-0.24717 0.33515-0.502 0.47891-0.7701 0.3076-0.57502 0.39399-1.1299 0.57279-1.7406 0.64947 0.0189 1.2885-0.0597 1.906-0.22789zm1.7957-0.77759c-0.12139 1.2282-0.9094 2.7022-1.3667 3.5542-0.3836 0.71652-0.84387 1.3742-1.3541 1.9946-0.61969 0.51017-1.2781 0.96973-1.9939 1.354-0.8528 0.45733-2.3268 1.2454-3.555 1.3667 0.324-0.53847 0.57873-1.112 0.75076-1.7108 1.3935-0.34845 2.9107-0.8342 4.0325-1.7757 0.94145-1.1217 1.4271-2.6389 1.7756-4.0325 0.59883-0.17195 1.1723-0.42683 1.7108-0.75079zm1.6185-1.296c0.10495 1.4725 0.064 3.0202-0.40816 4.381-0.51689 1.4874-1.4814 2.723-2.4676 3.9274-1.2043 0.98609-2.44 1.9506-3.9274 2.4675-1.3608 0.47222-2.9085 0.51319-4.3802 0.40745 0.44093-0.41788 0.8297-0.88262 1.1567-1.3832 2.0632 0.35299 4.5537-0.96526 6.3473-2.2955 1.3302-1.7935 2.6486-4.2842 2.2955-6.3473 0.50053-0.32691 0.96527-0.71576 1.3839-1.1574zm1.0368-1.3667c0.9556 2.758 0.91312 5.8103-0.47815 8.4724-0.51096 0.97868-1.159 1.9075-1.8993 2.7379-0.83046 0.74036-1.7593 1.3876-2.7379 1.8993-2.662 1.3913-5.7143 1.4338-8.4724 0.47815 0.40741-0.24489 0.78503-0.52804 1.1373-0.83714 1.7362 0.44017 3.2995 0.68594 5.1368 0.0302 1.4881-0.53107 2.8355-1.4345 4.0688-2.4385 1.004-1.2342 1.9082-2.5808 2.4385-4.0688 0.65468-1.8374 0.40963-3.4008-0.0314-5.1368 0.30907-0.35223 0.5921-0.72993 0.83715-1.1373zm-10.975-14.827c-0.45805 1.3026-0.80143 2.8474-0.83121 4.3571-1.191 4.757-2.659 10.352 2.3216 13.239 0.99951 0.57944 2.0363 0.85355 3.0545 0.89452-0.24653 0.49902-0.6949 1.0137-1.0495 1.4412-0.15201 0.18254-0.31728 0.35148-0.48489 0.51841-0.16678 0.1678-0.3359 0.33295-0.51836 0.48488-0.42752 0.3545-0.94218 0.80291-1.4412 1.0494-0.041-1.0181-0.31508-2.0549-0.89452-3.0545-2.8862-4.9807-8.4811-3.5125-13.239-2.3216-1.5098 0.0302-3.0545 0.37301-4.3571 0.83118-3.6086 1.2684-6.1856 4.1145-5.8295 8.0604 0.0027 0.0378 0.05884 0.0382 0.05737 0-0.13704-4.0593 3.3003-6.6096 6.9648-7.3439 1.4606-0.2929 3.4395-0.51765 4.8972-0.0151 1.7339 0.59959 2.6516 1.7779 2.7528 3.5349 0.0834 1.9581-0.86995 2.7126-2.8593 2.2627 0.50125-0.47222-0.0166-1.4919-0.70831-1.2163-2.338 0.93175-1.3667 3.9244 1.0152 3.9637 3.383 0.0567 5.1459-4.3878 3.8307-7.0869-0.96526-1.9827-2.7826-2.796-4.7721-2.9591 3.5267-0.57796 7.5242-0.89081 9.7967 1.6512 2.9792 3.333 1.0226 8.1878-3.126 9.1308-1.2528 0.28458-0.7195 2.2158 0.53031 1.9238 0.54743-0.12736 1.0695-0.31519 1.5641-0.54743 2.5763 1.6036 5.5748 2.0534 8.6421 1.0792 1.3913-0.4424 3.1483-1.3496 4.5767-2.545 1.1954-1.4286 2.1034-3.1856 2.545-4.5767 0.97498-3.0671 0.52437-6.0658-1.0792-8.6421 0.23315-0.49455 0.42007-1.0167 0.54819-1.5641 0.29123-1.2505-1.6401-1.7831-1.9246-0.53031-0.94293 4.1485-5.7978 6.1051-9.1308 3.126-2.5421-2.2724-2.2292-6.2706-1.6512-9.7967 0.16312 1.9894 0.97646 3.8069 2.9592 4.7721 2.6992 1.3153 7.1436-0.44766 7.0869-3.8307-0.0395-2.3819-3.0321-3.3532-3.9637-1.0152-0.27559 0.69195 0.74406 1.2096 1.2162 0.70831 0.44989 1.9894-0.30461 2.9428-2.2627 2.8594-1.757-0.10129-2.9353-1.0189-3.5349-2.7528-0.50201-1.4576-0.27706-3.4366 0.0155-4.8972 0.73439-3.6645 3.2846-7.1016 7.3447-6.9648 0.0374 2e-3 0.0355-0.0543 0-0.0573-3.9467-0.35601-6.7925 2.221-8.0612 5.8295" />
    <path
        d="m39.101 23.393c1.7786-0.68598 3.6198-1.258 5.3239-2.1071 1.3414-0.66885 0.0589-2.8556-1.1701-2.0021-1.5671 1.0874-2.9569 2.4259-4.4161 3.6585-0.20037 0.16894 0.0129 0.54668 0.26217 0.45061" />
    <path
        d="m40.034 24.867c0.81258-0.16478 1.6259-0.2449 2.4527-0.30008 0.75597-0.0506 1.5358 0.059 2.2821-0.0385 1.2125-0.15798 1.2796-1.8591 0-1.941-1.7153-0.11035-3.5639 0.83568-4.9633 1.7377-0.28824 0.18556-0.10132 0.60922 0.22865 0.54221" />
    <path
        d="m45.382 26.454c-1.5522-0.49531-3.6407-0.59214-5.1206 0.13983-0.15264 0.076-0.10132 0.30008 0.0448 0.34581 0.7545 0.23167 1.5269 0.31141 2.2888 0.51912 0.78877 0.21542 1.515 0.56459 2.271 0.86697 1.1403 0.45657 1.7235-1.4874 0.51614-1.8717" />
    <path
        d="m45.182 30.158c-1.4122-0.65246-3.1781-1.1291-4.7177-0.67483-0.3322 0.0983-0.27929 0.50725 0 0.62418 1.2982 0.5452 2.5473 0.93923 3.7434 1.7175 1.0569 0.6882 2.0922-1.15 0.97422-1.6669" />
    <path
        d="m39.452 33.03c1.1053 0.99955 2.478 1.6878 3.6108 2.6746 1.1008 0.95933 2.4519-0.75525 1.2319-1.5969-1.3444-0.92653-3.094-1.7443-4.76-1.3928-0.13616 0.0265-0.18537 0.2226-0.0828 0.31519" />
    <path
        d="m38.069 36.809c1.1776 0.7396 2.1816 1.6832 2.9547 2.8415 0.99732 1.4941 3.0604-0.42234 1.821-1.4055-1.3295-1.0539-2.7864-1.8248-4.4361-2.2419-0.48787-0.12358-0.76418 0.53927-0.33965 0.8059" />
    <path
        d="m33.689 20.747c-1.1515 0.26682-1.8687 1.2319-3.1446 1.2945-1.6721 0.082-3.2474-0.96678-4.1931-2.2798-0.0215-0.0302-0.0678-4e-3 -0.0499 0.0302 0.89826 1.6922 2.0967 3.1811 4.0563 3.6354 1.5157 0.35147 3.8813 0.0945 4.3602-1.6505 0.17419-0.63458-0.41485-1.1701-1.0286-1.0286" />
    <path
        d="m25.794 7.822c-0.50722 0.37834-0.9556 0.67778-1.3042 1.226-0.37763 0.59437-0.59883 1.255-0.6599 1.9544-0.10801 1.2372 2.0743 1.1396 1.7808-0.24036-0.1974-0.9288-0.25696-2.0341 0.22195-2.9003 0.0132-0.0227-0.0151-0.0574-0.0387-0.0397" />
    <path
        d="m18.454 10.732c0.74406 2.1242 1.3779 4.6969 0.69266 6.8866-0.0113 0.0378 0.0417 0.0484 0.0559 0.0151 1.3369-3.2057 1.0994-8.2256-1.2111-10.962-0.20185-0.23984-0.57872-0.30461-0.86772-0.22941-0.1065 0.0276-0.21376 0.0559-0.32102 0.0842-0.18994 0.0492-0.30835 0.22718-0.31655 0.41561-0.02 0.44172 0.0409 0.62192 0.24429 0.98987 0.56384 1.0219 1.3034 1.6006 1.7235 2.8005" />
    <path
        d="m7.2073 45.048c-0.65393 0.41191-1.3876 0.70907-2.0683 1.0763-0.67929 0.36659-1.3526 0.7828-2.0639 1.0837-0.71799 0.30385-0.7314 1.372-0.23983 1.8635 0.53178 0.53182 1.4867 0.42827 1.8635-0.24037 0.34633-0.61522 0.79546-1.182 1.2006-1.76 0.45434-0.64871 0.84611-1.3615 1.3429-1.9775 0.01852-0.0227-0.0049-0.0639-0.03515-0.0453" />
    <path
        d="m2.4605 45.426c1.4218-0.49603 2.9718-0.928 4.4407-1.2565 0.02683-4e-3 0.02834-0.0506 0-0.0552-1.4628-0.2362-3.0158-0.57055-4.4407-0.97645-2.0021-0.57052-1.8211 2.9234 0 2.288" />
    <path
        d="m2.5777 39.568c-0.53477 0.69267-0.16013 1.5835 0.61595 1.8628 0.68598 0.24717 1.3444 0.61149 2.0043 0.91984 0.6681 0.31217 1.3764 0.55492 2.0244 0.90646 0.0291 0.0151 0.05661-0.0227 0.03515-0.0453-0.49456-0.55117-0.89898-1.188-1.3593-1.7682-0.45733-0.57725-0.96156-1.1388-1.3645-1.7556-0.45283-0.69342-1.4338-0.79693-1.9559-0.1198" />
    <path
        d="m6.1075 38.699c0.71727 1.2803 1.3973 2.7059 1.9589 4.0616 0.01172 0.0265 0.05733 0.0265 0.05661-8e-3 -0.02079-1.5186 0.04172-3.1401 0.19516-4.6519 0.18768-1.8441-3.2534-1.2617-2.2106 0.59883" />
    <path
        d="m10.17 38.434c-0.13556 0.75672-0.37464 1.5008-0.57275 2.2434-0.19887 0.74482-0.32472 1.515-0.56455 2.2464-0.0083 0.0265 0.03061 0.0506 0.04845 0.0265 0.47071-0.59285 1.0361-1.1127 1.5388-1.6788 0.50276-0.56531 0.9839-1.1649 1.5328-1.6848 1.5134-1.433-1.6475-3.0314-1.9827-1.1545" />
    <path
        d="m9.694 43.725c1.4114-0.27777 2.9726-0.50052 4.4063-0.59659 2.1466-0.14286 0.88409-3.4463-0.83866-2.0252-1.1038 0.91016-2.3812 1.8069-3.59 2.5696-0.02834 0.0151-0.0087 0.059 0.0223 0.0522" />
    <path
        d="m14.188 44.972c-1.4636-0.0113-3.053-0.13417-4.5023-0.33371-0.02986-4e-3 -0.05291 0.034-0.0223 0.0521 1.319 0.72695 2.7089 1.6036 3.9259 2.4921 1.5134 1.106 2.7186-2.1957 0.59882-2.2106" />
    <path
        d="m10.389 49.772c0.47967 2.005 3.4589 0.0892 1.9834-1.1545-0.58692-0.49456-1.1113-1.0726-1.6542-1.6148-0.54372-0.54373-1.147-1.0368-1.6594-1.6088-0.01852-0.0227-0.05884 5.7e-4 -0.04841 0.0265 0.27857 0.70533 0.44614 1.4561 0.68522 2.1763 0.23832 0.71946 0.51765 1.4375 0.69342 2.1741" />
    <path
        d="m8.5225 49.961c-0.22793-1.4151-0.36345-2.9546-0.42827-4.3855-0.0017-0.034-0.04618-0.0382-0.05661-8e-3 -0.47445 1.3622-1.0546 2.8124-1.6833 4.11-0.94142 1.9425 2.5249 2.4899 2.1681 0.28383" />
    <path
        d="m1.5875 88.661c2.1964 1.5619 5.2388 0.66065 6.8942-1.2528 3.9021-4.5121-0.09308-8.3858-3.6049-11.944 1.8583 0.59214 4.0295 0.24188 5.692-1.3556 0.43794-0.42082 0.57872-1.0614 0.43348-1.6393-0.04543-0.17876-0.09085-0.35827-0.13556-0.53775-0.14675-0.58243-0.84165-1.0062-1.4263-0.8096-2.1443 0.72022-4.136 3.4015-6.0994 0.35903-1.7198-2.6657 0.25846-7.1769 1.608-9.5404 1.6944-2.9651 5.9206-6.0911 4.8035-9.8836-0.0087-0.0302-0.05435-0.0227-0.05586 8e-3 -0.23016 3.9906-4.4546 6.7668-6.3995 10.024-1.5112 2.5309-2.5986 5.5684-2.2955 8.5563 0.16686 1.6498 0.95858 2.9577 2.0549 3.8401 1.5351 2.1741 3.4254 4.1172 4.2358 6.6795 0.46848 1.4844 0.39399 2.9457-0.63235 4.1591-0.38061 0.56829-0.91538 0.95488-1.6058 1.1604-1.6862-0.50053-2.1667-1.1105-1.4427-1.8308-0.08492-0.72543 0.57649-1.255-0.24429-1.8948-0.63904-0.4975-1.5954-0.68072-2.2121 0-1.6014 1.7697-1.611 4.4505 0.43273 5.9032" />
    <path
        d="m4.4182 4.0011c1.5254 0.33292 3.0344 0.79917 4.4407 1.4837 2.0967 1.0204 4.0144 2.3692 5.4497 4.2245 1.6051 2.0743 2.6262 4.7286 2.7923 7.3923-2.6634-0.16629-5.3178-1.1872-7.3923-2.7923-1.8553-1.4353-3.2042-3.3531-4.2245-5.4497-0.68447-1.4062-1.1507-2.9152-1.4837-4.4414-0.03741-0.17207-0.06927-0.3441-0.09906-0.51613 0.17203 0.0299 0.3441 0.0619 0.51689 0.099zm9.7989 2.1882c1.3973-2.0214 3.7747-1.43 5.0714 0.33666 2.7312 3.7241 2.2076 9.3348 1.2714 14.034-4.6999 0.93696-10.31 1.4606-14.034-1.2707-1.7674-1.2967-2.3588-3.6742-0.33742-5.0714 0.1192-0.0828 0.2212-0.17423 0.31058-0.27022 0.71874 0.6331 1.4963 1.1984 2.3223 1.6781 2.5599 1.4881 5.6984 2.2382 8.6719 1.8687 0.37018-2.974-0.38061-6.1119-1.868-8.6719-0.48043-0.826-1.0457-1.6036-1.6788-2.3223 0.0961-0.0893 0.18768-0.1915 0.27037-0.31058zm-9.9656 5.274c-3.018 2.3648-3.6414 6.5291-0.59286 9.2468 4.3662 3.8938 11.791 2.1503 17.302 0.25094 1.9-5.511 3.6436-12.936-0.25098-17.302-2.7178-3.0485-6.8821-2.4251-9.2468 0.59213-0.44093-0.31727-0.89452-0.6167-1.3667-0.88333-2.4385-1.3742-6.3673-3.2012-9.2513-2.5227-0.67778 2.8839 1.1485 6.8129 2.5234 9.2513 0.26591 0.47222 0.5653 0.92581 0.88333 1.3667" />
    <path
        d="m5.363 35.562c0.92653-1.0851 2.3015-1.4412 3.6883-1.3101 1.2692 0.12056 1.2989-2.0542 0-1.9954-1.8926 0.0858-3.4053 1.3675-3.8231 3.2272-0.01663 0.0729 0.0797 0.14361 0.13484 0.0782" />
    <path
        d="m8.3486 29.515c-1.3891 0.58768-2.1845 1.547-2.8556 2.8645-0.01398 0.0265 0.02381 0.062 0.04543 0.034 1.0301-1.2796 3.5528-2.2255 5.1629-1.427 0.40593 0.44686 1.1589 0.52732 1.5701-0.14248 0.02079-0.034 0.04093-0.0673 0.06183-0.10053 0.17653-0.2876 0.20484-0.74853 0-1.0338-0.83197-1.1544-2.8616-0.67108-3.9849-0.19576" />
    <path
        d="m1.6706 31.442c0.3523 0.40295 0.58764 0.85578 0.7314 1.3697 0.04172 0.14815 0.27782 0.15986 0.31209 0 0.2607-1.1984 0.0023-2.9539-1.1478-3.6392-0.84463-0.50347-1.6334 0.62865-1.013 1.3124 0.33144 0.36583 0.78503 0.57645 1.1172 0.95706" />
    <path
        d="m3.9495 29.062c0.70608-1.8352 0.47521-3.6391-0.68224-5.2302-0.89528-1.2304-2.5934 0.30461-1.5671 1.2088 1.1403 1.004 1.9946 2.5056 2.1964 4.0136 0.0045 0.0302 0.04172 0.0378 0.05291 8e-3" />
    <path
        d="m5.7145 26.794c0.01172 0.062 0.09459 0.076 0.13481 0.034 0.67702-0.67033 0.97494-1.9566 1.1828-2.8556 0.35676-1.541-2.1659-1.3265-1.7161 0 0.16908 0.49826 0.29494 0.99206 0.33964 1.5172 0.03741 0.43201-0.0223 0.87816 0.05884 1.3027" />
    <path
        d="m8.9382 52.531c0.03515-0.0454-0.0098-0.11981-0.06553-0.085-1.1023 0.68522-2.198 0.87294-3.4574 0.58466-1.4807-0.33749-1.4837 2.0967 0 1.7682 1.3712-0.30385 2.6605-1.1672 3.523-2.268" />
    <path
        d="m7.3055 55.63c0.02003-0.0227-0.0049-0.0575-0.03288-0.0423-0.84611 0.46478-1.7473 0.79546-2.7044 0.93549-0.77014 0.113-1.5641-0.13417-2.0401 0.59882-0.13258 0.20333-0.08791 0.52287 0.08791 0.68598 0.04176 0.0386 0.08341 0.0767 0.12513 0.11565 0.19588 0.18178 0.49085 0.291 0.75673 0.2003 1.4807-0.50571 2.7655-1.3228 3.8076-2.4936" />
    <path
        d="m2.3698 61.601c0.19289-0.45654 0.47294-0.86622 0.78802-1.2461 0.31727-0.38209 0.57128-0.79395 0.9288-1.1455 0.04093-0.0404-0.0023-0.0998-0.05212-0.0903-0.55862 0.10204-1.1478 0.25775-1.5991 0.61448-0.49085 0.3873-0.8975 0.85279-1.2483 1.369-0.50499 0.74331 0.80366 1.3965 1.1828 0.49826" />
    <path
        d="m11.708 57.179c0.31058 0.53183 1.3288 0.50726 1.4286-0.18669 0.1296-0.8938-0.28972-1.6885-0.68-2.4832-0.41413-0.84387-0.90121-1.4829-1.5753-2.1331-0.09905-0.0952-0.25624 5.7e-4 -0.22566 0.13114 0.18696 0.78726 0.36568 1.579 0.54074 2.3692 0.1698 0.76644 0.11172 1.6192 0.51168 2.303" />
    <path
        d="m9.7243 56.499c0.02305 0.91682-0.04989 1.8203-0.2726 2.7133-0.18696 0.74853-0.59512 1.3831-0.14599 2.0974 0.17203 0.27324 0.59512 0.44165 0.8856 0.23243 0.80665-0.58394 0.64055-1.4233 0.50276-2.3298-0.14524-0.95782-0.4305-1.8695-0.81855-2.7543-0.03364-0.076-0.15268-0.034-0.15117 0.0408" />
    <path
        d="m7.8082 59.371c-0.35454 0.89599-0.65098 1.8188-1.0494 2.6962-0.33666 0.74108-0.82751 1.357-0.86772 2.1838-0.03212 0.64278 0.86697 1.0241 1.2967 0.537 0.62268-0.70609 0.66213-1.6661 0.75748-2.5778 0.10053-0.95783 0.10427-1.8926-0.08492-2.8392-6e-3 -0.0302-0.04316-0.0227-0.05212 0" />
    <path
        d="m4.5882 64.851c-0.86024 1.3302-1.1977 2.8802-0.34709 4.3318 0.62936 1.0755 2.198-0.17952 1.3243-1.0219-0.86323-0.83122-1.4464-2.0825-0.92728-3.2809 0.01398-0.034-0.0291-0.0612-0.04989-0.0302" />
    <path
        d="m9.1423 43.763c-0.0083-0.0454-0.01701-0.0907-0.02608-0.13643-0.14675-0.77238-1.4129-0.77162-1.5596 0-0.0087 0.0453-0.01701 0.0907-0.02608 0.13643-0.10057 0.52804 0.23832 1.0584 0.8059 1.0584 0.57203 0 0.90642-0.53107 0.80589-1.0584" />
    <path
        d="m7.555 76.378c-0.21674-0.0151-0.31134 0.27324-0.17203 0.41409 0.61372 0.62117 1.3027 1.1656 2.0721 1.5827 0.8856 0.48042 1.8494 0.52509 2.8422 0.49531 2.1793-0.0661 1.7429-3.3822-0.39849-2.9427-0.7232 0.14815-1.4449 0.15646-2.1652 0.32086-0.72173 0.16478-1.4449 0.1833-2.1786 0.12963" />
    <path
        d="m21.278 44.405c0.84909-1.7041 1.4211-3.5453 2.1071-5.3239 0.0961-0.24868-0.28156-0.46327-0.45061-0.26228-1.2326 1.4584-2.5711 2.8481-3.6585 4.4161-0.85355 1.229 1.334 2.5115 2.002 1.1701" />
    <path
        d="m24.335 39.795c-0.90196 1.3995-1.8479 3.2481-1.7376 4.9633 0.0819 1.2796 1.7831 1.2126 1.941 0 0.0976-0.74629-0.0117-1.5261 0.0387-2.2821 0.0551-0.82747 0.13556-1.6401 0.30015-2.4527 0.067-0.32993-0.35677-0.51689-0.54222-0.22864" />
    <path
        d="m28.322 44.859c-0.30242-0.75601-0.6517-1.4822-0.86697-2.2709-0.20707-0.76195-0.28749-1.5343-0.51912-2.2888-0.0454-0.14588-0.26962-0.19728-0.34558-0.0446-0.73216 1.4799-0.63458 3.5684-0.14002 5.1206 0.38507 1.2073 2.3283 0.62415 1.8717-0.51613" />
    <path
        d="m31.822 44.216c-0.7783-1.1961-1.1723-2.4452-1.7175-3.7434-0.11697-0.27929-0.52585-0.3322-0.62415 0-0.45434 1.5395 0.0223 3.3055 0.67555 4.7177 0.51617 1.118 2.3543 0.0828 1.6662-0.97422" />
    <path
        d="m35.696 43.083c-0.98688-1.1328-1.6751-2.5056-2.6739-3.6108-0.0931-0.1028-0.28674-0.0537-0.3158 0.0828-0.35155 1.6661 0.46625 3.4157 1.3935 4.7592 0.84089 1.2208 2.5554-0.13038 1.5961-1.2312" />
    <path
        d="m36.005 38.396c0.41784 1.6498 1.1887 3.1066 2.2419 4.4354 0.98314 1.2401 2.8996-0.82301 1.4055-1.8203-1.1582-0.77313-2.1018-1.7778-2.8414-2.9547-0.26667-0.42453-0.92956-0.14815-0.8059 0.33976" />
    <path
        d="m21.769 34.73c1.7451-0.47895 2.002-2.8444 1.6505-4.3609-0.45435-1.9589-1.9432-3.1573-3.6354-4.0556-0.0336-0.0151-0.0588 0.0265-0.0291 0.0499 1.3131 0.94592 2.3618 2.5212 2.2799 4.1935-0.0625 1.2758-1.0278 1.9931-1.2945 3.1446-0.14153 0.61375 0.39475 1.2029 1.0286 1.0286" />
    <path
        d="m10.752 25.622c1.3801 0.29251 1.4777-1.8888 0.24131-1.7808-0.70011 0.0609-1.3608 0.28231-1.9551 0.6599-0.54818 0.34769-0.84762 0.79694-1.226 1.3042-0.01776 0.0227 0.01663 0.0521 0.03949 0.0385 0.86621-0.47891 1.9715-0.41931 2.9003-0.22184" />
    <path
        d="m10.741 18.442c-1.1999-0.42083-1.7779-1.1597-2.7998-1.7235-0.36867-0.20332-0.54894-0.26455-0.99063-0.2449-0.18844 8e-3 -0.36644 0.12737-0.41561 0.31746-0.02834 0.10734-0.05586 0.21391-0.08416 0.32087-0.07521 0.28911-0.0102 0.66587 0.2294 0.86768 2.7364 2.3104 7.7566 2.548 10.963 1.2104 0.0329-0.0113 0.0208-0.0661-0.0155-0.0552-2.1898 0.68522-4.7623 0.0514-6.8866-0.69267" />
    <path
        d="m6.1755 115.38v-22.735c0-0.40888-0.33144-0.74036-0.7396-0.74036-0.40892 0-0.74036 0.33145-0.74036 0.74036v22.735h1.48" />
    <path
        d="m120 3.9104h-27.076c-0.40888 0-0.7396 0.33144-0.7396 0.74036 0 0.40816 0.33068 0.73961 0.7396 0.73961h27.076v-1.4799" />
</svg>