<?xml version="1.0" encoding="UTF-8"?>
<!-- Created with Inkscape (http://www.inkscape.org/) -->
<svg width="120mm" height="120mm" version="1.1" viewBox="0 0 120 120" xmlns="http://www.w3.org/2000/svg">
 <g transform="translate(-98.007 -26.082)" fill="none">
  <path d="m98.007 84.771c0-0.15078 0.06578-0.30136 0.19766-0.3854 0.09805-0.06326 2.4467-1.5437 4.2886-1.1825 0.78439 0.15384 1.3121 0.784 1.3121 1.5679 0 0.78392-0.52774 1.4143-1.3121 1.5679-1.8419 0.36138-4.1906-1.119-4.2886-1.1825-0.1319-0.08392-0.19766-0.23462-0.19766-0.3854zm1.2184-15.599c0.0033-0.59092 0.09762-1.1866 0.28657-1.7673 0.57896-1.7742 1.9215-3.064 3.684-3.539 0.1354-0.03689 0.27303-0.06844 0.4131-0.09575 0.49708-0.09772 1.0065-0.10787 1.5081-0.03659v-21.242c5e-3 -0.0048 0.01-0.0099 0.015-0.0147-0.063 0.05611-0.12778 0.11117-0.19697 0.1638-0.60231 0.4571-1.3541 0.63933-2.0638 0.49996-0.0747-0.01517-0.14712-0.03181-0.21715-0.05095-0.95248-0.25633-1.6761-0.95152-1.9889-1.9075-0.1014-0.31166-0.15216-0.63155-0.15389-0.94862-4e-3 -0.69756 0.22898-1.3823 0.67676-1.9407l0.0468-0.05711c0.42722-0.56285 1.1695-1.1767 1.9889-1.6432 1.6131-0.90485 1.8488-2.123 1.8815-2.5131-0.10972 0.32753-0.36651 0.59461-0.70035 0.71437-0.45523 0.16272-0.95023 0.02868-1.3238-0.35838-0.25914-0.2694-0.39689-0.64665-0.3642-1.0071 0.0724-0.83318 0.81259-1.4571 1.6507-1.3915 0.46783 0.03702 0.89291 0.24936 1.2037 0.59673 0.31079-0.34738 0.73556-0.55972 1.2034-0.59673 0.83575-0.0656 1.5759 0.55828 1.6483 1.3915 0.0304 0.35228-0.10273 0.7377-0.3642 1.0071-0.37351 0.38706-0.86853 0.5211-1.3238 0.35838-0.33384-0.11976-0.58829-0.38616-0.70035-0.71369 0.035 0.39546 0.27316 1.6097 1.8863 2.5138 0.81474 0.46503 1.557 1.079 1.9773 1.6326l0.0533 0.06703c0.44589 0.55351 0.6771 1.2312 0.6771 1.9229 0 0.3224-0.0515 0.64869-0.15423 0.96572-0.31048 0.95598-1.0363 1.6513-1.9841 1.9072-0.0724 0.01961-0.1449 0.03599-0.22194 0.05164-0.70968 0.1389-1.4614-0.04321-2.0614-0.5003-0.0609-0.0463-0.11904-0.09423-0.17508-0.14328v21.443c0 6e-3 -1e-3 0.01153-2e-3 0.01744 0.47939 0.16892 0.93876 0.4149 1.3583 0.7342 1.5828 1.2027 2.2971 2.9087 1.9119 4.5629-0.35717 1.5233-1.5828 2.7005-3.1235 2.9984-0.8591 0.16715-1.7743-0.05082-2.5073-0.59639-1.0856-0.80961-1.5781-1.9673-1.319-3.103 0.23812-1.0449 1.076-1.8513 2.1311-2.0549 1.2233-0.23695 2.4138 0.56357 2.652 1.784 0.0467 0.24559-0.11434 0.48765-0.3618 0.53621-0.24745 0.04833-0.48786-0.11319-0.53689-0.36112-0.14007-0.72626-0.84953-1.2022-1.5802-1.0615-0.70035 0.1354-1.2539 0.66955-1.4127 1.361-0.17976 0.78182 0.17518 1.5709 0.97358 2.1657 0.5276 0.3929 1.1788 0.5498 1.7882 0.43191 1.1859-0.22972 2.1316-1.136 2.4047-2.3086 0.30815-1.312-0.26841-2.6337-1.5734-3.6266-0.91045-0.69241-1.9938-0.95929-3.0514-0.75199-0.11906 0.02288-0.23345 0.05011-0.35018 0.08139-1.4567 0.39313-2.5701 1.4643-3.051 2.9392-0.50892 1.5634-0.20321 3.2564 0.81696 4.5273l0.11901 0.14636c0.74004 0.97816 2.113 2.1061 3.579 2.9409 4.4636 2.5033 4.5148 6.1502 4.5078 6.5436 5e-3 0.07703 7e-3 0.15325 7e-3 0.22912 0 0.75054-0.26357 1.4694-0.75849 2.0467-0.22339 0.26013-0.4844 0.47575-0.76977 0.64837 0.28551 0.17273 0.54626 0.38914 0.76977 0.6494 0.49492 0.57708 0.75849 1.2955 0.75849 2.046 0 0.07587-2e-3 0.15231-7e-3 0.22912 9e-3 0.40013-0.0445 4.0415-4.5058 6.5429-1.4684 0.83622-2.841 1.9641-3.5903 2.9526l-0.10978 0.13542c-1.0202 1.2721-1.3259 2.9644-0.81696 4.5273 0.48091 1.4749 1.5944 2.5466 3.0534 2.9402 0.11439 0.031 0.22872 0.0582 0.34778 0.0811 1.0575 0.2073 2.1409-0.0596 3.0514-0.75199 1.3073-0.99333 1.8769-2.3153 1.5734-3.6273-0.27313-1.1721-1.2188-2.0787-2.4047-2.3086-0.6093-0.11743-1.2606 0.04017-1.7882 0.43258-0.7984 0.59483-1.1533 1.3839-0.97358 2.1657 0.15874 0.69148 0.71232 1.2256 1.4127 1.361 0.7307 0.14077 1.4402-0.3352 1.5802-1.0615 0.049-0.24793 0.28944-0.40979 0.53689-0.36147 0.24746 0.0478 0.4085 0.2891 0.3618 0.53655-0.23811 1.2205-1.4287 2.0208-2.652 1.784-1.0552-0.20357-1.893-1.01-2.1311-2.0549-0.25913-1.1336 0.23342-2.2932 1.319-3.103 0.73303-0.54604 1.6459-0.76341 2.5073-0.59673 1.5408 0.29789 2.7664 1.4751 3.1235 2.9984 0.3852 1.6524-0.32915 3.3605-1.9119 4.5632-0.42082 0.32028-0.88177 0.5666-1.3627 0.73557 1.8e-4 5e-3 2e-3 0.0103 2e-3 0.0157v25.185c0 0.0316-3e-3 0.0625-9e-3 0.0923 6e-3 -0.0298 0.01-0.0608 0.01-0.0923v-1.0457c0.0799-0.0748 0.16388-0.14757 0.25443-0.21647 0.6023-0.45686 1.3517-0.63897 2.0614-0.5003 0.0747 0.015 0.14917 0.0323 0.21921 0.0516 0.95247 0.25633 1.6764 0.95118 1.9892 1.9072 0.10272 0.31703 0.15354 0.64309 0.15354 0.96572 0 0.69148-0.23286 1.3698-0.67641 1.9236l-0.0469 0.0571c-0.42721 0.56285-1.1695 1.1764-1.9889 1.6428-1.6131 0.90509-1.8495 2.1233-1.8822 2.5131 0.10972-0.32754 0.36452-0.59451 0.70069-0.71403 0.45522-0.16272 0.9499-0.0286 1.3234 0.35872 0.25913 0.26893 0.39722 0.64351 0.36453 1.0068-0.0747 0.83318-0.81492 1.4573-1.6507 1.3915-0.46791-0.0368-0.89289-0.24925-1.2037-0.59673-0.31083 0.34748-0.73582 0.55994-1.2037 0.59673-0.83576 0.0659-1.5756-0.55828-1.6503-1.3915-0.0304-0.35275 0.10513-0.73736 0.36659-1.0068 0.37353-0.38729 0.86848-0.52144 1.3214-0.35872 0.33617 0.11952 0.59062 0.38616 0.70035 0.71368-0.0327-0.39523-0.2711-1.61-1.8842-2.5142-0.81474-0.46503-1.557-1.0786-1.9773-1.6319l-0.0537-0.0674c-0.44939-0.55805-0.68216-1.2428-0.67778-1.9403 2e-3 -0.31706 0.0531-0.63669 0.15526-0.94828 0.31048-0.95597 1.0366-1.6511 1.9844-1.9072 0.0747-0.0196 0.1469-0.0367 0.2216-0.0516 0.70969-0.13867 1.4614 0.0434 2.0614 0.5003 0.0355 0.027 0.0691 0.0551 0.10294 0.0831v-23.798c-0.50012 0.0706-1.008 0.0601-1.5036-0.0373-0.14007-0.0273-0.2777-0.0591-0.4131-0.0957-1.7625-0.4753-3.1051-1.7649-3.684-3.5394-0.18895-0.58072-0.28328-1.1765-0.28657-1.7673-0.0072-1.2998 0.42636-2.5762 1.2625-3.617l0.10054-0.1255c0.82408-1.0862 2.2667-2.2767 3.8612-3.1858 4.1134-2.3063 4.041-5.6024 4.041-5.7369v-0.05645c0.049-0.5967-0.14024-1.1773-0.53244-1.6332-0.38986-0.45663-0.93587-0.73401-1.5382-0.7814-0.9338-0.07354-1.7605 0.6216-1.8422 1.5498-0.028 0.33384 0.10278 0.68946 0.35257 0.94999 0.37118 0.38472 0.81233 0.52393 1.2092 0.38129 0.3455-0.12279 0.58615-0.43665 0.61417-0.7985 0.0187-0.25189 0.24031-0.44001 0.49244-0.41993 0.25212 0.02005 0.43662 0.24404 0.42027 0.49243-0.0584 0.71972-0.5371 1.3429-1.2188 1.5871-0.7377 0.26543-1.5523 0.03851-2.1756-0.607-0.43188-0.44799-0.65596-1.069-0.6046-1.6657 0.0703-0.81035 0.5108-1.5046 1.1405-1.9328-0.62938-0.42829-1.0702-1.1212-1.1405-1.9311-0.0513-0.59763 0.17272-1.2177 0.6046-1.6657 0.62331-0.6455 1.4379-0.87264 2.1756-0.60768 0.68167 0.24418 1.1604 0.86756 1.2188 1.5878 0.0163 0.25913-0.16815 0.47178-0.42027 0.4921-0.25213 0.02005-0.47376-0.16804-0.49244-0.41994-0.028-0.36185-0.26867-0.67524-0.61417-0.7985-0.39687-0.14217-0.83802-0.0033-1.2092 0.3813-0.24979 0.26053-0.38059 0.61439-0.35257 0.95033 0.0817 0.92772 0.90838 1.6228 1.8422 1.5495 0.6023-0.04718 1.1483-0.32464 1.5382-0.78174 0.3922-0.45592 0.58147-1.0367 0.53244-1.6329v-0.05473c3e-3 -0.1403 0.0723-3.4315-4.0434-5.7396-1.5921-0.90766-3.0348-2.0982-3.8495-3.1741l-0.11027-0.13641c-0.83619-1.0402-1.2698-2.3166-1.2625-3.6167zm0.16996 15.6c0.81241 0.39966 2.0194 0.84666 2.9228 0.66923 0.42021-0.08264 0.57211-0.40039 0.57211-0.67026 0-0.26964-0.1519-0.58728-0.57211-0.66992-0.95248-0.18723-2.1711 0.29742-2.9228 0.67094zm2.0316-44.542c1e-3 0.22318 0.0376 0.44827 0.10909 0.66786 0.21477 0.65646 0.70725 1.1331 1.3562 1.3077 0.0537 0.01424 0.10525 0.02666 0.15661 0.03693 0.45991 0.09034 0.9314-0.02743 1.3306-0.33068 0.57429-0.43538 0.82636-1.0055 0.69796-1.5648-0.11673-0.49351-0.51338-0.87533-1.0153-0.97222-0.23812-0.04622-0.49503 0.01662-0.70514 0.17304-0.31983 0.23859-0.46239 0.54482-0.39703 0.83851 0.0584 0.25469 0.26403 0.45113 0.52082 0.50132 0.23812 0.04552 0.469-0.10926 0.51569-0.34504 0.0466-0.24769 0.28744-0.40955 0.53723-0.36146 0.24746 0.04833 0.40844 0.28897 0.35941 0.53689-0.1424 0.72977-0.85199 1.209-1.585 1.0673-0.61398-0.11813-1.0996-0.5874-1.2396-1.1948-0.14707-0.65623 0.12844-1.3184 0.74242-1.7762 0.41554-0.30956 0.9361-0.43277 1.4263-0.33752 0.54118 0.10469 1.0113 0.40526 1.3337 0.82585 0.32295-0.4206 0.79318-0.72117 1.3344-0.82585 0.49025-0.09525 1.0088 0.02797 1.4243 0.33752 0.61397 0.4578 0.89182 1.12 0.74241 1.7762-0.13774 0.60744-0.62566 1.0767-1.2396 1.1948-0.73069 0.1417-1.443-0.33752-1.5854-1.0673-0.049-0.24792 0.11435-0.48856 0.3618-0.53689 0.24746-0.04809 0.48821 0.11377 0.53724 0.36146 0.0443 0.23578 0.27517 0.39057 0.51329 0.34504 0.25913-0.05019 0.46245-0.24663 0.52081-0.50132 0.0677-0.29368-0.0772-0.60039-0.39702-0.83851-0.2101-0.15641-0.46668-0.21926-0.70479-0.17304-0.49959 0.09688-0.89886 0.47823-1.0133 0.97222-0.13073 0.55795 0.12362 1.1288 0.69556 1.5648 0.3992 0.30325 0.87099 0.4209 1.3286 0.33102 0.0537-0.01074 0.10738-0.02291 0.16107-0.03761 0.64665-0.17415 1.1415-0.65088 1.3562-1.3073 0.22878-0.70152 0.0909-1.4613-0.36899-2.033l-0.0606-0.07694c-0.35017-0.4627-1.0061-0.99853-1.7064-1.398-0.9909-0.55564-1.5654-1.227-1.899-1.8309-0.3336 0.60346-0.90881 1.2742-1.8996 1.8295-0.70268 0.40083-1.3565 0.93662-1.716 1.4096l-0.0533 0.06703c-0.31618 0.39226-0.47913 0.87381-0.47568 1.3648zm0.0752 91.703c-3e-3 0.49089 0.16042 0.97309 0.47499 1.3658l0.0633 0.0769c0.35017 0.46293 1.0061 0.99887 1.7064 1.3983 0.99123 0.55593 1.564 1.2284 1.8962 1.833 0.33295-0.60387 0.90812-1.2753 1.9-1.8319 0.70502-0.4006 1.3589-0.93639 1.7184-1.4096l0.0537-0.067c0.45756-0.57032 0.59503-1.3304 0.36625-2.0327-0.21478-0.65669-0.70725-1.1334-1.3562-1.308-0.0513-0.0142-0.10492-0.0262-0.15627-0.0363-0.4599-0.0903-0.9338 0.0272-1.333 0.33068-0.57195 0.43586-0.8243 1.0068-0.6959 1.5645 0.11673 0.49398 0.51367 0.87567 1.0132 0.97256 0.24045 0.046 0.49742-0.0172 0.70753-0.17338 0.31982-0.23859 0.46205-0.54494 0.39668-0.83885-0.0584-0.2547-0.26368-0.45102-0.52047-0.50099-0.23812-0.0455-0.46934 0.10927-0.51603 0.34505-0.049 0.24793-0.2871 0.40945-0.53689 0.36112-0.24745-0.0486-0.41083-0.29015-0.3618-0.5362 0.1424-0.73 0.85438-1.209 1.5874-1.068 0.61398 0.11836 1.0996 0.58716 1.2396 1.1948 0.1494 0.65389-0.12844 1.318-0.74241 1.7765-0.41554 0.30932-0.93611 0.43277-1.4264 0.33752-0.54161-0.10477-1.0126-0.40583-1.335-0.82687-0.32293 0.42068-0.79236 0.72215-1.3337 0.82687-0.49024 0.0952-1.0107-0.0282-1.424-0.33752-0.61631-0.4585-0.89182-1.1222-0.74241-1.7765 0.13773-0.60768 0.6256-1.0766 1.2372-1.1945 0.73304-0.14147 1.445 0.33763 1.5874 1.0676 0.0466 0.24605-0.11435 0.48764-0.36181 0.5362-0.24746 0.0483-0.48786-0.11319-0.53689-0.36112-0.0467-0.23578-0.27785-0.39035-0.51363-0.34436-0.25913 0.0495-0.46211 0.24607-0.52048 0.5003-0.0677 0.29718 0.0769 0.60049 0.39669 0.83885 0.2101 0.15617 0.46701 0.21936 0.70513 0.17338 0.49958-0.0969 0.89886-0.47858 1.0132-0.97256 0.13074-0.55772-0.12395-1.1286-0.6959-1.5645-0.3992-0.30348-0.87304-0.42102-1.3306-0.33068-0.0537 0.0101-0.10497 0.0222-0.15867 0.0369-0.64666 0.17415-1.1415 0.65065-1.3562 1.3073-0.0715 0.21915-0.10737 0.44405-0.10874 0.66718zm2.1257-98.425v0.02599c0 0.09245 0.0422 0.19183 0.11216 0.26537 0.1214 0.1249 0.2473 0.1719 0.35702 0.13268 0.0864-0.03082 0.14483-0.10859 0.15183-0.198 0.0211-0.25189 0.24031-0.43991 0.49244-0.4196 0.11205 0.0089 0.21015 0.05677 0.28485 0.1296-0.0327-0.067-0.0748-0.12974-0.12379-0.1874-0.15408-0.17999-0.36887-0.28955-0.60699-0.30846-0.3385-0.02662-0.63717 0.22433-0.66752 0.5598zm0.0746 105.12 3e-3 0.026c0.028 0.33546 0.32931 0.58664 0.66548 0.55979 0.23811-0.0187 0.45496-0.12846 0.60904-0.30845 0.049-0.0581 0.0911-0.12087 0.12379-0.1874-0.0747 0.0728-0.17513 0.12108-0.28486 0.12995-0.25212 0.02-0.47375-0.16805-0.49243-0.41994-7e-3 -0.0892-0.0679-0.16742-0.15423-0.198-0.10972-0.0394-0.23557 8e-3 -0.35462 0.13268-0.0724 0.0735-0.11456 0.17293-0.11456 0.26537zm0.24211-108.77c0.0408-1.6811 1.19-3.4817 1.2451-3.5681 0.084-0.13097 0.22864-0.20997 0.38505-0.20997 0.15408 0 0.29902 0.079 0.3854 0.20997 0.056 0.08801 1.2441 1.9571 1.2441 3.6632 0 0.20777-0.0185 0.4131-0.0581 0.61246-0.15408 0.78066-0.78462 1.306-1.5714 1.306-0.78672 0-1.4193-0.52532-1.5734-1.306-0.0458-0.22995-0.0626-0.46737-0.0568-0.70753zm0.068 112.43c-1e-3 -0.0543-6.6e-4 -0.10847 3.4e-4 -0.16243 4e-3 -0.17863 0.022-0.35502 0.0561-0.52698 0.15641-0.78089 0.78667-1.3056 1.5734-1.3056 0.78672 0 1.4193 0.52474 1.5734 1.3056 0.0397 0.1996 0.056 0.40493 0.056 0.61247 0 1.706-1.1881 3.5755-1.2441 3.6635-0.084 0.13073-0.22899 0.20963-0.3854 0.20963s-0.30101-0.0789-0.38505-0.20963c-0.0553-0.0867-1.2101-1.9032-1.2448-3.5866zm0.84637-112.41c-1e-3 0.05395-1e-3 0.10727 3.4e-4 0.16004 4e-3 0.12062 0.0165 0.23765 0.0387 0.35018 0.084 0.41904 0.40361 0.56869 0.67675 0.56869 0.27081 0 0.593-0.14965 0.6747-0.56869 0.1891-0.95108-0.30124-2.1633-0.67709-2.9115-0.32939 0.66336-0.6917 1.5921-0.71335 2.4013zm0.0684 112.26c-0.0277 0.87947 0.38822 1.8896 0.71505 2.5442 0.40387-0.80867 0.85446-2.013 0.6747-2.9115-0.0817-0.41881-0.40156-0.5687-0.6747-0.5687-0.2708 0-0.59299 0.14989-0.6747 0.5687-0.0236 0.11888-0.0364 0.24163-0.0404 0.36727zm0.26057-3.7507c0.0114 0.4058 0.16126 0.79709 0.43089 1.1121h3.3e-4c-0.26962-0.31498-0.41917-0.70627-0.43053-1.1121h-3.4e-4c-1e-3 -0.058-2e-4 -0.11602 4e-3 -0.17441-6.6e-4 -0.0246 1e-3 -0.0759 3e-3 -0.12413-3e-3 0.053-5e-3 0.098-4e-3 0.12413-4e-3 0.0584-5e-3 0.11643-4e-3 0.17441zm6e-3 -6.8325c6.6e-4 0.0776 6e-3 0.15538 0.015 0.23323 9e-3 0.0779 0.023 0.15583 0.041 0.23356 0.01 0.041 0.0205 0.0814 0.0328 0.12106-0.0118-0.04-0.023-0.0801-0.0325-0.12106-0.0181-0.0777-0.032-0.15571-0.0414-0.23356-9e-3 -0.0778-0.0142-0.15562-0.015-0.23323zm0 0c-6.6e-4 -0.0776 3e-3 -0.15484 0.01-0.23185 7e-3 -0.0762 0.0191-0.15213 0.0342-0.22741l-3.5e-4 -3.4e-4c-0.0152 0.0754-0.0265 0.15142-0.0339 0.22775-7e-3 0.077-0.0107 0.15425-0.01 0.23185zm0.40441-98.897c0.07 0.08217 0.13209 0.16937 0.18568 0.26058-0.0536-0.09121-0.11565-0.1784-0.18568-0.26058zm4e-3 2.8397c0.0296-0.05565 0.0571-0.1106 0.0828-0.16483-0.0256 0.05427-0.0532 0.10914-0.0828 0.16483zm0.0882 3.975c8e-3 0.01355 0.0171 0.02695 0.0253 0.0407-8e-3 -0.01375-0.0168-0.02714-0.0253-0.0407zm0.0574 0.09643c0.0146 0.02624 0.0285 0.05279 0.0421 0.07968-0.0135-0.02682-0.0275-0.0535-0.0421-0.07968zm0.0112 2.6509c0.016 0.018 0.032 0.03595 0.0486 0.05369-0.0165-0.01773-0.0326-0.03571-0.0486-0.05369zm0.0492-0.63709c8e-3 -0.01662 0.0156-0.0332 0.0229-0.04993-7e-3 0.01672-0.0151 0.03331-0.0229 0.04993zm4e-3 -1.8901c0.0199 0.04201 0.0384 0.08479 0.0557 0.12824-0.0173-0.04342-0.0357-0.08626-0.0557-0.12824zm9e-3 -4.686c7e-3 -0.01864 0.0121-0.03604 0.0185-0.05438-7e-3 0.01826-0.0117 0.03581-0.0185 0.05438zm0.0369-1.9485c0.045 0.09488 0.0815 0.1934 0.10909 0.29443-0.0276-0.10118-0.064-0.19942-0.10909-0.29443zm9e-3 8.3885c6e-3 -0.01509 0.0111-0.03031 0.0167-0.04548-5e-3 0.01515-0.0108 0.0304-0.0167 0.04548zm9e-3 -1.6035c0.0154 0.04001 0.03 0.08062 0.0431 0.12174-0.0132-0.04117-0.0276-0.0817-0.0431-0.12174zm0.0171 91.263h3.4e-4c0.0414-0.0414 0.075-0.0909 0.0982-0.14569-0.0232 0.0548-0.0571 0.10425-0.0985 0.14569zm7e-3 -96.344c6e-3 -0.0219 0.0118-0.04231 0.0175-0.06361-5e-3 0.02113-0.0112 0.04188-0.0175 0.06361zm0.0267 5.2277c0.0147 0.04804 0.0282 0.0966 0.0396 0.14602 0.0122 0.05175 0.0218 0.10343 0.0301 0.15525-8e-3 -0.05174-0.0179-0.10358-0.0301-0.15525-0.0114-0.04943-0.0249-0.09798-0.0396-0.14602zm6.6e-4 1.2824c9e-3 -0.03023 0.0181-0.0605 0.026-0.09096-8e-3 0.03045-0.0168 0.06075-0.026 0.09096zm0.0277-6.7272c5e-3 -0.02394 0.0102-0.04655 0.0147-0.06942-5e-3 0.02262-0.01 0.04574-0.0147 0.06942zm0.0109 6.5856c9e-3 -0.03855 0.017-0.07741 0.024-0.11627-7e-3 0.03891-0.0149 0.07768-0.024 0.11627zm0.0257-6.7792c3e-3 -0.02282 7e-3 -0.04469 0.01-0.066-3e-3 0.02089-7e-3 0.04366-0.01 0.066zm5e-3 6.6304c8e-3 -0.04982 0.0142-0.0999 0.0188-0.15012-5e-3 0.05023-0.0107 0.10029-0.0188 0.15012zm5e-3 -7.4751c0.0186 0.10355 0.0281 0.20912 0.0281 0.31598 0 0.04062-2e-3 0.08112-5e-3 0.12174 1e-3 0.03064-1.9e-4 0.0879-5e-3 0.15628 5e-3 -0.069 6e-3 -0.12546 5e-3 -0.15628 3e-3 -0.04062 5e-3 -0.08112 5e-3 -0.12174 0-0.10686-9e-3 -0.21243-0.0281-0.31598zm6.6e-4 6.8206c7e-3 0.04955 0.0128 0.09926 0.0164 0.14876-3e-3 -0.04953-9e-3 -0.09917-0.0164-0.14876zm0.0103-6.1322c2e-3 -0.02231 5e-3 -0.04437 6e-3 -0.06429-1e-3 0.01951-4e-3 0.04251-6e-3 0.06429zm5e-3 6.6058c3e-3 -0.04274 5e-3 -0.08563 6e-3 -0.12858-6.6e-4 0.04294-3e-3 0.08584-6e-3 0.12858zm1e-3 -0.32145c4e-3 0.0529 5e-3 0.10561 5e-3 0.15833 1.2e-4 -0.05275-2e-3 -0.10539-5e-3 -0.15833zm5e-3 43.845c0.0252-0.0026 0.0506-4e-3 0.0759-0.0053-0.0253 2e-3 -0.0508 0.0026-0.0759 0.0053zm0.0893-50.884c0.0747-0.07284 0.17281-0.12074 0.28487-0.12961 0.25212-0.02031 0.47176 0.1677 0.49277 0.4196 7e-3 0.08941 0.0675 0.16718 0.15389 0.198 0.10739 0.03922 0.2359-0.0078 0.35496-0.13268 0.0794-0.08077 0.12116-0.19541 0.11182-0.29136-0.0304-0.33547-0.32902-0.58642-0.66752-0.5598-0.23579 0.01891-0.45292 0.12847-0.60699 0.30846-0.049 0.0579-0.0911 0.12086-0.1238 0.1874zm0.0773 105.28c0.0327 0.067 0.0744 0.12973 0.12345 0.1874 0.15408 0.17999 0.36888 0.28978 0.60699 0.30845 0.33851 0.0269 0.63746-0.22433 0.66547-0.5598 9e-3 -0.10739-0.0328-0.21058-0.10977-0.29136-0.12139-0.12466-0.24729-0.17213-0.35701-0.13268-0.0864 0.0306-0.14483 0.10882-0.15183 0.198-0.0211 0.25189-0.24066 0.44001-0.49278 0.41993-0.11206-9e-3 -0.20982-0.0571-0.28452-0.12994zm0.0551-54.405c0.0813-0.0013 0.16329 3.31e-4 0.24587 0.0068 0.0854 0.0067 0.16935 0.01919 0.25306 0.03249-0.0834-0.0139-0.16758-0.02574-0.25306-0.03249-0.0827-0.0066-0.16468-0.0083-0.24587-0.0068z" stop-color="#000000"/>
  <rect x="98.135" y="26.211" width="12.443" height="119.74" stroke="#000" stroke-width=".2566"/>
 </g>
</svg>
