<?xml version="1.0" encoding="UTF-8"?>
<!-- Created with Inkscape (http://www.inkscape.org/) -->
<svg width="120mm" height="120mm" version="1.1" viewBox="0 0 120 120" xmlns="http://www.w3.org/2000/svg">
 <path d="m52.58 1e-5c-0.18532 4.9814-5.3498 6.9268-8.8449 7.676-3.6529 0.78204-6.9379 2.5692-9.3152 5.257-5.0386 5.6977-3.4899 11.675-1.386 15.608 0.45937 0.0132 0.91833 0.0331 1.3777 0.0594 0.23428 0.01 0.46833 0.0195 0.70228 0.0295-0.83-4.8237-0.91212-12.299 5.5495-15.207 0 0 2.2714-1.157 5.6808-1.157 2.3967 0 5.3552 0.57192 8.4837 2.5172 0 0-1.8612-4.3113-6.6182-4.8173 2.4723-1.1632 5.9104-3.5945 4.3703-9.9658zm7.8574 9.1214c-0.29277 0-0.58639 0.0332-0.8785 0.0956-1.0919 0.23659-2.1377 0.9692-2.5606 2.1192-0.42256 1.15-0.0421 2.714 0.97358 3.2825 0.21719 0.12153 0.45382 0.17776 0.6904 0.17776 0.86944 0 1.7414-0.75244 1.6692-1.7415-0.0506-0.6966-0.49897-1.3538-0.39481-2.034 0.0887-0.5816 0.58059-0.99265 1.0981-1.0682 0.0776-0.0127 0.15516-0.0196 0.23306-0.0196 0.44228 0 0.8862 0.18096 1.2868 0.41755 3.5665 2.1194 3.3713 7.6229 0.39532 9.9756-1.1944 0.94633-2.542 1.2945-3.9507 1.2945-1.7856 0-3.6693-0.56146-5.4638-1.1891-1.6945-0.59145-3.5733-2.9644-2.1105-4.8307 0.14065-0.17744 0.31668-0.42344 0.19379-0.63045-0.046-0.0755-0.1242-0.11841-0.2005-0.15451-0.24545-0.11179-0.50631-0.16433-0.76688-0.16433-0.36111 0-0.72199 0.0985-1.0434 0.27595-0.70811 0.38773-1.3114 1.1368-1.571 1.9813-0.1154 0.3713 0.0504 1.4-0.13695 1.6464-0.10186 0.13149-0.46416 0.16743-0.84697 0.16743-0.19058 0-0.38654-0.01-0.55707-0.0165-0.16988-9e-3 -0.31448-0.016-0.40618-0.016h-0.0295c-3.1186 0.069-6.6488-0.23986-9.1638 2.126-0.54217 0.51259 0.075 0.94263 0.56328 1.0149 1.0032 0.14129 1.9792 0.66063 2.9828 0.71313 0.0358 0.36145-0.10541 0.76894-0.062 1.1632 0.0496 0.45674 0.20059 0.89713 0.42633 1.2816 0.64336 1.1008 1.6455 1.5642 2.6257 1.5642v-5.2e-4c0.32036 0 0.63769-0.0491 0.93999-0.14108 0.2127-0.0657 0.22444-0.38461 7e-3 -0.51934-1.3173-0.81489-0.13082-2.3855 0.52865-2.7864 0.76003-0.46659 1.603-0.76563 2.4396-1.0351 0.81522-0.25958 1.6358-0.36793 2.4593-0.36793 0.85366 0 1.7102 0.11505 2.5688 0.29249 0.49814 0.16758 1.0007 0.32534 1.5074 0.46663 0.37393 0.10351 0.74966 0.19869 1.1265 0.28371-0.37688-0.085-0.75261-0.1802-1.1265-0.28371-0.31742 0.046-0.63347 0.0987-0.94826 0.17105-1.0551 0.2333-2.3368 0.52582-3.1373 1.3736-1.224 1.3012-1.1374 3.6441 0.16123 4.9289 0.61347 0.60789 1.4187 0.93548 2.2014 0.93948 0.81096 0 1.5982-0.35474 2.1239-1.1204 0.14654-0.21358 0.25773-0.45698 0.32763-0.71985 0.16232-0.60132 0.10054-1.2879-0.18139-1.8531-0.25761-0.51588-0.78733-1.0508-1.3338-1.0578h-0.0103c-0.30756 0-0.6969 0.15105-0.89504 0.41393-0.13476 0.17743-0.21039 0.40712-0.21239 0.64699-4e-3 0.44359 0.29318 0.65734 0.39636 1.0418 0.2149 0.79846-0.11682 1.0382-0.50488 1.0382-0.25367 0-0.53183-0.10152-0.69711-0.21652-0.28194-0.19387-0.48405-0.49636-0.63356-0.82166-1.4911-3.2234 2.4833-4.071 4.4654-4.2189 0.37656-0.0294 0.75696-0.0398 1.1384-0.0398 0.36572 0.0592 0.73188 0.10859 1.0976 0.14469 1.4292 0.27599 3.3337 0.42734 5.5945 0.42737 0.22984 0 0.46315 3.7e-4 0.70022-4e-3 4.0019-0.0559 9.0096-0.57177 14.35-1.7317 4.5092-0.97911 9.255-2.4152 13.825-4.4194h19.509c0.37788 0 0.68472-0.30528 0.68472-0.68316 0-0.37787-0.30684-0.68678-0.68472-0.68678h-16.597c0.0305-0.0131 0.0609-0.0296 0.0915-0.046 2.2291-1.1238 4.3444-2.0437 6.2854-2.7337 3.0802-1.0942 5.8062-1.6528 8.1458-1.6857h0.2098c1.5526 0 2.9294 0.23311 4.131 0.6997 0.23264 0.15773 0.47634 0.46692 0.68729 0.87436 0.3299 0.62761 0.58897 1.4687 0.77101 2.2376 0.18335 0.77218 0.2933 1.4754 0.3452 1.85 0.0595 0.42388 0.25501 0.81785 0.55501 1.1234 0.36867 0.37458 0.86416 0.58188 1.3751 0.58188l-1e-3 1e-3h0.0269c0.10317 0 0.20617-0.0165 0.30902-0.0362h0.0362l0.0346-7e-3c0.646-0.138 1.1722-0.60813 1.4025-1.2423 0.0841-0.23001 0.12492-0.46997 0.12092-0.71313-3e-3 -0.21358-0.0406-0.43016-0.11317-0.63717-0.1942-0.54874-0.60393-1.4887-1.3932-2.4614-0.78861-0.97262-1.9603-1.9781-3.6571-2.6484l-0.0326-0.0129-7e-3 -4e-3c-1.3574-0.52903-2.8901-0.78858-4.5852-0.78858h-0.22945c-2.5002 0.0361-5.3481 0.62406-8.5282 1.7544-1.9935 0.70646-4.1531 1.6464-6.4224 2.7931-0.75988 0.38438-1.5285 0.75247-2.3022 1.1007-1.4e-4 6e-5 -3.8e-4 -6e-5 -5.2e-4 0h-22.703c-0.37787 0-0.6842 0.30891-0.6842 0.68678 0 0.37788 0.30633 0.68316 0.6842 0.68316h19.437c-9.0472 3.5023-18.49 4.8857-25.069 4.9744-0.23198 3e-3 -0.46117 7e-3 -0.68626 7e-3 1.5833-0.74592 2.9398-2.0573 3.4907-3.8644 0.27603-0.90689 0.33491-1.8896 0.22221-2.8556-0.0552-0.46988-0.15104-0.93975-0.28215-1.3932-0.81753-2.8193-3.2999-5.1325-5.8498-5.1325zm-31.547 5.3924c-4.8237 0-6.0333 5.504-2.4365 13.157-3.159-1.6824-5.9766-2.4846-8.1933-2.4846-3.6541 0-5.676 2.1819-4.9031 6.1903 1.3104-1.8401 3.6256-2.4841 6.2306-2.4841 2.3832 0 5.0084 0.53894 7.3272 1.1994v5.2e-4c0.0053 0.81818 0.01482 1.633 0.03256 2.4479 0.01347 0.59474 0.02816 1.1897 0.04754 1.7844-1.82-0.80503-4.031-1.4624-6.3929-1.4624-2.9211 0-6.0731 1.0053-8.9979 3.9889-2.5117 2.563-4.0619 5.9672-4.5811 9.6671-0.49715 3.5389-2.0702 8.829-7.0233 9.3679 0.80898 0.13804 1.55 0.20051 2.2309 0.20051 4.7589 0 6.5359-3.039 7.3975-5.2669 0.84447 4.7087 5.2741 6.256 5.2741 6.256-5.2393-7.2224-2.3647-14.031-2.3647-14.031 2.0175-5.4973 7.4602-6.7588 12.038-6.7588 0.87733 0 1.7237 0.046 2.5073 0.11834 0.04534 0.98576 0.10975 1.9681 0.17777 2.9538 0.09365 1.1369 0.1832 2.2706 0.33435 3.4076 0.15078-1.1367 0.24052-2.2703 0.33383-3.407 0.06572-0.94962 0.12758-1.8959 0.1726-2.8422v-5.1e-4c2.1555 0.26945 3.637 0.68316 3.637 0.68316s-1.3807-1.1796-3.5641-2.3099c0.02563-0.66356 0.04418-1.3236 0.05994-1.9838 0.36461 0.23633 0.79856 0.37052 1.2619 0.37052h0.08475c1.2867-0.046 2.2929-1.1268 2.2469-2.4148-0.01412-0.39735-0.12767-0.7685-0.31574-1.0904 0.73028-0.0197 1.4608-0.0397 2.1911-0.0692 1.2614 2.037 2.498 3.2887 2.498 3.2887s-0.48418-1.3502-0.89917-3.3641c0.83888-0.0427 1.678-0.0985 2.5172-0.15761 1.1359-0.092 2.2718-0.18424 3.4081-0.33538-1.1362-0.15115-2.2721-0.24008-3.4081-0.33538-0.90196-0.0624-1.8041-0.12144-2.7058-0.16744-0.23395-0.01-0.468-0.0195-0.70228-0.0294-0.45936-0.0263-0.91832-0.0458-1.3777-0.0589-0.67689-0.023-1.3538-0.0399-2.0304-0.0563-0.70088-0.0165-1.4018-0.0255-2.1027-0.0295-0.43505-3e-3 -0.8703-7e-3 -1.3053-7e-3h-0.68575v-5.2e-4h0.68575c0.43505 0 0.8703 3e-3 1.3053 7e-3 -1.177-4.9485-1.7916-11.323 1.9063-13.692-0.69102-0.17083-1.3302-0.2496-1.9167-0.2496zm-11.636 1.4686c-1.292 0-2.3054 1.4525-1.4232 2.8195 1.5197 2.3494 5.732 3.4634 5.732 3.4634s-0.90597-4.2617-3.1791-5.8947c-0.37426-0.26945-0.76327-0.38809-1.1296-0.38809zm44.106 6.9004c-0.88851 0.20702-1.7912 0.29921-2.7001 0.29921 0.90887 0 1.8116-0.0922 2.7001-0.29921zm-30.459 6.9019c-0.82788 0.0145-1.656 0.0227-2.4836 0.0269 0.82761-4e-3 1.6557-0.0124 2.4836-0.0269zm-2.6376 1.3989c-0.0051 0.45157-0.01244 0.90304-0.02222 1.3534 0.0098-0.45053 0.01714-0.90166 0.02222-1.3534zm-7.6166 6.4012c-0.12322 0-0.25817 0.0623-0.39946 0.21342-2.3671 2.5137-2.0562 6.0427-2.1275 9.1643-0.0076 0.3253 0.13982 1.6296-0.13488 1.8366-0.10745 0.0822-0.36262 0.0987-0.6475 0.0987-0.07952 0-0.16139-4e-3 -0.24288-4e-3 -0.08215 0-0.1635-4e-3 -0.24236-4e-3 -0.20701 0-0.39354 0.01-0.51315 0.046-0.84217 0.25958-1.5934 0.86399-1.9808 1.5704-0.30263 0.55532-0.3781 1.2258-0.11162 1.8107 0.0345 0.0756 0.07866 0.15399 0.15555 0.19999 0.04863 0.0297 0.09949 0.0429 0.15141 0.0429 0.16659 0 0.34183-0.12825 0.47852-0.23668 0.47185-0.36802 0.97521-0.52555 1.4743-0.52555 1.477 0 2.9133 1.3704 3.3559 2.6355 1.1225 3.2103 2.0377 6.7074-0.10439 9.416-1.1586 1.4652-3.0806 2.2562-4.9868 2.2562-1.9653 0-3.913-0.84101-4.9888-2.6515-0.27996-0.4712-0.47766-1.0018-0.39946-1.5193 0.07788-0.51818 0.48866-1.0099 1.0676-1.0986 0.07065-0.0105 0.14085-0.0155 0.21084-0.0155 0.6069 0 1.1998 0.36479 1.8231 0.40979 0.03845 4e-3 0.07661 5e-3 0.11472 5e-3 1.197 0 2.0043-1.3787 1.4516-2.3621-0.41599-0.7426-1.359-1.1431-2.2856-1.1431-0.34403 0-0.68637 0.0557-0.99787 0.16743-1.1507 0.42389-1.8819 1.4695-2.1198 2.5611-0.6184 2.8364 1.893 5.8174 5.0379 6.7283 0.45312 0.13143 0.92097 0.22717 1.3922 0.28267 0.30526 0.0355 0.61148 0.0537 0.91674 0.0537l5.17e-4 2e-3c0.6621 0 1.3178-0.087 1.9379-0.27595 1.9134-0.58324 3.2727-2.0705 3.9884-3.7729 0.0013 0.29904 1.56e-4 0.60514-0.0041 0.91726-0.08839 6.579-1.4719 16.023-4.9759 25.071v-17.969c0-0.37788-0.30632-0.68368-0.6842-0.68368s-0.68368 0.3058-0.68368 0.68368v21.236c-0.35022 0.77204-0.71788 1.5407-1.1023 2.2996-1.1458 2.2705-2.0852 4.4294-2.7936 6.4239-1.1307 3.1807-1.7187 6.0266-1.7529 8.5271-0.02432 1.7875 0.2359 3.3975 0.78858 4.8137l0.0016 0.01 0.01292 0.0331c0.67032 1.6955 1.677 2.8685 2.65 3.6571 0.97295 0.78861 1.9111 1.1993 2.4608 1.3932l0.11886-0.33848-0.11834 0.33848c0.20602 0.0723 0.4218 0.10762 0.63769 0.11162h0.02635c0.23231 0 0.46498-0.0392 0.68678-0.12144 0.6345-0.23001 1.1014-0.7557 1.2408-1.403l0.0072-0.0331 5.17e-4 -0.0362c0.01808-0.10186 0.03384-0.20717 0.03514-0.30903 0.0076-0.52246-0.19987-1.0284-0.58136-1.403-0.30526-0.29901-0.70093-0.49261-1.1245-0.55501-0.37426-0.0493-1.0776-0.16117-1.8485-0.34519-0.77021-0.18072-1.6099-0.44036-2.2391-0.76895-0.40778-0.2103-0.71683-0.45678-0.87488-0.68678-0.48467-1.2585-0.72069-2.7039-0.69867-4.3403 0.03154-2.3395 0.59065-5.0672 1.6852-8.1494 0.6897-1.9387 1.6098-4.0545 2.7352-6.2823 0.01511-0.0329 0.03139-0.0624 0.04651-0.092v18.066c0 0.37787 0.3058 0.68368 0.68368 0.68368s0.6842-0.30581 0.6842-0.68368v-20.978c2.0047-4.5706 3.4417-9.3162 4.4209-13.826 1.1589-5.3399 1.6764-10.348 1.7306-14.35 0.04042-3.0214-0.17867-5.4618-0.59893-7.0719-0.03145-0.11798-0.0633-0.23602-0.09508-0.35399 0.0023-0.35158 0.01298-0.70641 0.03927-1.0547 0.12618-1.6824 0.7546-4.794 2.9078-4.794 0.38675 0 0.82271 0.10141 1.3136 0.32814 0.32333 0.14786 0.62657 0.352 0.8201 0.63459 0.24973 0.36145 0.44292 1.2681-0.37724 1.2681-0.12421 0-0.27182-0.0196-0.44597-0.0656-0.38248-0.10515-0.59275-0.39791-1.034-0.39791h-0.0083c-0.2379 3e-3 -0.46753 0.0756-0.64596 0.21032-0.2655 0.20043-0.41546 0.59805-0.41186 0.90692 0.0059 0.54545 0.5409 1.078 1.0568 1.3343 0.3598 0.18064 0.7688 0.26923 1.1746 0.26923 0.23067 0 0.46038-0.0293 0.67954-0.0884 0.26024-0.069 0.50472-0.18081 0.7183-0.32867 1.5046-1.0318 1.4187-3.0756 0.1819-4.3243-0.67426-0.68018-1.6404-1.0284-2.5936-1.0284-0.86386 0-1.718 0.28554-2.3358 0.86713-0.84973 0.80175-1.14 2.0835-1.3746 3.1383-0.06999 0.31544-0.12566 0.63075-0.17002 0.9462-0.14057-0.50571-0.29785-1.0079-0.46664-1.5038-0.34896-1.6889-0.45621-3.368 0.07545-5.0307 0.2678-0.83462 0.56792-1.6791 1.0335-2.4381 0.27108-0.4436 1.0684-1.1234 1.8097-1.1234 0.3621 0 0.71128 0.16383 0.97875 0.59428 0.06572 0.10522 0.17517 0.15813 0.27802 0.15813 0.10745 0 0.2073-0.0559 0.24081-0.16433 0.37623-1.2289 0.03778-2.7141-1.4221-3.5652-0.38576-0.22672-0.82676-0.37806-1.2805-0.42736-0.05389-6e-3 -0.10787-0.01-0.16175-0.01-0.14951 0-0.29909 0.0195-0.44597 0.0393-0.14721 0.0196-0.29166 0.0393-0.43098 0.0393-0.04206 0-0.08398-3e-3 -0.12506-7e-3 -0.05389-1.0055-0.5718-1.9816-0.71572-2.9838-0.05027-0.35487-0.29124-0.77514-0.61392-0.77514zm-0.87282 15.702c0.01224 0.0497 0.03086 0.0982 0.05633 0.14418h5.16e-4l1e-3 4e-3 0.0072 0.0129 0.02635 0.0491c0.023 0.046 0.05759 0.11542 0.10128 0.20412 0.08707 0.18072 0.21119 0.44973 0.35708 0.80461 0.0045 0.011 0.01042 0.0297 0.01499 0.0408-0.0048-0.0117-0.01025-0.0272-0.01499-0.0388-0.14589-0.35488-0.27-0.62388-0.35708-0.8046-0.04369-0.0887-0.07777-0.15812-0.10077-0.20412l-0.02687-0.0491-0.0067-0.0129-5.17e-4 -2e-3 -1e-3 -2e-3c-3.47e-4 -6.2e-4 -1.72e-4 -1e-3 -5.16e-4 -2e-3 -0.02528-0.0461-0.04426-0.0944-0.05633-0.14418zm1.5984 0.65732c0.1337 0.31865 0.28582 0.70864 0.44648 1.1632-0.16027-0.45332-0.31308-0.84525-0.44648-1.1632zm0.5209 0.83923c0.0942 0.33976 0.18152 0.6795 0.25993 1.0201-0.07843-0.34058-0.16572-0.68033-0.25993-1.0201zm-0.04496 0.40824c0.16276 0.46601 0.33325 0.99993 0.50178 1.5999-0.16853-0.59995-0.33902-1.1339-0.50178-1.5999zm0.30489 0.61289c0.07808 0.33919 0.14767 0.67897 0.20774 1.0206-0.06007-0.34147-0.12968-0.68158-0.20774-1.0206zm-1.3395 0.0176c0.17556 0.51914 0.35897 1.1182 0.53537 1.7926 0.0014 5e-3 0.0027 0.0131 0.0041 0.0186-0.0014-5e-3 -0.0028-0.0113-0.0041-0.0165-0.17662-0.67525-0.35962-1.2752-0.53537-1.7947zm0.76584 2.8959c0.0011 7e-3 0.0025 0.0118 0.0036 0.0186-0.0011-7e-3 -0.0025-0.0121-0.0036-0.0186z"/>
</svg>
