<?xml version="1.0" encoding="UTF-8"?>
<svg version="1.1" viewBox="0 0 120 120" xmlns="http://www.w3.org/2000/svg">
    <path
        d="m49.793 53.663c-0.02268 0-0.04687 6e-3 -0.06841 0.01701-0.04649 0.0257-0.07635 0.07457-0.07635 0.12741v11.507c0 0.08001 0.06463 0.14449 0.14438 0.14449h15.525c0.07937 0 0.14362-0.06448 0.14362-0.14449v-15.525c0-0.07922-0.06463-0.14374-0.14362-0.14374h-11.507c-0.05367 0-0.10167 0.02873-0.12737 0.07612-0.02646 0.04585-0.02268 0.10258 0.0076 0.14684 0.69144 1.0542 1.365 1.9524 2.0588 2.7471 0.02646 0.03175 0.0669 0.0497 0.10885 0.0497h6.9227c0.39777 0 0.72172 0.32395 0.72172 0.72175v10.111h-10.111c-0.39856 0-0.72172-0.32395-0.72172-0.72175v-6.9227c0-0.0412-0.0189-0.08081-0.04989-0.10878-0.79478-0.69375-1.6936-1.3673-2.7471-2.058-0.02268-0.01625-0.0514-0.02419-0.07937-0.02419zm-4.0415-1.8917c-0.03024 0-0.0601 0.0091-0.08466 0.02721-0.03817 0.02721-0.0601 0.07068-0.0601 0.11732v17.218c0 0.08001 0.06463 0.14449 0.14438 0.14449h23.385c0.07975 0 0.14438-0.06448 0.14438-0.14449v-23.385c0-0.08001-0.06463-0.14449-0.14438-0.14449h-17.218c-0.04687 0-0.08996 0.02268-0.11717 0.06059-0.02646 0.03742-0.03402 0.08546-0.0189 0.12972 0.26722 0.79553 0.56558 1.6082 0.88798 2.4146 0.0189 0.03326 0.06161 0.08001 0.0994 0.09011 0.02268 0.0072 0.05443 0.0155 0.0824 0.0155 0.01512 0 0.03024-0.0024 0.04044-0.0091 0.11566-0.06837 0.23849-0.10254 0.36511-0.10254h12.926c0.39856 0 0.72175 0.32319 0.72175 0.72175v17.979h-17.979c-0.39776 0-0.72175-0.32395-0.72175-0.72175v-12.927c0-0.12665 0.03402-0.24938 0.10281-0.36515 0.0189-0.03326 0.02646-0.07382 0.01512-0.11108-0.01134-0.03806-0.03402-0.06992-0.06992-0.08856-0.84833-0.34493-1.6602-0.64329-2.4558-0.91051-0.01512-0.0053-0.03024-0.0076-0.04573-0.0076zm-0.86625 18.95c-0.39856 0-0.72172-0.32319-0.72172-0.72175v-18.625c0-0.06448-0.04271-0.12117-0.1047-0.13905-2.9164-0.84217-5.624-1.2695-8.0479-1.2695-3.0998 0-5.728 0.70308-7.8109 2.0899-2.0448 1.3611-3.4362 3.437-3.9194 5.8455-0.48481 2.4061-6.05e-4 4.8579 1.3611 6.905 0.68989 1.0364 1.7418 1.7418 2.9623 1.9865 0.30615 0.06138 0.61766 0.09245 0.92608 0.09245 0.91444 0 1.8047-0.27036 2.5739-0.78234 0.48866-0.3255 0.82116-0.82195 0.93692-1.3984 0.11566-0.57646 0-1.163-0.32542-1.6517-0.16026-0.24084-0.42883-0.38458-0.71941-0.38458-0.17008 0-0.33563 0.0497-0.47778 0.14449-0.11906 0.07922-0.25701 0.12117-0.39852 0.12117-0.24303 0-0.46848-0.12042-0.60209-0.3224-0.22073-0.33019-0.13077-0.7792 0.20108-1.0006 0.37913-0.25172 0.81964-0.38533 1.2741-0.38533 0.7769 0 1.4955 0.38458 1.9243 1.0278 0.53995 0.81106 0.73184 1.7822 0.5392 2.7354-0.19125 0.95405-0.74273 1.776-1.553 2.3152-1.0068 0.67046-2.1722 1.0255-3.3694 1.0255-0.4048 0-0.81262-0.0412-1.2135-0.12117-1.5988-0.32085-2.977-1.2454-3.8798-2.6026-1.5748-2.3641-2.1341-5.2015-1.5755-7.9889 0.55934-2.7859 2.1698-5.1883 4.5355-6.7621 2.3485-1.5639 5.2518-2.3571 8.6288-2.3571 0.35906 0 0.71865 0.0087 1.0799 0.0257 0.0017 5.86e-4 0.0038 5.86e-4 0.0076 5.86e-4 0.07068 0 0.13229-0.05205 0.14287-0.12197 0.01134-0.07302-0.03402-0.14219-0.1047-0.16158-1.6952-0.45915-3.3725-0.83129-4.9853-1.1063-2.8372-0.48402-6.0716-0.75048-9.1051-0.75048-5.6331 0-15.703 0.94626-19.861 7.281-1.3471 2.0541-1.814 4.5091-1.3153 6.9136 0.49879 2.4053 1.9042 4.4709 3.9576 5.8191 0.76057 0.49955 1.6424 0.76291 2.5505 0.76291 1.5802 0 3.0392-0.78544 3.9032-2.1015 0.3224-0.49022 0.43431-1.0776 0.31484-1.6532-0.11944-0.57646-0.45605-1.0706-0.94706-1.3922-0.1406-0.09321-0.30388-0.1414-0.47154-0.1414-0.29292 0-0.56403 0.14529-0.72406 0.38922-0.1338 0.20433-0.35982 0.32554-0.60368 0.32554-0.1406 0-0.27742-0.0404-0.39542-0.11808-0.3326-0.21831-0.42494-0.66657-0.2075-0.99986 0.3379-0.51508 0.85687-0.867 1.4598-0.99286 0.15723-0.03175 0.31635-0.04819 0.47468-0.04819 0.44671 0 0.88254 0.13051 1.2601 0.37834 1.6789 1.1016 2.1481 3.3647 1.0473 5.0443-1.1319 1.7239-3.0431 2.7533-5.1134 2.7533-1.1886 0-2.3431-0.34572-3.3391-0.9991-2.3758-1.5592-4.0019-3.9497-4.5798-6.7326-0.57726-2.7821-0.037796-5.6233 1.5227-7.9988 4.551-6.9359 15.073-7.9708 20.94-7.9708 3.0936 0 6.3698 0.27969 9.4758 0.80952 4.2403 0.7233 8.6988 2.0471 12.554 3.7283 0.16026 0.03024 0.2744 0.08236 0.3738 0.16392 1.2322 0.55704 2.3835 1.1351 3.4533 1.7394l0.18104 0.07382c0.07446 0.03024 0.14438 0.07691 0.21808 0.14684 1.8187 1.0643 3.3857 2.1908 4.6829 3.3671 0.15156 0.13595 0.23774 0.33094 0.23774 0.53451v6.445c0 0.08001 0.06463 0.14449 0.14362 0.14449h7.6579c0.07937 0 0.14438-0.06448 0.14438-0.14449v-7.6571c0-0.08001-0.06539-0.14449-0.14438-0.14449h-6.445c-0.20334 0-0.39852-0.08625-0.53447-0.23694-1.177-1.2974-2.3027-2.8644-3.3476-4.6568-0.08996-0.10099-0.13682-0.17016-0.1663-0.24473l-0.06614-0.16472c-0.61222-1.0869-1.191-2.2374-1.7278-3.437-0.10167-0.13285-0.15383-0.24704-0.17386-0.37214-1.6913-3.89-3.0151-8.3484-3.7384-12.589-1.8195-10.668-1.0356-25.036 7.1623-30.415 1.7418-1.1428 3.7531-1.7472 5.8149-1.7472 0.72795 0 1.4629 0.075365 2.1831 0.2253 2.7828 0.57722 5.1743 2.204 6.7326 4.5797 1.8467 2.8139 1.0597 6.6052-1.7534 8.4519-0.5951 0.38998-1.2842 0.59589-1.9935 0.59589-1.2352 0-2.3757-0.61453-3.0509-1.6431-0.3379-0.51429-0.45525-1.1304-0.33034-1.734 0.1251-0.60364 0.47778-1.1218 0.99286-1.4606 0.11792-0.076915 0.25474-0.11732 0.39546-0.11732 0.24454 0 0.47079 0.12117 0.6044 0.32474 0.21808 0.33253 0.1251 0.78155-0.2075 0.99986-0.39856 0.26102-0.50964 0.79787-0.2487 1.1956 0.40786 0.62152 1.0962 0.99286 1.842 0.99286 0.42887 0 0.84451-0.1251 1.2034-0.3605 2.1481-1.4101 2.7494-4.3046 1.3394-6.4537-1.3479-2.0533-3.4145-3.4595-5.8191-3.9576-0.6231-0.12972-1.2578-0.19499-1.8863-0.19499-1.783 0-3.5217 0.52208-5.0272 1.5103-8.1435 5.3444-7.9368 20.721-6.5304 28.966 0.27516 1.612 0.64718 3.2894 1.1055 4.9845 0.0189 0.06372 0.07521 0.10643 0.13984 0.10643 0.0076 0 0.01512 0 0.02268-0.0018 0.07295-0.01096 0.12586-0.07536 0.12208-0.14914-0.1818-3.8457 0.60205-7.1125 2.3307-9.7087 1.5748-2.3657 3.9761-3.9761 6.7628-4.5355 0.69843-0.13984 1.4101-0.21052 2.1147-0.21052 2.0875 0 4.119 0.61762 5.8743 1.7861 1.3572 0.90351 2.281 2.2817 2.6018 3.8798 0.32089 1.5988 0 3.2272-0.90351 4.5835-0.5392 0.81031-1.3619 1.3619-2.3159 1.553-0.23925 0.04819-0.48326 0.07302-0.72561 0.07302-0.71321 0-1.4085-0.21207-2.0091-0.61298-1.0589-0.70463-1.3471-2.1396-0.64246-3.1985 0.13418-0.20123 0.35982-0.32164 0.60209-0.32164 0.14211 0 0.27969 0.04195 0.39852 0.12042 0.33109 0.22062 0.42184 0.66967 0.20108 1.0014-0.12737 0.1911-0.1731 0.42184-0.12737 0.64794 0.04498 0.22685 0.17537 0.42184 0.36738 0.54925 0.36209 0.24084 0.78234 0.36825 1.2166 0.36825 0.73959 0 1.4248-0.3667 1.8327-0.97967 0.68989-1.0364 0.93538-2.2794 0.69065-3.4999-0.24568-1.2205-0.95091-2.2724-1.9865-2.9623-1.518-1.0107-3.2738-1.5453-5.0771-1.5453-0.60908 0-1.2244 0.06214-1.8288 0.18335-2.4076 0.48322-4.4834 1.8754-5.8448 3.9194-3.113 4.6761-2.1652 11.205-0.82116 15.86 0.0189 0.06138 0.07446 0.10409 0.13909 0.10409h18.626c0.39776 0 0.72172 0.32395 0.72172 0.72172v25.84h-25.84" />
    <path
        d="m100.18 5.4753h-23.247c-0.39856 0-0.72175 0.32319-0.72175 0.72175v1.8195c0 0.39777 0.32316 0.72175 0.72175 0.72175 0.39777 0 0.72172-0.32395 0.72172-0.72175v-0.95325c0-0.080014 0.06463-0.14453 0.14362-0.14453h15.72c0.07219 0 0.13455 0.053595 0.14362 0.12586 0.0076 0.071472-0.0378 0.13905-0.10621 0.15848l-22.513 5.954c-0.01512 0.0024-0.02646 0.0045-0.0378 0.0045-0.04498 0-0.08844-0.02192-0.11566-0.05828-0.03402-0.0474-0.03817-0.11188-0.0076-0.16237 2.7393-4.4221 1.5507-8.0891 0.59824-9.8814-0.02268-0.044297-0.02268-0.098648 0.0038-0.14219 0.02646-0.043503 0.07295-0.069923 0.12359-0.069923h48.394v-1.4434h-50c-0.28423 0-0.54226 0.16857-0.65878 0.43038-0.11566 0.26026-0.06614 0.56558 0.12586 0.77845 0.18029 0.19964 4.3632 4.9653-1.1692 11.4-0.2075 0.24084-0.2332 0.58421-0.06463 0.85381 0.13266 0.21132 0.36133 0.33873 0.61143 0.33873 0.06198 0 0.12435-0.0087 0.18407-0.02419l31.332-8.2872c0.34886-0.092449 0.57802-0.43273 0.53066-0.79088-0.0457-0.35816-0.35339-0.62851-0.71555-0.62851" />
    <path
        d="m103.81 5.5365c-0.20486 0-0.37154 0.16626-0.37154 0.37135 0 0.20508 0.1663 0.37214 0.37154 0.37214 0.20485 0 0.37153-0.16706 0.37153-0.37214 0-0.20508-0.1663-0.37135-0.37153-0.37135zm0 2.187c-1.0006 0-1.8149-0.81496-1.8149-1.8156 0-1.0006 0.81421-1.8148 1.8149-1.8148 1.0006 0 1.8148 0.8142 1.8148 1.8148 0 1.0006-0.8142 1.8156-1.8148 1.8156" />
    <path
        d="m37.377 1.7919c-0.0378 0-0.07484 0.013985-0.1028 0.041954l-3.7205 3.7205c-0.03024 0.030237-0.04573 0.073022-0.04195 0.11577 0.23774 2.5063 2.5529 24.875 10.729 38.427 0.02646 0.0443 0.07446 0.06992 0.12359 0.06992 0.0189 0 0.03893-0.0042 0.05745-0.01247 0.0669-0.02873 0.10092-0.10258 0.08088-0.17246-3.4276-11.91-6.222-28.96-2.8139-37.819 0.02268-0.053595 0.0076-0.11422-0.03402-0.15459l-4.1772-4.1772c-0.02646-0.027969-0.06501-0.041954-0.10167-0.041954zm-20.549 38.359c7.6484 0 17.545 1.5864 27.154 4.3522 0.01134 0.0042 0.02646 0.0053 0.04044 0.0053 0.05594 0 0.10885-0.03251 0.13229-0.08625 0.03024-0.06682 0.0038-0.14449-0.05821-0.1818-13.552-8.176-35.921-10.491-38.427-10.728-0.00378 0-0.00756-5.78e-4 -0.011339-5.78e-4 -0.038174 0-0.074458 0.0155-0.10167 0.04195l-3.7206 3.7213c-0.056694 0.05594-0.056694 0.14763 0 0.20353l4.1772 4.178c0.026457 0.02721 0.064631 0.04195 0.10167 0.04195 0.018898 0 0.034016-0.0029 0.052158-0.0091 2.6515-1.0208 6.2394-1.5383 10.664-1.5383zm30.071 6.7473c-10.422-3.3437-21.632-5.3357-30.043-5.3357-4.5121 0-8.1001 0.56248-10.662 1.6734-0.091088 0.03885-0.18709 0.05904-0.28687 0.05904-0.19276 0-0.37456-0.07457-0.5104-0.21132l-5.1966-5.1966c-0.15005-0.14994-0.19163-0.33408-0.20032-0.46225v-0.10643c0.0075592-0.11808 0.050269-0.30222 0.20032-0.45215l4.6194-4.6194c0.1338-0.1344 0.32013-0.21132 0.50964-0.21132l0.058206 0.0024c0.82898 0.06603 20.484 1.7061 35.08 8.622 0.0189 0.0091 0.0412 0.01398 0.06198 0.01398 0.0378 0 0.0737-0.01474 0.10167-0.04271 0.04271-0.04271 0.05443-0.10878 0.03024-0.16392-6.9159-14.596-8.5559-34.25-8.6228-35.08-0.01512-0.21132 0.0601-0.41795 0.20977-0.56792l4.6194-4.6194c0.14892-0.14994 0.33412-0.1911 0.46149-0.20043l0.10621 7.5592e-4c0.11792 0.0086931 0.30312 0.04974 0.45215 0.19964l5.1973 5.1966c0.21052 0.21132 0.27024 0.52363 0.15156 0.79708-3.7143 8.5721-0.71707 27.045 3.6631 40.706" />
    <path
        d="m10.719 27.697c6.0115 0 13.446 1.7861 22.096 5.3077 0.0189 0.0072 0.0378 0.01096 0.05443 0.01096 0.03817 0 0.07484-0.01474 0.1028-0.04271 0.0412-0.0412 0.05329-0.10258 0.03024-0.15617-4.6349-11.386-6.2794-20.829-4.7555-27.308 0.01134-0.055938-0.0076-0.11422-0.05367-0.14839l-4.7306-3.5356c-0.02646-0.018898-0.05594-0.028725-0.08618-0.028725-0.0076 0-0.01134 7.56e-4 -0.02268 0.00157-0.03817 0.00567-0.07219 0.025701-0.09487 0.056694l-3.1503 4.2154c-0.02646 0.034016-0.03402 0.078465-0.02646 0.11966 0.48946 2.0246 3.1736 12.502 8.5211 22.419-9.9177-5.3474-20.394-8.0317-22.419-8.5211-0.011339-0.0024-0.022678-0.0038-0.034016-0.0038-0.030237 0-0.060474 0.01021-0.086175 0.02873l-4.2154 3.1503c-0.030237 0.02268-0.050647 0.05669-0.055938 0.09479-0.00378 0.03806 0.00378 0.07691 0.026457 0.10798l3.5349 4.7298c0.026457 0.03666 0.070679 0.05749 0.11603 0.05749 0.011339 0 0.022678-7.56e-4 0.034016-0.0038 1.5569-0.3659 3.3096-0.5516 5.2106-0.5516zm25.16 8.184c-9.8742-4.4184-18.548-6.7511-25.101-6.7511-2.0207 0-3.8582 0.22062-5.4623 0.65648-0.061608 0.01701-0.1251 0.0257-0.1886 0.0257-0.22678 0-0.44361-0.10798-0.57881-0.28978l-4.3995-5.8864c-0.11641-0.15617-0.16479-0.34572-0.13682-0.53527 0.026457-0.1911 0.12813-0.3597 0.28271-0.47547l5.2332-3.9108c0.12359-0.09245 0.27742-0.14374 0.43193-0.14374 0.052914 0 0.1047 6e-3 0.1561 0.01701 0.37305 0.08315 9.2464 2.0798 18.789 6.5111 0.0189 0.0091 0.04044 0.01398 0.06161 0.01398 0.0378 0 0.0737-0.01474 0.10167-0.04271 0.04271-0.04271 0.05443-0.10719 0.03024-0.16313-4.432-9.542-6.428-18.415-6.5111-18.788-0.045733-0.20587 6.04e-4 -0.42029 0.12662-0.5889l3.91-5.2332c0.11566-0.15383 0.28423-0.25406 0.47544-0.28203 0.03402-0.0056694 0.07068-0.0075592 0.10583-0.0075592 0.15534 0 0.30388 0.04974 0.42963 0.1437l5.8864 4.3995c0.23925 0.1787 0.34319 0.48012 0.26495 0.76836-1.8754 6.9004 0.23131 17.463 6.0939 30.563" />
    <path
        d="m3.4263 3.282c-0.038174 0-0.074458 0.015496-0.10243 0.042709-0.030237 0.031749-0.046867 0.076915-0.040442 0.12197 0.67591 4.8829 2.1217 8.3106 4.4199 10.48 2.6896 2.5389 6.1982 2.8706 8.9546 2.8768h5.67e-4c0.03817 0 0.07484-0.0155 0.10167-0.04271 0.02646-0.02721 0.04195-0.06372 0.04195-0.10175-0.0038-2.7564-0.3379-6.2647-2.8768-8.9546-2.1691-2.298-5.5968-3.7438-10.479-4.4206-0.0075592-7.559e-4 -0.011339-0.0015723-0.018898-0.0015723zm13.328 14.964c-3.0625 0-6.9726-0.37214-10.043-3.27-2.8481-2.6881-4.5113-7.055-5.0839-13.348 6.2923 0.57257 10.659 2.2367 13.348 5.0847 3.0843 3.2676 3.3802 7.6378 3.2412 11.505-0.48092 0.01701-0.96879 0.02797-1.4613 0.02797h-5.67e-4" />
    <path
        d="m2.8475 116.25v-44.645c0-0.05053 0.026457-0.0971 0.069923-0.12352 0.022678-0.01323 0.048757-0.02041 0.074836-0.02041 0.022678 0 0.046489 0.0053 0.067655 0.01625 0.94467 0.50265 2.4658 1.1008 4.3492 1.1008 1.8505 0 3.712-0.57102 5.5322-1.6983 0.02268-0.01474 0.04989-0.02192 0.07635-0.02192 0.03024 0 0.0601 0.0091 0.08542 0.02797 0.04725 0.03477 0.06917 0.09555 0.05367 0.15307l-5.954 22.513c-0.018898 0.06372-0.074458 0.10719-0.13985 0.10719-0.00378 0-0.011339 0-0.018898-5.82e-4 -0.071435-0.0091-0.1251-0.07072-0.1251-0.14294v-15.72c0-0.08001 0.064631-0.14449 0.14362-0.14449h0.95325c0.39856 0 0.72175-0.32395 0.72175-0.72175 0-0.39856-0.32316-0.72172-0.72175-0.72172h-1.8195c-0.39777 0-0.72172 0.32319-0.72172 0.72172v23.248c0 0.36126 0.27024 0.66892 0.62927 0.71552 0.030237 4e-3 0.063119 6e-3 0.094112 6e-3 0.32618 0 0.61298-0.22141 0.69688-0.53761l8.2864-31.331c0.01512-0.05979 0.02268-0.12197 0.02268-0.18414 0-0.25017-0.12662-0.47933-0.33865-0.61218-0.1149-0.07227-0.24719-0.10953-0.38302-0.10953-0.17235 0-0.33941 0.06138-0.47079 0.17401-2.2009 1.8925-4.4429 2.852-6.6634 2.852-2.8442 5.78e-4 -4.6606-1.6144-4.7358-1.6828-0.13418-0.12042-0.3069-0.18724-0.48712-0.18724-0.10167 0-0.19956 0.02079-0.29216 0.06214-0.26117 0.11577-0.42963 0.37445-0.42963 0.65803v46.251h1.4435" />
    <path
        d="m5.9076 103.44c-0.20485 0-0.37229 0.16702-0.37229 0.37214 0 0.20432 0.16706 0.37059 0.37229 0.37059s0.37153-0.16627 0.37153-0.37059c0-0.20508-0.1663-0.37214-0.37153-0.37214zm0 2.187c-1.0014 0-1.8156-0.8142-1.8156-1.8148 0-1.0014 0.8142-1.8156 1.8156-1.8156 1.0006 0 1.8148 0.8142 1.8148 1.8156 0 1.0006-0.81416 1.8148-1.8148 1.8148" />

</svg>