<?xml version="1.0" encoding="UTF-8"?>
<svg version="1.1" viewBox="0 0 120 120" xmlns="http://www.w3.org/2000/svg">
    <path
        d="m0 0h120v1.162h-17.976c-3.367 0-6.3122 2.0852-9.4307 4.2924-3.3582 2.3762-6.8164 4.8238-11.067 4.8238-0.62842 0-1.273-0.05291-1.9382-0.1683-2.8657-0.49538-3.8536-2.1344-4.1873-3.0671-0.51375-1.4362-0.21608-3.1457 0.74162-4.255 0.85625-0.99152 2.2528-1.4229 3.6448-1.1253 1.2164 0.25946 2.1528 1.0238 2.4431 1.9933 0.20799 0.69237 0.19109 1.7875-1.0701 3.0678-0.22564 0.2293-0.59312 0.23153-0.82171 0.0068-0.22859-0.22492-0.23153-0.59312-0.006803-0.8217 0.47554-0.48363 0.99885-1.2083 0.78569-1.9191-0.16683-0.55419-0.78425-1.0216-1.5736-1.1907-0.7666-0.16464-1.8301-0.052195-2.5217 0.74823-0.68134 0.79011-0.89817 2.066-0.52698 3.1046 0.30353 0.84816 1.1209 1.9374 3.2905 2.313 4.6915 0.81362 8.4752-1.8683 12.136-4.4591 1.7309-1.226 3.4956-2.4725 5.3586-3.3434h-96.117v96.117c0.87111-1.8632 2.1179-3.6272 3.343-5.3586 2.5914-3.661 5.2732-7.4442 4.4595-12.136-0.37519-2.169-1.4651-2.9863-2.3131-3.2906-1.0382-0.37115-2.3147-0.1542-3.1039 0.52702-0.8013 0.69162-0.91359 1.7551-0.7485 2.5225 0.16853 0.78939 0.63598 1.4068 1.191 1.5729 0.71029 0.21316 1.4352-0.30954 1.9184-0.78497 0.22881-0.22564 0.5969-0.22262 0.82171 0.0076 0.22503 0.22866 0.2225 0.59607-0.00605 0.82171-1.2808 1.2612-2.3755 1.2781-3.0683 1.0708-0.9696-0.29102-1.7336-1.2274-1.9934-2.4438-0.29745-1.3921 0.13436-2.7886 1.1254-3.6448 1.1088-0.95698 2.8188-1.2554 4.2554-0.74086 0.93248 0.33373 2.5713 1.3215 3.0668 4.1866 0.1149 0.6652 0.16853 1.3105 0.16853 1.9389-2.95e-4 4.2505-2.4476 7.7087-4.8242 11.066-2.2072 3.1186-4.292 6.0639-4.292 9.4307v13.86h-1.162v-115.88" />
    <path
        d="m82.367 2.0521c2.6577 0.15655 5.3065 0.38071 7.9657 0.50714-1.3759 0.54905-2.6967 1.2032-3.9836 1.9536-0.67325-1.5089-2.5012-2.0668-3.9821-2.4607zm9.9069-0.17858c-3.3839-0.082318-6.7552 0.07646-10.136 0.10583-0.03821 0-0.03742 0.055861 0 0.058053 0.01474 5.481e-4 0.02948 0.00229 0.04483 0.00271 5.52e-4 0.010205 5.52e-4 0.021921 0.01398 0.026457 0.746 0.27636 1.3663 0.85111 1.9543 1.3678 0.52037 0.45789 1.1304 1.0268 1.2274 1.7412 0.0257 0.18523 0.1279 0.30134 0.26166 0.36087 0.10658 0.091843 0.25871 0.12348 0.41601 0.026457 0.0045-0.00271 0.0094-0.00491 0.01474-0.00831 0.10878-0.031748 0.20946-0.088176 0.2874-0.16683 1.9051-1.1473 3.8978-2.0719 6.0166-2.7658 0.40498-0.13228 0.33884-0.73791-0.1014-0.74895" />
    <path
        d="m3.8143 63.095c-0.21475 0.24113-0.33736 0.57989-0.54089 0.83788-0.19638 0.24907-0.41779 0.47112-0.66523 0.66958-0.24291 0.19464-0.59917 0.19351-0.77034-0.099024-0.14842-0.25361-0.023433-0.66516 0.29318-0.7203 0.27987-0.04762 0.55552-0.1183 0.81936-0.22488 0.26502-0.10734 0.6446-0.2623 0.81827-0.49829 0.024567-0.03402 0.073814 0.0038 0.045657 0.03402" />
    <path
        d="m2.0347 60.544c0.53514-0.36094 1.3425-0.23887 1.9661-0.43586 0.77261-0.2434 1.5934-0.67181 2.1185-1.298 0.024189-0.03024 0.064592 0.01134 0.041083 0.0412-0.55699 0.67986-1.0537 1.3141-1.8019 1.8037-0.57706 0.3772-1.528 0.95841-2.2199 0.685-0.35199-0.13833-0.43151-0.57551-0.10394-0.79601" />
    <path
        d="m2.0525 82.367c0.39394 1.481 0.95203 3.3097 2.4608 3.9821-0.7508 1.287-1.4051 2.6085-1.9541 3.9836-0.12661-2.6584-0.34998-5.308-0.50676-7.9657zm-0.012094-0.18368c-8.24e-4 -0.01512-0.00198-0.03024-0.00292-0.0446-0.00198-0.0378-0.057676-0.0378-0.05828 0-0.029102 3.3809-0.18773 6.7525-0.1053 10.136 0.010583 0.43952 0.61637 0.50642 0.74903 0.10129 0.69392-2.1197 1.6179-4.1114 2.7657-6.0174 0.07835-0.07786 0.13493-0.17839 0.16626-0.28724 0.00313-0.0038 0.00567-0.01134 0.00869-0.01512 0.097323-0.15723 0.064895-0.30954-0.026835-0.41598-0.059447-0.13304-0.17544-0.23584-0.36064-0.26078-0.71395-0.09789-1.2834-0.70707-1.7407-1.2282-0.51655-0.58798-1.0916-1.2076-1.368-1.9543-0.00454-0.01134-0.015874-0.01134-0.026835-0.01512" />
    <path
        d="m31.7 17.385c1.5888-0.72688 2.8182-2.1447 3.7384-3.5948 0.38793-0.61153 0.733-1.2495 1.0546-1.8978 0.25614-0.5167 0.36234-0.97754 0.8869-1.2576 0.27099-0.14404 0.5472 0.0404 0.57388 0.32927 0.10541 1.1378-1.4763 2.7084-2.203 3.5338-1.1549 1.312-2.4512 2.1903-4.0214 2.937-0.03364 0.01663-0.06319-0.03477-0.02948-0.05" />
    <path
        d="m42.055 28.757 2.0559 1.8161-2.7326 0.30879-1.6256-1.7221zm0.03742-0.59682-2.9718 0.52036c-0.10541 0.0189-0.19204 0.09335-0.22564 0.19465-0.03402 0.10129-0.0091 0.21317 0.06433 0.29102l2.0961 2.2204c0.05541 0.0582 0.13206 0.09109 0.21131 0.09109 0.01096 0 0.02192-5.29e-4 0.0325-0.0016l3.5268-0.39912c0.11399-0.01134 0.20984-0.09184 0.24461-0.20145 0.03439-0.10961 0.0011-0.22942-0.08466-0.30501l-2.6512-2.3417c-0.06599-0.05858-0.1556-0.08391-0.24253-0.06917" />
    <path
        d="m34.374 39.972c-1.2239-0.36964-2.5013-1.4457-3.4016-2.3351-1.0454-1.0327-1.8007-2.1785-2.5211-3.4493-0.0189-0.03402 0.03024-0.06085 0.04997-0.03024 0.79873 1.2752 2.0901 2.1778 3.3233 2.9892 0.99194 0.65197 2.1791 1.1525 3.0794 1.9139 0.42263 0.35716-0.0291 1.0621-0.53 0.91068" />
    <path
        d="m27.027 39.163c-0.44444 1.1841-0.92478 2.7393-1.9819 3.486-0.2948 0.20787-0.61894-0.13455-0.56013-0.43068 0.22307-1.1223 1.2463-2.0837 1.8004-3.084 0.86222-1.5567 1.4568-3.2487 1.3859-5.0457-0.0018-0.0378 0.05571-0.0378 0.05802 0 0.11943 1.7816-0.07064 3.3912-0.70227 5.0744" />
    <path
        d="m15.976 37.387 0.73183 2.252-1.5811 2.2506-0.60805-2.6753zm0.16131-0.88932c-0.10503-0.0189-0.21241 0.02268-0.27878 0.10507l-1.8814 2.3579c-0.05541 0.06992-0.07555 0.16025-0.05658 0.24605l0.7841 3.4493c0.0257 0.11187 0.1146 0.19843 0.22742 0.22035 0.11252 0.02268 0.22764-0.02268 0.29401-0.11754l2.0407-2.9047c0.03477-0.04913 0.05284-0.10809 0.05284-0.16668 0-0.03024-0.0049-0.06009-0.01398-0.08957l-0.94372-2.9039c-0.03288-0.10167-0.11917-0.17726-0.22454-0.19616" />
    <path
        d="m34.159 28.501c-0.03137-0.02268-0.0033-0.06841 0.02948-0.04989 1.2707 0.7203 2.4166 1.4759 3.4493 2.521 0.8894 0.90036 1.9655 2.1778 2.3353 3.4015 0.15107 0.50052-0.55351 0.95255-0.91072 0.53065-0.76165-0.90108-1.2618-2.0881-1.9144-3.0796-0.81078-1.2333-1.7137-2.5247-2.9888-3.3236" />
    <path
        d="m21.296 39.413c0.2397 0.51742-0.42319 1.1679-0.85591 0.66002-1.8191-2.1344-2.4137-5.1866-2.4177-7.9098 0-0.03817 0.05484-0.03779 0.05828 0 0.25202 2.7908 2.0904 4.8223 3.2153 7.2499" />
    <path
        d="m21.303 19.773c1.1189 0.41382 2.5731 0.74676 3.3485 1.6993 0.77609 0.95327 0.87164 2.1557 0.2363 3.2038-0.02759 0.04562-0.05889 0.08145-0.08814 0.12355-0.04165 0.02948-0.07843 0.06021-0.12378 0.08814-1.0479 0.63504-2.25 0.53945-3.2035-0.23667-0.9529-0.77541-1.2859-2.2292-1.6994-3.3479-0.28709-0.77688-0.56791-1.556-0.8154-2.3453 0.78981 0.24696 1.5691 0.52774 2.3453 0.81509zm-2.4659-0.93638c0.62494 2.5012 0.76396 6.3077 3.5618 7.2756 0.88486 0.30652 2.2264 0.09109 3.2132-0.50056 0.59116-0.98634 0.80651-2.3284 0.50045-3.2126-0.96813-2.7981-4.7747-2.937-7.2756-3.5625" />
    <path
        d="m10.636 37.38c0.27961-0.52479 0.74071-0.63133 1.2575-0.88709 0.64826-0.32126 1.2859-0.66667 1.8974-1.0548 1.4505-0.9202 2.8676-2.1491 3.5946-3.7381 0.0155-0.03402 0.06629-0.0038 0.05019 0.03024-0.74646 1.57-1.6247 2.8665-2.9368 4.0218-0.82511 0.72616-2.3961 2.3079-3.5337 2.2028-0.28887-0.02646-0.47369-0.30274-0.32927-0.57404" />
    <path
        d="m57.778 10.049c-3.9035 2.0506-7.8841 2.3755-12.126 1.184-3.5299-0.99148-6.5495-3.0245-9.9621-4.2591-3.1748-1.1495-6.7945-1.972-10.163-1.4906-3.8842 0.55491-8.5614 4.2115-6.342 8.6657 1.6422 3.2964 6.621 4.4202 9.5051 2.2689 1.1706-0.8739 1.9675-2.2483 1.6024-3.7536-0.48348-1.994-1.8159-1.3502-3.2174-0.84378-0.60401 0.2183-1.1647-0.563-0.83063-1.0804 1.1915-1.8455 3.6939-2.1903 5.1383-0.40278 1.4711 1.8206 1.0631 4.6575-0.35781 6.3693-0.44069 0.5314-0.95202 0.96208-1.5075 1.3098 1.1019 0.16252 2.0634 0.746 2.5253 2.0102 0.56557 1.5479 0.16479 3.6786-1.1519 4.7577 1.2587 0.46893 1.4721 2.4468 1.1654 3.6705-0.15273 0.60934-0.60499 1.628-1.2148 2.3843-0.75564 0.6093-1.7743 1.0613-2.3838 1.2142-1.2242 0.30652-3.2021 0.09335-3.6704-1.165-1.0792 1.3164-3.2101 1.7169-4.7577 1.1517-1.2644-0.46231-1.8481-1.4237-2.0109-2.5254-0.34707 0.55567-0.77805 1.0665-1.3092 1.5075-1.7117 1.4215-4.549 1.8294-6.3696 0.35792-1.7875-1.445-1.4424-3.947 0.40278-5.1383 0.51764-0.33449 1.2989 0.22639 1.0806 0.83055-0.50612 1.4016-1.1504 2.7334 0.84325 3.2171 1.5053 0.36548 2.8803-0.43143 3.7536-1.6023 2.1516-2.8841 1.0279-7.8629-2.2687-9.5048-4.4538-2.2189-8.1105 2.4578-8.6653 6.342-0.48147 3.3684 0.34133 6.9883 1.4903 10.163 1.2351 3.4133 3.2681 6.4328 4.2595 9.9628 1.1915 4.2425 0.86649 8.2224-1.184 12.126-0.01739 0.03402-0.068939 0.0038-0.05027-0.03024 2.7809-4.8767 1.8889-10.339-0.30062-15.231-1.2199-2.7268-2.8618-5.2052-3.7928-8.0576-1.8125-5.5567-2.5524-17.132 6.3027-16.965 5.4183 0.10208 8.324 6.9317 6.1448 11.417 0.27965 1.2135 1.0973 2.2344 2.497 2.4512 1.4711 0.22715 2.4852-0.46084 3.5265-1.3906 0.31472-0.28082 0.8002-0.0076 0.74419 0.36472 1.0767 0.96726 3.0384 0.62767 4.1726-0.07219 0.19699-0.12132 0.36574-0.2778 0.52309-0.44614 0.16823-0.15723 0.325-0.32655 0.44644-0.52335 0.69914-1.134 1.0391-3.0958 0.07151-4.1726-0.37005 0.05594-0.64539-0.42928-0.36461-0.74385 0.92992-1.0415 1.6184-2.0558 1.3908-3.5265-0.21646-1.4002-1.2374-2.2174-2.4513-2.4975-4.4855 2.1792-11.315-0.7262-11.417-6.1444-0.16706-8.8551 11.409-8.115 16.965-6.3024 2.8529 0.93048 5.3314 2.5725 8.058 3.7924 4.893 2.1895 10.354 3.0811 15.231 0.30062 0.0325-0.019275 0.06248 0.032504 0.02948 0.050003" />
    <path
        d="m28.422 28.421c-0.21676 0.24983-0.52713 0.41598-0.86793 0.40056-0.63451-0.02646-1.1714-0.51447-1.1714-1.1708 0-0.3292 0.15787-0.64679 0.39904-0.86952 0.22307-0.24113 0.54066-0.39908 0.86933-0.39908 0.65666 0 1.143 0.53654 1.1714 1.1716 0.01512 0.34016-0.15103 0.65046-0.40048 0.86729" />
    <path
        d="m8.9688 2.0705c-0.38816 0.44024-0.83751 0.81657-1.3371 1.1238-0.046148 0.028724-0.10277-0.027968-0.074306-0.07423 0.28679-0.46964 0.49988-0.96726 0.63708-1.5001 0.18285-0.70779 1.2994-0.14479 0.77431 0.45056" />
    <path
        d="m30.573 44.111-1.8159-2.0565 0.40286-2.302 1.7223 1.6258zm0.30289 0.95989c0.10964-0.03402 0.18837-0.13077 0.20152-0.24491l0.39851-3.5265c0.0017-0.01134 0.0023-0.02268 0.0023-0.03402 0-0.07937-0.03288-0.15572-0.09135-0.21165l-2.2202-2.0962c-0.07775-0.07257-0.18947-0.09789-0.29084-0.06387-0.10156 0.03402-0.17654 0.11981-0.19491 0.22564l-0.52052 2.9716c-0.01512 0.08769 0.0098 0.1765 0.06864 0.24265l2.3422 2.6511c0.07578 0.08617 0.19552 0.11906 0.30486 0.08542" />
    <path
        d="m6.2729 25.601c-2.948e-4 0.03779-0.054841 0.03779-0.05828 0-0.25954-2.9679 2.1501-5.5963 5.133-5.7351 2.7479-0.12711 5.5189 2.2792 4.8729 5.1583-0.20818 0.92753-1.5688 0.67691-1.6055-0.21755-0.08814-2.1528-1.1481-3.8219-3.5518-3.7984-2.3534 0.02268-4.7807 2.1932-4.7906 4.5929" />
    <path
        d="m7.0579 26.096c-1.1453-3.7499 5.3994-5.9924 6.7654-2.3586 0.37236 0.99001-1.3908 1.4736-1.576 0.43438-0.24601-1.3818-2.0502-1.3075-3.0955-0.94813-1.238 0.42554-2.1087 1.5266-2.0405 2.865 0.00176 0.03024-0.044447 0.0378-0.053367 0.0076" />
    <path
        d="m39.413 21.296c-2.4277-1.1253-4.4595-2.9635-7.2503-3.2156-0.03666-0.0021-0.03787-0.05813 0-0.05813 2.7232 0.0042 5.7759 0.5983 7.9106 2.4174 0.50736 0.43291-0.14264 1.0959-0.66032 0.85629" />
    <path
        d="m34.088 27.729c-0.03704-0.0021-0.03742-0.05972 0-0.0582 1.7974 0.07068 3.4892-0.52403 5.0457-1.3854 1.0006-0.55495 1.9621-1.5781 3.0838-1.8008 0.29628-0.05877 0.63908 0.26532 0.43094 0.56009-0.74676 1.0569-2.3014 1.5376-3.4858 1.9815-1.6833 0.63209-3.2925 0.82242-5.0744 0.70261" />
    <path
        d="m41.889 15.126-2.25 1.581-2.2524-0.73134 1.8272-1.4575zm0.86963 0.09918c0.09396-0.06625 0.14011-0.18146 0.11804-0.29401-0.0223-0.11252-0.10885-0.20149-0.2208-0.22711l-3.4496-0.78421c-0.08553-0.0189-0.17628 0.0016-0.24578 0.05666l-2.3582 1.8816c-0.08357 0.06625-0.12378 0.17333-0.10481 0.27855 0.01928 0.105 0.09445 0.19106 0.19638 0.22492l2.9037 0.94299c0.02948 0.01058 0.05975 0.01474 0.08957 0.01474 0.05919 0 0.11773-0.0189 0.16743-0.05291l2.904-2.0411" />
    <path
        d="m3.1044 74.82c-2.2443-1.9272-1.3491-6.0144-0.41749-8.437 1.3422-3.489 3.8695-6.3995 5.4841-9.7107-0.46137 0.30123-1.0083 0.51817-1.6594 0.61958-3.5004 0.54319-4.9096-3.3383-3.4039-5.808 0.30032-1.6287-0.14007-3.4405-1.1657-4.6995-0.95834-1.176 0.94836-2.474 1.5831-1.2215 0.85047 1.6787 0.971 3.3405 0.47486 4.9126 0.17692-0.14022 0.36956-0.26835 0.5797-0.38143 4.0774-2.1881 3.7553 4.4239 1.033 2.413-0.02948-0.02268-0.00292-0.07068 0.029102-0.04989-1.1286-1.1929-1.7947-1.2105-1.9979-0.052913-0.69222 1.2135-0.45392 2.4607 0.71543 3.7418 1.4473 0.99224 3.4209-0.17197 4.193-1.3538 0.78062-1.1943 0.98759-2.7312 0.87795-4.1261-0.21445-2.732-1.5512-5.2993-2.8024-7.683-2.0488-3.9043-5.0026-8.0791-5.0268-12.659-0.00454-0.7776 1.1489-0.76365 1.1983 0 0.3908 6.037 4.7218 10.92 6.703 16.462 0.92013 2.5747 1.4584 7.3277-0.80512 9.4711-0.68383 1.9132-1.6434 3.7205-2.6888 5.5895-1.1114 1.986-2.2291 4.0188-2.7045 6.268-0.51163 2.4218 0.34046 4.1563 0.40475 6.4539 0.00907 0.32693-0.38381 0.43952-0.60461 0.25058" />
    <path
        d="m61.671 3.5647c0.21536-0.47478 0.27708-0.99443 0.49024-1.4634 0.24034-0.52774 1.0172-0.13595 0.89669 0.37776-0.28222 1.1988-1.4979 1.8941-2.374 2.6063-0.03326 0.027213-0.068372-0.019654-0.03515-0.045581 0.45642-0.34983 0.78716-0.95622 1.0224-1.4751" />
    <path
        d="m59.569 2.7393c-0.05439 1.7133-0.73058 2.9885-1.7875 4.2871-0.02117 0.025701-0.06542-0.00869-0.04558-0.03515 0.86362-1.1392 1.051-2.7393 0.76513-4.1072-0.03742-0.17934-0.01247-0.4035 0.13965-0.52921 0.04411-0.036661 0.08818-0.073512 0.13304-0.11025 0.11248-0.094072 0.22859-0.10658 0.3631-0.047017 0.05439 0.024189 0.10877 0.047773 0.16316 0.072038 0.16539 0.073512 0.27488 0.2962 0.26899 0.46964" />
    <path
        d="m4.8113 49.092c-0.021165 0.03024-0.06686 0.0038-0.04989-0.03024 0.19691-0.39394 0.28252-0.75851 0.59195-1.0981 0.34715-0.38071 0.72816-0.5108 1.2303-0.55933 0.75417-0.0737 0.78123 1.1988 0 1.1944-0.54066-0.0038-1.4223-0.01134-1.7724 0.49244" />
    <path
        d="m61.338 2.1388c0.27269 0.69162-0.30796 1.6427-0.68576 2.2197-0.48877 0.74748-1.123 1.2443-1.8029 1.8015-0.02872 0.023433-0.07056-0.017008-0.04116-0.040403 0.62619-0.52551 1.0547-1.3465 1.298-2.119 0.19695-0.62328 0.07423-1.431 0.4351-1.9661 0.22122-0.3278 0.65783-0.24767 0.79672 0.10439" />
    <path
        d="m61.848 6.0087c-1.8691 1.0452-3.6757 2.005-5.5888 2.6886-2.1432 2.2638-6.8969 1.7258-9.4711 0.80481-5.5427-1.9808-10.426-6.3122-16.462-6.7022-0.76365-0.049247-0.77775-1.2032 0-1.1988 4.58 0.024189 8.7541 2.9774 12.659 5.0268 2.3838 1.2509 4.9504 2.5879 7.683 2.8025 1.395 0.10953 2.9311-0.097739 4.1254-0.87757 1.1819-0.77246 2.3461-2.7459 1.3539-4.193-1.2804-1.1694-2.5276-1.4075-3.7411-0.71588-1.1584 0.2036-1.1407 0.86948 0.05219 1.9984-0.01965-0.032504 0.02872-0.058809 0.05072-0.02948 2.0102 2.7224-4.6012 3.0443-2.413-1.0334 0.11248-0.21022 0.2411-0.40203 0.38071-0.57917-1.5718 0.4961-3.2336 0.37557-4.9123-0.47482-1.2523-0.63504 0.04539-2.5416 1.2216-1.5832 1.2593 1.0253 3.0701 1.4656 4.6987 1.1657 2.4703-1.506 6.3511-0.09702 5.808 3.4037-0.10069 0.65121-0.31752 1.198-0.61962 1.6596 3.3118-1.6148 6.2219-4.1416 9.7115-5.4837 2.4225-0.93196 6.5099-1.8272 8.4363 0.41749 0.18962 0.2205 0.07718 0.61372-0.25062 0.60416-2.2968-0.06395-4.032-0.91654-6.4532-0.40498-2.249 0.47554-4.2822 1.5934-6.2687 2.7048" />
    <path
        d="m2.1016 62.162c0.46885-0.21392 0.9888-0.27553 1.4634-0.49024 0.51855-0.23509 1.1249-0.56666 1.4752-1.0231 0.025323-0.03402 0.072302 0.0021 0.045657 0.03402-0.71206 0.87609-1.4077 2.0918-2.6064 2.374-0.5139 0.12132-0.9055-0.65636-0.37788-0.89594" />
    <path
        d="m7.0273 57.781c-1.2992 1.0569-2.5742 1.7331-4.2875 1.7875-0.17314 0.0076-0.39655-0.10356-0.46972-0.2691-0.023811-0.05443-0.047924-0.10885-0.071735-0.16328-0.059452-0.13455-0.046828-0.24983 0.046753-0.36321 0.036661-0.04422 0.073512-0.08882 0.11025-0.13304 0.12605-0.15156 0.34998-0.17688 0.52921-0.13946 1.3677 0.28649 2.9681 0.09864 4.1076-0.76513 0.026079-0.02268 0.060926 0.02646 0.035528 0.04573" />
    <path
        d="m1.5721 10.276c0.77034-0.69385 1.7447-1.5567 2.1857-2.5078 0.013606-0.02948 0.066066-0.00831 0.053443 0.021921-0.21188 0.50495-0.32988 1.0473-0.5455 1.5545-0.23709 0.55786-0.55412 1.0452-0.9236 1.5251-0.44651 0.58065-1.2796-0.13451-0.77004-0.59388" />
    <path
        d="m2.3505 13.15c0.56527-1.736 1.7313-3.2553 2.2652-5.0332 0.010961-0.035906 0.065764-0.021165 0.056013 0.015496-0.47259 1.7559-0.4097 3.8264-1.3752 5.4161-0.29567 0.4873-1.1329 0.17567-0.94602-0.39836" />
    <path
        d="m5.9142 7.782c0.0025-0.036661 0.05828-0.038211 0.057978 0-0.013228 2.5607-0.032126 5.0271-0.75969 7.5058-0.20753 0.70855-1.3387 0.39322-1.1033-0.30429 0.79094-2.3402 1.621-4.7187 1.805-7.2015" />
    <path
        d="m64.505 1.8375c0.29254 0.17125 0.29401 0.52774 0.09925 0.77027-0.19846 0.24771-0.42115 0.46893-0.6703 0.66516-0.25724 0.2036-0.59607 0.32632-0.83716 0.54096-0.03175 0.027969-0.06909-0.020787-0.03515-0.045581 0.23592-0.17348 0.39027-0.55344 0.49833-0.81804 0.10658-0.26385 0.17639-0.53949 0.22492-0.81951 0.05443-0.3168 0.4667-0.44171 0.7203-0.29325" />
    <path
        d="m1.6204 8.1944c0.53288-0.13746 1.0305-0.35059 1.4999-0.63723 0.046224-0.028725 0.10303 0.027969 0.074305 0.07423-0.30686 0.4998-0.68353 0.94889-1.1234 1.3369-0.59543 0.52551-1.1587-0.59093-0.45075-0.77393" />
    <path
        d="m7.7681 3.758c0.95146-0.441 1.8139-1.4156 2.5079-2.1859 0.45906-0.51009 1.1748 0.32338 0.59429 0.76951-0.48 0.36971-0.96726 0.68648-1.5257 0.92387-0.50729 0.21536-1.0493 0.33369-1.5541 0.54535-0.030236 0.012473-0.051969-0.039685-0.022299-0.052913" />
    <path
        d="m15.262 2.0521c2.6577 0.15655 5.3072 0.38071 7.9657 0.50714-1.3752 0.54905-2.6965 1.2032-3.9836 1.9536-0.67276-1.5089-2.501-2.0668-3.9821-2.4607zm9.9073-0.17858c-3.3838-0.082318-6.7552 0.07646-10.136 0.10583-0.03742 0-0.03704 0.055861 0 0.058053 0.01512 5.481e-4 0.02986 0.00229 0.04483 0.00271 8.81e-4 0.010205 0.0011 0.021921 0.01361 0.026457 0.74684 0.27636 1.3666 0.85111 1.9546 1.3678 0.52112 0.45789 1.1306 1.0268 1.2277 1.7412 0.02532 0.18523 0.12801 0.30134 0.26128 0.36087 0.10681 0.091843 0.25894 0.12348 0.41628 0.026457 0.0049-0.00271 0.0098-0.00491 0.01474-0.00831 0.10885-0.031748 0.20931-0.088176 0.2874-0.16683 1.9055-1.1473 3.8978-2.0719 6.017-2.7658 0.40505-0.13228 0.33815-0.73791-0.10137-0.74895" />
    <path
        d="m13.548 3.2964c-1.5902 0.96503-3.6605 0.90255-5.4164 1.3751-0.036284 0.0094488-0.051099-0.045581-0.015496-0.055862 1.7784-0.53435 3.2971-1.7 5.0332-2.2652 0.57419-0.18743 0.88626 0.64974 0.39874 0.94594" />
    <path
        d="m8.0149 6.9906c2.8748 0.29548 5.8235 0.077178 8.6324-0.57917 1.0433-0.24401 1.2612 1.3502 0.19521 1.4442-3.0528 0.27046-5.8893-0.019654-8.8354-0.80776-0.030992-0.00869-0.025701-0.061002 0.00756-0.057335" />
    <path
        d="m26.089 7.1112c-1.3385-0.068372-2.4393 0.80262-2.8648 2.0403-0.35947 1.0452-0.43351 2.8495 0.94828 3.0958 1.0391 0.18524 0.55559 1.9477-0.43468 1.5758-3.6336-1.3656-1.3915-7.9106 2.3583-6.7657 0.02872 0.00869 0.02419 0.055143-0.0072 0.053631" />
    <path
        d="m4.5131 19.244c-0.7508 1.287-1.4051 2.6085-1.9541 3.9836-0.12661-2.6584-0.34998-5.308-0.50676-7.9657 0.39394 1.481 0.95203 3.3089 2.4608 3.9821zm0.66259-0.9702c-0.71395-0.097096-1.2834-0.70632-1.7407-1.2274-0.51655-0.58798-1.0916-1.2076-1.368-1.9544-0.00454-0.01247-0.015874-0.01247-0.026835-0.01474-8.277e-4 -0.01474-0.00198-0.03024-0.00292-0.04479-0.00198-0.03742-0.057676-0.03742-0.05828 0-0.029102 3.3809-0.18773 6.7525-0.10534 10.136 0.010583 0.44028 0.61637 0.50714 0.74903 0.10129 0.69392-2.119 1.6179-4.1106 2.766-6.0166 0.078047-0.07793 0.13466-0.17854 0.16596-0.2874 0.00313-0.0042 0.00567-0.01058 0.00869-0.01474 0.097323-0.1573 0.064894-0.30943-0.026835-0.41601-0.059452-0.13293-0.17545-0.23592-0.36064-0.26166" />
    <path
        d="m4.0808 4.5445c0-0.12714 0.040781-0.25504 0.083565-0.37999 0.12548-0.043389 0.25319-0.083792 0.38037-0.083792 0.35573 0 0.29923 0.34473 0.1855 0.64974-0.30467 0.1132-0.64974 0.16978-0.64944-0.18595zm0.32591 1.3134c0.42172 0.091162 0.81475-0.080844 1.1875-0.26385 0.18285-0.37262 0.35486-0.76588 0.26358-1.1878-0.076687-0.35426-0.29775-0.6909-0.62997-0.84964-0.28135-0.13451-0.58998-0.10806-0.85897 0.041159-0.1378 0.077178-0.27681 0.21755-0.42123 0.34911-0.13202 0.14479-0.27269 0.28369-0.34912 0.42187-0.14956 0.26899-0.17654 0.5777-0.041915 0.85848 0.15874 0.33294 0.49584 0.55344 0.85017 0.63061" />
    <path
        d="m7.782 5.9138c2.4829-0.18376 4.8616-1.0136 7.2023-1.8044 0.69676-0.23592 1.012 0.89522 0.30399 1.1032-2.4782 0.72692-4.9448 0.746-7.5061 0.75923-0.037871 5.518e-4 -0.036661-0.055143 0-0.058053" />
    <path
        d="m48.601 6.5832c0.0045 0.7813-1.2678 0.75409-1.1944 0 0.04879-0.502 0.17858-0.88271 0.55956-1.2304 0.33933-0.30943 0.70398-0.3947 1.0982-0.59165 0.03402-0.017008 0.05998 0.028724 0.0291 0.050003-0.50559 0.34987-0.49584 1.2318-0.49266 1.7721" />
    <path
        d="m24.807 14.615c0.89405 0.03704 1.1447 1.3972 0.21706 1.606-2.8785 0.64532-5.2857-2.1256-5.1579-4.8729 0.13841-2.9833 2.7669-5.3926 5.7347-5.133 0.03666 0.00378 0.03814 0.058053 0 0.058053-2.3997 0.00945-4.5698 2.4372-4.5929 4.7906-0.02343 2.4034 1.6453 3.464 3.7988 3.5515" />
    <path
        d="m2.8234 6.6025c-0.12548-1.3157-0.22284-2.6526-0.20043-3.9798 1.3273-0.021921 2.6643 0.074948 3.9798 0.20066-0.24461 1.1878-0.32731 2.3586-0.25489 3.5243-1.166-0.072038-2.3368 0.010205-3.5245 0.25504zm-0.2507 0.61591c1.5791-0.20285 3.1622-0.18372 4.7165 0.070564-0.25466-1.5545-0.27356-3.1377-0.070337-4.7165 0.019276-0.15141-0.14442-0.2815-0.28105-0.28078-1.4817 0-2.9397 0.12057-4.4062 0.23962-0.11913 1.4663-0.23974 2.9245-0.24004 4.4062 0 0.13671 0.13009 0.30062 0.28105 0.28078" />
    <path
        d="m6.4108 16.647c0.65692-2.8084 0.87477-5.7574 0.5797-8.6324-0.00354-0.032504 0.048794-0.038211 0.056806-0.00718 0.78871 2.9458 1.0787 5.7831 0.80848 8.8354-0.094148 1.0657-1.6887 0.84816-1.445-0.19544" />
    <path
        d="m9.0149 9.0146c1.3468 0.53288 2.6505 1.4869 2.8604 2.8606-1.3733-0.21022-2.3278-1.5133-2.8604-2.8606zm0.60408 2.5842c0.061946 0.08598 0.11856 0.17272 0.19087 0.25652 0.77518 0.89594 2.0333 1.5097 3.2187 1.1731 0.33649-1.1855-0.27674-2.4438-1.1728-3.2185-0.08379-0.072794-0.17049-0.12937-0.25636-0.19109 0.03931 0.00567 0.07952 0.013984 0.11887 0.019654 0.39968 0.058809 1.7677-0.013984 2.0993 0.16316 1.7111 0.9114 0.91873 3.3427 1.0427 4.8949 0.0049 0.06021 0.01096 0.11981 0.01663 0.17938-0.06006-0.0042-0.11943-0.01058-0.17979-0.01663-1.5521-0.12416-3.9836 0.66811-4.8952-1.043-0.17654-0.33146-0.10394-1.6993-0.16309-2.0991-0.0060472-0.039685-0.013606-0.07937-0.019654-0.11906zm3.4969-2.6342c-1.6566-0.047811-3.4022-0.32632-5.0079-0.85701 0.53117 1.606 0.80965 3.3515 0.85701 5.0083 0.023811 0.82613-0.17049 1.6964 0.51046 2.324 0.58945 0.54244 1.4844 0.45056 2.2119 0.44175 1.528-0.0189 3.029 0.2293 4.5328 0.33812-0.10847-1.5038-0.35743-3.0046-0.33815-4.5328 0.0091-0.72764 0.10106-1.6229-0.44186-2.2123-0.62702-0.68062-1.4975-0.48658-2.3241-0.51009" />
    <path
        d="m8.7598 8.7337c-0.015874-0.00869-0.032882-0.015496-0.049398-0.023433 0.00831 0.016252 0.015118 0.032882 0.023433 0.049247-0.00149-0.00945-0.00271-0.019654-0.00375-0.02948 0.00983 5.519e-4 0.019653 0.00229 0.02948 0.00378" />
</svg>