<?xml version="1.0" encoding="UTF-8"?>
<!-- Created with Inkscape (http://www.inkscape.org/) -->
<svg version="1.1" viewBox="0 0 120 120" xmlns="http://www.w3.org/2000/svg">
    <path
        d="m44.81 43.919c0.50278 0.49734 1.0593 1.222 1.3115 2.1575-0.02192-0.0076-0.04512-0.01512-0.06694-0.02267 0.0072 0.02267 0.01474 0.04573 0.02079 0.06765-0.93478-0.25285-1.6602-0.8087-2.1575-1.3115-0.776-0.78455-1.2484-1.6633-1.4858-2.2984 0.03814 0.0076 0.07317 0.02267 0.11051 0.03024-0.01021-0.03779-0.02192-0.07143-0.03099-0.1096 0.6351 0.2366 1.5146 0.70982 2.2984 1.4858zm-4.1336-3.8403c-0.12608 0.07483-0.23739 0.16403-0.33312 0.26456-0.10118 0.09562-0.18992 0.20787-0.26464 0.33297-0.83126 1.3932 0.56118 3.7694 0.84838 4.2311 1.5932 2.5615 4.1026 3.9662 6.7131 3.7585 0.27707-0.02268 0.52149-0.13871 0.71372-0.31218 0.1728-0.19162 0.2903-0.43664 0.31211-0.71292 0.2078-2.6105-1.1971-5.1204-3.7585-6.7139-0.46231-0.28724-2.8378-1.6789-4.2311-0.84838" />
    <path
        d="m47.618 35.281c0.69425 0.13228 1.5605 0.42338 2.2922 1.0585-1.2827 0.40316-3.276 0.60865-5.0286-1.0087 0.65926-0.15723 1.6524-0.25587 2.7366-0.04989zm0.51291 3.7554c1.7583 0 3.3515-0.58998 4.3347-1.1854 0.56038-0.3394 0.7503-1.0617 0.42886-1.633-1.2842-2.2821-3.8486-3.5834-6.8647-3.4729-0.54406 0.0189-3.2923 0.19049-3.9851 1.6563-0.24907 0.52848-0.18523 1.1216 0.17045 1.5862 1.7637 2.307 3.9439 3.0495 5.916 3.0487" />
    <path
        d="m45.611 29.07c0.5783-0.35414 1.4921-0.75423 2.5856-0.89434 0.69894-0.08957 1.6119-0.08088 2.5023 0.29404-1.0912 0.77052-2.9273 1.5862-5.0879 0.60011zm7.8931-1.6376c-1.9287-1.773-4.772-2.212-7.6043-1.1753-0.51057 0.18671-3.0705 1.2009-3.2752 2.809-0.07317 0.57985 0.17121 1.1239 0.65378 1.4555h-5.82e-4c1.5037 1.0352 2.9717 1.4321 4.3203 1.4321 2.7109 0 4.9402-1.6018 6.0041-2.8362 0.42731-0.49579 0.38373-1.2414-0.09796-1.6851" />
    <path
        d="m66.039 16.229c0.65302-0.18368 1.6415-0.31974 2.7327-0.15572 0.69894 0.10432 1.5761 0.36208 2.3311 0.96827-1.2664 0.45218-3.2503 0.73549-5.0638-0.81259zm-5.0842 7.8424c-1.3317-0.18898-3.2184-0.86316-4.1026-3.0775 0.66315 0.14173 1.601 0.48102 2.4906 1.134 0.56972 0.41873 1.2258 1.0554 1.6119 1.9435zm6.1299-10.471c-0.04679 0.0022-0.11452 0.0076-0.19064 0.0189 1.4158-2.8533 1.5006-6.0952-0.88417-8.4808-1.9575-1.9575-4.4794-1.4819-5.9595-0.0022072-0.86471 0.86471-1.3465 2.0049-1.3559 3.2114-0.0087 0.93943 0.27477 2.3513 1.6656 3.7414 0.47323 0.47402 1.2422 0.47402 1.7154 0 0.47398-0.47319 0.47398-1.2414 0-1.7154-0.63046-0.63046-0.96044-1.324-0.955-2.0058 0.0045-0.55729 0.23973-1.1099 0.64523-1.5154 0.58299-0.58295 1.5948-0.93164 2.528 0.00221 2.2416 2.2408 0.96124 5.8661-1.4617 8.2884-1.7333 1.7341-4.007 2.8152-6.2362 2.9662-2.6432 0.18142-5.2304-0.91611-7.483-3.1686-0.47323-0.47402-1.2422-0.47402-1.7154 0-0.47399 0.47399-0.47399 1.2422 0 1.7162 2.04 2.04 4.34 3.3017 6.7573 3.7313 0.0022 0.01512 0.0045 0.03402 0.0068 0.05064 1.0289 4.8948 5.1752 6.1326 7.7411 6.1326 0.25217 0 0.48876-0.01134 0.70593-0.03402 0.65143-0.06462 1.134-0.6351 1.0904-1.2882-0.14936-2.2307-1.4531-4.2137-3.5507-5.495 1.3247-0.51836 2.5793-1.2788 3.7048-2.2571 1.6555 1.7264 3.5422 2.3155 5.2739 2.3155 1.8781 0 3.5725-0.6896 4.5868-1.359 0.5464-0.36132 0.70828-1.0905 0.36502-1.6485-1.3722-2.2307-3.9874-3.4317-6.9947-3.2036" />
    <path
        d="m3.8913e-4 0.0010006v120h2.4268v-28.286l3.7391-8.254c0.072377-0.15949 0.10821-0.32995 0.10821-0.50044 0-0.19049-0.045127-0.38063-0.13387-0.55418-0.1697-0.32995-0.54716-0.41329-0.84294-0.6359-1.573-1.1807-2.8705-2.3256-2.8705-4.4046v-66.946l7.9452-0.04686 0.04671-7.946h66.946c2.0797 0 3.2246 1.2975 4.4054 2.8704 0.22186 0.29654 0.30591 0.67403 0.6351 0.84294 0.17363 0.089573 0.36427 0.13391 0.55494 0.13391 0.17053 0 0.34091-0.035905 0.50048-0.10809l8.254-3.7391h28.034v-2.4261h-119.75" />
    <path
        d="m29.664 33.757c-1.9411-1.9458-2.4167-4.9579-2.5264-6.619 1.6617 0.10885 4.673 0.5845 6.619 2.5256 1.9544 1.9497 2.4323 4.9783 2.5428 6.6353-1.6571-0.11036-4.6862-0.58843-6.6353-2.542zm7.9452 4.9923 1.0811-0.05858 0.05915-1.0819c0.01323-0.24756 0.28641-6.1061-3.2791-9.663-3.5655-3.557-9.4223-3.2706-9.6706-3.2566l-1.0515 0.05896-0.05915 1.0516c-0.01323 0.24756-0.30043 6.105 3.2565 9.6706 3.5577 3.5647 9.4162 3.2916 9.6638 3.2783" />
    <path
        d="m49.644 10.661c0.68027 0.18671 1.5193 0.54481 2.1972 1.2329-1.3037 0.29178-3.3118 0.34015-4.9277-1.401 0.67014-0.10507 1.6664-0.12397 2.7304 0.16819zm-39.148 36.251c1.7403 1.6158 1.6929 3.6247 1.401 4.9277-0.68805-0.67793-1.0468-1.5162-1.2329-2.1964-0.29185-1.0648-0.27398-2.061-0.16811-2.7312zm-2.4868 1.3481c0.13232 3.0137 1.6306 5.4693 4.0078 6.5684 0.59466 0.27477 1.2998 0.02645 1.594-0.55725 0.45222-0.90133 0.8624-2.2696 0.8624-3.7742 5.83e-4 -1.2134-0.26774-2.5163-0.99468-3.7359 0.96203-0.15572 1.8369-0.6647 2.507-1.4843 0.73708-0.90209 1.1558-2.089 1.1885-3.2806 0.0053-0.0189 0.01474-0.03817 0.0189-0.05934 0.28875-1.4204 1.1138-2.6432 2.3225-3.4433 1.2088-0.80087 2.6572-1.0819 4.0777-0.79309 1.4788 0.30047 2.4354 1.7481 2.1365 3.2269-0.0607 0.29745-0.2335 0.55339-0.48646 0.72075-0.22337 0.14778-0.48566 0.21165-0.74955 0.18293 0.36347-0.14853 0.64833-0.46934 0.73239-0.88262 0.13466-0.65691-0.2903-1.2975-0.94721-1.4306-0.53472-0.1096-1.0803-0.0022-1.5364 0.29896-0.45452 0.30122-0.76588 0.76198-0.87404 1.2975-0.14011 0.68182-0.0042 1.3792 0.38059 1.9606 0.38528 0.58215 0.97367 0.97832 1.6571 1.1176 0.93244 0.19011 1.8828 0.0038 2.6767-0.52066 0.79388-0.52539 1.3348-1.3278 1.5248-2.2603 0.07083-0.3462 0.10507-0.69425 0.10507-1.0398 0-1.0033-0.29264-1.9847-0.85926-2.8401-0.76119-1.1496-1.9248-1.9341-3.2767-2.2089-2.0556-0.41873-4.1518-0.01134-5.9005 1.1473-0.93399 0.61798-1.7038 1.4158-2.2875 2.3334-0.79312-0.66625-1.8703-0.9807-2.9623-0.75964-0.67713 0.13682-1.2593 0.53003-1.6407 1.1052-0.38218 0.5752-0.5176 1.2648-0.37904 1.9411 0.13311 0.65691 0.77287 1.0819 1.4298 0.94876 0.65691-0.13304 1.0826-0.77362 0.94801-1.4306-0.01738-0.08466 0.03814-0.16894 0.12374-0.18595 0.59073-0.11981 1.1683 0.26305 1.2874 0.85307 0.1728 0.84918-0.05839 1.8174-0.58843 2.4649-0.24283 0.29669-0.65612 0.64992-1.2515 0.64992-1.8766 0-3.0869-1.7559-3.7725-3.2285-1.0141-2.1793-1.5722-5.1726-1.5722-8.4279 0-6.0491 1.924-12.476 6.0812-14.479-1.5971 2.939-1.2695 6.2898 1.064 8.929 1.91 2.1606 5.2217 2.3646 7.3825 0.45456 0.72071-0.63749 1.1504-1.517 1.2095-2.4775 0.0045-0.07635 0.0072-0.15194 0.0072-0.22639 0-0.87952-0.316-1.717-0.90364-2.3809-0.96124-1.0889-2.63-1.1916-3.7181-0.22942-0.41249 0.36434-0.65767 0.86705-0.69195 1.4158-0.0344 0.54326 0.14789 1.078 0.51291 1.4905 0.44364 0.50203 1.2103 0.54874 1.7123 0.10507 0.33702-0.2982 0.46854-0.74252 0.38528-1.1535 0.19536 0.23206 0.29189 0.52225 0.27477 0.82967-0.01928 0.3137-0.16033 0.60086-0.39541 0.8087-1.1581 1.0235-2.9335 0.91452-3.9571-0.24378-2.1233-2.4019-1.917-5.4179 0.53627-7.8712 0.12453-0.12434 0.21403-0.27023 0.27318-0.42496 0.15488-0.05896 0.30043-0.14853 0.42496-0.27326 2.4525-2.4533 5.4693-2.6595 7.8704-0.53627 1.1581 1.0235 1.2679 2.7989 0.24438 3.9571-0.20859 0.23584-0.49579 0.37606-0.8087 0.39541-0.30742 0.0189-0.59852-0.07862-0.83046-0.27477 0.41174 0.08391 0.85537-0.04762 1.1543-0.38524 0.44364-0.50127 0.39616-1.2687-0.10586-1.7123-0.41174-0.36434-0.94721-0.54719-1.4897-0.51216-0.54871 0.03402-1.0515 0.27855-1.4166 0.69119-0.96124 1.0888-0.85851 2.7568 0.2296 3.7188 0.6639 0.58684 1.5022 0.90364 2.3809 0.90364 0.07551 0 0.15099-0.0022 0.2265-0.0076 0.96044-0.05896 1.8408-0.4888 2.4782-1.2103 1.91-2.1607 1.7061-5.4723-0.45532-7.3825-2.6393-2.3334-5.9893-2.6611-8.9283-1.064 2.0026-4.1563 8.4301-6.0812 14.478-6.0812 3.255 0 6.2482 0.55887 8.4286 1.5722 1.4726 0.68571 3.2285 1.8968 3.2285 3.7725 0 0.59546-0.35338 1.0095-0.64992 1.2516-0.64758 0.53003-1.6166 0.76123-2.4649 0.58922-0.58998-0.11981-0.97292-0.69739-0.85382-1.2882 0.01776-0.08466 0.10197-0.14022 0.18682-0.12283 0.65691 0.13455 1.2967-0.29178 1.4298-0.94805 0.13311-0.65687-0.2911-1.2974-0.94801-1.4305-0.67713-0.13757-1.366-0.0022-1.9419 0.37904-0.5752 0.38139-0.96747 0.96434-1.1044 1.6407-0.22182 1.092 0.09264 2.1692 0.75964 2.9623-0.91842 0.58374-1.7154 1.3535-2.3342 2.2883-1.1581 1.7489-1.5652 3.8441-1.1473 5.9005 0.27477 1.3512 1.0593 2.5148 2.2097 3.276 0.85537 0.56662 1.8369 0.86006 2.8401 0.86006 0.3448 0 0.6927-0.03402 1.0391-0.10507 0.93244-0.19011 1.7357-0.73163 2.261-1.5247 0.52539-0.79388 0.70982-1.745 0.51991-2.6767-0.13856-0.68416-0.53548-1.2718-1.1169-1.6571-0.5814-0.38524-1.2796-0.52149-1.9614-0.38139-0.53472 0.10885-0.99627 0.41952-1.2975 0.87484-0.30122 0.45535-0.40784 1.001-0.29888 1.5357 0.13387 0.65687 0.77442 1.0819 1.4306 0.94718 0.41329-0.08315 0.73473-0.36812 0.88262-0.7316 0.02872 0.26305-0.03439 0.52614-0.18213 0.74951-0.16736 0.25285-0.42342 0.42576-0.72071 0.48566-1.4788 0.29896-2.9265-0.65688-3.2277-2.1365-0.28875-1.4204-0.0072-2.8682 0.79312-4.0777 0.80012-1.2088 2.0236-2.0338 3.4441-2.3225 0.02041-0.0038 0.03814-0.01512 0.05839-0.0189 1.1924-0.03402 2.3793-0.45222 3.2814-1.1893 0.81879-0.67014 1.3286-1.545 1.4843-2.507 1.2196 0.72698 2.5218 0.99552 3.7352 0.99552 1.5053 0 2.8736-0.41098 3.7749-0.86316 0.58529-0.29404 0.83126-0.99941 0.55649-1.594-1.099-2.377-3.5538-3.8754-6.5676-4.0077-0.43196-0.018898-2.2502-0.049889-3.3873 0.639-2.6222-2.4268-7.5015-3.5647-12.14-3.5647-8.0231 0-16.622 3.1989-17.467 10.185-6.9864 0.84528-10.185 9.4442-10.185 17.468 0 4.6382 1.1379 9.5167 3.5647 12.14-0.68881 1.1371-0.65771 2.9545-0.639 3.3865" />
    <path
        d="m36.34 49.909c-0.6351-0.73084-0.9262-1.5971-1.0585-2.2922-0.20625-1.0834-0.10821-2.0766 0.04982-2.7358 1.6166 1.752 1.4119 3.7453 1.0087 5.0278zm-0.35179-7.6954c-0.46544-0.35565-1.0585-0.41952-1.5862-0.1697-1.4664 0.69191-1.6376 3.4402-1.6571 3.9843-0.10976 3.016 1.1908 5.5808 3.4737 6.8647 0.57051 0.32126 1.2936 0.13153 1.6329-0.42806 0.59542-0.98384 1.1854-2.5763 1.1854-4.3354 0-1.9715-0.74176-4.1525-3.0487-5.916" />
    <path
        d="m28.176 48.201c0.13931-1.0943 0.54016-2.0073 0.8943-2.5856 0.98614 2.1607 0.17046 3.996-0.60011 5.0872-0.37515-0.89041-0.38449-1.8034-0.2942-2.5016zm-1.9194-2.2968c-1.036 2.8316-0.59697 5.6749 1.1761 7.6036 0.44288 0.48177 1.1893 0.52539 1.6851 0.09826 1.2337-1.0632 2.8354-3.2931 2.8354-6.0041 0-1.3489-0.39616-2.8168-1.4313-4.3196-0.33233-0.48256-0.87639-0.72698-1.4555-0.65302-1.6088 0.20372-2.623 2.7638-2.8097 3.2752" />
    <path
        d="m16.228 66.04c1.5481 1.8135 1.2656 3.7976 0.81334 5.0638-0.6063-0.75499-0.86395-1.6321-0.96902-2.3311-0.16422-1.0913-0.02721-2.0797 0.15568-2.7327zm7.8432-5.0842c-0.88886-0.38604-1.5248-1.0422-1.9435-1.6119-0.65302-0.88886-0.99238-1.8275-1.1348-2.4906 2.2143 0.88417 2.8884 2.7716 3.0783 4.1026zm-10.454 5.9402c-0.0072 0.07559-0.01323 0.144-0.01738 0.19011-0.22726 3.0082 0.97292 5.6227 3.2044 6.9947 0.55808 0.34318 1.2874 0.18217 1.6485-0.3651 0.66935-1.0142 1.359-2.7086 1.359-4.5868 0-1.731-0.58918-3.6177-2.3163-5.2731 0.97915-1.1255 1.7395-2.3801 2.2579-3.7056 1.2811 2.0976 3.2643 3.4013 5.4942 3.5508 0.65381 0.04422 1.2243-0.43899 1.2889-1.0905 0.02079-0.21694 0.03326-0.45377 0.03326-0.70593 0-2.5662-1.2376-6.7124-6.1333-7.7411v5.66e-4c-0.01738-0.0038-0.03326-0.0038-0.0506-0.0076-0.42965-2.4175-1.6905-4.7168-3.7313-6.7573-0.47323-0.47402-1.2414-0.47402-1.7154 0-0.47402 0.47323-0.47402 1.2422 0 1.7154 2.2517 2.2525 3.3499 4.8404 3.1686 7.483-0.15099 2.2299-1.2329 4.5025-2.9662 6.2369-2.423 2.4222-6.0476 3.7025-8.2892 1.4617-0.93323-0.93399-0.58529-1.9458-0.00242-2.528 0.4055-0.4055 0.95814-0.64058 1.5162-0.64523 0.68182-0.0076 1.3753 0.32466 2.0057 0.95421 0.47323 0.47402 1.2414 0.47402 1.7154 0 0.47399-0.47323 0.47399-1.2422 0-1.7154-1.3909-1.3908-2.802-1.6734-3.7414-1.6656-1.2064 0.01134-2.3474 0.49114-3.2114 1.3559-1.4796 1.4804-1.9552 4.0029 0.00242 5.9595 2.3848 2.3856 5.6273 2.3 8.48 0.88497" />
</svg>